<svg width="17" height="37" viewBox="0 0 17 37" fill="none" xmlns="http://www.w3.org/2000/svg">
<path d="M13.4435 19.6612C12.7694 20.0506 12.0952 20.429 11.421 20.8295C10.6055 21.3191 9.82259 21.8532 8.98532 22.2872C8.55037 22.5208 8.0393 22.6877 7.56086 22.7434C6.56048 22.8546 5.84282 22.2315 5.82107 21.219C5.8102 20.5625 5.90803 19.8837 6.11463 19.2606C6.52783 18.0033 7.02805 16.7682 7.50649 15.5331C7.75658 14.8655 8.01755 14.1867 8.26765 13.5414C7.80008 13.1742 7.50646 13.4746 7.20199 13.6304C6.02764 14.2201 4.87506 14.8321 3.70071 15.3885C3.24401 15.5999 2.74379 15.7556 2.25448 15.8558C0.862646 16.1228 -0.213836 15.0658 0.0362582 13.6526C0.166742 12.9294 0.438573 12.2284 0.732162 11.5608C1.60206 9.61356 2.53721 7.6886 3.41798 5.74138C4.04865 4.32826 4.62497 2.89288 5.22302 1.46863C5.34263 1.20158 5.42959 0.912286 5.57094 0.656366C5.83191 0.16678 6.343 -0.0780214 6.84318 0.0221212C7.3325 0.122264 7.72395 0.578474 7.65871 1.1682C7.58259 1.82469 7.46297 2.49232 7.21288 3.09317C6.27774 5.34082 5.28823 7.5662 4.32047 9.79159C3.97252 10.5816 3.61373 11.3716 3.27664 12.1171C3.74421 12.6067 4.05954 12.2952 4.35313 12.1505C5.58185 11.5274 6.79969 10.8709 8.03929 10.2701C8.62647 9.99188 9.23537 9.73595 9.86604 9.5913C11.0513 9.32425 12.0625 10.2701 11.8994 11.494C11.8125 12.1394 11.5624 12.7736 11.3123 13.3856C10.7686 14.7542 10.1705 16.1006 9.60509 17.4692C9.4746 17.7919 9.42023 18.1368 9.33324 18.4484C9.94217 18.7933 10.2358 18.3482 10.5837 18.1813C11.7581 17.6138 12.8781 16.9017 14.0851 16.4344C15.7596 15.7779 17.0209 16.7571 16.847 18.5819C16.76 19.4498 16.5099 20.34 16.1293 21.1188C15.4008 22.6432 14.52 24.1009 13.7045 25.5807C12.8237 27.1942 11.9429 28.7964 11.0948 30.332C11.4536 30.9328 11.7798 30.688 12.0951 30.5434C12.7584 30.2429 13.3891 29.8424 14.0742 29.6532C14.6831 29.4863 15.3464 29.4641 15.9771 29.5197C16.499 29.5753 16.9774 30.2986 16.9992 30.8215C17.0209 31.3556 16.6077 32.0566 16.0205 32.1345C13.0847 32.5574 10.9317 34.4489 8.66994 36.1514C8.32198 36.4184 7.97403 36.7077 7.58257 36.8746C6.71268 37.2418 5.76667 36.7745 5.51658 35.8398C5.38609 35.3502 5.34263 34.8161 5.33176 34.3043C5.27739 32.9023 5.29912 31.4892 5.21213 30.0872C5.16864 29.3639 5.01643 28.6407 4.85332 27.9285C4.67935 27.183 4.80982 26.6823 5.33176 26.4375C5.88631 26.1705 6.5931 26.2595 6.90844 26.7268C7.19115 27.1385 7.38686 27.6281 7.53909 28.1177C7.64783 28.4626 7.62609 28.8521 7.65871 29.2193C7.69133 29.5086 7.72395 29.7979 7.76745 30.1762C7.99579 30.0649 8.25678 30.0315 8.3329 29.8869C9.84434 27.1941 11.3449 24.4903 12.8455 21.7865C13.1608 21.219 13.4326 20.6181 13.7154 20.0395C13.6501 19.8949 13.5523 19.7836 13.4435 19.6612Z" fill="#181818"/>
</svg>
