<svg width="61" height="34" viewBox="0 0 61 34" fill="none" xmlns="http://www.w3.org/2000/svg">
<path d="M2.87314 28.0704C3.40092 28.8031 4.22346 28.0012 4.98166 28.5628C3.6784 29.2034 2.4757 29.738 1.08197 29.6017C0.350312 29.5278 -0.0942901 28.8404 0.248776 28.2044C0.542761 27.6406 0.901822 27.077 1.37815 26.6762C2.29054 25.9038 3.2749 25.1813 4.29551 24.5491C8.21235 22.1262 12.3125 20.1283 16.8495 19.1224C18.7481 18.7022 20.6518 18.4243 22.586 18.5145C25.7298 18.6705 28.3903 19.7941 30.1553 22.5752C30.2366 22.7131 30.3291 22.8465 30.4328 22.9755C30.4824 23.0343 30.5611 23.0683 30.6781 23.1656C30.8437 23.0599 31.088 22.9882 31.204 22.8236C34.7307 17.5144 39.3474 13.3027 44.3762 9.5028C48.3559 6.49079 52.4123 3.60539 56.8794 1.35535C57.6475 0.968737 58.5282 0.733636 59.3733 0.539105C59.9583 0.409466 60.5118 0.817094 60.7247 1.34816C60.9331 1.86792 60.7559 2.4636 60.2076 2.81459C59.4601 3.28479 58.6742 3.69169 57.9018 4.13249C51.4659 7.82762 45.4563 12.0995 40.0128 17.1673C37.2273 19.753 34.8288 22.6557 32.8874 25.9522C32.1362 27.224 31.5735 28.5119 31.631 30.0496C31.6561 30.7609 31.457 31.4965 31.2667 32.1892C31.0764 32.8819 30.5033 33.2035 29.8148 33.2697C29.2138 33.327 28.5124 32.9394 28.2989 32.2774C28.097 31.6763 27.9913 31.0236 27.9866 30.3959C27.9868 29.845 28.1506 29.2809 28.2966 28.7371C29.2716 24.9755 27.3104 21.9321 23.4783 21.2913C21.4556 20.9481 19.4576 21.1852 17.4827 21.6097C12.309 22.7135 7.60397 24.954 3.14788 27.7504C3.02468 27.7998 2.95796 27.9577 2.87314 28.0704Z" fill="#181818"/>
</svg>
