<svg width="26" height="31" viewBox="0 0 26 31" fill="none" xmlns="http://www.w3.org/2000/svg">
<path d="M15.9751 3.03917C15.8461 6.9473 17.3131 9.8458 18.8607 12.6955C19.4249 13.7214 20.376 14.1773 21.5528 14.1122C22.4072 14.0634 23.2616 14.0145 24.116 14.0634C25.051 14.1285 25.7925 14.7961 25.9699 15.6103C26.1311 16.3268 25.6313 17.3527 24.8092 17.7435C24.245 18.0203 23.6001 18.346 22.9876 18.346C20.8758 18.3623 19.6828 19.6813 18.635 21.2445C17.3937 23.052 16.7167 25.1038 16.1202 27.1881C15.8784 28.0186 15.6688 28.8491 15.3786 29.6633C15.1046 30.4287 14.5726 30.966 13.7182 30.9986C12.88 31.0312 12.2996 30.4938 11.9127 29.8262C11.6548 29.3702 11.4936 28.8328 11.413 28.3118C11.2195 27.1393 11.139 25.9506 10.9616 24.7619C10.4941 21.6842 7.67301 19.0625 4.65846 18.8508C3.69123 18.7857 2.72401 18.7857 1.77289 18.6554C0.837897 18.5251 0.128568 17.7923 0.015724 17.0107C-0.113241 16.1314 0.563816 15.1381 1.57941 14.8287C2.61113 14.5356 3.67511 14.389 4.70683 14.0959C8.8337 12.956 11.01 10.3506 11.4291 6.01909C11.542 4.94436 11.5097 3.85335 11.5903 2.77861C11.6548 1.75273 12.1062 0.922267 12.9767 0.352331C14.2019 -0.445579 15.7172 0.173185 15.9267 1.58988C16.0557 2.24124 15.9751 2.89262 15.9751 3.03917Z" fill="#181818"/>
</svg>
