<svg width="39" height="22" viewBox="0 0 39 22" fill="none" xmlns="http://www.w3.org/2000/svg">
<path d="M24.1107 17.5074C24.3417 17.7563 24.4948 17.9119 24.6325 18.0692C24.7637 18.0468 24.9451 18.0658 25.0248 17.9864C25.8815 17.1538 26.7382 16.3213 27.5447 15.4472C29.4337 13.4331 31.3059 11.4052 33.1459 9.36519C33.6847 8.76406 34.1469 8.08515 34.6104 7.42178C35.2366 6.54421 36.1013 6.00886 37.0643 5.62735C37.5875 5.4202 38.3205 5.98209 38.2565 6.55402C38.2124 6.98255 38.0849 7.44386 37.8544 7.7911C37.4077 8.46829 36.8881 9.11436 36.3422 9.72412C33.9408 12.3756 31.5226 15.0133 29.0961 17.6441C28.4919 18.3074 27.9174 18.9517 27.5476 19.8087C27.3379 20.3183 26.8559 20.7484 26.4095 21.1353C25.4598 21.9782 24.4519 22.0901 23.4023 21.383C22.6181 20.866 21.7638 20.4509 21.0224 19.8821C15.8649 15.9127 10.6445 12.0365 5.77959 7.71289C4.37406 6.46474 2.97565 5.20796 1.62843 3.90626C1.1714 3.47062 0.80588 2.90716 0.495246 2.34544C0.230185 1.86496 0.433722 1.2775 0.845618 0.949343C1.23488 0.631547 1.81356 0.630061 2.25479 0.965462C2.4796 1.13662 2.68423 1.34925 2.90314 1.5446C5.70707 4.04954 8.45982 6.59939 11.3208 9.03524C14.5682 11.8047 17.8999 14.4551 21.2043 17.1555C21.8071 17.6534 22.461 18.1063 23.1522 18.6337C23.49 18.2588 23.7468 17.9479 24.1107 17.5074Z" fill="#181818"/>
</svg>
