<svg width="24" height="20" viewBox="0 0 24 20" fill="none" xmlns="http://www.w3.org/2000/svg">
<path d="M12.0674 2.99598C14.3809 3.71924 16.7499 4.04382 19.5062 3.90389C19.2448 4.34985 19.0438 4.69828 18.8682 5.00246C18.7326 5.23749 18.6122 5.44613 18.491 5.65287C17.2244 7.7007 16.065 9.80602 15.2366 12.0795C14.9547 12.8594 14.8125 13.7173 14.7048 14.5482C14.6376 15.104 15.0233 15.5517 15.485 15.6734C15.923 15.794 16.5183 15.5875 16.7532 15.1207C17.0397 14.5608 17.2613 13.9596 17.4733 13.3628C18.437 10.6084 19.7415 8.01781 21.3999 5.62033C21.8137 5.02837 22.2883 4.4897 22.7636 3.95016C22.9421 3.7475 23.1207 3.54472 23.2963 3.33894C23.6479 2.92536 23.8147 2.48885 23.5847 1.97188C23.3546 1.45493 22.8711 1.28449 22.3619 1.26569C21.9479 1.2513 21.5123 1.29326 21.0951 1.35036C18.1739 1.77402 15.3143 1.55092 12.4807 0.731961C12.0102 0.590774 11.5182 0.505907 11.0274 0.502305C10.5842 0.500895 10.215 0.770395 10.0947 1.23292C9.97012 1.68571 10.1374 2.11377 10.5183 2.34156C10.9922 2.62144 11.5266 2.82766 12.0674 2.99598Z" fill="#181818"/>
<path d="M9.79551 9.08527C9.97801 9.08927 10.1802 9.09369 10.4145 9.09551C10.314 9.31828 10.2278 9.52293 10.148 9.71218C9.97652 10.1191 9.83504 10.4548 9.64664 10.7461C9.09438 11.622 8.53413 12.4901 7.97414 13.3577C7.26721 14.4531 6.5607 15.5478 5.87137 16.6566C5.46174 17.3064 5.15385 18.0277 4.88917 18.7415C4.8192 18.9245 5.00692 19.3201 5.192 19.4481C5.37704 19.5761 5.8052 19.5959 5.96819 19.4649C6.57055 18.9865 7.16956 18.4745 7.63444 17.8702C9.72032 15.1773 11.4448 12.2479 12.9322 9.17861C13.8435 7.30063 13.3591 6.6047 11.1972 6.66705C10.0468 6.70218 8.89396 6.76263 7.74043 6.82312C6.7738 6.87382 5.80678 6.92452 4.84037 6.96037C4.29618 6.98274 3.74897 6.97428 3.20061 6.9658C2.75778 6.95895 2.31422 6.95209 1.87088 6.96145C1.28392 6.97729 0.871697 7.3594 0.827112 7.835C0.777183 8.32466 1.06885 8.84928 1.59766 8.9645C2.28657 9.12534 2.99593 9.25369 3.69208 9.24769C4.82628 9.23606 5.95605 9.19297 7.08615 9.14987C7.72348 9.12557 8.36097 9.10125 8.99943 9.08256C9.24873 9.07332 9.49556 9.07873 9.79551 9.08527Z" fill="#181818"/>
</svg>
