<svg width="7" height="13" viewBox="0 0 7 13" fill="none" xmlns="http://www.w3.org/2000/svg">
<path d="M0.469402 5.9694L5.4694 0.969402C5.6103 0.828506 5.80139 0.749352 6.00065 0.749352C6.19991 0.749352 6.39101 0.828506 6.5319 0.969402C6.6728 1.1103 6.75195 1.30139 6.75195 1.50065C6.75195 1.69991 6.6728 1.89101 6.5319 2.0319L2.06253 6.50003L6.53065 10.9694C6.60042 11.0392 6.65576 11.122 6.69351 11.2131C6.73127 11.3043 6.7507 11.402 6.7507 11.5007C6.7507 11.5993 6.73127 11.697 6.69351 11.7882C6.65576 11.8793 6.60042 11.9621 6.53065 12.0319C6.46089 12.1017 6.37806 12.157 6.28691 12.1948C6.19576 12.2325 6.09806 12.252 5.9994 12.252C5.90074 12.252 5.80304 12.2325 5.71189 12.1948C5.62074 12.157 5.53792 12.1017 5.46815 12.0319L0.468153 7.0319C0.398314 6.96214 0.342934 6.87928 0.305187 6.78807C0.26744 6.69687 0.248069 6.5991 0.248186 6.50039C0.248302 6.40168 0.267902 6.30397 0.305864 6.21285C0.343825 6.12173 0.3994 6.039 0.469402 5.9694Z" fill="black"/>
</svg>
