<svg width="101" height="98" viewBox="0 0 101 98" fill="none" xmlns="http://www.w3.org/2000/svg">
<path d="M22.998 55.5352C22.998 52.2214 25.6843 49.5352 28.998 49.5352H85.0879C86.1388 49.5352 86.7206 51.3449 86.0243 52.132C84.7501 53.5723 83.584 55.6141 83.584 58.2627C83.584 61.0274 84.8545 63.1672 86.1922 64.654C86.887 65.4263 86.3235 67.1528 85.2847 67.1528H28.998C25.6843 67.1528 22.998 64.4665 22.998 61.1528V55.5352Z" fill="black"/>
<path d="M56.1602 21.0345C56.1602 25.5837 52.7852 30.9189 46.0352 30.9189C39.2852 30.9189 35.9102 25.5837 35.9102 21.0345C35.9102 16.13 39.1063 15.0655 42.5708 15.169C43.9926 15.2114 46.0352 16.2939 46.0352 16.2939C46.0352 16.2939 48.0778 15.2114 49.4996 15.169C52.964 15.0655 56.1602 16.0922 56.1602 21.0345Z" fill="white" stroke="black" stroke-width="2" stroke-linecap="round" stroke-linejoin="round"/>
<path d="M49.0303 27.9672C50.085 27.5594 52.3884 25.9591 53.1647 22.8203" stroke="black" stroke-width="2" stroke-linecap="round" stroke-linejoin="round"/>
<path d="M46.297 15.9651C44.2166 15.9847 42.3139 14.5738 41.8115 10.5488C43.7936 11.3214 47.0217 10.9594 46.297 15.9651Z" fill="white" stroke="black" stroke-width="2" stroke-linecap="round" stroke-linejoin="round"/>
<path d="M46.3301 15.9008C47.2582 14.7406 48.6504 11.1547 47.448 8.53906" stroke="black" stroke-width="2" stroke-linecap="round" stroke-linejoin="round"/>
<path d="M40.4669 22.385C40.0338 21.5733 39.9115 20.2344 40.3537 19.205" stroke="black" stroke-width="2" stroke-linecap="round" stroke-linejoin="round"/>
<path d="M17.3789 36.5371C17.3789 33.9224 19.4986 31.8027 22.1133 31.8027H78.5536C78.5536 31.8027 74.183 34.6238 73.728 39.9551C73.273 45.2864 78.5536 48.0703 78.5536 48.0703H22.1133C19.4986 48.0703 17.3789 45.9507 17.3789 43.336V36.5371Z" fill="white"/>
<path fill-rule="evenodd" clip-rule="evenodd" d="M79.4126 33.1266C79.4119 33.1271 79.4112 33.1275 79.4105 33.128L79.3952 33.1384C79.3751 33.1522 79.3404 33.1763 79.2931 33.2107C79.1983 33.2796 79.0537 33.3892 78.8746 33.5386C78.5151 33.8386 78.0245 34.2925 77.521 34.8933C76.5106 36.0989 75.4924 37.8402 75.3004 40.0893C75.1236 42.1607 76.0449 43.7715 77.1274 44.9389C77.6667 45.5205 78.2233 45.9647 78.6455 46.2626C78.8551 46.4105 79.0276 46.5195 79.1426 46.5889C79.2 46.6235 79.2427 46.648 79.2681 46.6623C79.2808 46.6695 79.2892 46.674 79.2929 46.6761L79.2916 46.6754L79.2907 46.6749C79.292 46.6756 79.2933 46.6763 79.2946 46.677C79.9331 47.0165 80.2594 47.7469 80.0856 48.4494C79.9113 49.1537 79.2792 49.6485 78.5536 49.6485H22.1133C18.627 49.6485 15.8008 46.8223 15.8008 43.336V36.5371C15.8008 33.0508 18.627 30.2246 22.1133 30.2246H78.5536C79.2534 30.2246 79.8696 30.6854 80.0674 31.3566C80.2646 32.0259 79.9989 32.745 79.4145 33.1254C79.4139 33.1258 79.4132 33.1262 79.4126 33.1266ZM76.4446 46.4922C77.5433 47.5377 78.5536 48.0703 78.5536 48.0703H22.1133C19.4986 48.0703 17.3789 45.9507 17.3789 43.336V36.5371C17.3789 33.9224 19.4986 31.8027 22.1133 31.8027H78.5536C78.5536 31.8027 77.7254 32.3373 76.7525 33.3809C75.4904 34.7345 73.985 36.9446 73.728 39.9551C73.472 42.9544 75.0314 45.1475 76.4446 46.4922Z" fill="black"/>
<path d="M13.3291 73.3496C13.3291 70.7349 15.4488 68.6152 18.0635 68.6152H74.5038C74.5038 68.6152 70.5399 71.0936 69.8815 76.6455C69.2232 82.1975 74.5038 84.8829 74.5038 84.8829H18.0635C15.4488 84.8829 13.3291 82.7632 13.3291 80.1485V73.3496Z" fill="white"/>
<path fill-rule="evenodd" clip-rule="evenodd" d="M75.3444 69.9509C75.3442 69.951 75.3445 69.9508 75.3444 69.9509C75.3435 69.9515 75.3426 69.952 75.3418 69.9525C75.3417 69.9526 75.3418 69.9525 75.3418 69.9525M72.7419 70.1934C73.6919 69.1229 74.5038 68.6152 74.5038 68.6152H18.0635C15.4488 68.6152 13.3291 70.7349 13.3291 73.3496V80.1485C13.3291 82.7632 15.4488 84.8829 18.0635 84.8829H74.5038C74.5038 84.8829 73.4795 84.362 72.3894 83.3047C71.0044 81.9614 69.5131 79.7523 69.8815 76.6455C70.2419 73.6063 71.5929 71.4881 72.7419 70.1934ZM75.2203 83.4768C75.2219 83.4775 75.2234 83.4783 75.2249 83.4791C75.2255 83.4794 75.2257 83.4795 75.2249 83.4791C75.8718 83.8114 76.2081 84.543 76.0385 85.2506C75.8684 85.9604 75.2337 86.461 74.5038 86.461H18.0635C14.5772 86.461 11.751 83.6348 11.751 80.1485V73.3496C11.751 69.8633 14.5772 67.0371 18.0635 67.0371H74.5038C75.2078 67.0371 75.8267 67.5034 76.0208 68.1801C76.214 68.8537 75.9398 69.5737 75.3484 69.9483C75.3472 69.9491 75.3456 69.9501 75.3444 69.9509M75.224 83.4786C75.2208 83.4769 75.213 83.4728 75.2008 83.4661C75.1765 83.4529 75.135 83.4297 75.079 83.3968C74.9668 83.3307 74.7978 83.2259 74.5925 83.0826C74.179 82.7938 73.6357 82.3606 73.1149 81.7862C72.0801 80.6447 71.1891 79.0205 71.4487 76.8314C71.7356 74.4118 72.7375 72.6779 73.6616 71.5469C74.1253 70.9794 74.568 70.566 74.886 70.3003C75.0447 70.1677 75.171 70.073 75.2516 70.0152C75.2918 69.9864 75.3205 69.9669 75.3359 69.9566L75.3444 69.9509L75.3427 69.9519L75.3418 69.9525M75.224 83.4786L75.2231 83.4782L75.2214 83.4773" fill="black"/>
<path d="M27.7256 54.3027H64.5132" stroke="white" stroke-width="2" stroke-linecap="round" stroke-linejoin="round"/>
<path d="M27.7256 58.3438H47.8069" stroke="white" stroke-width="2" stroke-linecap="round" stroke-linejoin="round"/>
<path d="M60.7168 31.2617H67.2556V40.4267C67.2556 41.3176 66.1785 41.7637 65.5485 41.1338L64.6933 40.2786C64.3028 39.888 63.6696 39.888 63.2791 40.2786L62.4239 41.1338C61.7939 41.7637 60.7168 41.3176 60.7168 40.4267V31.2617Z" fill="black"/>
<path d="M16.9258 72.709H53.7134" stroke="black" stroke-width="2" stroke-linecap="round" stroke-linejoin="round"/>
<path d="M16.9258 76.75H37.0071" stroke="black" stroke-width="2" stroke-linecap="round" stroke-linejoin="round"/>
<path d="M21.6504 36.0215H52.5317" stroke="black" stroke-width="2" stroke-linecap="round" stroke-linejoin="round"/>
</svg>
