<svg width="11" height="18" viewBox="0 0 11 18" fill="none" xmlns="http://www.w3.org/2000/svg">
<path d="M10.2969 9.79687L2.79687 17.2969C2.58553 17.5082 2.29888 17.6269 2 17.6269C1.70111 17.6269 1.41447 17.5082 1.20312 17.2969C0.991779 17.0855 0.873047 16.7989 0.873047 16.5C0.873047 16.2011 0.991779 15.9145 1.20312 15.7031L7.90719 9.00094L1.205 2.29687C1.10035 2.19223 1.01734 2.06799 0.960706 1.93126C0.904071 1.79454 0.874922 1.64799 0.874922 1.5C0.874922 1.35201 0.904071 1.20546 0.960706 1.06873C1.01734 0.932004 1.10035 0.807771 1.205 0.703123C1.30965 0.598476 1.43388 0.515466 1.57061 0.458831C1.70734 0.402196 1.85388 0.373047 2.00187 0.373047C2.14987 0.373047 2.29641 0.402196 2.43314 0.458831C2.56987 0.515466 2.6941 0.598476 2.79875 0.703123L10.2987 8.20312C10.4035 8.30776 10.4866 8.43205 10.5432 8.56887C10.5998 8.70568 10.6289 8.85232 10.6287 9.00039C10.6285 9.14845 10.5991 9.29503 10.5422 9.43171C10.4852 9.56839 10.4019 9.69248 10.2969 9.79687Z" fill="#181818"/>
</svg>
