<svg width="154" height="45" viewBox="0 0 154 45" fill="none" xmlns="http://www.w3.org/2000/svg">
<path d="M55.4102 34.8244H58.2252C61.2744 34.8244 62.8122 36.8841 62.8122 38.8902C62.8122 40.9227 61.8219 43.0595 58.3814 43.0595C56.1919 43.0595 55.4102 42.3561 55.4102 40.3753V34.8244ZM53.2483 41.1303C53.2483 42.7736 52.8304 43.2683 50.6949 43.2683H50.0947V43.763H59.6322C63.8288 43.763 65.2622 40.8709 65.2622 38.8122C65.2622 36.7797 63.8288 35.1893 61.3799 34.4594V34.4068C63.1253 34.0944 64.35 32.7139 64.35 31.229C64.35 29.9771 63.8288 29.0899 62.7604 28.3361C61.8219 27.6576 59.8159 27.318 57.5217 27.318C57.0262 27.318 55.0464 27.3444 53.6121 27.3974C52.8569 27.4235 51.0588 27.5279 50.3288 27.5521V28.0479H51.2411C53.0645 28.0479 53.2483 28.8293 53.2483 30.3156V41.1303ZM55.4102 27.8918C56.0622 27.8656 57.1317 27.8138 57.7044 27.8138C60.9094 27.8138 62.0043 29.4813 62.0043 31.3059C62.0043 33.3395 60.7535 34.3286 58.2517 34.3286H55.4102V27.8918ZM72.4036 36.4666C71.8034 36.4666 71.4123 36.4919 70.7879 36.4151V27.8656C71.2561 27.8138 71.5958 27.8138 72.0904 27.8138C76.1067 27.8138 77.1994 29.6901 77.1994 32.1137C77.1994 35.2411 75.2988 36.4666 72.4036 36.4666ZM91.6611 28.0479V27.5521H85.3279V28.0479C86.7863 28.1259 87.2833 28.5162 87.2833 29.9242V41.027C87.2833 42.721 86.9599 43.1617 85.4697 43.2596C83.4811 43.1552 82.6369 42.3746 81.2114 40.9502L79.1536 38.8902C77.9304 37.6658 77.1487 36.9348 76.1838 36.1798C78.3204 35.5543 79.6483 33.9121 79.6483 31.9578C79.6483 29.2987 77.4861 27.318 72.6642 27.318C70.9691 27.318 70.4482 27.3444 69.3798 27.3974C68.3114 27.4488 66.7209 27.5521 66.0965 27.5521V28.0479H66.6692C68.1805 28.0479 68.6246 28.5162 68.6246 30.133V41.1053C68.6246 42.8519 68.0761 43.2683 66.5395 43.2683H66.0965V43.763H73.4732V43.2683H72.873C71.4123 43.2683 70.7879 42.8769 70.7879 41.3141V36.9083C71.2043 36.9348 71.5429 36.9624 72.1166 36.9624C72.8212 36.9624 73.2379 36.9348 73.8896 36.9083C74.5163 37.3262 75.4297 38.0812 76.575 39.229L78.2951 40.9502C80.5473 43.2044 81.5091 43.9169 85.7531 43.763H91.6611V43.2683C89.863 43.2683 89.4463 42.7472 89.4463 41.2097V30.1595C89.4463 28.414 90.0192 28.0479 91.6611 28.0479ZM93.433 39.8027C93.9818 42.1219 95.804 43.4771 97.8376 43.4771C99.5842 43.4771 101.434 42.4605 101.434 40.4018C101.434 36.6481 93.0681 35.5025 93.0681 30.942C93.0681 28.7779 95.0491 27.1621 97.7079 27.1621C99.8952 27.1621 100.339 27.8138 101.252 27.8138C101.461 27.8138 101.564 27.7612 101.721 27.5521H102.138L102.58 30.863H102.138C101.408 28.9866 99.7401 27.7885 97.942 27.7885C96.2219 27.7885 95.0226 28.7779 95.0226 30.2374C95.0226 33.9385 103.388 34.9299 103.388 39.7234C103.388 42.2778 101.121 44.1806 98.0718 44.1806C96.6384 44.1806 94.8149 43.4771 94.45 43.4771C94.2159 43.4771 94.0321 43.6068 93.9277 43.763H93.4859L92.9386 39.8027H93.433ZM113.423 41.3667C113.423 42.7736 113.891 43.2683 115.481 43.2683H116.447V43.763H108.236V43.2683H109.201C110.79 43.2683 111.259 42.7736 111.259 41.3667V28.492H106.725C105.683 28.492 105.213 29.0899 104.821 31.3841H104.352L104.769 27.1621H105.264C105.292 27.318 105.395 27.4235 105.552 27.4742C105.708 27.5279 105.891 27.5521 106.073 27.5521H118.608C118.974 27.5521 119.365 27.4742 119.417 27.1621H119.911L120.329 31.3841H119.859C119.47 29.0899 119 28.492 117.958 28.492H113.423V41.3667ZM139.411 35.2158C139.411 30.5244 135.189 27.1621 130.263 27.1621C124.713 27.1621 120.724 30.8365 120.724 36.0225C120.724 40.8973 125.026 44.1806 130.133 44.1806C135.189 44.1806 139.411 40.4797 139.411 35.2158ZM136.961 36.0751C136.961 39.7751 134.928 43.5278 130.68 43.5278C126.483 43.5278 123.175 40.0895 123.175 35.2158C123.175 32.0876 124.997 27.8138 129.585 27.8138C133.885 27.8138 136.961 31.229 136.961 36.0751ZM151.519 43.763H139.87V43.2683H140.729C141.928 43.2683 142.371 42.8769 142.371 41.5482V30.0022C142.371 28.6217 141.954 28.0479 140.313 28.0479H139.948V27.5521H147.636V28.0479H146.671C144.978 28.0479 144.534 28.2305 144.534 29.8463V41.8602C144.534 42.5637 144.821 42.8254 145.577 42.8254H149.407C150.944 42.8254 151.413 42.2263 153.057 39.9586H153.525L151.519 43.763Z" fill="black"/>
<path d="M29.7751 20.1031C29.7563 18.5861 29.2408 15.4855 25.6125 13.7256C29.297 14.8962 31.0698 18.0101 31.2502 20.3327C35.1193 21.1043 38.5531 22.9246 44.1283 21.0021L44.1468 20.99C44.1468 20.99 36.811 21.057 33.743 18.8379C35.3281 18.8973 37.1518 18.5388 37.7497 17.642C38.3859 16.6867 38.4521 15.6996 40.0217 15.6492C40.9033 15.6205 43.893 15.8437 44.2062 11.4534C43.25 13.0683 42.2134 13.7355 40.6492 13.3365C39.6502 13.0827 37.8265 12.3176 36.5229 13.8751C35.4468 15.1599 34.2917 15.8282 32.4483 15.6292C33.1858 14.6323 44.1767 0.361577 44.1767 0.361577C44.1767 0.361577 30.0962 11.6625 29.319 12.3207C29.1696 10.2575 29.7872 9.50029 30.6137 8.59337C31.291 7.85162 32.4669 6.84678 31.5304 4.7265C30.7743 3.01284 30.8731 1.97648 32.9363 0.332031C31.2921 0.451903 28.7827 1.55749 29.0792 4.57708C29.2596 6.40049 27.9669 6.55892 27.4953 6.81948C26.2698 7.49763 26.1103 9.47074 26.0698 11.0052C25.9313 10.506 24.1473 2.83809 23.5195 0.357356V20.99H23.5668C25.9567 20.049 27.9438 19.9053 29.7751 20.1031Z" fill="#BF2F38"/>
<path d="M64.798 8.96532V9.33225C63.503 9.35223 63.0393 9.87308 63.0393 11.1109V16.3287C63.0393 18.7248 61.5125 21.2947 57.3192 21.2947C53.6279 21.2947 51.7342 19.1888 51.7342 16.4253V10.7823C51.7342 9.54554 51.3858 9.35223 50.0723 9.33225V8.96532H55.0382V9.33225H54.8646C53.8018 9.33225 53.3378 9.62264 53.3378 10.7437V16.1154C53.3378 18.7248 54.8646 20.2901 57.7444 20.2901C59.9274 20.2901 62.1509 19.3821 62.1509 16.0966V11.5935C62.1509 9.73801 61.8608 9.41048 60.2561 9.33225V8.96532H64.798ZM67.3381 19.3042C67.3381 20.367 67.5888 20.6188 68.6319 20.6188V20.9857H64.7485V20.6188C65.598 20.6188 66.0434 20.1548 66.0434 19.401V15.3427C66.0434 14.6283 65.9652 14.4918 65.4629 14.3953L64.8056 14.2611V13.951L67.0283 13.14H67.3381V14.6469C68.6319 13.8356 69.7144 13.12 70.6622 13.12C71.9757 13.12 72.7295 14.0863 72.7295 16.0186C72.7295 18.5897 72.5945 19.092 72.5745 19.8461C72.5559 20.367 72.8649 20.6188 73.6573 20.6188H74.0827V20.9857H69.9266V20.6188C70.4871 20.5988 70.8158 20.4638 71.028 20.2516C71.3963 19.8844 71.4349 18.4732 71.4349 15.9033C71.4349 14.3568 70.6807 13.8742 69.908 13.8742C69.2892 13.8742 68.3427 14.415 67.3381 15.1109V19.3042ZM76.9856 8.67492C77.4496 8.67492 77.8365 9.00359 77.8365 9.41048C77.8365 9.81596 77.4496 10.1446 76.9856 10.1446C76.5218 10.1446 76.1546 9.81596 76.1546 9.41048C76.1546 9.00359 76.5218 8.67492 76.9856 8.67492ZM77.7782 19.5174C77.7782 20.1933 78.1452 20.6188 79.1697 20.6188V20.9857H74.8796V20.6188C76.0578 20.6188 76.4833 20.2319 76.4833 19.2074V15.3239C76.4833 14.57 76.3865 14.4732 75.8842 14.3765L74.9764 14.2028V13.8927L77.4878 13.0235H77.7782V19.5174ZM83.583 21.1596L80.7812 14.7437C80.4897 14.0678 80.2393 13.8356 79.9303 13.7774L79.3301 13.6809V13.3333H83.2741V13.6809C82.0945 13.7191 81.7275 13.8742 82.1902 14.7822L84.2401 19.5943L86.2109 15.1306C86.5596 14.3379 86.3848 13.7774 84.9745 13.6809V13.3333H88.3357V13.6809C87.6027 13.8159 87.1761 14.2414 86.81 15.092L84.1436 21.1596H83.583ZM95.5452 16.0769V15.6329C94.909 14.9941 94.9661 13.12 92.3565 13.12C89.9987 13.12 88.6269 15.2074 88.6269 17.2565C88.6269 19.4975 90.0955 21.2179 91.9896 21.2179C93.4007 21.2179 94.6175 20.2516 95.4298 19.2271L95.2165 18.9952C94.4835 19.8647 93.7294 20.2516 92.7634 20.2516C91.2366 20.2516 89.8251 18.8987 89.8251 16.8893C89.8251 16.6374 89.8648 16.367 89.9031 16.0769H95.5452ZM89.9605 15.5746C90.4056 13.7774 91.3716 13.4873 92.0104 13.4873C92.937 13.4873 93.7097 14.3182 93.923 15.5746H89.9605ZM99.2725 19.5757C99.2725 20.367 99.5629 20.6188 100.528 20.6188H101.263V20.9857H96.6817V20.6188C97.6677 20.5988 97.9778 20.1933 97.9778 19.1688V14.7051L96.6817 14.2414V13.9127L98.8856 13.14H99.2725V15.1877H99.3111C100.277 13.6038 100.509 13.2365 101.147 13.2365C101.38 13.2365 101.437 13.2554 101.804 13.4104C101.997 13.4873 102.345 13.5641 102.81 13.7006L102.345 14.859C101.99 14.8085 101.645 14.7043 101.322 14.5501C101.109 14.4536 100.877 14.3568 100.644 14.3568C100.296 14.3568 100.084 14.5886 99.8916 14.859C99.6397 15.2074 99.4264 15.5361 99.2725 15.8265V19.5757ZM104.144 19.0337C104.375 20.1933 105.109 20.8507 105.98 20.8507C106.751 20.8507 107.352 20.2704 107.352 19.5757C107.352 19.1688 107.255 18.9184 106.733 18.3961C105.36 17.0243 103.834 16.8893 103.834 15.2845C103.834 14.0092 104.84 13.12 106.307 13.12C106.83 13.12 107.371 13.2365 107.854 13.429L107.892 15.1877H107.564C107.429 14.2028 106.79 13.5841 106.017 13.5841C105.38 13.5841 104.84 14.0281 104.84 14.6666C104.84 16.367 108.433 16.6574 108.433 19.0152C108.433 20.2704 107.39 21.2179 106.037 21.2179C105.671 21.2179 105.399 21.1596 105.187 21.0825C104.974 21.0243 104.82 20.966 104.665 20.966C104.549 20.966 104.433 21.0443 104.336 21.1979H104.046L103.834 19.0337H104.144ZM111.723 8.67492C112.188 8.67492 112.575 9.00359 112.575 9.41048C112.575 9.81596 112.188 10.1446 111.723 10.1446C111.261 10.1446 110.893 9.81596 110.893 9.41048C110.893 9.00359 111.261 8.67492 111.723 8.67492ZM112.517 19.5174C112.517 20.1933 112.884 20.6188 113.907 20.6188V20.9857H109.617V20.6188C110.796 20.6188 111.221 20.2319 111.221 19.2074V15.3239C111.221 14.57 111.125 14.4732 110.622 14.3765L109.715 14.2028V13.8927L112.227 13.0235H112.517V19.5174ZM119.415 13.3333L119.106 14.1831H116.652V18.6865C116.652 19.9032 117.522 20.3098 117.927 20.3098C118.352 20.3098 118.739 19.9812 119.106 19.3427L119.415 19.6328C118.951 20.6374 118.197 21.2179 117.308 21.2179C116.168 21.2179 115.357 20.2704 115.357 18.9766V14.1831H114.468V13.8742C115.222 13.507 115.879 12.6178 116.323 11.4196H116.652V13.3333H119.415ZM127.06 15.4778C127.639 14.0092 127.272 13.7191 126.132 13.6809V13.3333H129.34V13.6809C128.547 13.7774 128.103 14.3182 127.737 15.2262L124.452 23.4206C123.87 24.8506 123.426 25.488 122.751 25.488C122.286 25.488 121.958 25.199 121.958 24.8121C121.958 24.0197 123.079 24.213 123.562 23.7304C123.775 23.5174 124.065 23.0148 124.219 22.6279L124.798 21.1793L121.804 14.8205C121.436 14.0281 121.088 13.7006 120.277 13.6809V13.3333H124.161V13.6809C122.982 13.7006 122.848 14.0478 123.234 14.859L125.417 19.5757L127.06 15.4778ZM133.677 17.2179C133.677 19.4778 135.512 21.2179 137.909 21.2179C140.209 21.2179 142.007 19.4592 142.007 17.1783C142.007 14.8787 140.209 13.12 137.852 13.12C135.841 13.12 133.677 14.5501 133.677 17.2179ZM135.126 16.5595C135.126 14.8987 136.305 13.5841 137.58 13.5841C139.204 13.5841 140.557 15.4592 140.557 17.662C140.557 19.5943 139.262 20.7539 138.122 20.7539C136.46 20.7539 135.126 18.8987 135.126 16.5595ZM147.61 14.1831H145.523V19.4778C145.523 20.367 145.871 20.6188 146.953 20.6188H147.688V20.9857H142.914V20.6188C144.035 20.6188 144.228 20.367 144.228 19.2856V14.1831H142.798V13.8545C143.339 13.7391 143.803 13.5641 144.228 13.3333C144.228 11.7286 144.576 10.5118 145.716 9.3708C146.663 8.42448 147.572 7.99902 148.46 7.99902C149.543 7.99902 150.45 8.6178 150.45 8.90707C150.45 9.06183 150.085 9.83481 149.93 9.83481C149.659 9.83481 148.944 8.88822 147.669 8.88822C146.277 8.88822 145.523 9.98958 145.523 11.8636V13.3333H147.475L147.61 14.1831Z" fill="black"/>
<path d="M15.9568 11.5174C15.7964 10.66 15.8766 8.96627 16.7143 7.292C13.6246 9.6236 13.585 11.5174 13.585 11.5174C13.585 11.5174 14.1826 11.059 15.9568 11.5174ZM14.5214 6.41491C14.5214 6.41491 10.7741 6.95349 9.69839 7.05366C8.95636 7.49094 8.10431 8.7178 8.10431 8.7178C8.10431 8.7178 7.22722 8.8464 5.47303 9.16522C4.25405 9.96099 3.51962 11.8165 5.03435 13.3309C4.55598 13.231 4.55598 13.231 3.85926 13.1111C2.36452 14.0684 3.06124 15.8426 6.17088 15.225C5.29379 15.194 4.8551 14.7666 4.86523 14.2083C4.84553 13.6002 6.03131 12.843 7.47569 13.231C6.10053 10.6304 7.62511 9.60362 7.62511 9.60362C7.62511 9.60362 6.81836 11.7515 8.5824 13.5102C8.74194 13.2507 9.26955 12.5242 10.7547 12.4935C12.234 12.4637 13.164 13.1913 13.1859 14.029C13.2056 14.7666 12.2692 15.5438 11.0536 15.5438L11.0339 13.7817C11.0339 13.7817 10.638 13.9235 10.526 14.0794C10.5271 14.161 10.5147 15.5635 10.5147 15.5635C10.0366 15.5635 9.06076 15.3645 8.543 14.5367C8.14399 14.4973 5.92129 14.1675 5.92129 14.1675L6.04116 14.7556C6.04116 14.7556 6.81836 14.8853 6.96778 15.6622C7.14928 16.6032 7.68532 17.4662 8.16369 17.8157C9.09031 17.7057 10.6247 16.5396 13.4454 16.5801C10.8546 16.9386 8.22391 19.7083 4.43639 18.6523C10.4553 20.7053 11.0733 16.1417 18.6072 17.576C17.431 16.8584 15.6779 16.6395 15.6779 16.6395C15.6779 16.6395 16.6141 15.6228 16.6538 14.0684C16.7737 14.0608 16.9329 14.0487 17.232 14.0192C17.3319 13.52 17.4012 13.0144 17.4012 13.0144C17.4012 13.0144 15.757 13.0124 14.3773 13.0124C11.0184 9.61347 14.5214 6.41491 14.5214 6.41491ZM6.11151 6.35553C7.05782 6.40506 8.20871 5.81695 8.28356 5.76743C8.28356 5.76743 7.88455 6.77452 8.78162 6.71403C9.75523 6.64902 10.8752 6.15012 11.0336 6.0764V4.78059C10.9469 4.84419 9.99807 5.51474 8.92119 5.75758C8.52753 5.84566 8.66175 5.49814 8.70114 5.2992C8.74194 5.10025 8.7684 4.93648 8.06379 5.22885C5.18377 6.42476 5.03435 5.60816 5.03435 5.50827C4.9156 5.64784 4.96625 6.29504 6.11151 6.35553ZM21.3761 0.357422V20.9901C13.0751 17.7212 9.61679 24.0589 0.77832 20.9901V0.357422H4.9837V2.58434H7.39521V0.357422H9.76733V2.58434H12.158L12.1591 0.357422H14.5498V2.58434H17.1507V0.357422H21.3761ZM29.2978 28.4216C29.2978 28.4216 29.1999 28.3732 29.3867 28.2162C29.4098 28.1973 29.4461 28.2404 29.555 28.2415C29.701 28.2435 29.7781 28.1931 29.9 28.0457C30.0837 27.8236 29.6999 27.7381 29.5758 27.8456C29.4393 27.9621 29.3417 28.0831 29.2241 28.1908C29.2241 28.1908 29.0274 28.3656 29.2978 28.4216ZM36.4037 38.8451C36.0753 39.1133 35.0584 39.6268 34.8046 39.7464C34.5508 39.8663 34.4683 39.9389 34.2815 40.3092C34.0516 40.7634 33.8329 41.5856 33.8923 41.6447C34.5198 41.5459 34.9684 41.0172 34.9684 41.0172C34.9684 41.0172 34.9782 40.8875 34.8386 40.6677C34.7233 40.4862 34.9487 40.2895 35.0882 40.4037C35.1949 40.4918 35.342 40.5093 35.4321 40.4336C35.5213 40.3587 37.48 39.1133 37.569 38.9695C37.1711 38.5758 36.8666 38.1768 36.8666 38.1768C36.8666 38.1768 36.7324 38.5758 36.4037 38.8451ZM28.7502 33.3833C27.9128 33.0448 27.7259 32.8183 27.5698 32.7502C27.4302 32.692 26.8542 32.9359 26.7574 33.1844C26.4979 33.8516 25.92 34.9431 25.8353 35.0981C25.7903 35.1806 25.7407 35.2774 25.7509 35.3871C25.7604 35.496 25.7933 35.9246 25.7835 36.0248C25.7734 36.1363 25.7888 36.2487 25.8285 36.3534C25.8682 36.4533 25.92 36.881 26.1397 37.3096C26.6277 36.8216 26.6991 36.1016 26.6673 36.2434C26.6673 36.2479 26.8221 35.9809 26.4332 35.8599C26.3235 35.8258 26.3398 35.5377 26.4586 35.5014C26.6035 35.4563 26.6772 35.4169 26.7475 35.1586C26.8168 34.8981 27.0807 33.9669 27.1663 33.788C27.1795 33.7604 27.2037 33.7131 27.2521 33.6912C27.3278 33.657 27.4076 33.633 27.4896 33.6197C27.527 33.6141 27.5973 33.6538 27.6182 33.6757C27.7513 33.8099 28.4415 34.3705 28.4415 34.3705C28.4415 34.3705 28.7502 34.3406 28.9393 34.2604C28.8205 34.0713 28.7702 33.613 28.7502 33.3833ZM27.906 29.4473C27.906 29.4473 27.6137 29.8066 27.9435 29.8958C27.951 30.0002 27.9918 30.2067 28.0327 30.3145C28.0875 30.4586 28.1818 30.4121 28.2876 30.2914C28.3917 30.1727 28.5603 29.945 28.6832 29.8142C28.7952 29.6946 29.1855 29.7374 29.0274 29.9782C28.923 30.1375 28.8405 30.1803 28.7052 30.2101C28.5997 30.2332 28.5679 30.142 28.4514 30.3001C28.3292 30.465 28.1995 30.5804 28.4139 30.5804C28.5259 30.5804 28.7392 30.6848 28.881 30.6617C29.0153 30.6409 29.0293 30.554 29.0437 30.4344C29.0592 30.3089 29.035 30.2374 29.1745 30.1606C29.3538 30.0604 29.6174 29.8209 29.6976 29.7362C29.7891 29.6394 29.9067 29.6617 30.0263 29.6617C30.145 29.6617 30.7233 29.732 31.0674 29.2162C31.3103 28.8527 31.3367 28.3569 31.2464 27.9083C31.4113 28.0721 31.6322 28.5899 31.5157 29.0736C31.308 29.9363 30.8837 29.9847 30.454 30.0748C30.2748 30.3289 29.8164 30.9817 29.5724 32.1689C29.468 32.2381 28.6008 33.0744 29.3262 34.4484C29.1394 34.5089 28.5887 34.7453 28.2623 34.819C28.0436 34.8682 27.8599 34.8803 27.771 34.9859C27.6719 35.1046 27.4423 35.4938 27.5622 35.6882C27.6466 35.8258 28.1897 37.0403 28.2347 37.4151C28.2797 37.7877 28.4148 37.8769 28.549 37.9979C28.6987 38.1318 28.7952 38.1253 29.0043 38.2823C29.2165 38.4408 29.3923 38.7264 29.5879 38.8792C29.7967 39.0441 30.0308 39.1189 30.1957 39.1034C30.1549 38.4956 30.0255 37.8977 29.8364 37.6987C29.6394 37.4922 29.3932 37.7877 29.3338 37.8031C29.2736 37.8186 29.19 37.7604 29.1537 37.5943C29.1163 37.4219 29.2736 37.28 29.1239 37.0558C28.9194 36.7472 28.7276 36.4303 28.549 36.1061C28.3546 35.7256 28.6841 35.6246 28.7657 35.6432C28.9601 35.6882 30.1254 35.8455 30.3046 35.8599C30.4836 35.8753 30.5837 35.9049 30.6639 35.8148C30.9101 35.5388 31.052 35.3365 31.1949 35.0531C31.4555 35.2476 31.2762 35.6212 31.2014 36.0641C31.2762 36.1291 32.9657 36.9809 35.2883 36.3633C36.2577 36.1061 36.1465 36.3095 36.2391 36.4874C36.8019 37.5789 37.2009 38.001 37.8692 38.5364C38.0682 38.6946 38.2077 38.954 38.2966 39.1034C38.3867 39.2529 38.4086 39.5191 38.3374 39.6915C38.2471 39.906 37.7285 40.8357 37.6393 40.9665C37.4702 41.2161 37.249 41.4249 37.0611 41.5251C36.4732 41.8394 36.3269 42.1208 36.2622 42.3406H37.7713C37.7713 42.3406 37.8065 42.2615 37.7887 42.0735C37.7637 41.8096 38.0032 41.7645 38.078 41.7494C38.1526 41.735 38.2868 41.7944 38.4067 41.5107C38.6309 40.9764 39.508 39.487 39.5826 39.353C39.6574 39.2177 39.9312 38.8584 39.6619 38.7002C39.154 38.4011 38.8549 37.9098 38.755 37.3591C38.7154 37.1405 38.7396 36.7797 39.2331 36.1643C40.2894 34.8485 39.5024 32.1379 37.1514 32.1874C35.817 32.2161 35.075 32.1027 34.2066 31.9291C33.8889 31.8655 33.8341 31.6939 33.9022 31.5006C33.9725 31.3016 34.0395 30.9046 34.0417 30.7431C33.813 30.5331 33.4635 30.4045 33.2944 30.344C33.1117 30.2805 33.0206 30.1341 33.2052 30.1198C33.3889 30.1057 34.0868 30.1803 34.0868 30.1803C34.0868 30.1803 34.1121 29.8066 34.0119 29.2582C33.6684 29.1122 33.3063 29.015 32.9359 28.9692C32.8304 28.9559 32.7381 28.8383 33.0051 28.7998C33.3549 28.7503 33.6734 28.8054 33.9219 28.7899C33.9373 28.7601 33.8031 28.0623 33.5558 27.7809C33.3844 27.7291 33.2932 27.7049 32.6964 27.6334C32.4876 27.6095 32.4775 27.549 32.6171 27.504C32.7789 27.4522 33.0481 27.3993 33.3844 27.4215C33.2547 27.2434 32.3874 25.6617 30.5891 26.1364C30.7903 26.3838 30.8882 26.498 30.9476 26.6674C31.0013 26.8191 30.8409 26.8675 30.6938 26.7124C30.1254 26.1145 29.8262 26.1288 29.4604 26.0619C29.6999 26.2937 29.8043 26.5256 29.8867 26.7563C29.4756 27.0487 28.892 27.7434 28.8096 27.8788C28.6537 28.1337 28.8701 28.2722 28.8701 28.2722L27.906 29.4473ZM39.5277 25.4417C37.6888 26.0849 37.9604 28.0668 38.4559 28.8293C39.1045 29.8263 39.6518 29.8463 40.0652 31.0168C40.3885 31.9302 39.8114 32.4072 39.243 32.6163C40.2146 33.2151 41.2172 32.5963 41.5754 31.9983C42.2361 31.1179 41.4876 29.9749 42.1933 29.378C42.3824 29.2185 42.701 29.1087 43.1298 29.0888C42.701 28.481 41.6953 28.5502 41.292 29.1186C41.0073 28.4613 40.2104 27.8864 40.4994 26.8663C40.6885 26.1992 41.7448 25.9496 42.1438 26.498C42.3613 26.7982 42.3923 27.3852 41.7546 27.6841C42.1537 27.6545 42.9109 26.9662 42.3923 26.0298C42.0284 25.3713 41.4161 25.3221 40.9181 25.3221C40.0114 25.3221 38.5066 26.3584 39.4683 28.5952C38.9143 28.1028 38.0186 26.3838 39.5277 25.4417ZM44.1147 23.1126V43.7706C32.6953 46.5504 32.3655 40.482 23.5161 43.7706C23.5172 44.0387 23.5127 23.1103 23.5161 23.1126C31.6477 19.7041 34.8167 26.1617 44.1147 23.1126ZM8.27146 34.8981C8.27146 34.8981 7.90987 35.1333 8.36263 36.1269C8.81567 37.1185 9.37732 38.0429 8.39893 39.1333C8.95411 39.1397 10.1644 38.4087 8.86941 36.2302C8.57142 35.7279 8.24951 35.3806 8.27146 34.8981ZM7.04685 35.3652C7.34597 35.3455 7.38339 34.9783 7.32937 34.7858C7.26577 34.5584 6.88646 34.5297 6.79416 34.8201C6.70412 35.1069 6.78291 35.3849 6.78291 35.3849C6.85804 35.662 7.16897 35.74 7.19655 35.7124C7.02265 35.5576 7.06992 35.4684 7.04685 35.3652ZM7.33387 36.6843C7.2624 37.5614 6.75899 37.6911 6.75899 37.6911C5.88077 37.2876 5.41028 38.3924 6.14668 38.7177C7.0809 39.131 7.65156 37.9241 7.70755 37.701C7.86485 37.0679 7.88005 36.6205 7.80886 35.5939C7.7492 34.7177 7.96475 34.586 8.10882 34.5618C8.25373 34.5376 8.55398 34.5255 8.85281 35.4378C9.15306 36.35 9.80054 36.482 9.80054 36.482C9.80054 36.482 8.86294 34.9563 10.1663 33.5482C10.7733 32.8943 12.0086 32.5217 11.7801 31.605C11.7801 31.605 11.5888 31.9336 11.2173 32.0301C10.8459 32.1258 10.1247 32.2336 10.1247 32.2336C10.1247 32.2336 11.8536 31.4181 12.1648 30.4816C12.1648 30.4816 12.7056 31.3818 11.9855 32.7018C11.9855 32.7018 12.6704 32.4567 13.4091 32.7899C15.2896 33.6231 15.0895 36.3016 12.7098 36.9404C9.3233 37.8493 10.5533 40.4687 12.4923 40.6291C12.2846 40.4972 12.2374 39.7081 12.5781 39.2388C12.7473 39.0871 13.0517 38.7815 13.2442 39.4245C13.5847 40.5588 14.5785 40.6511 15.0403 40.5093C14.9193 40.4071 14.6928 40.0619 14.7204 39.8629C14.7775 39.4662 15.2733 39.8784 15.4534 39.9302C16.788 40.3081 17.4968 39.9774 17.5728 39.7785C17.2748 39.7169 17.3266 39.7498 17.1375 39.7025C16.9616 39.6586 16.6186 39.4147 17.2605 39.2672C18.4389 38.9979 19.0873 37.7823 18.3115 36.8458C17.5706 35.951 16.6372 36.0883 16.3339 36.2116C17.6114 36.4862 17.675 37.5141 17.0241 38.0373C16.4571 38.4638 15.0468 38.633 14.5642 37.6878C14.2597 37.9075 14.1534 38.2604 14.2049 38.7002C14.0774 38.6518 13.5419 37.8912 14.3368 37.2623C18.0222 34.886 17.4276 30.8936 14.3092 29.2506L14.2699 29.234C11.4405 27.6084 8.96509 29.0921 8.96509 29.0921C10.7148 27.3402 13.7375 28.3822 14.1731 28.5997C14.1731 28.5997 13.8244 28.2975 13.6398 28.0195C13.4001 27.6599 13.4091 27.316 13.4091 27.316C12.2087 27.9863 11.8997 26.9575 11.8997 26.9575C11.8997 26.9575 10.86 27.894 10.1852 27.1323C9.59596 26.4651 10.551 25.5604 10.551 25.5604C4.46284 27.5588 5.61683 30.9972 5.61683 30.9972C5.61683 30.9972 4.73523 31.8062 4.53741 33.7582C4.31314 35.9741 5.41816 37.5504 6.79754 37.1174C7.1141 37.0183 7.27027 36.8678 7.33162 36.7018L7.33387 36.6843ZM21.3769 23.1126C21.3803 23.1103 21.3758 44.0387 21.3769 43.7706C12.5272 40.482 12.1988 46.5504 0.77832 43.7706V23.1126C10.0755 26.1617 13.2453 19.7041 21.3769 23.1126Z" fill="#BF2F38"/>
</svg>
