<svg xmlns="http://www.w3.org/2000/svg" width="30" height="30" viewBox="0 0 30 30" fill="none">
<path d="M21.6196 15.9946L12.2446 25.3696C11.9804 25.6338 11.6221 25.7822 11.2485 25.7822C10.8749 25.7822 10.5166 25.6338 10.2524 25.3696C9.98826 25.1054 9.83984 24.7471 9.83984 24.3735C9.83984 23.9999 9.98826 23.6416 10.2524 23.3774L18.6325 14.9997L10.2548 6.61963C10.124 6.48882 10.0202 6.33353 9.94942 6.16262C9.87862 5.99171 9.84219 5.80852 9.84219 5.62353C9.84219 5.43854 9.87862 5.25536 9.94942 5.08445C10.0202 4.91354 10.124 4.75825 10.2548 4.62744C10.3856 4.49663 10.5409 4.39287 10.7118 4.32207C10.8827 4.25128 11.0659 4.21484 11.2509 4.21484C11.4359 4.21484 11.619 4.25128 11.79 4.32207C11.9609 4.39287 12.1162 4.49663 12.247 4.62744L21.622 14.0024C21.7529 14.1332 21.8568 14.2886 21.9275 14.4596C21.9983 14.6306 22.0346 14.8139 22.0344 14.999C22.0342 15.1841 21.9974 15.3673 21.9263 15.5382C21.8551 15.709 21.7509 15.8641 21.6196 15.9946Z" fill="black"/>
</svg>