<svg width="101" height="101" viewBox="0 0 101 101" fill="none" xmlns="http://www.w3.org/2000/svg">
<path fill-rule="evenodd" clip-rule="evenodd" d="M25.116 71.9748C35.3697 71.6226 77.4419 70.6046 84.6888 67.6315C93.3588 64.0746 89.325 38.2307 88.0967 28.608C87.6066 24.7683 85.7154 19.8552 81.9752 17.9385C75.4657 14.6022 21.3123 18.4387 16.3484 20.3448C8.78866 23.248 10.9789 33.135 11.1687 38.2509C11.4408 45.5845 11.8204 52.9401 12.3216 60.2624C12.5694 63.8841 12.5157 67.5726 15.4681 70.1259C18.1383 72.4351 21.9108 72.0849 25.116 71.9748Z" fill="white" stroke="#181818" stroke-width="2.55039" stroke-miterlimit="1.5" stroke-linecap="round" stroke-linejoin="round"/>
<path d="M41.7992 71.4171C47.7633 71.1925 54.4449 70.8996 60.7632 70.5176C61.6202 74.0905 61.8083 77.9905 61.9579 81.0933C61.9843 81.6408 62.0095 82.1634 62.037 82.6551C59.2669 82.8294 55.7506 82.9992 52.0398 83.1785C48.5474 83.3471 44.8828 83.5241 41.5061 83.721V82.6376C41.503 82.1708 41.4938 81.6469 41.4839 81.0772C41.4382 78.4563 41.3756 74.8675 41.7992 71.4171Z" fill="white"/>
<path d="M41.7992 71.4171C47.7633 71.1925 54.4449 70.8996 60.7632 70.5176C61.6202 74.0905 61.8083 77.9905 61.9579 81.0933C61.9843 81.6408 62.0095 82.1634 62.037 82.6551C59.2669 82.8294 55.7506 82.9992 52.0398 83.1785C48.5474 83.3471 44.8828 83.5241 41.5061 83.721V82.6376C41.503 82.1708 41.4938 81.6469 41.4839 81.0772C41.4382 78.4563 41.3756 74.8675 41.7992 71.4171Z" stroke="#181818" stroke-width="2.55039" stroke-miterlimit="1.5" stroke-linecap="round" stroke-linejoin="round"/>
<path d="M32.8262 84.2947C35.6315 84.0453 38.541 83.8381 41.4998 83.6576M74.1188 81.9219C70.3688 82.2158 66.2782 82.441 62.0215 82.6467" stroke="#181818" stroke-width="2.55039" stroke-miterlimit="1.5" stroke-linecap="round" stroke-linejoin="round"/>
<path d="M26.8027 49.4203C31.6363 44.9264 35.4229 39.22 40.5677 35.0258C42.9577 37.8098 45.7497 40.2676 47.8686 43.291C50.8946 41.8316 64.0956 29.647 67.0984 26.6699" stroke="#181818" stroke-width="2.55039" stroke-miterlimit="1.5" stroke-linecap="round" stroke-linejoin="round"/>
<path d="M30.8672 54.1719C30.9737 56.1385 30.9861 58.114 31.1537 60.0764" stroke="#181818" stroke-width="2.55039" stroke-miterlimit="1.5" stroke-linecap="round" stroke-linejoin="round"/>
<path d="M39.1182 47.7148C39.0748 51.7154 39.515 55.6914 39.873 59.6675" stroke="#181818" stroke-width="2.55039" stroke-miterlimit="1.5" stroke-linecap="round" stroke-linejoin="round"/>
<path d="M47.9766 52.0234C48.1283 54.5997 48.4008 57.2044 48.6797 59.7728" stroke="#181818" stroke-width="2.55039" stroke-miterlimit="1.5" stroke-linecap="round" stroke-linejoin="round"/>
<path d="M57.7949 46.6504C58.5474 50.6336 58.5127 54.6906 59.0264 58.6895" stroke="#181818" stroke-width="2.55039" stroke-miterlimit="1.5" stroke-linecap="round" stroke-linejoin="round"/>
<path d="M67.9113 58.3795C67.3746 55.6828 67.6231 52.7218 67.4625 49.9878C67.1988 45.4931 66.5329 40.9255 66.5982 36.4258" stroke="#181818" stroke-width="2.55039" stroke-miterlimit="1.5" stroke-linecap="round" stroke-linejoin="round"/>
</svg>
