<svg width="180" height="47" viewBox="0 0 180 47" fill="none" xmlns="http://www.w3.org/2000/svg">
<mask id="mask0_119_2193" style="mask-type:luminance" maskUnits="userSpaceOnUse" x="0" y="0" width="180" height="47">
<path d="M0 9.53674e-05H179.102V46.8545H0V9.53674e-05Z" fill="white"/>
</mask>
<g mask="url(#mask0_119_2193)">
<path d="M73.2654 31.7296C73.2654 31.3679 73.0297 31.1003 72.5479 30.9961V30.7621C72.8146 30.7621 73.703 30.7978 73.953 30.7978C74.1691 30.7978 75.0294 30.7621 75.2971 30.7621V30.9961C74.8499 31.0833 74.615 31.3473 74.615 31.7296V36.3207C74.615 37.7745 75.4134 38.5963 77.0834 38.5963C78.5224 38.5963 79.642 37.9503 79.642 36.4288V31.7117C79.642 31.3707 79.4278 31.1003 78.8887 30.9961V30.7621C79.0849 30.7621 79.8194 30.7978 80.0703 30.7978C80.2845 30.7978 81.0554 30.7621 81.2526 30.7621V30.9961C80.7325 31.1201 80.5013 31.3528 80.5013 31.7117V36.1758C80.5013 38.1794 79.3357 39.3301 76.8205 39.3301C74.4789 39.3301 73.2654 38.2658 73.2654 36.3834V31.7296Z" fill="#1D1D1B"/>
<path d="M83.31 38.9703C83.8548 38.8689 84.0699 38.5929 84.0699 38.2547V31.9092C84.0699 31.3709 83.7834 31.1288 83.2949 30.9954V30.7614C83.5713 30.7821 84.035 30.7942 84.2718 30.7942C84.4869 30.7942 84.8213 30.7906 85.0466 30.7614L90.5506 37.2329V31.7119C90.5506 31.3718 90.3346 31.1014 89.7975 30.9954V30.7614C89.9947 30.7614 90.7029 30.798 90.9545 30.798C91.1734 30.798 91.9323 30.7614 92.1323 30.7614V30.9954C91.6072 31.1193 91.3538 31.3541 91.3538 31.7119V39.3301H91.0222C90.8135 39.2822 90.4191 39.0578 89.8181 38.3985L84.8936 32.6625V38.2547C84.8936 38.5946 85.0898 38.8642 85.6272 38.9703V39.2052C85.43 39.2052 84.7218 39.1678 84.4701 39.1678C84.2531 39.1678 83.51 39.2052 83.31 39.2052V38.9703Z" fill="#1D1D1B"/>
<path d="M126.74 37.2591H126.973C127.097 37.7333 127.368 38.1656 127.748 38.4153C128.144 38.6942 128.765 38.8276 129.266 38.8276C130.373 38.8276 131.075 38.2792 131.075 37.4112C131.075 36.5124 130.176 36.0457 129.099 35.5074C128.298 35.1064 126.724 34.4444 126.724 32.9227C126.724 31.5052 127.805 30.6234 129.534 30.6234C130.675 30.6234 131.21 30.9023 131.981 30.8666L131.966 32.5863H131.731C131.423 31.5729 130.502 31.2197 129.494 31.2197C128.367 31.2197 127.946 31.8643 127.946 32.5197C127.946 33.4581 128.864 33.9313 129.905 34.3955C131.075 34.9167 132.345 35.5751 132.345 37.0413C132.345 38.4294 131.259 39.4346 129.275 39.4346C128.094 39.4346 127.386 39.0974 126.765 39.021L126.74 37.2591Z" fill="#1D1D1B"/>
<path d="M150.394 35.7119L148.153 32.1167C147.77 31.4855 147.477 31.1527 147.051 30.9951V30.7619C147.358 30.7619 148.187 30.7987 148.423 30.7987C148.636 30.7987 149.531 30.7619 149.854 30.7619V30.9951C149.568 31.0457 149.434 31.1893 149.434 31.4055C149.434 31.5961 149.563 31.8414 149.694 32.0545C149.822 32.2658 151.346 34.7944 151.346 34.7944L152.938 32.0556C153.099 31.7812 153.212 31.5089 153.212 31.3293C153.212 31.1659 153.097 31.0306 152.825 30.9951V30.7619C153.095 30.7619 153.661 30.7987 153.842 30.7987C154.022 30.7987 154.673 30.7619 154.94 30.7619V30.9792C154.328 31.23 153.946 31.7671 153.575 32.3898L151.538 35.7947M151.677 35.3654V38.2375C151.677 38.5222 151.894 38.88 152.384 38.97V39.2051C152.111 39.2051 151.218 39.1674 150.96 39.1674C150.743 39.1674 149.887 39.2051 149.578 39.2051V38.97C150.07 38.88 150.306 38.5222 150.306 38.2375V35.4913" fill="#1D1D1B"/>
<path d="M108.752 30.7624H114.007C114.169 30.7624 114.454 30.7437 114.616 30.6733H114.851L114.815 32.3807H114.582C114.382 31.8436 114.174 31.4134 113.157 31.4134H110.875V34.389H112.634C112.89 34.389 113.201 34.3673 113.335 34.3354C113.731 34.249 113.905 34.029 113.984 33.692H114.219C114.202 33.9492 114.202 34.5364 114.202 34.7102C114.202 34.8849 114.219 35.5029 114.219 35.7828H113.984C113.872 35.4465 113.718 35.191 113.335 35.0972C113.201 35.0614 112.885 35.0323 112.634 35.0323H110.875V38.5227H113.357C114.441 38.5227 114.756 38.0708 115.025 37.4322L115.257 37.4864L115.025 39.2402C114.219 39.1688 113.736 39.1688 112.821 39.1688H110.198C109.946 39.1688 109.019 39.2056 108.749 39.2056V38.9715C109.222 38.8813 109.499 38.6473 109.499 38.1938V31.7385C109.499 31.3383 109.283 31.0883 108.752 30.9992V30.7624Z" fill="#1D1D1B"/>
<path d="M95.3299 31.7839C95.3299 31.351 95.0716 31.1125 94.5653 31.0034V30.7715C94.8472 30.7715 95.7594 30.807 96.0251 30.807C96.2476 30.807 97.1852 30.7715 97.4707 30.7715V31.0034C96.9671 31.1125 96.7031 31.3283 96.7031 31.7839V38.1944C96.7031 38.6273 96.9624 38.863 97.4707 38.97V39.2051C97.186 39.2051 96.287 39.1683 96.0251 39.1683C95.7985 39.1683 94.8472 39.2051 94.5645 39.2051V38.97C95.082 38.8734 95.3299 38.6471 95.3299 38.1944V31.7839Z" fill="#1D1D1B"/>
<path d="M135.195 31.7839C135.195 31.351 134.934 31.1125 134.429 31.0034V30.7715C134.711 30.7715 135.623 30.807 135.887 30.807C136.112 30.807 137.049 30.7715 137.334 30.7715V31.0034C136.831 31.1125 136.567 31.3283 136.567 31.7839V38.1944C136.567 38.6273 136.827 38.863 137.334 38.97V39.2051C137.051 39.2051 136.153 39.1683 135.887 39.1683C135.665 39.1683 134.711 39.2051 134.429 39.2051V38.97C134.945 38.8734 135.195 38.6471 135.195 38.1944V31.7839Z" fill="#1D1D1B"/>
<path d="M142.499 30.7987C139.618 30.7987 139.157 30.7451 138.568 30.7085L138.573 32.448H138.808C139.023 31.6768 139.452 31.4975 140.008 31.4975H141.815V38.1953C141.815 38.6478 141.568 38.8744 141.049 38.971V39.2061C141.334 39.2061 142.293 39.1693 142.515 39.1693C142.779 39.1693 143.681 39.2061 143.962 39.2061V38.971C143.452 38.864 143.194 38.6283 143.194 38.1953V31.4975H144.987C145.564 31.4975 145.976 31.6939 146.191 32.448H146.423L146.427 30.7085C145.842 30.7451 145.381 30.7987 142.499 30.7987Z" fill="#1D1D1B"/>
<path d="M119.513 38.1948C119.513 38.6277 119.788 38.8626 120.296 38.9705V39.2055C120.014 39.2055 119.093 39.1687 118.83 39.1687C118.604 39.1687 117.704 39.2055 117.421 39.2055V38.9705C117.892 38.8805 118.17 38.6475 118.17 38.1948V31.7189C118.17 31.3206 117.953 31.0698 117.423 30.9796V30.7467C117.704 30.7467 118.596 30.7822 118.848 30.7822C119.26 30.7822 120.432 30.7128 120.893 30.7128C122.913 30.7128 124.037 31.5478 124.037 32.9791C124.037 34.1043 123.2 34.8653 121.911 35.1761C121.911 35.1761 122.205 35.3469 122.498 35.6879C122.854 36.1076 123.816 37.4877 124.215 37.9702C124.614 38.4541 125.123 38.9941 125.67 39.0185V39.2072C125.408 39.2645 124.988 39.3145 124.667 39.3145C123.981 39.3145 123.434 39.0721 122.902 38.4288C122.442 37.8689 121.662 36.7071 121.202 36.12C120.908 35.7462 120.552 35.4541 119.9 35.3469C119.774 35.3254 119.655 35.3075 119.513 35.2907V38.1948ZM119.513 34.7534C119.781 34.7899 120.176 34.807 120.567 34.807C122.148 34.807 122.646 33.8977 122.646 33.0929C122.646 31.9546 121.886 31.2491 120.502 31.2491C120.216 31.2491 119.801 31.2849 119.513 31.3391V34.7534Z" fill="#1D1D1B"/>
<path d="M99.4955 31.8117C99.3115 31.4041 99.0287 31.1054 98.5469 30.9994V30.7616C98.8464 30.7616 99.8844 30.7992 100.112 30.7992C100.322 30.7992 101.229 30.7616 101.538 30.7616V30.9926C101.264 31.0452 100.952 31.1964 100.952 31.4764C100.952 31.6764 101.073 31.9489 101.305 32.4618L103.481 37.4113L105.54 32.4533C105.702 32.0531 105.82 31.7432 105.82 31.5064C105.82 31.2445 105.578 31.063 105.236 30.9926V30.7616C105.51 30.7616 106.18 30.7992 106.389 30.7992C106.579 30.7992 107.366 30.7616 107.667 30.7616V30.9994C107.153 31.1383 106.84 31.4211 106.552 32.0908L103.522 39.2354H102.836L99.4955 31.8117Z" fill="#1D1D1B"/>
<path d="M107.264 9.27872C106.914 8.50563 106.377 7.94209 105.467 7.7402V7.29026C106.033 7.29026 107.913 7.35791 108.346 7.35791C108.744 7.35791 110.565 7.29026 111.145 7.29026V7.72892C110.631 7.82955 110.039 8.11696 110.039 8.64753C110.039 9.02216 110.272 9.53996 110.704 10.51L114.83 19.8903L118.734 10.4941C119.039 9.73334 119.266 9.15193 119.266 8.70199C119.266 8.20227 118.804 7.86337 118.157 7.72892V7.29026C118.673 7.29026 119.929 7.35791 120.328 7.35791C120.691 7.35791 122.182 7.29026 122.75 7.29026V7.71489C121.777 7.97889 121.181 8.53775 120.639 9.80652L114.9 23.3496H113.601L107.264 9.27872Z" fill="#1D1D1B"/>
<path d="M51.7061 22.8347C52.4555 22.6636 52.9825 22.3228 52.9825 21.4738V9.05778C52.9825 8.24257 52.4921 7.90432 51.7061 7.69966V7.25908C52.0996 7.25908 53.7949 7.32588 54.2072 7.32588C54.6825 7.32588 56.4595 7.25908 56.8503 7.25908V7.69966C56.1016 7.86964 55.5466 8.20959 55.5466 9.05778V14.2443H64.7962V9.05778C64.7962 8.20959 64.3031 7.86964 63.5217 7.69966V7.25908C63.9123 7.25908 65.6576 7.32588 66.1318 7.32588C66.5413 7.32588 68.2762 7.25908 68.6629 7.25908V7.69966C67.9137 7.86964 67.3584 8.20959 67.3584 9.05778V21.4738C67.3584 22.289 67.8796 22.6309 68.6629 22.8347V23.2412C68.2762 23.2412 66.5413 23.2076 66.1318 23.2076C65.6576 23.2076 63.9123 23.2412 63.5217 23.2412V22.8347C64.2657 22.6636 64.7962 22.3228 64.7962 21.4738V15.6061H55.5466V21.4738C55.5466 22.3228 56.067 22.6309 56.8503 22.8347V23.2412C56.4595 23.2412 54.6825 23.2076 54.2072 23.2076C53.7949 23.2076 52.0996 23.2412 51.7061 23.2412V22.8347Z" fill="#1D1D1B"/>
<path d="M158.695 22.8345C159.655 22.6635 160.184 22.2822 160.184 21.406V9.05761C160.184 8.20666 159.663 7.86948 158.735 7.6995V7.25892C159.269 7.25892 161.009 7.32572 161.49 7.32572C162.268 7.32572 164.438 7.15574 166.127 7.15574C171.817 7.15574 175.271 10.3332 175.271 15.1647C175.271 19.8609 171.677 23.3408 165.81 23.3408C164.118 23.3408 162.112 23.2074 161.327 23.2074C160.85 23.2074 159.228 23.2749 158.695 23.2749V22.8345ZM162.746 22.0163C163.326 22.1216 164.396 22.1874 165.241 22.1874C170.021 22.1874 172.509 19.3105 172.509 15.2981C172.509 11.1382 169.884 8.21134 165.415 8.21134C164.502 8.21134 163.361 8.27985 162.746 8.37962V22.0163Z" fill="#1D1D1B"/>
<path d="M94.2899 21.3608C94.2899 22.1836 94.8111 22.6306 95.7701 22.8344V23.275C95.2357 23.275 93.4953 23.2073 92.9947 23.2073C92.572 23.2073 90.8644 23.275 90.3311 23.275V22.8344C91.2214 22.6636 91.7464 22.2202 91.7464 21.3608V9.10091C91.7464 8.34654 91.3388 7.86958 90.3328 7.69939V7.25881C90.8674 7.25881 92.5542 7.32561 93.0275 7.32561C93.81 7.32561 96.0286 7.1952 96.9038 7.1952C100.73 7.1952 102.86 8.77776 102.86 11.4846C102.86 13.6186 101.271 15.0546 98.8323 15.6473C98.8323 15.6473 99.3854 15.9696 99.9421 16.6184C100.618 17.4121 102.481 20.0797 103.234 20.9934C103.988 21.9084 104.954 22.9301 105.987 22.9771V23.3371C105.492 23.4439 104.7 23.5352 104.094 23.5352C102.789 23.5352 101.753 23.0786 100.745 21.8575C99.8766 20.7981 98.3568 18.5458 97.4861 17.4338C96.9302 16.7254 96.2596 16.1734 95.0283 15.9696C94.7858 15.9281 94.5577 15.8962 94.2899 15.8662V21.3608ZM94.2899 14.8491C94.7962 14.9157 95.5446 14.9495 96.2869 14.9495C99.2792 14.9495 100.219 13.227 100.219 11.7052C100.219 9.54425 98.7804 8.21124 96.159 8.21124C95.6189 8.21124 94.8319 8.27995 94.2899 8.37951V14.8491Z" fill="#1D1D1B"/>
<path d="M144.723 21.3608C144.723 22.1836 145.246 22.6306 146.206 22.8344V23.275C145.672 23.275 143.934 23.2073 143.433 23.2073C143.003 23.2073 141.301 23.275 140.766 23.275V22.8344C141.654 22.6636 142.18 22.2202 142.18 21.3608V9.10091C142.18 8.34654 141.769 7.86958 140.769 7.69939V7.25881C141.305 7.25881 142.986 7.32561 143.463 7.32561C144.248 7.32561 146.465 7.1952 147.335 7.1952C151.168 7.1952 153.291 8.77776 153.291 11.4846C153.291 13.6186 151.706 15.0546 149.265 15.6473C149.265 15.6473 149.821 15.9696 150.373 16.6184C151.055 17.4121 152.918 20.0797 153.669 20.9934C154.425 21.9084 155.392 22.9301 156.419 22.9771V23.3371C155.931 23.4439 155.134 23.5352 154.534 23.5352C153.227 23.5352 152.186 23.0786 151.181 21.8575C150.312 20.7981 148.797 18.5458 147.919 17.4338C147.363 16.7254 146.694 16.1734 145.466 15.9696C145.22 15.9281 144.994 15.8962 144.723 15.8662V21.3608ZM144.723 14.8491C145.235 14.9157 145.979 14.9495 146.722 14.9495C149.716 14.9495 150.653 13.227 150.653 11.7052C150.653 9.54425 149.213 8.21124 146.597 8.21124C146.052 8.21124 145.268 8.27995 144.723 8.37951V14.8491Z" fill="#1D1D1B"/>
<path d="M71.0956 22.8316C72.108 22.595 72.6641 21.9394 73.0332 21.0621L78.1559 8.73646C78.3738 8.22653 78.6273 7.17815 78.6273 7.17815H80.0608C80.0608 7.17815 80.3171 8.22929 80.5303 8.74029L85.944 21.0959C86.3301 21.9468 86.748 22.5612 87.8244 22.8316L87.8216 23.2422C87.2356 23.2422 85.4135 23.2084 84.999 23.2084C84.5868 23.2084 82.8464 23.2422 82.2613 23.2422L82.2632 22.8316C83.0512 22.6382 83.3001 22.2372 83.3001 21.8492C83.3001 21.5197 83.164 21.1476 82.9987 20.7617L81.8348 18.1071H75.8696L74.8038 20.7766C74.6845 21.0791 74.5426 21.5065 74.5426 21.7947C74.5426 22.24 74.7755 22.595 75.6696 22.8316L75.6677 23.2422C75.138 23.2422 73.7395 23.2084 73.4119 23.2084L71.0947 23.2422L71.0956 22.8316ZM81.2949 16.8486L78.7475 10.9136L76.3751 16.8486H81.2949Z" fill="#1D1D1B"/>
<path d="M121.847 22.8316C122.858 22.595 123.416 21.9394 123.783 21.0621L128.908 8.73646C129.126 8.22653 129.382 7.17815 129.382 7.17815H130.815C130.815 7.17815 131.069 8.22929 131.282 8.74029L136.697 21.0959C137.08 21.9468 137.502 22.5612 138.574 22.8316L138.572 23.2422C137.988 23.2422 136.164 23.2084 135.746 23.2084C135.338 23.2084 133.598 23.2422 133.012 23.2422V22.8316C133.805 22.6382 134.05 22.2372 134.05 21.8492C134.05 21.5197 133.916 21.1476 133.754 20.7617L132.585 18.1071H126.62L125.553 20.7766C125.434 21.0791 125.293 21.5065 125.293 21.7947C125.293 22.24 125.526 22.595 126.42 22.8316V23.2422C125.888 23.2422 124.492 23.2084 124.162 23.2084L121.845 23.2422L121.847 22.8316ZM132.046 16.8486L129.497 10.9136L127.126 16.8486H132.046Z" fill="#1D1D1B"/>
<path d="M4.41113 2.27526H40.1287V15.7675C40.1287 21.9495 37.8275 35.0594 22.4032 44.8164C22.4032 44.8164 5.69032 37.8367 4.41113 15.7675L4.41113 2.27526Z" fill="#A81D28"/>
<path d="M4.33789 2.2392H40.0902V15.7408C40.0902 21.9249 37.7862 35.0421 22.3478 44.8057C22.3478 44.8057 5.619 37.8215 4.33789 15.7408L4.33789 2.2392Z" stroke="#12110C" stroke-width="0.0489297"/>
<path d="M31.446 19.6127C31.446 19.6127 31.1276 20.6279 29.7114 19.5844L24.8488 19.467C24.8488 19.467 24.2121 19.6719 24.1255 19.0058C24.1255 19.0058 24.2421 17.6751 24.1829 17.5585C24.1829 17.5585 24.2121 17.1828 23.5732 17.1828C23.5732 17.1828 22.5908 17.2984 22.5617 16.4287C22.5617 16.4287 22.39 15.5026 23.749 15.5335C23.749 15.5335 24.1829 15.7354 24.2121 15.1842C24.2121 15.1842 24.1549 11.4206 24.1829 11.1332C24.1829 11.1332 24.2993 10.7875 23.6324 10.7284C23.6324 10.7284 22.6783 10.9303 22.5617 10.2955C22.5617 10.2955 22.5044 9.34028 23.1422 9.28114C23.1422 9.28114 23.9228 9.34028 24.0672 9.13647C24.0672 9.13647 24.2421 9.25093 24.2121 8.55974L24.2421 7.37054C24.2421 7.37054 24.3257 7.05313 24.8188 7.08419C24.8188 7.08419 25.7166 7.14142 25.834 7.05313C25.834 7.05313 26.0342 6.79402 26.0933 6.67638C26.0933 6.67638 26.5573 6.64829 26.6428 6.76466C26.6428 6.76466 27.3378 7.22779 29.9713 7.05313C29.9713 7.05313 30.3772 7.05313 30.4617 7.16971C30.4617 7.16971 30.9557 7.5452 31.2441 7.14142C31.2441 7.14142 31.6781 7.05313 32.9799 7.08419C32.9799 7.08419 34.3999 7.45882 35.3815 6.64829L35.7008 6.70658C35.7008 6.70658 36.1056 7.37054 36.3949 7.16971C36.3949 7.16971 37.2638 7.08419 37.4074 7.25694C37.4074 7.25694 37.6958 7.68816 37.552 8.82077C37.552 8.82077 37.3803 9.31113 38.2189 9.31113C38.2189 9.31113 39.1752 9.13647 39.0576 10.0334C39.0576 10.0334 39.3177 11.0469 37.7277 10.903C37.7277 10.903 37.5239 11.1924 37.552 11.3953C37.552 11.3953 37.5239 14.693 37.4948 15.0714C37.4948 15.0714 37.4665 15.5928 38.1598 15.5626C38.1598 15.5626 39.0869 15.5026 39.1178 16.3432C39.1178 16.3432 39.2324 17.443 37.8996 17.2392C37.8996 17.2392 37.4948 17.2984 37.4346 17.5585L37.3803 19.0058C37.3803 19.0058 37.4074 19.7291 36.5987 19.5544C36.4832 19.5544 32.0847 19.6438 31.7073 19.5283C31.7073 19.5283 31.5024 19.4991 31.446 19.6127Z" fill="white"/>
<path d="M22.0975 24.4497C22.0975 24.4497 22.3004 24.3641 22.3576 24.2214C22.3576 24.2214 22.9663 24.162 23.0516 24.0759L24.963 24.2214C24.963 24.2214 26.8434 24.3641 27.6539 23.7827C27.6539 23.7827 27.9452 23.7827 28.1479 23.871C28.1479 23.871 28.5508 23.9593 28.6664 24.1303L29.7673 24.1012C29.7673 24.1012 30.404 24.3059 30.3449 24.7115V25.2311C30.3449 25.2311 30.2285 26.2737 30.5178 26.3328H31.3592C31.3592 26.3328 32.0544 26.6504 31.967 27.0551C31.967 27.0551 31.9961 27.6318 31.3894 27.7492C31.3894 27.7492 30.7788 27.922 30.5787 27.8947C30.5787 27.8947 30.3749 28.1541 30.3449 28.4723L30.2604 32.2642C30.2604 32.2642 30.2013 32.669 30.8099 32.6116C30.8099 32.6116 31.7049 32.5243 31.967 33.0183C31.967 33.0183 32.1989 33.8561 31.736 34.0007L31.3894 34.1726L30.635 34.293C30.635 34.293 30.3187 34.3192 30.2885 34.8687V35.8801C30.2885 35.8801 30.3187 36.5772 29.7673 36.5772L28.9568 36.6353C28.9568 36.6353 28.7547 36.8063 28.35 36.6908C28.35 36.6908 23.4292 36.7799 23.2554 36.721L22.6761 36.8382C22.6761 36.8382 22.04 37.4169 21.5188 36.981L21.114 36.6625C21.114 36.6625 20.8238 36.721 20.7102 36.6908C20.5938 36.6625 15.2681 36.7499 15.2681 36.7499C15.2681 36.7499 14.1391 36.8674 14.0536 36.4889C14.0536 36.4889 13.9092 35.0142 13.9664 34.8376C13.9664 34.8376 13.9664 34.4056 13.7062 34.3775C13.7062 34.3775 12.5772 34.3192 12.5481 34.2018C12.5481 34.2018 11.9394 33.7699 12.1132 33.3366C12.1132 33.3366 12.3171 32.7554 12.9238 32.6979C12.9238 32.6979 13.8498 32.8445 13.8498 32.5835C13.8498 32.5835 13.9092 32.4097 13.9092 32.1214C13.9092 32.1214 13.9664 28.6753 13.9373 28.4442C13.9373 28.4442 14.0236 28.0103 13.6471 28.0103C13.6471 28.0103 13.2422 28.1249 12.9829 27.9522C12.9829 27.9522 12.2879 27.9813 12.1432 27.4308C12.1432 27.4308 12.0269 27.0842 12.1996 26.7921C12.1996 26.7921 12.5192 26.1562 13.4452 26.3598C13.4452 26.3598 13.9664 26.5056 14.0236 26.1307L13.9964 24.7388C13.9964 24.7388 13.879 24.3641 14.6031 24.162C14.6031 24.162 15.5292 24.4214 15.8176 23.9593C15.8176 23.9593 16.137 23.3205 16.3944 23.7547C16.3944 23.7547 16.9466 24.2769 18.4513 24.2214C18.4513 24.2214 21.0567 24.0167 21.114 24.1303C21.114 24.1303 21.7509 24.2214 21.9236 24.4214L22.0975 24.4497Z" fill="white"/>
<path d="M14.2286 19.613C14.2286 19.613 13.9092 20.6282 12.4911 19.5838L7.62944 19.4673C7.62944 19.4673 6.99271 19.6721 6.90528 19.0054C6.90528 19.0054 7.02186 17.6754 6.96165 17.5588C6.96165 17.5588 6.99271 17.1812 6.35492 17.1812C6.35492 17.1812 5.3725 17.2995 5.34421 16.4309C5.34421 16.4309 5.16955 15.5018 6.52958 15.5337C6.52958 15.5337 6.96165 15.7356 6.99271 15.1855C6.99271 15.1855 6.93442 11.4236 6.96165 11.1326C6.96165 11.1326 7.07993 10.7888 6.41407 10.7295C6.41407 10.7295 5.45781 10.9305 5.34421 10.2938C5.34421 10.2938 5.28507 9.34052 5.92094 9.28138C5.92094 9.28138 6.70254 9.34052 6.84805 9.14034C6.84805 9.14034 7.02186 9.25224 6.99271 8.55701L7.02186 7.37185C7.02186 7.37185 7.10908 7.05338 7.59838 7.08252C7.59838 7.08252 8.49826 7.13975 8.61462 7.05338C8.61462 7.05338 8.81672 6.79426 8.87204 6.67662C8.87204 6.67662 9.33793 6.64939 9.4243 6.76214C9.4243 6.76214 10.1174 7.22804 12.7539 7.05338C12.7539 7.05338 13.1568 7.05338 13.2442 7.16996C13.2442 7.16996 13.7354 7.54544 14.0248 7.13975C14.0248 7.13975 14.4587 7.05338 15.7622 7.08252C15.7622 7.08252 17.1777 7.45822 18.1631 6.64939L18.4805 6.70874C18.4805 6.70874 18.8854 7.37185 19.1775 7.16996C19.1775 7.16996 20.0444 7.08252 20.1899 7.25718C20.1899 7.25718 20.4801 7.69117 20.3326 8.82102C20.3326 8.82102 20.1607 9.31223 20.9996 9.31223C20.9996 9.31223 21.9537 9.14034 21.8392 10.0336C21.8392 10.0336 22.1003 11.0471 20.5084 10.9033C20.5084 10.9033 20.3046 11.1935 20.3326 11.3956C20.3326 11.3956 20.3046 14.6932 20.2763 15.0717C20.2763 15.0717 20.2482 15.5893 20.9423 15.5629C20.9423 15.5629 21.8684 15.5018 21.8965 16.3445C21.8965 16.3445 22.012 17.4433 20.682 17.2395C20.682 17.2395 20.2763 17.2995 20.2171 17.5588L20.1607 19.0054C20.1607 19.0054 20.1899 19.7294 19.3774 19.5566C19.2619 19.5566 14.8655 19.6421 14.4877 19.5285C14.4877 19.5285 14.2858 19.4994 14.2286 19.613Z" fill="white"/>
<path d="M31.446 19.6127C31.446 19.6127 31.1276 20.6279 29.7114 19.5844L24.8488 19.467C24.8488 19.467 24.2121 19.6719 24.1255 19.0058C24.1255 19.0058 24.2421 17.6751 24.1829 17.5585C24.1829 17.5585 24.2121 17.1828 23.5732 17.1828C23.5732 17.1828 22.5908 17.2984 22.5617 16.4287C22.5617 16.4287 22.39 15.5026 23.749 15.5335C23.749 15.5335 24.1829 15.7354 24.2121 15.1842C24.2121 15.1842 24.1549 11.4206 24.1829 11.1332C24.1829 11.1332 24.2993 10.7875 23.6324 10.7284C23.6324 10.7284 22.6783 10.9303 22.5617 10.2955C22.5617 10.2955 22.5044 9.34028 23.1422 9.28114C23.1422 9.28114 23.9228 9.34028 24.0672 9.13647C24.0672 9.13647 24.2421 9.25093 24.2121 8.55974L24.2421 7.37054C24.2421 7.37054 24.3257 7.05313 24.8188 7.08419C24.8188 7.08419 25.7166 7.14142 25.834 7.05313C25.834 7.05313 26.0342 6.79402 26.0933 6.67638C26.0933 6.67638 26.5573 6.64829 26.6428 6.76466C26.6428 6.76466 27.3378 7.22779 29.9713 7.05313C29.9713 7.05313 30.3772 7.05313 30.4617 7.16971C30.4617 7.16971 30.9557 7.5452 31.2441 7.14142C31.2441 7.14142 31.6781 7.05313 32.9799 7.08419C32.9799 7.08419 34.3999 7.45882 35.3815 6.64829L35.7008 6.70658C35.7008 6.70658 36.1056 7.37054 36.3949 7.16971C36.3949 7.16971 37.2638 7.08419 37.4074 7.25694C37.4074 7.25694 37.6958 7.68816 37.552 8.82077C37.552 8.82077 37.3803 9.31113 38.2189 9.31113C38.2189 9.31113 39.1752 9.13647 39.0576 10.0334C39.0576 10.0334 39.3177 11.0469 37.7277 10.903C37.7277 10.903 37.5239 11.1924 37.552 11.3953C37.552 11.3953 37.5239 14.693 37.4948 15.0714C37.4948 15.0714 37.4665 15.5928 38.1598 15.5626C38.1598 15.5626 39.0869 15.5026 39.1178 16.3432C39.1178 16.3432 39.2324 17.443 37.8996 17.2392C37.8996 17.2392 37.4948 17.2984 37.4346 17.5585L37.3803 19.0058C37.3803 19.0058 37.4074 19.7291 36.5987 19.5544C36.4832 19.5544 32.0847 19.6438 31.7073 19.5283C31.7073 19.5283 31.5024 19.4991 31.446 19.6127Z" fill="#12110C"/>
<path d="M31.4459 19.6136C31.4459 19.6136 31.1274 20.629 29.7113 19.5855L24.8476 19.468C24.8476 19.468 24.2109 19.6727 24.1246 19.006C24.1246 19.006 24.242 17.6751 24.1818 17.5585C24.1818 17.5585 24.2109 17.1828 23.5731 17.1828C23.5731 17.1828 22.5899 17.2994 22.5607 16.4295C22.5607 16.4295 22.3888 15.5035 23.7478 15.5335C23.7478 15.5335 24.1818 15.7356 24.2109 15.1852C24.2109 15.1852 24.1537 11.4215 24.1818 11.1332C24.1818 11.1332 24.2992 10.7866 23.6323 10.7284C23.6323 10.7284 22.6771 10.9305 22.5607 10.2954C22.5607 10.2954 22.5043 9.33918 23.1411 9.2811C23.1411 9.2811 23.9216 9.33918 24.0665 9.13644C24.0665 9.13644 24.242 9.2509 24.2109 8.55865L24.242 7.36966C24.242 7.36966 24.3245 7.05225 24.8196 7.08331C24.8196 7.08331 25.7165 7.14054 25.833 7.05225C25.833 7.05225 26.0332 6.79399 26.0932 6.67634C26.0932 6.67634 26.5564 6.64741 26.6427 6.76399C26.6427 6.76399 27.3369 7.22691 29.9712 7.05225C29.9712 7.05225 30.3771 7.05225 30.4616 7.16862C30.4616 7.16862 30.9556 7.54431 31.244 7.14054C31.244 7.14054 31.678 7.05225 32.9798 7.08331C32.9798 7.08331 34.3998 7.45794 35.3822 6.64741L35.7017 6.70464C35.7017 6.70464 36.1064 7.36966 36.3948 7.16862C36.3948 7.16862 37.2637 7.08331 37.4073 7.25499C37.4073 7.25499 37.6966 7.68812 37.553 8.81883C37.553 8.81883 37.3802 9.3111 38.2197 9.3111C38.2197 9.3111 39.1751 9.13644 39.0575 10.0325C39.0575 10.0325 39.3176 11.0468 37.7276 10.9022C37.7276 10.9022 37.5247 11.1915 37.553 11.3953C37.553 11.3953 37.5247 14.6929 37.4955 15.0705C37.4955 15.0705 37.4664 15.5918 38.1606 15.5637C38.1606 15.5637 39.0885 15.5035 39.1185 16.3431C39.1185 16.3431 39.2323 17.443 37.9004 17.2392C37.9004 17.2392 37.4955 17.2994 37.4355 17.5585L37.3802 19.006C37.3802 19.006 37.4073 19.7301 36.5997 19.5555C36.4842 19.5555 32.0846 19.6438 31.7072 19.5283C31.7072 19.5283 31.5023 19.5 31.4459 19.6136Z" stroke="#12110C" stroke-width="0.00212738"/>
<path d="M25.9767 7.68946C25.9767 7.68946 26.0339 8.26896 26.0339 8.41553C26.0339 8.55913 25.9486 16.7776 25.9486 16.7776C25.9486 16.7776 26.0339 17.4143 25.4863 17.7337C25.4863 17.7337 25.3397 17.79 25.3125 17.3852L25.3691 8.70571C25.3691 8.70571 25.4272 7.63202 25.9767 7.68946Z" fill="white"/>
<path d="M25.9765 7.68848C25.9765 7.68848 26.0329 8.26797 26.0329 8.41455C26.0329 8.559 25.9484 16.7785 25.9484 16.7785C25.9484 16.7785 26.0329 17.4153 25.4853 17.7335C25.4853 17.7335 25.3387 17.791 25.3096 17.3861L25.3679 8.70472C25.3679 8.70472 25.4251 7.63104 25.9765 7.68848Z" stroke="#12110C" stroke-width="0.00255285"/>
<path d="M25.0216 17.8193C25.0216 17.8193 25.0791 9.65828 25.0518 9.51362C25.0216 9.37087 25.0791 9.6319 25.0791 9.6319C25.0791 9.6319 24.9925 8.21166 25.3692 7.63132C25.3692 7.63132 25.2518 7.14202 24.5868 7.74875L24.5576 8.93391C24.5576 8.93391 24.5576 9.60084 23.9509 9.5717C23.9509 9.5717 23.2559 9.5417 22.9374 9.86017C22.9374 9.86017 22.7638 10.4977 23.4286 10.3833C23.4286 10.3833 24.4713 10.3833 24.5296 10.8143L24.4713 15.1856C24.4713 15.1856 24.7031 15.9126 23.8937 15.9126C23.8937 15.9126 22.9066 15.8506 22.9374 16.4584C22.9374 16.4584 23.1412 16.9786 23.9801 16.8067C23.9801 16.8067 24.5868 16.9203 24.5576 17.5017V18.6007C24.5576 18.6007 24.4993 19.0375 25.0791 19.0647H29.5938C29.5938 19.0647 29.824 19.0928 29.824 18.8034C29.824 18.8034 29.7959 18.5726 29.4491 18.5726L25.6875 18.5143C25.6875 18.5143 25.0791 18.7181 25.0216 17.8193Z" fill="white"/>
<path d="M25.8902 17.8059C25.8902 17.8059 25.7738 18.2107 26.2076 18.126H29.1889L29.9975 18.3018C29.9975 18.3018 30.8363 18.0971 29.9975 17.6348C29.9975 17.6348 27.3357 17.6612 27.1047 17.6048C27.1047 17.6048 26.5543 17.461 26.4358 17.4321C26.4358 17.4321 26.1495 17.3166 25.8902 17.8059Z" fill="white"/>
<path d="M25.8892 17.806C25.8892 17.806 25.7728 18.2117 26.2066 18.1272H29.1887L29.9976 18.3027C29.9976 18.3027 30.837 18.0972 29.9976 17.6341C29.9976 17.6341 27.3356 17.6603 27.1035 17.605C27.1035 17.605 26.5534 17.4603 26.4359 17.4311C26.4359 17.4311 26.1485 17.3156 25.8892 17.806Z" stroke="#12110C" stroke-width="0.00255285"/>
<path d="M30.8377 18.2118C30.8377 18.2118 30.2882 18.2118 30.3165 18.9368C30.3165 18.9368 30.3746 19.4844 30.9532 19.4844C30.9532 19.4844 31.4725 19.3991 31.4172 18.8204C31.4172 18.8204 31.0979 18.0971 30.8377 18.2118Z" fill="white"/>
<path d="M31.2425 17.9228C31.2425 17.9228 31.5027 17.6345 31.6774 17.6345C31.6774 17.6345 34.5713 17.8936 35.0597 17.5471C35.0597 17.5471 35.4964 17.4607 35.6128 17.5471C35.6128 17.5471 36.0459 17.8936 36.0459 18.0966C36.0459 18.0966 36.0177 18.3584 35.4964 18.2102C35.4964 18.2102 32.226 18.2421 32.0522 18.2421C32.0522 18.2421 31.1534 18.4431 31.2425 17.9228Z" fill="white"/>
<path d="M31.2425 17.923C31.2425 17.923 31.5027 17.6336 31.6774 17.6336C31.6774 17.6336 34.5721 17.893 35.0616 17.5462C35.0616 17.5462 35.4981 17.4598 35.6147 17.5462C35.6147 17.5462 36.0477 17.893 36.0477 18.0976C36.0477 18.0976 36.0196 18.3597 35.4981 18.2112C35.4981 18.2112 32.226 18.2431 32.0522 18.2431C32.0522 18.2431 31.1534 18.4442 31.2425 17.923Z" stroke="#12110C" stroke-width="0.00255285"/>
<path d="M31.6191 18.8615C31.6191 18.8615 31.6191 18.6275 32.0248 18.6275L36.0749 18.5994C36.0749 18.5994 36.4525 18.8024 36.4525 18.1091C36.4525 18.1091 36.6008 14.9544 36.614 11.481C36.6187 10.4469 36.6657 9.36213 36.6291 8.35695C36.6291 8.35695 36.5389 7.92211 36.4225 7.83383C36.4225 7.83383 36.4225 7.37176 36.9155 7.54557C36.9155 7.54557 37.3494 7.57471 37.2339 8.2425L37.2639 9.25109C37.2639 9.25109 37.1767 9.68784 37.9562 9.57062C37.9562 9.57062 38.7367 9.68784 38.7678 9.97524C38.7678 9.97524 38.9988 10.5567 38.0745 10.4975H37.4058C37.4058 10.4975 37.1176 10.6705 37.2039 11.0189L37.1176 15.2162C37.1176 15.2162 37.0593 15.9385 37.7543 15.9113C37.7543 15.9113 38.4765 15.8813 38.622 16.1134C38.622 16.1134 39.1171 16.8365 38.0445 16.7784C38.0445 16.7784 37.3786 16.7482 37.2339 16.8656C37.2339 16.8656 37.1176 17.0092 37.031 18.3711C37.031 18.3711 37.0901 19.1817 36.4815 19.0925C36.4815 19.0925 32.458 19.1498 32.0823 19.0645C32.0823 19.0645 31.6774 19.1817 31.6191 18.8615Z" fill="white"/>
<path d="M26.4118 7.42625L26.3244 16.7191C26.3244 16.7191 26.2963 17.1503 27.0196 17.2375C27.0196 17.2375 27.8582 17.3239 28.0592 17.2375C28.0592 17.2375 28.6126 17.2075 30.0279 17.2666C30.0279 17.2666 30.3772 17.617 30.4064 17.1794C30.4064 17.1794 30.6355 9.65787 30.523 8.09127C30.523 8.09127 30.491 7.42625 30.0007 7.3971C30.0007 7.3971 27.801 7.57474 27.5982 7.3971L26.7294 7.16798C26.7294 7.16798 26.3818 7.19606 26.4118 7.42625Z" fill="white"/>
<path d="M30.9811 7.89066C30.9811 7.89066 30.8947 12.2609 30.9237 12.4056L30.8665 16.08L30.749 17.3545C30.749 17.3545 30.9237 17.6145 31.0686 17.4417C31.0686 17.4417 31.9946 17.2069 32.573 17.2981C32.573 17.2981 34.4273 17.47 34.8019 17.1788C34.8019 17.1788 35.0921 17.3234 35.1767 16.8603C35.1767 16.8603 35.2912 8.75948 35.2378 8.61482C35.2378 8.61482 35.3495 7.45391 35.2912 7.34116C35.2912 7.34116 35.2659 7.08098 34.7727 7.31116C34.7727 7.31116 34.8291 7.54411 32.0818 7.45391C32.0818 7.45391 31.0403 7.42562 30.9811 7.89066Z" fill="white"/>
<path d="M35.5847 7.77657L35.5566 16.92C35.5566 16.92 35.7877 17.7333 36.1634 17.648C36.1634 17.648 36.2197 17.4723 36.2478 17.183L36.3653 8.47074C36.3653 8.47074 36.074 7.08433 35.5847 7.77657Z" fill="white"/>
<path d="M35.5847 7.77561L35.5566 16.921C35.5566 16.921 35.7885 17.7345 36.1642 17.649C36.1642 17.649 36.2217 17.4733 36.2497 17.1839L36.3661 8.46977C36.3661 8.46977 36.0751 7.08336 35.5847 7.77561Z" stroke="#12110C" stroke-width="0.00255285"/>
<path d="M32.0316 10.5148C31.9452 10.2838 32.5236 10.2546 32.5236 10.2546L32.814 10.3118C33.017 10.2838 33.2197 10.371 33.2197 10.371C33.4218 10.6886 33.0742 10.8614 33.0742 10.8614L32.9587 11.239C32.9287 11.5583 32.9587 14.3075 32.9587 14.3075C33.017 14.4502 33.248 14.7096 33.248 14.7096C33.248 14.9714 32.9287 14.9142 32.9287 14.9142L32.0907 14.9434C31.8297 14.9142 31.916 14.6238 31.916 14.6238C32.2054 14.4794 32.2928 13.9571 32.2928 13.9571V11.0934L32.0316 10.5148Z" fill="#12110C"/>
<path d="M28.1249 13.2066L28.0677 14.1035L28.326 14.5366C28.5017 14.7676 28.2113 14.9434 28.2113 14.9434L27.2852 14.8568C27.1134 14.7676 27.2852 14.4792 27.2852 14.4792C27.5173 14.3366 27.5463 13.958 27.5463 13.958L27.5173 12.2797L27.5463 11.0643C27.5463 10.9186 27.3152 10.6603 27.3152 10.6603C27.1134 10.6312 27.1706 10.371 27.1706 10.371C27.228 10.2255 27.7182 10.3118 27.7182 10.3118H28.9354C30.0936 10.6886 29.9198 11.5281 29.9198 11.5281C30.0072 12.366 29.1101 12.7154 29.1101 12.7154L29.0501 13.1785L29.8906 14.5075C30.0353 14.6238 30.0072 14.7413 30.0072 14.7413C29.8906 15.0597 29.4267 14.7413 29.4267 14.7413L28.3862 13.1193C28.2987 13.0028 28.1249 13.2066 28.1249 13.2066ZM28.1541 10.9186C28.1821 11.5572 28.1821 12.4252 28.1821 12.4252C28.7336 12.86 29.0501 12.2505 29.0501 12.2505C29.7724 11.5572 29.0501 10.9186 28.9354 10.7467C28.818 10.572 28.2396 10.7167 28.2396 10.7167L28.1541 10.9186Z" fill="#12110C"/>
<path d="M22.0975 24.4497C22.0975 24.4497 22.3004 24.3641 22.3576 24.2214C22.3576 24.2214 22.9663 24.162 23.0516 24.0759L24.963 24.2214C24.963 24.2214 26.8434 24.3641 27.6539 23.7827C27.6539 23.7827 27.9452 23.7827 28.1479 23.871C28.1479 23.871 28.5508 23.9593 28.6664 24.1303L29.7673 24.1012C29.7673 24.1012 30.404 24.3059 30.3449 24.7115V25.2311C30.3449 25.2311 30.2285 26.2737 30.5178 26.3328H31.3592C31.3592 26.3328 32.0544 26.6504 31.967 27.0551C31.967 27.0551 31.9961 27.6318 31.3894 27.7492C31.3894 27.7492 30.7788 27.922 30.5787 27.8947C30.5787 27.8947 30.3749 28.1541 30.3449 28.4723L30.2604 32.2642C30.2604 32.2642 30.2013 32.669 30.8099 32.6116C30.8099 32.6116 31.7049 32.5243 31.967 33.0183C31.967 33.0183 32.1989 33.8561 31.736 34.0007L31.3894 34.1726L30.635 34.293C30.635 34.293 30.3187 34.3192 30.2885 34.8687V35.8801C30.2885 35.8801 30.3187 36.5772 29.7673 36.5772L28.9568 36.6353C28.9568 36.6353 28.7547 36.8063 28.35 36.6908C28.35 36.6908 23.4292 36.7799 23.2554 36.721L22.6761 36.8382C22.6761 36.8382 22.04 37.4169 21.5188 36.981L21.114 36.6625C21.114 36.6625 20.8238 36.721 20.7102 36.6908C20.5938 36.6625 15.2681 36.7499 15.2681 36.7499C15.2681 36.7499 14.1391 36.8674 14.0536 36.4889C14.0536 36.4889 13.9092 35.0142 13.9664 34.8376C13.9664 34.8376 13.9664 34.4056 13.7062 34.3775C13.7062 34.3775 12.5772 34.3192 12.5481 34.2018C12.5481 34.2018 11.9394 33.7699 12.1132 33.3366C12.1132 33.3366 12.3171 32.7554 12.9238 32.6979C12.9238 32.6979 13.8498 32.8445 13.8498 32.5835C13.8498 32.5835 13.9092 32.4097 13.9092 32.1214C13.9092 32.1214 13.9664 28.6753 13.9373 28.4442C13.9373 28.4442 14.0236 28.0103 13.6471 28.0103C13.6471 28.0103 13.2422 28.1249 12.9829 27.9522C12.9829 27.9522 12.2879 27.9813 12.1432 27.4308C12.1432 27.4308 12.0269 27.0842 12.1996 26.7921C12.1996 26.7921 12.5192 26.1562 13.4452 26.3598C13.4452 26.3598 13.9664 26.5056 14.0236 26.1307L13.9964 24.7388C13.9964 24.7388 13.879 24.3641 14.6031 24.162C14.6031 24.162 15.5292 24.4214 15.8176 23.9593C15.8176 23.9593 16.137 23.3205 16.3944 23.7547C16.3944 23.7547 16.9466 24.2769 18.4513 24.2214C18.4513 24.2214 21.0567 24.0167 21.114 24.1303C21.114 24.1303 21.7509 24.2214 21.9236 24.4214L22.0975 24.4497Z" fill="#12110C"/>
<path d="M22.0975 24.4141C22.0975 24.4141 22.2983 24.3297 22.3577 24.185C22.3577 24.185 22.9653 24.1259 23.0516 24.0393L24.9622 24.185C24.9622 24.185 26.8435 24.3297 27.654 23.7483C27.654 23.7483 27.9452 23.7483 28.148 23.8366C28.148 23.8366 28.552 23.9238 28.6656 24.0948L29.7682 24.0665C29.7682 24.0665 30.4041 24.2714 30.3449 24.676V25.1966C30.3449 25.1966 30.2294 26.239 30.5187 26.2964H31.3593C31.3593 26.2964 32.0534 26.6158 31.9679 27.0206C31.9679 27.0206 31.997 27.5973 31.3895 27.7148C31.3895 27.7148 30.78 27.8875 30.5798 27.8592C30.5798 27.8592 30.376 28.1194 30.3449 28.4379L30.2594 32.2305C30.2594 32.2305 30.2013 32.6335 30.8089 32.5771C30.8089 32.5771 31.7049 32.4918 31.9679 32.9828C31.9679 32.9828 32.2 33.8216 31.7369 33.9671L31.3895 34.1401L30.6351 34.2575C30.6351 34.2575 30.3177 34.2856 30.2896 34.8332V35.8486C30.2896 35.8486 30.3177 36.5425 29.7682 36.5425L28.9577 36.6008C28.9577 36.6008 28.7547 36.7738 28.3501 36.6583C28.3501 36.6583 23.4292 36.7455 23.2554 36.6855L22.6751 36.8027C22.6751 36.8027 22.0401 37.3822 21.5189 36.9455L21.1132 36.627C21.1132 36.627 20.8238 36.6855 20.7094 36.6583C20.5928 36.627 15.2682 36.7163 15.2682 36.7163C15.2682 36.7163 14.1384 36.8329 14.052 36.4553C14.052 36.4553 13.9082 34.9787 13.9654 34.804C13.9654 34.804 13.9654 34.372 13.7044 34.3428C13.7044 34.3428 12.5764 34.2856 12.5464 34.169C12.5464 34.169 11.9386 33.7344 12.1122 33.3013C12.1122 33.3013 12.316 32.7209 12.9238 32.6624C12.9238 32.6624 13.849 32.8111 13.849 32.5469C13.849 32.5469 13.9082 32.3741 13.9082 32.0867C13.9082 32.0867 13.9654 28.6408 13.9373 28.4096C13.9373 28.4096 14.0237 27.9739 13.6461 27.9739C13.6461 27.9739 13.2414 28.0894 12.9811 27.9175C12.9811 27.9175 12.2871 27.9458 12.1424 27.3963C12.1424 27.3963 12.025 27.0497 12.1997 26.7585C12.1997 26.7585 12.5173 26.1216 13.4442 26.3245C13.4442 26.3245 13.9654 26.4711 14.0237 26.0954L13.9945 24.7043C13.9945 24.7043 13.8782 24.3297 14.6023 24.1259C14.6023 24.1259 15.5284 24.3869 15.8177 23.9238C15.8177 23.9238 16.1351 23.2862 16.3944 23.7183C16.3944 23.7183 16.9467 24.2405 18.4503 24.185C18.4503 24.185 21.0568 23.9802 21.1132 24.0948C21.1132 24.0948 21.751 24.185 21.9237 24.3869L22.0975 24.4141Z" stroke="#12110C" stroke-width="0.00212738"/>
<path d="M22.8495 35.824C22.8495 35.824 23.198 35.6483 23.4301 35.7085C23.662 35.7659 27.0471 35.6802 27.0471 35.6802C27.0471 35.6802 28.5226 35.7948 28.7556 35.59L29.1002 35.4755C29.1002 35.4755 29.2457 35.3028 29.2457 35.0726C29.2457 34.8388 29.2748 34.0572 29.2748 34.0572L29.3631 33.77C29.3631 33.77 29.3331 33.4805 29.3631 25.7515C29.3631 25.7515 29.4767 25.1467 29.1002 24.7682C29.1002 24.7682 29.1002 24.5389 29.2157 24.5663C29.3331 24.5974 29.2748 24.5974 29.2748 24.5974C29.2748 24.5974 29.7952 24.4497 29.8807 24.6525C29.8807 24.6525 30.1145 25.3447 29.9107 25.7515C29.9107 25.7515 29.8524 26.592 30.2902 26.592C30.2902 26.592 30.4611 26.7669 30.8087 26.6786C30.8087 26.6786 31.5609 26.7669 31.5609 26.996C31.5609 26.996 31.5609 27.5191 31.0397 27.4319L30.3439 27.4881C30.3439 27.4881 29.8807 27.5774 29.9399 28.1252C29.999 28.6754 29.9107 32.6116 29.9107 32.6116C29.9107 32.6116 29.9107 33.0767 30.6359 33.0475C30.6359 33.0475 31.532 33.0175 31.532 33.2767C31.532 33.2767 31.7628 33.8553 31.1272 33.8855C31.1272 33.8855 29.9107 33.8553 29.999 34.2019C29.999 34.2019 29.9107 35.0143 29.8524 35.157C29.8524 35.157 29.9709 35.824 29.8235 35.9406C29.8235 35.9406 29.738 36.3152 28.9574 36.258C28.9574 36.258 23.9804 36.2297 23.198 36.2871C23.198 36.2871 22.734 36.2297 22.8495 35.824Z" fill="white"/>
<path d="M21.9542 35.2745C21.9542 35.2745 22.4454 35.36 22.4454 35.824C22.4454 36.286 22.4745 36.5471 22.1835 36.6045C21.895 36.6626 21.5776 36.5773 21.4921 36.2014C21.403 35.824 21.5474 35.36 21.9542 35.2745Z" fill="white"/>
<path d="M22.5322 35.0432C22.5322 35.0432 23.0526 34.6937 23.2553 34.7541C23.2553 34.7541 25.8882 34.9258 26.7006 34.7839C27.5101 34.6384 27.018 34.7541 27.018 34.7541C27.018 34.7541 27.7132 34.7541 27.9141 34.4918C27.9141 34.4918 28.1179 34.4363 28.2334 34.6384L28.6655 35.1032C28.6655 35.1032 28.6982 35.3898 28.2042 35.3607C28.2042 35.3607 23.4855 35.3607 23.3428 35.3898C23.3428 35.3898 22.4459 35.5325 22.5322 35.0432Z" fill="white"/>
<path d="M22.5303 35.0432C22.5303 35.0432 23.0506 34.6937 23.2534 34.753C23.2534 34.753 25.8881 34.9258 26.6995 34.7839C27.5102 34.6375 27.0169 34.753 27.0169 34.753C27.0169 34.753 27.713 34.753 27.914 34.4899C27.914 34.4899 28.117 34.4356 28.2333 34.6375L28.6654 35.1032C28.6654 35.1032 28.6973 35.3908 28.2042 35.3606C28.2042 35.3606 23.4855 35.3606 23.3408 35.3908C23.3408 35.3908 22.4439 35.5336 22.5303 35.0432Z" stroke="#12110C" stroke-width="0.00255285"/>
<path d="M15.6735 24.7688C15.6735 24.7688 15.8764 24.7688 15.8471 25.1164L15.7882 33.8558C15.7882 33.8558 15.8764 34.4362 15.3842 34.811C15.3842 34.811 15.1221 35.1284 15.1221 34.6383L15.2404 25.7239C15.2404 25.7239 15.2678 25.0579 15.6735 24.7688Z" fill="white"/>
<path d="M15.6734 24.7679C15.6734 24.7679 15.8764 24.7679 15.849 25.1153L15.7881 33.8569C15.7881 33.8569 15.8764 34.4372 15.3833 34.8121C15.3833 34.8121 15.1201 35.1295 15.1201 34.6391L15.2386 25.7239C15.2386 25.7239 15.2667 25.057 15.6734 24.7679Z" stroke="#12110C" stroke-width="0.00255285"/>
<path d="M15.2108 24.8277C15.2108 24.8277 14.8632 25.4655 14.8923 25.6112L14.8632 27.5477C14.8632 27.5477 14.834 28.7922 14.8632 28.9378C14.8923 29.0816 14.834 32.7287 14.834 32.7287C14.834 32.7287 14.8051 33.4216 14.834 33.6546V35.2167C14.834 35.2167 14.776 35.9126 15.2963 35.736C15.2963 35.736 20.3907 35.6215 20.7101 35.7096C20.7101 35.7096 21.1713 35.7954 21.0002 36.0272C21.0002 36.0272 21.0002 36.2313 20.679 36.1719C20.679 36.1719 18.2774 36.4019 16.1077 36.3166C16.1077 36.3166 14.6604 36.4019 14.5722 36.2313C14.5722 36.2313 14.342 36.2019 14.342 35.3614C14.342 35.3614 14.342 34.5819 14.2856 34.437C14.2856 34.437 14.342 34.0267 13.6189 33.943C13.6189 33.943 12.6062 34.1177 12.5771 33.5101C12.5771 33.5101 12.7209 33.0761 13.7061 33.1325C13.7061 33.1325 14.4294 33.2489 14.2856 32.6685L14.3711 28.3883C14.3711 28.3883 14.4603 27.6324 13.9663 27.6022C13.9663 27.6022 13.5051 27.5788 13.3576 27.6324C13.3576 27.6324 12.519 27.6324 12.5771 27.144C12.5771 27.144 12.8664 26.6217 13.7061 26.7381C13.7061 26.7381 14.342 26.8529 14.3711 26.1313C14.3711 26.1313 14.342 24.6541 14.6885 24.5977C14.6885 24.5977 15.4137 24.6239 15.2108 24.8277Z" fill="white"/>
<path d="M16.078 34.4059C16.078 34.4059 16.4836 34.838 17.1506 34.8126L21.083 34.869C21.083 34.869 21.52 34.8999 21.4926 35.129C21.4926 35.129 21.4306 35.4757 20.9122 35.3602L16.1652 35.303L15.6431 35.3347C15.6431 35.3347 15.2955 35.2747 15.8478 34.6097L16.078 34.4059Z" fill="white"/>
<path d="M16.0756 34.4045C16.0756 34.4045 16.4815 34.8375 17.1492 34.8111L21.0828 34.8685C21.0828 34.8685 21.5185 34.8985 21.4923 35.1285C21.4923 35.1285 21.4312 35.4761 20.9128 35.3616L16.163 35.3042L15.6407 35.3342C15.6407 35.3342 15.2942 35.2753 15.8454 34.6083L16.0756 34.4045Z" stroke="#12110C" stroke-width="0.00255285"/>
<path d="M28.2334 34.0274C28.2334 34.0274 28.5808 34.6944 28.7546 34.7854C28.7546 34.7854 29.0731 35.1584 28.9867 34.4933L29.0439 26.1576C29.0439 26.1576 28.9565 25.8675 29.0439 25.4062L28.6974 24.7693C28.6974 24.7693 28.3198 24.4802 28.3198 24.9423L28.2625 33.8283L28.2334 34.0274Z" fill="white"/>
<path d="M28.2324 34.0282C28.2324 34.0282 28.5809 34.6941 28.7555 34.7862C28.7555 34.7862 29.074 35.16 28.9876 34.4933L29.0449 26.1554C29.0449 26.1554 28.9574 25.8672 29.0449 25.406L28.6975 24.7684C28.6975 24.7684 28.3188 24.4799 28.3188 24.942L28.2616 33.8289L28.2324 34.0282Z" stroke="#12110C" stroke-width="0.00255285"/>
<path d="M21.808 30.065C21.808 30.065 21.8371 30.7573 21.7489 31.4214C21.7018 31.7886 21.8661 33.4792 21.7197 34.3461C21.7197 34.3461 21.6933 34.6363 21.0828 34.3772C21.0828 34.3772 17.3794 34.4625 17.2639 34.3461C17.2639 34.3461 16.2515 34.3772 16.1641 33.8549C16.1641 33.8549 16.3087 29.8904 16.2224 29.7429C16.2224 29.7429 16.1641 27.5732 16.2224 27.3713C16.2224 27.3713 16.3087 25.3746 16.2515 25.1433C16.2515 25.1433 16.2806 24.6802 16.1932 24.4475C16.1932 24.4475 16.1932 24.1581 16.6863 24.3311C16.6863 24.3311 16.8574 24.6504 17.8134 24.5085C17.8134 24.5085 18.5093 24.6232 19.1754 24.5357C19.1754 24.5357 20.6498 24.4202 21.0275 24.5357C21.0275 24.5357 21.607 24.4202 21.7778 25.0589L21.7489 26.8518L21.9216 27.4305L22.1254 27.2867L22.2109 26.8518L22.2401 24.9414C22.2401 24.9414 22.3556 24.593 22.8204 24.5357C22.8204 24.5357 23.5437 24.4475 23.6611 24.5085C23.7767 24.564 25.3367 24.6504 25.7734 24.564C26.2063 24.4775 26.2919 24.8531 27.5966 24.1892C27.5966 24.1892 27.944 24.2183 27.944 24.4475C27.944 24.4475 27.8257 26.9112 27.944 27.3713C27.944 27.3713 27.944 31.8854 27.8538 32.2039L27.9129 33.6509C27.9129 33.6509 27.9704 34.2881 26.9596 34.3461C26.9596 34.3461 27.5966 34.4334 23.6001 34.3178C23.6001 34.3178 22.9642 34.2881 22.2701 34.6055C22.2701 34.6055 22.1254 34.5772 22.1254 34.2015C22.1254 34.2015 22.2401 32.8425 22.1254 31.5086L22.0692 30.0333L21.808 30.065Z" fill="white"/>
<path d="M19.2035 28.0109C19.2035 28.0109 19.2909 30.1516 19.2035 30.4408L19.1763 30.905C19.1763 30.905 19.2909 31.2213 19.4647 31.3387C19.4647 31.3387 19.6103 31.7425 19.2618 31.7144C19.2618 31.7144 18.5396 31.6561 18.3657 31.6836C18.3657 31.6836 17.959 31.6836 18.3657 31.1658C18.3657 31.1658 18.5104 30.9601 18.4804 30.4408C18.4804 30.4408 18.4804 28.0109 18.5396 27.8673C18.5396 27.8673 18.5968 27.5469 18.3938 27.4597L18.0454 27.4897L17.6133 27.8945C17.6133 27.8945 17.525 28.3304 17.3223 27.8673V27.6335L17.5844 26.9393L17.7582 26.9091C17.7582 26.9091 18.0173 27.0831 18.2483 27.1431H19.6103L20.1015 26.9091C20.1015 26.9091 20.3034 26.9393 20.248 27.1995C20.248 27.1995 20.3325 27.8673 19.9568 27.9519C19.9568 27.9519 19.7249 27.8673 19.6103 27.5469C19.6103 27.5469 19.2337 27.3461 19.2035 28.0109Z" fill="#12110C"/>
<path d="M25.5984 27.2304C25.5984 27.2304 24.5005 27.143 24.4732 28.3292C24.4732 28.3292 24.3539 29.1417 25.5712 29.6631C25.5712 29.6631 26.4691 30.0952 26.4089 30.6447C26.4089 30.6447 26.2934 31.629 25.3382 31.1376C25.3382 31.1376 24.8762 30.9046 24.907 30.6447C24.907 30.6447 24.7598 30.3254 24.5868 30.3843C24.5868 30.3843 24.383 30.4409 24.4732 31.3969C24.4732 31.3969 24.4732 31.7735 24.907 31.3969L25.1353 31.4561C25.1353 31.4561 25.9177 32.0928 26.5819 31.3097C26.5819 31.3097 27.3069 30.6447 26.7846 29.835C26.7846 29.835 26.4089 29.2583 25.7441 28.9681C25.7441 28.9681 25.1072 28.676 24.9636 28.1846C24.9636 28.1846 25.1663 27.3149 25.946 27.778C25.946 27.778 26.2362 28.1256 26.4089 28.1846C26.4089 28.1846 26.641 28.1846 26.5819 27.6615L26.5272 27.2304C26.5272 27.2304 26.4691 26.9081 26.0624 27.2304C26.0624 27.2304 25.6858 27.3732 25.5984 27.2304Z" fill="#12110C"/>
<path d="M22.0686 26.6205C22.2705 26.768 22.2996 27.0564 22.2996 27.0564C22.8783 28.5892 23.3714 30.8198 23.3714 30.8198C23.515 31.1063 23.7762 31.3393 23.7762 31.3393C24.2683 31.512 23.7762 31.6558 23.7762 31.6558C23.5733 31.7441 22.9093 31.6294 22.9093 31.6294C22.5598 31.5675 22.7036 31.4548 22.7036 31.4548C22.85 31.3101 22.7336 30.7296 22.7336 30.7296C22.7036 30.5004 22.4453 30.123 22.4453 30.123C22.3298 30.0645 22.1269 30.3249 22.1269 30.3249C22.1269 30.3249 21.8095 30.4413 21.7784 30.3249C21.7493 30.2073 21.5474 30.0977 21.5474 30.0977C21.1998 30.0977 21.0562 30.9606 21.0562 30.9606C21.2581 31.685 21.0562 31.5675 21.0562 31.5675C20.8834 31.8015 20.332 31.6294 20.332 31.6294C20.0718 31.5675 20.2473 31.3656 20.2473 31.3656C20.5639 31.3101 20.6503 30.9606 20.6503 30.9606C20.796 30.7587 21.7201 26.9973 21.7201 26.9973C21.8095 26.8224 21.8656 26.4759 22.0686 26.6205ZM21.6076 28.5301C21.5774 28.6756 21.3736 29.4861 21.3736 29.4861L21.5474 29.7782C21.5474 29.7782 22.0114 29.8046 22.1841 29.8046C22.356 29.8046 22.3871 29.6627 22.3871 29.515C22.3871 29.3717 22.0686 28.5037 22.0686 28.5037L21.9222 28.3299L21.6076 28.5301Z" fill="#12110C"/>
<path d="M14.2286 19.613C14.2286 19.613 13.9092 20.6282 12.4911 19.5838L7.62944 19.4673C7.62944 19.4673 6.99271 19.6721 6.90528 19.0054C6.90528 19.0054 7.02186 17.6754 6.96165 17.5588C6.96165 17.5588 6.99271 17.1812 6.35492 17.1812C6.35492 17.1812 5.3725 17.2995 5.34421 16.4309C5.34421 16.4309 5.16955 15.5018 6.52958 15.5337C6.52958 15.5337 6.96165 15.7356 6.99271 15.1855C6.99271 15.1855 6.93442 11.4236 6.96165 11.1326C6.96165 11.1326 7.07993 10.7888 6.41407 10.7295C6.41407 10.7295 5.45781 10.9305 5.34421 10.2938C5.34421 10.2938 5.28507 9.34052 5.92094 9.28138C5.92094 9.28138 6.70254 9.34052 6.84805 9.14034C6.84805 9.14034 7.02186 9.25224 6.99271 8.55701L7.02186 7.37185C7.02186 7.37185 7.10908 7.05338 7.59838 7.08252C7.59838 7.08252 8.49826 7.13975 8.61462 7.05338C8.61462 7.05338 8.81672 6.79426 8.87204 6.67662C8.87204 6.67662 9.33793 6.64939 9.4243 6.76214C9.4243 6.76214 10.1174 7.22804 12.7539 7.05338C12.7539 7.05338 13.1568 7.05338 13.2442 7.16996C13.2442 7.16996 13.7354 7.54544 14.0248 7.13975C14.0248 7.13975 14.4587 7.05338 15.7622 7.08252C15.7622 7.08252 17.1777 7.45822 18.1631 6.64939L18.4805 6.70874C18.4805 6.70874 18.8854 7.37185 19.1775 7.16996C19.1775 7.16996 20.0444 7.08252 20.1899 7.25718C20.1899 7.25718 20.4801 7.69117 20.3326 8.82102C20.3326 8.82102 20.1607 9.31223 20.9996 9.31223C20.9996 9.31223 21.9537 9.14034 21.8392 10.0336C21.8392 10.0336 22.1003 11.0471 20.5084 10.9033C20.5084 10.9033 20.3046 11.1935 20.3326 11.3956C20.3326 11.3956 20.3046 14.6932 20.2763 15.0717C20.2763 15.0717 20.2482 15.5893 20.9423 15.5629C20.9423 15.5629 21.8684 15.5018 21.8965 16.3445C21.8965 16.3445 22.012 17.4433 20.682 17.2395C20.682 17.2395 20.2763 17.2995 20.2171 17.5588L20.1607 19.0054C20.1607 19.0054 20.1899 19.7294 19.3774 19.5566C19.2619 19.5566 14.8655 19.6421 14.4877 19.5285C14.4877 19.5285 14.2858 19.4994 14.2286 19.613Z" fill="#12110C"/>
<path d="M14.2293 19.6139C14.2293 19.6139 13.91 20.6293 12.4919 19.5847L7.62934 19.4684C7.62934 19.4684 6.99241 19.673 6.90518 19.0054C6.90518 19.0054 7.02262 17.6754 6.96241 17.5588C6.96241 17.5588 6.99241 17.1823 6.35462 17.1823C6.35462 17.1823 5.3722 17.3006 5.34412 16.4317C5.34412 16.4317 5.17031 15.5019 6.53034 15.5338C6.53034 15.5338 6.96241 15.7359 6.99241 15.1864C6.99241 15.1864 6.93412 11.4228 6.96241 11.1327C6.96241 11.1327 7.08069 10.7878 6.41397 10.7295C6.41397 10.7295 5.45772 10.9308 5.34412 10.293C5.34412 10.293 5.28498 9.33949 5.9217 9.28141C5.9217 9.28141 6.70223 9.33949 6.84881 9.13867C6.84881 9.13867 7.02262 9.25227 6.99241 8.55704L7.02262 7.37082C7.02262 7.37082 7.10899 7.05256 7.59913 7.08256C7.59913 7.08256 8.49816 7.13893 8.61453 7.05256C8.61453 7.05256 8.81748 6.7943 8.8728 6.67665C8.8728 6.67665 9.33763 6.64857 9.42506 6.76217C9.42506 6.76217 10.1173 7.22722 12.7546 7.05256C12.7546 7.05256 13.1575 7.05256 13.245 7.16893C13.245 7.16893 13.7362 7.54462 14.0255 7.13893C14.0255 7.13893 14.4603 7.05256 15.7629 7.08256C15.7629 7.08256 17.1796 7.45634 18.1639 6.64857L18.4822 6.70771C18.4822 6.70771 18.887 7.37082 19.1782 7.16893C19.1782 7.16893 20.0451 7.08256 20.1926 7.2553C20.1926 7.2553 20.4808 7.69035 20.3345 8.81913C20.3345 8.81913 20.1615 9.31226 21.0003 9.31226C21.0003 9.31226 21.9564 9.13867 21.84 10.0328C21.84 10.0328 22.101 11.0471 20.51 10.9025C20.51 10.9025 20.3053 11.1926 20.3345 11.3956C20.3345 11.3956 20.3053 14.6932 20.2781 15.0709C20.2781 15.0709 20.2489 15.5901 20.9431 15.564C20.9431 15.564 21.8692 15.5019 21.8983 16.3454C21.8983 16.3454 22.0127 17.4433 20.6827 17.2395C20.6827 17.2395 20.2781 17.3006 20.2189 17.5588L20.1615 19.0054C20.1615 19.0054 20.1926 19.7304 19.3793 19.5575C19.2638 19.5575 14.8663 19.6422 14.4884 19.5286C14.4884 19.5286 14.2865 19.5003 14.2293 19.6139Z" stroke="#12110C" stroke-width="0.00212738"/>
<path d="M8.75852 7.6909C8.75852 7.6909 8.81681 8.26848 8.81681 8.41314C8.81681 8.55781 8.72852 16.7771 8.72852 16.7771C8.72852 16.7771 8.81681 17.4158 8.2656 17.7323C8.2656 17.7323 8.12179 17.7915 8.0918 17.3866L8.15094 8.70438C8.15094 8.70438 8.20816 7.63261 8.75852 7.6909Z" fill="white"/>
<path d="M8.75958 7.6902C8.75958 7.6902 8.81766 8.26778 8.81766 8.41244C8.81766 8.5571 8.72937 16.7773 8.72937 16.7773C8.72937 16.7773 8.81766 17.4159 8.2656 17.7344C8.2656 17.7344 8.12179 17.7927 8.0918 17.3878L8.14902 8.70453C8.14902 8.70453 8.20731 7.63276 8.75958 7.6902Z" stroke="#12110C" stroke-width="0.00255285"/>
<path d="M7.80357 17.8191C7.80357 17.8191 7.85994 9.6581 7.83271 9.51237C7.80357 9.36963 7.85994 9.6298 7.85994 9.6298C7.85994 9.6298 7.77549 8.2134 8.15097 7.63305C8.15097 7.63305 8.0346 7.14077 7.36873 7.7475L7.34235 8.93479C7.34235 8.93479 7.34235 9.60066 6.73286 9.57151C6.73286 9.57151 6.03785 9.54152 5.71853 9.8619C5.71853 9.8619 5.54557 10.4976 6.20974 10.3831C6.20974 10.3831 7.25322 10.3831 7.31044 10.8141L7.25322 15.1854C7.25322 15.1854 7.4851 15.9088 6.67372 15.9088C6.67372 15.9088 5.69023 15.8532 5.71853 16.461C5.71853 16.461 5.92127 16.9822 6.762 16.8076C6.762 16.8076 7.36873 16.9239 7.34235 17.4998V18.6024C7.34235 18.6024 7.2813 19.0373 7.85994 19.0637H12.3757C12.3757 19.0637 12.607 19.0926 12.607 18.8024C12.607 18.8024 12.5776 18.5741 12.2321 18.5741L8.47135 18.5142C8.47135 18.5142 7.85994 18.7171 7.80357 17.8191Z" fill="white"/>
<path d="M8.58605 17.8778C8.58605 17.8778 8.47139 18.2846 8.90346 18.1952H11.8845L12.6951 18.3682C12.6951 18.3682 13.5367 18.1661 12.6951 17.7021C12.6951 17.7021 10.0325 17.7331 9.80036 17.6749C9.80036 17.6749 9.25192 17.5304 9.13555 17.501C9.13555 17.501 8.84538 17.3866 8.58605 17.8778Z" fill="white"/>
<path d="M8.5841 17.8771C8.5841 17.8771 8.46943 18.2855 8.9015 18.1945H11.8837L12.6953 18.3691C12.6953 18.3691 13.5366 18.1673 12.6953 17.7024C12.6953 17.7024 10.0314 17.7333 9.79947 17.6733C9.79947 17.6733 9.24997 17.5295 9.1336 17.5014C9.1336 17.5014 8.84321 17.3859 8.5841 17.8771Z" stroke="#12110C" stroke-width="0.00255285"/>
<path d="M13.5351 18.285C13.5351 18.285 12.9839 18.285 13.0128 19.0045C13.0128 19.0045 13.0711 19.5576 13.6487 19.5576C13.6487 19.5576 14.1701 19.4676 14.1137 18.8917C14.1137 18.8917 13.7942 18.1667 13.5351 18.285Z" fill="white"/>
<path d="M13.9386 17.9928C13.9386 17.9928 14.1979 17.7035 14.3734 17.7035C14.3734 17.7035 17.2665 17.9647 17.7585 17.618C17.7585 17.618 18.1942 17.5316 18.308 17.618C18.308 17.618 18.742 17.9647 18.742 18.1666C18.742 18.1666 18.7137 18.4295 18.1942 18.2849C18.1942 18.2849 14.921 18.3121 14.7491 18.3121C14.7491 18.3121 13.8512 18.514 13.9386 17.9928Z" fill="white"/>
<path d="M13.9376 17.9928C13.9376 17.9928 14.1978 17.7026 14.3725 17.7026C14.3725 17.7026 17.2663 17.9647 17.7584 17.618C17.7584 17.618 18.1952 17.5307 18.3088 17.618C18.3088 17.618 18.7427 17.9647 18.7427 18.1675C18.7427 18.1675 18.7147 18.4306 18.1952 18.2849C18.1952 18.2849 14.922 18.3132 14.7482 18.3132C14.7482 18.3132 13.8502 18.5151 13.9376 17.9928Z" stroke="#12110C" stroke-width="0.00255285"/>
<path d="M14.4014 18.8611C14.4014 18.8611 14.4014 18.6309 14.8043 18.6309L18.8591 18.6009C18.8591 18.6009 19.2337 18.8009 19.2337 18.1086C19.2337 18.1086 19.3822 14.9529 19.3954 11.4795C19.4009 10.4465 19.446 9.36171 19.4067 8.35653C19.4067 8.35653 19.3203 7.92361 19.2048 7.83426C19.2048 7.83426 19.2048 7.37134 19.6987 7.54685C19.6987 7.54685 20.1298 7.57429 20.0151 8.2391L20.0434 9.25258C20.0434 9.25258 19.957 9.68656 20.7384 9.57105C20.7384 9.57105 21.5189 9.68656 21.547 9.97589C21.547 9.97589 21.781 10.5562 20.8558 10.4971H20.1908C20.1908 10.4971 19.9006 10.67 19.987 11.0185L19.9006 15.2139C19.9006 15.2139 19.8404 15.9372 20.5374 15.9108C20.5374 15.9108 21.2607 15.8808 21.4034 16.1119C21.4034 16.1119 21.8974 16.836 20.8258 16.778C20.8258 16.778 20.1597 16.7478 20.0151 16.8633C20.0151 16.8633 19.9006 17.0107 19.8132 18.369C19.8132 18.369 19.8704 19.1796 19.2628 19.0921C19.2628 19.0921 15.24 19.1485 14.8653 19.063C14.8653 19.063 14.4586 19.1796 14.4014 18.8611Z" fill="white"/>
<path d="M9.19204 7.42806L9.10758 16.719C9.10758 16.719 9.07844 17.1502 9.80153 17.2374C9.80153 17.2374 10.6423 17.3248 10.8433 17.2374C10.8433 17.2374 11.3917 17.2093 12.8109 17.2676C12.8109 17.2676 13.1585 17.6131 13.1866 17.1812C13.1866 17.1812 13.4187 9.655 13.303 8.09308C13.303 8.09308 13.2749 7.42806 12.7809 7.39892C12.7809 7.39892 10.5831 7.57187 10.3802 7.39892L9.51327 7.16682C9.51327 7.16682 9.16396 7.19426 9.19204 7.42806Z" fill="white"/>
<path d="M18.3652 7.77554L18.3369 16.9218C18.3369 16.9218 18.569 17.7344 18.9466 17.6478C18.9466 17.6478 19.0038 17.4732 19.0321 17.1819L19.1496 8.4697C19.1496 8.4697 18.8592 7.08031 18.3652 7.77554Z" fill="white" stroke="#12110C" stroke-width="0.00255285"/>
<path d="M18.3652 7.77554L18.3369 16.9218C18.3369 16.9218 18.569 17.7344 18.9466 17.6478C18.9466 17.6478 19.0038 17.4732 19.0321 17.1819L19.1496 8.4697C19.1496 8.4697 18.8592 7.08031 18.3652 7.77554Z" stroke="#12110C" stroke-width="0.00255285"/>
<path d="M13.7661 7.85393C13.7661 7.85393 13.6788 12.2233 13.7061 12.3699L13.6514 16.046L13.5342 17.3159C13.5342 17.3159 13.7061 17.5799 13.8516 17.405C13.8516 17.405 14.7787 17.1748 15.3571 17.2605C15.3571 17.2605 17.2103 17.4352 17.5851 17.1448C17.5851 17.1448 17.8745 17.2886 17.9617 16.8255C17.9617 16.8255 18.0763 8.7236 18.0189 8.57809C18.0189 8.57809 18.1355 7.42186 18.0763 7.3074C18.0763 7.3074 18.0472 7.04425 17.5579 7.27443C17.5579 7.27443 17.6141 7.50823 14.8659 7.42186C14.8659 7.42186 13.8235 7.39186 13.7661 7.85393Z" fill="white"/>
<path d="M12.8724 10.53L12.6105 11.0823C12.6105 11.0823 11.9763 13.8878 11.6298 14.4654C11.6298 14.4654 11.5715 15.046 11.0794 14.5818C11.0794 14.5818 9.94956 11.0231 9.89213 10.9067L9.51558 10.6464C9.51558 10.6464 9.28731 10.3281 9.69024 10.2998L10.7609 10.3281C10.7609 10.3281 11.1075 10.6164 10.6454 10.9384C10.6454 10.9384 10.7029 11.4007 11.3104 13.1637C11.3104 13.1637 11.4832 13.8295 11.6861 13.3373L12.2656 11.2822L12.0918 10.6746C12.0918 10.6746 11.9172 10.3853 12.1793 10.3572C12.1793 10.3572 12.7871 10.2998 12.8724 10.53Z" fill="#12110C"/>
<path d="M14.5531 10.9942L14.522 14.0619L14.4376 14.2929C14.4376 14.2929 14.1474 14.6678 14.3493 14.6978C14.3493 14.6978 14.091 14.8724 16.2005 14.9005C16.2005 14.9005 17.013 15.0443 16.8092 14.0027C16.8092 14.0027 16.7228 13.6268 16.4316 14.1774C16.4316 14.1774 16.3452 14.6384 15.3055 14.4948C15.3055 14.4948 15.0734 14.2929 15.0734 14.0619V12.7874C15.0734 12.7874 15.0426 12.4678 15.5355 12.5008C15.5355 12.5008 16.085 12.8465 16.1724 12.6999C16.1724 12.6999 16.3743 12.2387 16.1724 11.9485C16.1724 11.9485 15.9112 11.9213 15.8831 12.0368C15.8831 12.0368 15.7093 12.3823 15.2173 12.1796C15.2173 12.1796 14.9862 11.7175 15.1307 11.3408C15.1307 11.3408 15.0734 10.6168 15.5657 10.6757C15.5657 10.6757 16.1442 10.7904 16.2005 10.9661C16.2005 10.9661 16.3452 11.3146 16.4918 10.9089L16.3452 10.4147C16.3452 10.4147 16.2607 10.2118 16.115 10.27C16.115 10.27 15.1307 10.4147 15.0135 10.2973L14.2319 10.3856C14.2319 10.3856 14.1174 10.6757 14.4659 10.8187C14.4659 10.8187 14.5531 10.8778 14.5531 10.9942Z" fill="#12110C"/>
</g>
</svg>
