<svg width="128" height="128" viewBox="0 0 128 128" fill="none" xmlns="http://www.w3.org/2000/svg">
<path d="M58.0675 49.3164C64.9271 49.3164 70.4879 54.8772 70.4879 61.7368V83.4631C70.4879 90.3227 64.9271 95.8835 58.0675 95.8835H44.737L36.915 105.539C36.3733 106.207 35.2919 105.824 35.2919 104.964V95.8835H35.2583C28.3987 95.8835 22.8379 90.3227 22.8379 83.4631V61.7369C22.8379 54.8772 28.3987 49.3164 35.2583 49.3164H58.0675Z" fill="#181818"/>
<path d="M71.6744 28.3965C64.8147 28.3965 59.2539 33.9573 59.2539 40.8169V74.4556C59.2539 81.3153 64.8147 86.8761 71.6744 86.8761H87.9043L98.2418 99.6364C98.7836 100.305 99.865 99.9221 99.865 99.0615V86.8761H99.8983C106.758 86.8761 112.319 81.3153 112.319 74.4556V40.8169C112.319 33.9573 106.758 28.3965 99.8983 28.3965H71.6744Z" fill="#181818"/>
<path fill-rule="evenodd" clip-rule="evenodd" d="M52.3701 45.75C59.4328 45.75 65.1582 51.4754 65.1582 58.5381V79.529C65.1582 86.5917 59.4328 92.3171 52.3701 92.3171H39.4071L29.9618 103.976V92.3128C23.0537 92.1355 17.5082 86.4799 17.5082 79.529V58.5381C17.5082 51.4754 23.2336 45.75 30.2962 45.75H52.3701Z" fill="white"/>
<path fill-rule="evenodd" clip-rule="evenodd" d="M39.4083 92.3178H52.3714C59.434 92.3178 65.1595 86.5924 65.1595 79.5297V58.5388C65.1595 51.4761 59.434 45.7507 52.3714 45.7507H30.2975C23.2348 45.7507 17.5094 51.4761 17.5094 58.5388V79.5297C17.5094 86.4806 23.055 92.1362 29.9631 92.3135V103.977L39.4083 92.3178ZM28.1362 93.9859C21.089 92.941 15.6825 86.867 15.6825 79.5297V58.5388C15.6825 50.4672 22.2259 43.9238 30.2975 43.9238H52.3714C60.443 43.9238 66.9863 50.4672 66.9863 58.5388V79.5297C66.9863 87.6013 60.443 94.1447 52.3714 94.1447H40.2794L31.3826 105.127C30.8955 105.728 30.0824 105.957 29.3531 105.699C28.6237 105.44 28.1362 104.751 28.1362 103.977V93.9859Z" fill="#181818"/>
<path fill-rule="evenodd" clip-rule="evenodd" d="M18.5059 58.8766C18.5059 52.3184 23.8223 47.002 30.3805 47.002H52.2872C58.8454 47.002 64.1619 52.3184 64.1619 58.8766V79.3583C64.1619 85.9165 58.8454 91.233 52.2872 91.233H39.1994C38.6949 91.233 38.2859 90.824 38.2859 90.3196C38.2859 89.8151 38.6949 89.4061 39.1994 89.4061H52.2872C57.8364 89.4061 62.335 84.9076 62.335 79.3583V58.8766C62.335 53.3274 57.8365 48.8288 52.2872 48.8288H30.3805C24.8313 48.8288 20.3327 53.3274 20.3327 58.8766V79.3584C20.3327 84.9076 24.8313 89.4061 30.3805 89.4061H31.2745C31.7789 89.4061 32.1879 89.8151 32.1879 90.3196C32.1879 90.824 31.7789 91.233 31.2745 91.233H30.3805C23.8223 91.233 18.5059 85.9165 18.5059 79.3584V58.8766Z" fill="#181818"/>
<path fill-rule="evenodd" clip-rule="evenodd" d="M24.8867 65.3875C24.8867 64.6308 25.5002 64.0174 26.2569 64.0174H37.5301C38.2868 64.0174 38.9003 64.6308 38.9003 65.3875C38.9003 66.1442 38.2868 66.7577 37.5301 66.7577H26.2569C25.5002 66.7577 24.8867 66.1442 24.8867 65.3875Z" fill="#181818"/>
<path fill-rule="evenodd" clip-rule="evenodd" d="M24.8867 56.7237C24.8867 55.967 25.5002 55.3535 26.2569 55.3535H52.8209C53.5776 55.3535 54.191 55.967 54.191 56.7237C54.191 57.4804 53.5776 58.0938 52.8209 58.0938H26.2569C25.5002 58.0938 24.8867 57.4804 24.8867 56.7237Z" fill="#181818"/>
<path fill-rule="evenodd" clip-rule="evenodd" d="M24.8867 73.5096C24.8867 72.7529 25.5002 72.1395 26.2569 72.1395H30.9469C31.7036 72.1395 32.317 72.7529 32.317 73.5096C32.317 74.2663 31.7036 74.8798 30.9469 74.8798H26.2569C25.5002 74.8798 24.8867 74.2663 24.8867 73.5096Z" fill="#181818"/>
<path fill-rule="evenodd" clip-rule="evenodd" d="M64.9502 23.9473C57.8875 23.9473 52.1621 29.6727 52.1621 36.7354V69.6388C52.1621 76.7015 57.8875 82.4269 64.9502 82.4269H80.8129L92.7735 97.1908V82.4226C99.6815 82.2451 105.227 76.5895 105.227 69.6388V36.7354C105.227 29.6727 99.5015 23.9473 92.4389 23.9473H64.9502Z" fill="white"/>
<path fill-rule="evenodd" clip-rule="evenodd" d="M80.8136 82.4276H64.9509C57.8882 82.4276 52.1628 76.7021 52.1628 69.6395V36.7361C52.1628 29.6734 57.8882 23.948 64.9509 23.948H92.4395C99.5022 23.948 105.228 29.6734 105.228 36.7361V69.6395C105.228 76.5902 99.6822 82.2458 92.7742 82.4233V97.1915L80.8136 82.4276ZM94.6011 84.0956C101.648 83.0507 107.055 76.9767 107.055 69.6395V36.7361C107.055 28.6644 100.511 22.1211 92.4395 22.1211H64.9509C56.8793 22.1211 50.3359 28.6644 50.3359 36.7361V69.6395C50.3359 77.7111 56.8793 84.2544 64.9509 84.2544H79.9424L91.3547 98.3415C91.8418 98.9427 92.6549 99.1719 93.3842 98.9135C94.1136 98.6552 94.6011 97.9653 94.6011 97.1915V84.0956Z" fill="#181818"/>
<path fill-rule="evenodd" clip-rule="evenodd" d="M53.3145 37.3336C53.3145 30.7754 58.6309 25.459 65.1891 25.459H92.0639C98.6221 25.459 103.939 30.7755 103.939 37.3336V68.7743C103.939 75.3325 98.6221 80.6489 92.0639 80.6489H91.7418C91.2373 80.6489 90.8284 80.24 90.8284 79.7355C90.8284 79.231 91.2373 78.8221 91.7418 78.8221H92.0639C97.6132 78.8221 102.112 74.3235 102.112 68.7743V37.3336C102.112 31.7844 97.6132 27.2859 92.0639 27.2859H65.1891C59.6399 27.2859 55.1413 31.7844 55.1413 37.3336V68.7743C55.1413 74.3235 59.6399 78.8221 65.1891 78.8221H81.5502C82.0546 78.8221 82.4636 79.231 82.4636 79.7355C82.4636 80.24 82.0546 80.6489 81.5502 80.6489H65.1891C58.6309 80.6489 53.3145 75.3325 53.3145 68.7743V37.3336Z" fill="#181818"/>
<path fill-rule="evenodd" clip-rule="evenodd" d="M61.797 55.8612C61.797 54.8522 62.615 54.0343 63.6239 54.0343H93.7782C94.7872 54.0343 95.6051 54.8522 95.6051 55.8612C95.6051 56.8701 94.7872 57.688 93.7782 57.688H63.6239C62.615 57.688 61.797 56.8701 61.797 55.8612Z" fill="#181818"/>
<path fill-rule="evenodd" clip-rule="evenodd" d="M61.797 46.3684C61.797 45.3594 62.615 44.5415 63.6239 44.5415H93.7782C94.7872 44.5415 95.6051 45.3594 95.6051 46.3684C95.6051 47.3773 94.7872 48.1952 93.7782 48.1952H63.6239C62.615 48.1952 61.797 47.3773 61.797 46.3684Z" fill="#181818"/>
<path fill-rule="evenodd" clip-rule="evenodd" d="M61.7969 37.2351C61.7969 36.2261 62.6148 35.4082 63.6237 35.4082H93.778C94.787 35.4082 95.6049 36.2261 95.6049 37.2351C95.6049 38.244 94.787 39.0619 93.778 39.0619H63.6237C62.6148 39.0619 61.7969 38.244 61.7969 37.2351Z" fill="#181818"/>
<path fill-rule="evenodd" clip-rule="evenodd" d="M61.797 64.7595C61.797 63.7506 62.615 62.9326 63.6239 62.9326H79.9934C81.0023 62.9326 81.8203 63.7506 81.8203 64.7595C81.8203 65.7685 81.0023 66.5864 79.9934 66.5864H63.6239C62.615 66.5864 61.797 65.7685 61.797 64.7595Z" fill="#181818"/>
</svg>
