<svg width="22" height="21" viewBox="0 0 22 21" fill="none" xmlns="http://www.w3.org/2000/svg">
<path d="M20.3561 3.93335L11.3561 0.933353C11.1256 0.855549 10.8759 0.855549 10.6455 0.933353L1.64546 3.93335C1.43071 4.00448 1.24239 4.13869 1.10508 4.31848C0.967777 4.49826 0.887862 4.71527 0.875769 4.94116C0.874744 4.96084 0.874744 4.98055 0.875769 5.00023V12.5002C0.875769 12.7986 0.994296 13.0847 1.20527 13.2957C1.41625 13.5067 1.7024 13.6252 2.00077 13.6252C2.29914 13.6252 2.58529 13.5067 2.79626 13.2957C3.00724 13.0847 3.12577 12.7986 3.12577 12.5002V6.56116L5.34858 7.30179C4.65873 8.62226 4.45373 10.1428 4.76925 11.5988C5.08478 13.0548 5.90086 14.3541 7.07546 15.2705C5.53836 16.0285 4.23748 17.1919 3.31327 18.6352C3.23004 18.7589 3.17223 18.8979 3.1432 19.0442C3.11417 19.1904 3.11449 19.341 3.14416 19.4871C3.17382 19.6332 3.23223 19.7719 3.31599 19.8953C3.39975 20.0186 3.50719 20.1241 3.63207 20.2055C3.75695 20.287 3.89677 20.3428 4.04341 20.3697C4.19004 20.3967 4.34057 20.3942 4.48624 20.3624C4.63192 20.3307 4.76982 20.2703 4.89195 20.1848C5.01408 20.0993 5.11799 19.9903 5.19764 19.8643C6.53546 17.8055 8.65702 16.6252 11.0008 16.6252C13.3445 16.6252 15.4661 17.8055 16.8086 19.8643C16.8882 19.9903 16.9921 20.0993 17.1143 20.1848C17.2364 20.2703 17.3743 20.3307 17.52 20.3624C17.6657 20.3942 17.8162 20.3967 17.9628 20.3697C18.1095 20.3428 18.2493 20.287 18.3742 20.2055C18.499 20.1241 18.6065 20.0186 18.6902 19.8953C18.774 19.7719 18.8324 19.6332 18.8621 19.4871C18.8917 19.341 18.8921 19.1904 18.863 19.0442C18.834 18.8979 18.7762 18.7589 18.693 18.6352C17.7679 17.1903 16.4653 16.0258 14.9261 15.2677C16.1007 14.3513 16.9168 13.052 17.2323 11.596C17.5478 10.14 17.3428 8.61944 16.653 7.29898L20.3561 6.06429C20.5798 5.98944 20.7743 5.84616 20.9122 5.65471C21.05 5.46326 21.1241 5.23332 21.1241 4.99742C21.1241 4.76151 21.05 4.53157 20.9122 4.34012C20.7743 4.14867 20.5798 4.00539 20.3561 3.93054V3.93335ZM11.0008 3.18335L16.443 5.00023L11.0008 6.81429L5.56327 5.00023L11.0008 3.18335ZM15.1258 10.2502C15.1259 10.8909 14.9768 11.5229 14.6902 12.0959C14.4036 12.669 13.9875 13.1674 13.4748 13.5517C12.9621 13.936 12.367 14.1956 11.7365 14.3099C11.1061 14.4241 10.4577 14.39 9.84273 14.2101C9.22778 14.0302 8.66318 13.7096 8.1937 13.2736C7.72421 12.8376 7.36275 12.2982 7.13797 11.6982C6.91318 11.0982 6.83125 10.4541 6.89867 9.81693C6.96609 9.17977 7.18101 8.56708 7.52639 8.02742L10.6455 9.0671C10.876 9.14463 11.1256 9.14463 11.3561 9.0671L14.4751 8.02742C14.9006 8.69068 15.1264 9.46225 15.1258 10.2502Z" fill="#181818"/>
</svg>
