<svg width="14" height="14" viewBox="0 0 14 14" fill="none" xmlns="http://www.w3.org/2000/svg">
<path d="M12.5 2.5H10.25V1.75C10.25 1.28587 10.0656 0.840752 9.73744 0.512563C9.40925 0.184374 8.96413 0 8.5 0H5.5C5.03587 0 4.59075 0.184374 4.26256 0.512563C3.93437 0.840752 3.75 1.28587 3.75 1.75V2.5H1.5C1.30109 2.5 1.11032 2.57902 0.96967 2.71967C0.829018 2.86032 0.75 3.05109 0.75 3.25C0.75 3.44891 0.829018 3.63968 0.96967 3.78033C1.11032 3.92098 1.30109 4 1.5 4H1.75V12.5C1.75 12.8315 1.8817 13.1495 2.11612 13.3839C2.35054 13.6183 2.66848 13.75 3 13.75H11C11.3315 13.75 11.6495 13.6183 11.8839 13.3839C12.1183 13.1495 12.25 12.8315 12.25 12.5V4H12.5C12.6989 4 12.8897 3.92098 13.0303 3.78033C13.171 3.63968 13.25 3.44891 13.25 3.25C13.25 3.05109 13.171 2.86032 13.0303 2.71967C12.8897 2.57902 12.6989 2.5 12.5 2.5ZM5.25 1.75C5.25 1.6837 5.27634 1.62011 5.32322 1.57322C5.37011 1.52634 5.4337 1.5 5.5 1.5H8.5C8.5663 1.5 8.62989 1.52634 8.67678 1.57322C8.72366 1.62011 8.75 1.6837 8.75 1.75V2.5H5.25V1.75ZM10.75 12.25H3.25V4H10.75V12.25ZM6.25 6V10C6.25 10.1989 6.17098 10.3897 6.03033 10.5303C5.88968 10.671 5.69891 10.75 5.5 10.75C5.30109 10.75 5.11032 10.671 4.96967 10.5303C4.82902 10.3897 4.75 10.1989 4.75 10V6C4.75 5.80109 4.82902 5.61032 4.96967 5.46967C5.11032 5.32902 5.30109 5.25 5.5 5.25C5.69891 5.25 5.88968 5.32902 6.03033 5.46967C6.17098 5.61032 6.25 5.80109 6.25 6ZM9.25 6V10C9.25 10.1989 9.17098 10.3897 9.03033 10.5303C8.88968 10.671 8.69891 10.75 8.5 10.75C8.30109 10.75 8.11032 10.671 7.96967 10.5303C7.82902 10.3897 7.75 10.1989 7.75 10V6C7.75 5.80109 7.82902 5.61032 7.96967 5.46967C8.11032 5.32902 8.30109 5.25 8.5 5.25C8.69891 5.25 8.88968 5.32902 9.03033 5.46967C9.17098 5.61032 9.25 5.80109 9.25 6Z" fill="#181818"/>
</svg>
