<svg width="128" height="128" viewBox="0 0 128 128" fill="none" xmlns="http://www.w3.org/2000/svg">
<path d="M16.4375 32.8398C16.4375 31.7353 17.3329 30.8398 18.4375 30.8398H114.499C115.603 30.8398 116.499 31.7353 116.499 32.8398V94.7995C116.499 95.9041 115.603 96.7995 114.499 96.7995H18.4375C17.3329 96.7995 16.4375 95.9041 16.4375 94.7995V32.8398Z" fill="#181818"/>
<path d="M11.502 27.7324C11.502 26.6279 12.3974 25.7324 13.502 25.7324H109.563C110.668 25.7324 111.563 26.6279 111.563 27.7324V89.6921C111.563 90.7967 110.668 91.6921 109.563 91.6921H13.502C12.3974 91.6921 11.502 90.7967 11.502 89.6921V27.7324Z" fill="white"/>
<path fill-rule="evenodd" clip-rule="evenodd" d="M13.502 23.7324H109.563C111.772 23.7324 113.563 25.5233 113.563 27.7324V89.6921C113.563 91.9013 111.772 93.6921 109.563 93.6921H13.502C11.2928 93.6921 9.50195 91.9013 9.50195 89.6921V27.7324C9.50195 25.5233 11.2928 23.7324 13.502 23.7324ZM13.502 25.7324C12.3974 25.7324 11.502 26.6279 11.502 27.7324V89.6921C11.502 90.7967 12.3974 91.6921 13.502 91.6921H109.563C110.668 91.6921 111.563 90.7967 111.563 89.6921V27.7324C111.563 26.6279 110.668 25.7324 109.563 25.7324H13.502Z" fill="#181818"/>
<path fill-rule="evenodd" clip-rule="evenodd" d="M26.8809 49.5529C26.8809 49.0006 27.3286 48.5529 27.8809 48.5529H95.1867C95.739 48.5529 96.1867 49.0006 96.1867 49.5529C96.1867 50.1052 95.739 50.5529 95.1867 50.5529H27.8809C27.3286 50.5529 26.8809 50.1052 26.8809 49.5529Z" fill="#181818"/>
<path fill-rule="evenodd" clip-rule="evenodd" d="M47.5211 38.2969C47.5211 37.7446 47.9688 37.2969 48.5211 37.2969H72.7512C73.3035 37.2969 73.7512 37.7446 73.7512 38.2969C73.7512 38.8492 73.3035 39.2969 72.7512 39.2969H48.5211C47.9688 39.2969 47.5211 38.8492 47.5211 38.2969Z" fill="#181818"/>
<path fill-rule="evenodd" clip-rule="evenodd" d="M26.8809 54.7131C26.8809 54.1608 27.3286 53.7131 27.8809 53.7131H95.1867C95.739 53.7131 96.1867 54.1608 96.1867 54.7131C96.1867 55.2654 95.739 55.7131 95.1867 55.7131H27.8809C27.3286 55.7131 26.8809 55.2654 26.8809 54.7131Z" fill="#181818"/>
<path fill-rule="evenodd" clip-rule="evenodd" d="M26.8809 60.7897C26.8809 60.2374 27.3286 59.7897 27.8809 59.7897H95.1867C95.739 59.7897 96.1867 60.2374 96.1867 60.7897C96.1867 61.342 95.739 61.7897 95.1867 61.7897H27.8809C27.3286 61.7897 26.8809 61.342 26.8809 60.7897Z" fill="#181818"/>
<path fill-rule="evenodd" clip-rule="evenodd" d="M26.8809 66.8474C26.8809 66.2951 27.3286 65.8474 27.8809 65.8474H95.1867C95.739 65.8474 96.1867 66.2951 96.1867 66.8474C96.1867 67.3996 95.739 67.8474 95.1867 67.8474H27.8809C27.3286 67.8474 26.8809 67.3996 26.8809 66.8474Z" fill="#181818"/>
<path fill-rule="evenodd" clip-rule="evenodd" d="M26.8809 72.4557C26.8809 71.9035 27.3286 71.4557 27.8809 71.4557H59.2902C59.8425 71.4557 60.2902 71.9035 60.2902 72.4557C60.2902 73.008 59.8425 73.4557 59.2902 73.4557H27.8809C27.3286 73.4557 26.8809 73.008 26.8809 72.4557Z" fill="#181818"/>
<path d="M89.4531 80.1973H100.222V99.2672L94.8376 93.8828L89.4531 99.2672V80.1973Z" fill="white"/>
<path fill-rule="evenodd" clip-rule="evenodd" d="M87.4531 80.1973C87.4531 79.0927 88.3486 78.1973 89.4531 78.1973H100.222C101.327 78.1973 102.222 79.0927 102.222 80.1973V99.2672C102.222 100.076 101.735 100.805 100.987 101.115C100.24 101.425 99.3798 101.253 98.8078 100.681L94.8376 96.7112L90.8673 100.681C90.2953 101.253 89.4351 101.425 88.6878 101.115C87.9404 100.805 87.4531 100.076 87.4531 99.2672V80.1973ZM94.8376 93.8828L100.222 99.2672V80.1973H89.4531V99.2672L94.8376 93.8828Z" fill="#181818"/>
<path d="M103.935 80.8112C103.935 85.7055 100.018 89.6731 95.1853 89.6731C90.3529 89.6731 86.4355 85.7055 86.4355 80.8112C86.4355 75.9168 90.3529 71.9492 95.1853 71.9492C100.018 71.9492 103.935 75.9168 103.935 80.8112Z" fill="white"/>
<path fill-rule="evenodd" clip-rule="evenodd" d="M105.935 80.8112C105.935 86.7859 101.146 91.6731 95.1853 91.6731C89.2244 91.6731 84.4355 86.7859 84.4355 80.8112C84.4355 74.8364 89.2244 69.9492 95.1853 69.9492C101.146 69.9492 105.935 74.8364 105.935 80.8112ZM95.1853 89.6731C100.018 89.6731 103.935 85.7055 103.935 80.8112C103.935 75.9168 100.018 71.9492 95.1853 71.9492C90.3529 71.9492 86.4355 75.9168 86.4355 80.8112C86.4355 85.7055 90.3529 89.6731 95.1853 89.6731Z" fill="#181818"/>
<path fill-rule="evenodd" clip-rule="evenodd" d="M101.858 80.8104C101.858 84.5045 98.8951 87.5427 95.1861 87.5427C91.4771 87.5427 88.5137 84.5045 88.5137 80.8104C88.5137 77.1164 91.4771 74.0781 95.1861 74.0781C98.8951 74.0781 101.858 77.1164 101.858 80.8104ZM95.1861 85.5427C97.7666 85.5427 99.8585 83.424 99.8585 80.8104C99.8585 78.1969 97.7666 76.0781 95.1861 76.0781C92.6056 76.0781 90.5137 78.1969 90.5137 80.8104C90.5137 83.424 92.6056 85.5427 95.1861 85.5427Z" fill="#181818"/>
</svg>
