<svg width="22" height="14" viewBox="0 0 22 14" fill="none" xmlns="http://www.w3.org/2000/svg">
<path d="M10.0054 12.6196L0.630375 3.24463C0.366194 2.98045 0.217779 2.62214 0.217779 2.24853C0.217779 1.87493 0.366194 1.51662 0.630375 1.25244C0.894556 0.988259 1.25286 0.839844 1.62647 0.839844C2.00008 0.839844 2.35838 0.988259 2.62256 1.25244L11.0003 9.63252L19.3804 1.25478C19.5112 1.12397 19.6665 1.02021 19.8374 0.949417C20.0083 0.878624 20.1915 0.842187 20.3765 0.842187C20.5615 0.842187 20.7446 0.878624 20.9155 0.949417C21.0865 1.02021 21.2418 1.12397 21.3726 1.25478C21.5034 1.38559 21.6071 1.54088 21.6779 1.7118C21.7487 1.88271 21.7852 2.06589 21.7852 2.25088C21.7852 2.43587 21.7487 2.61905 21.6779 2.78996C21.6071 2.96087 21.5034 3.11616 21.3726 3.24697L11.9976 12.622C11.8668 12.7529 11.7114 12.8568 11.5404 12.9275C11.3694 12.9983 11.1861 13.0346 11.001 13.0344C10.8159 13.0342 10.6327 12.9974 10.4618 12.9263C10.291 12.8551 10.1359 12.7509 10.0054 12.6196Z" fill="#181818"/>
</svg>
