<svg width="21" height="21" viewBox="0 0 21 21" fill="none" xmlns="http://www.w3.org/2000/svg">
<path d="M19.5756 5.61218L15.3869 1.42249C15.2128 1.2483 15.006 1.11012 14.7785 1.01585C14.551 0.92157 14.3071 0.873047 14.0608 0.873047C13.8145 0.873047 13.5706 0.92157 13.3431 1.01585C13.1155 1.11012 12.9088 1.2483 12.7347 1.42249L1.17438 12.9837C0.999635 13.1573 0.861091 13.3639 0.766785 13.5915C0.67248 13.819 0.624289 14.063 0.625008 14.3094V18.4991C0.625008 18.9963 0.822552 19.4732 1.17418 19.8249C1.52581 20.1765 2.00273 20.3741 2.50001 20.3741H6.68969C6.93601 20.3747 7.18001 20.3265 7.40756 20.2322C7.63511 20.1379 7.84168 19.9994 8.01532 19.8247L19.5756 8.26343C19.9271 7.91181 20.1246 7.43499 20.1246 6.9378C20.1246 6.44062 19.9271 5.96379 19.5756 5.61218ZM6.53126 18.1241H2.87501V14.4678L10.75 6.5928L14.4063 10.2491L6.53126 18.1241ZM16 8.6553L12.3438 4.99905L14.0631 3.27968L17.7194 6.93593L16 8.6553Z" fill="black"/>
</svg>
