<svg width="57" height="80" viewBox="0 0 57 80" fill="none" xmlns="http://www.w3.org/2000/svg">
<path fill-rule="evenodd" clip-rule="evenodd" d="M28.5254 58.7656C29.397 58.7656 30.1035 59.4722 30.1035 60.3438V74.112C30.1035 74.9836 29.397 75.6902 28.5254 75.6902C27.6538 75.6902 26.9473 74.9836 26.9473 74.112V60.3438C26.9473 59.4722 27.6538 58.7656 28.5254 58.7656Z" fill="black"/>
<path fill-rule="evenodd" clip-rule="evenodd" d="M29.5033 1.7526C29.6098 2.61765 28.9949 3.40525 28.1299 3.51177C25.7851 3.8005 23.4376 4.39808 21.1398 5.32824C7.03048 11.0396 0.222588 27.1073 5.9339 41.2166C11.6452 55.3259 27.713 62.1338 41.8223 56.4225C44.3418 55.4026 46.6262 54.0539 48.6476 52.4468C49.3298 51.9044 50.3226 52.0177 50.865 52.6999C51.4074 53.3821 51.2941 54.3749 50.6119 54.9173C48.3561 56.7108 45.8095 58.2135 43.0065 59.3481C27.2815 65.7135 9.37363 58.126 3.00826 42.4009C-3.35712 26.6758 4.23042 8.76797 19.9555 2.40259C22.5116 1.36789 25.1278 0.701354 27.7441 0.37918C28.6092 0.272661 29.3968 0.887564 29.5033 1.7526Z" fill="black"/>
<path fill-rule="evenodd" clip-rule="evenodd" d="M18.2228 1.12182C19.0003 0.727978 19.9499 1.03901 20.3437 1.81653L48.5529 57.507C48.9467 58.2846 48.6357 59.2341 47.8582 59.628C47.0807 60.0218 46.1311 59.7108 45.7373 58.9333L17.5281 3.24274C17.1342 2.46523 17.4453 1.51566 18.2228 1.12182Z" fill="black"/>
<path d="M54.6667 31.5018C54.6667 44.365 44.239 54.7926 31.3758 54.7926C18.5126 54.7926 8.08496 44.365 8.08496 31.5018C8.08496 18.6386 18.5126 8.21094 31.3758 8.21094C44.239 8.21094 54.6667 18.6386 54.6667 31.5018Z" fill="white"/>
<path fill-rule="evenodd" clip-rule="evenodd" d="M56.2448 31.5018C56.2448 45.2365 45.1106 56.3708 31.3758 56.3708C17.6411 56.3708 6.50684 45.2365 6.50684 31.5018C6.50684 17.767 17.6411 6.63281 31.3758 6.63281C45.1106 6.63281 56.2448 17.767 56.2448 31.5018ZM31.3758 54.7926C44.239 54.7926 54.6667 44.365 54.6667 31.5018C54.6667 18.6386 44.239 8.21094 31.3758 8.21094C18.5126 8.21094 8.08496 18.6386 8.08496 31.5018C8.08496 44.365 18.5126 54.7926 31.3758 54.7926Z" fill="black"/>
<path fill-rule="evenodd" clip-rule="evenodd" d="M23.9907 17.3627C24.219 17.1041 24.5888 17.0236 24.9039 17.1642L31.46 20.0893C31.4706 20.094 31.4811 20.0989 31.4914 20.1041L34.9208 21.8188C35.2643 21.9905 35.4343 22.3847 35.3234 22.7524L33.407 29.1068C33.3065 29.44 32.9995 29.6681 32.6515 29.6681H29.1502L29.4284 31.2817L33.0116 33.1192C33.2281 33.2303 33.3813 33.435 33.4267 33.6741C33.4721 33.9132 33.4046 34.1599 33.2439 34.3426L29.0025 39.1623V41.9913C29.0025 42.221 28.9024 42.4394 28.7284 42.5893L25.0973 45.716C24.8205 45.9543 24.4164 45.9716 24.1204 45.7578L20.5142 43.1533L16.405 40.6477C16.2373 40.5455 16.1137 40.3843 16.0585 40.1957L14.8482 36.0603C14.7938 35.8744 14.8096 35.675 14.8927 35.5001L16.6574 31.7851L14.8785 27.5721C14.7872 27.3557 14.797 27.11 14.9052 26.9016L17.6285 21.6566C17.6452 21.6245 17.664 21.5936 17.6849 21.5641L19.3996 19.1434C19.5475 18.9346 19.7876 18.8104 20.0435 18.8104H22.7133L23.9907 17.3627ZM24.7904 18.8417L23.6611 20.1216C23.5113 20.2913 23.2958 20.3886 23.0694 20.3886H20.4515L19.0041 22.432L16.4766 27.2998L18.2488 31.4971C18.3364 31.7045 18.3312 31.9393 18.2346 32.1426L16.4472 35.9056L17.4874 39.4593L21.3621 41.8219C21.3796 41.8326 21.3966 41.844 21.4133 41.856L24.5395 44.1138L27.4244 41.6295V38.8645C27.4244 38.6726 27.4943 38.4873 27.6211 38.3433L31.3896 34.0609L28.3577 32.5062C28.137 32.393 27.9824 32.1826 27.9402 31.9381L27.4359 29.0131C27.3964 28.7837 27.4601 28.5486 27.61 28.3706C27.7599 28.1927 27.9808 28.0899 28.2135 28.0899H32.0653L33.6205 22.9331L30.8012 21.5234L24.7904 18.8417Z" fill="black"/>
<path fill-rule="evenodd" clip-rule="evenodd" d="M49.3632 26.6958C49.6052 26.8373 49.7539 27.0966 49.7539 27.377V32.9571C49.7539 33.0703 49.7296 33.1822 49.6825 33.2851L47.813 37.3746V41.3272C47.813 41.6261 47.6442 41.8993 47.3768 42.033L41.7968 44.823C41.5761 44.9333 41.3166 44.9341 41.0953 44.8251C40.874 44.7162 40.7164 44.51 40.6693 44.2679L39.8202 39.9008C39.7915 39.7534 39.8055 39.6008 39.8606 39.461L41.3534 35.6716L40.6692 32.1365C40.6338 31.9535 40.6643 31.7638 40.7554 31.6011L42.4537 28.5684C42.5762 28.3496 42.7955 28.2021 43.0443 28.171L46.7723 27.705L48.578 26.6892C48.8223 26.5518 49.1212 26.5543 49.3632 26.6958ZM48.1758 28.7261L47.4108 29.1564C47.3216 29.2066 47.2234 29.239 47.1218 29.2517L43.6358 29.6874L42.2734 32.1202L42.9464 35.5972C42.9749 35.7444 42.9608 35.8968 42.9059 36.0363L41.4132 39.8254L42.0201 42.9469L46.2349 40.8395V37.2028C46.2349 37.0896 46.2593 36.9777 46.3063 36.8747L48.1758 32.7852V28.7261Z" fill="black"/>
<path d="M28.296 69.248C20.8579 69.248 14.8281 72.2424 14.8281 75.9362H41.7638C41.7638 72.2424 35.7341 69.248 28.296 69.248Z" fill="white"/>
<path fill-rule="evenodd" clip-rule="evenodd" d="M14.8281 77.5143C13.9566 77.5143 13.25 76.8077 13.25 75.9362C13.25 73.1638 15.4699 71.0851 18.0709 69.7935C20.7693 68.4535 24.3865 67.6699 28.296 67.6699C32.2054 67.6699 35.8227 68.4535 38.5211 69.7935C41.122 71.0851 43.3419 73.1638 43.3419 75.9362C43.3419 76.8077 42.6354 77.5143 41.7638 77.5143H14.8281ZM41.3867 74.358C39.9584 71.4259 34.6394 69.248 28.296 69.248C21.9526 69.248 16.6335 71.4259 15.2052 74.358C14.9587 74.8641 14.8281 75.3925 14.8281 75.9362H41.7638C41.7638 75.3925 41.6332 74.8641 41.3867 74.358Z" fill="black"/>
<path d="M11.1172 77.4805C11.1172 77.063 11.4556 76.7246 11.873 76.7246H45.1762C45.5936 76.7246 45.932 77.063 45.932 77.4805C45.932 77.8979 45.5936 78.2363 45.1762 78.2363H11.873C11.4556 78.2363 11.1172 77.8979 11.1172 77.4805Z" fill="black"/>
<path fill-rule="evenodd" clip-rule="evenodd" d="M45.1762 78.2363C45.5936 78.2363 45.932 77.8979 45.932 77.4805C45.932 77.063 45.5936 76.7246 45.1762 76.7246H11.873C11.4556 76.7246 11.1172 77.063 11.1172 77.4805C11.1172 77.8979 11.4556 78.2363 11.873 78.2363H45.1762ZM11.873 75.1465H45.1762C46.4652 75.1465 47.5102 76.1914 47.5102 77.4805C47.5102 78.7695 46.4652 79.8144 45.1762 79.8144H11.873C10.584 79.8144 9.53906 78.7695 9.53906 77.4805C9.53906 76.1914 10.584 75.1465 11.873 75.1465Z" fill="black"/>
</svg>
