<svg width="180" height="47" viewBox="0 0 180 47" fill="none" xmlns="http://www.w3.org/2000/svg">
<mask id="mask0_119_356" style="mask-type:luminance" maskUnits="userSpaceOnUse" x="0" y="0" width="180" height="47">
<path d="M0 -0.000880426H179.102V46.8535H0V-0.000880426Z" fill="white"/>
</mask>
<g mask="url(#mask0_119_356)">
<path d="M73.2644 31.7296C73.2644 31.3679 73.0287 31.1003 72.5469 30.9961V30.7621C72.8136 30.7621 73.702 30.7978 73.952 30.7978C74.1681 30.7978 75.0285 30.7621 75.2961 30.7621V30.9961C74.8489 31.0833 74.614 31.3473 74.614 31.7296V36.3207C74.614 37.7745 75.4125 38.5963 77.0824 38.5963C78.5214 38.5963 79.641 37.9503 79.641 36.4288V31.7117C79.641 31.3707 79.4268 31.1003 78.8877 30.9961V30.7621C79.0839 30.7621 79.8185 30.7978 80.0693 30.7978C80.2835 30.7978 81.0545 30.7621 81.2517 30.7621V30.9961C80.7315 31.1201 80.5003 31.3528 80.5003 31.7117V36.1758C80.5003 38.1794 79.3347 39.3301 76.8195 39.3301C74.4779 39.3301 73.2644 38.2658 73.2644 36.3834V31.7296Z" fill="#1D1D1B"/>
<path d="M83.31 38.9703C83.8548 38.8689 84.0699 38.5929 84.0699 38.2547V31.9092C84.0699 31.3709 83.7834 31.1288 83.2949 30.9954V30.7614C83.5713 30.7821 84.035 30.7942 84.2718 30.7942C84.4869 30.7942 84.8213 30.7906 85.0466 30.7614L90.5506 37.2329V31.7119C90.5506 31.3718 90.3346 31.1014 89.7975 30.9954V30.7614C89.9947 30.7614 90.7029 30.798 90.9545 30.798C91.1734 30.798 91.9323 30.7614 92.1323 30.7614V30.9954C91.6072 31.1193 91.3538 31.3541 91.3538 31.7119V39.3301H91.0222C90.8135 39.2822 90.4191 39.0578 89.8181 38.3985L84.8936 32.6625V38.2547C84.8936 38.5946 85.0898 38.8642 85.6272 38.9703V39.2052C85.43 39.2052 84.7218 39.1678 84.4701 39.1678C84.2531 39.1678 83.51 39.2052 83.31 39.2052V38.9703Z" fill="#1D1D1B"/>
<path d="M126.741 37.2601H126.974C127.098 37.7343 127.369 38.1666 127.749 38.4163C128.145 38.6952 128.766 38.8286 129.267 38.8286C130.374 38.8286 131.076 38.2802 131.076 37.4122C131.076 36.5134 130.177 36.0466 129.1 35.5084C128.299 35.1074 126.725 34.4454 126.725 32.9236C126.725 31.5062 127.806 30.6244 129.535 30.6244C130.676 30.6244 131.211 30.9033 131.982 30.8675L131.967 32.5873H131.732C131.424 31.5738 130.503 31.2207 129.495 31.2207C128.368 31.2207 127.947 31.8653 127.947 32.5207C127.947 33.4591 128.865 33.9322 129.906 34.3964C131.076 34.9176 132.346 35.5761 132.346 37.0422C132.346 38.4304 131.26 39.4355 129.276 39.4355C128.095 39.4355 127.387 39.0984 126.766 39.022L126.741 37.2601Z" fill="#1D1D1B"/>
<path d="M150.394 35.7119L148.153 32.1167C147.77 31.4855 147.477 31.1527 147.051 30.9951V30.7619C147.358 30.7619 148.187 30.7987 148.423 30.7987C148.636 30.7987 149.531 30.7619 149.854 30.7619V30.9951C149.568 31.0457 149.434 31.1893 149.434 31.4055C149.434 31.5961 149.563 31.8414 149.694 32.0545C149.822 32.2658 151.346 34.7944 151.346 34.7944L152.938 32.0556C153.099 31.7812 153.212 31.5089 153.212 31.3293C153.212 31.1659 153.097 31.0306 152.825 30.9951V30.7619C153.095 30.7619 153.661 30.7987 153.842 30.7987C154.022 30.7987 154.673 30.7619 154.94 30.7619V30.9792C154.328 31.23 153.946 31.7671 153.575 32.3898L151.538 35.7947M151.677 35.3654V38.2375C151.677 38.5222 151.894 38.88 152.384 38.97V39.2051C152.111 39.2051 151.218 39.1674 150.96 39.1674C150.743 39.1674 149.887 39.2051 149.578 39.2051V38.97C150.07 38.88 150.306 38.5222 150.306 38.2375V35.4913" fill="#1D1D1B"/>
<path d="M108.751 30.7624H114.006C114.168 30.7624 114.453 30.7437 114.615 30.6733H114.85L114.814 32.3807H114.581C114.381 31.8436 114.173 31.4134 113.156 31.4134H110.874V34.389H112.633C112.889 34.389 113.2 34.3673 113.334 34.3354C113.73 34.249 113.904 34.029 113.984 33.692H114.218C114.201 33.9492 114.201 34.5364 114.201 34.7102C114.201 34.8849 114.218 35.5029 114.218 35.7828H113.984C113.871 35.4465 113.717 35.191 113.334 35.0972C113.2 35.0614 112.884 35.0323 112.633 35.0323H110.874V38.5227H113.356C114.44 38.5227 114.755 38.0708 115.024 37.4322L115.256 37.4864L115.024 39.2402C114.218 39.1688 113.735 39.1688 112.82 39.1688H110.197C109.945 39.1688 109.018 39.2056 108.748 39.2056V38.9715C109.221 38.8813 109.498 38.6473 109.498 38.1938V31.7385C109.498 31.3383 109.282 31.0883 108.751 30.9992V30.7624Z" fill="#1D1D1B"/>
<path d="M95.3299 31.7839C95.3299 31.351 95.0716 31.1125 94.5653 31.0034V30.7715C94.8472 30.7715 95.7594 30.807 96.0251 30.807C96.2476 30.807 97.1852 30.7715 97.4707 30.7715V31.0034C96.9671 31.1125 96.7031 31.3283 96.7031 31.7839V38.1944C96.7031 38.6273 96.9624 38.863 97.4707 38.97V39.2051C97.186 39.2051 96.287 39.1683 96.0251 39.1683C95.7985 39.1683 94.8472 39.2051 94.5645 39.2051V38.97C95.082 38.8734 95.3299 38.6471 95.3299 38.1944V31.7839Z" fill="#1D1D1B"/>
<path d="M135.196 31.7839C135.196 31.351 134.935 31.1125 134.43 31.0034V30.7715C134.712 30.7715 135.624 30.807 135.888 30.807C136.113 30.807 137.05 30.7715 137.335 30.7715V31.0034C136.831 31.1125 136.568 31.3283 136.568 31.7839V38.1944C136.568 38.6273 136.828 38.863 137.335 38.97V39.2051C137.052 39.2051 136.154 39.1683 135.888 39.1683C135.666 39.1683 134.712 39.2051 134.43 39.2051V38.97C134.946 38.8734 135.196 38.6471 135.196 38.1944V31.7839Z" fill="#1D1D1B"/>
<path d="M142.499 30.7977C139.618 30.7977 139.157 30.7441 138.568 30.7075L138.573 32.447H138.808C139.023 31.6759 139.452 31.4965 140.008 31.4965H141.815V38.1944C141.815 38.6469 141.568 38.8734 141.049 38.97V39.2051C141.334 39.2051 142.293 39.1683 142.515 39.1683C142.779 39.1683 143.681 39.2051 143.962 39.2051V38.97C143.452 38.863 143.194 38.6273 143.194 38.1944V31.4965H144.987C145.564 31.4965 145.976 31.6929 146.191 32.447H146.423L146.427 30.7075C145.842 30.7441 145.381 30.7977 142.499 30.7977Z" fill="#1D1D1B"/>
<path d="M119.512 38.1948C119.512 38.6277 119.787 38.8626 120.295 38.9705V39.2055C120.013 39.2055 119.092 39.1687 118.829 39.1687C118.603 39.1687 117.704 39.2055 117.42 39.2055V38.9705C117.891 38.8805 118.169 38.6475 118.169 38.1948V31.7189C118.169 31.3206 117.952 31.0698 117.422 30.9796V30.7467C117.704 30.7467 118.595 30.7822 118.847 30.7822C119.259 30.7822 120.431 30.7128 120.892 30.7128C122.912 30.7128 124.036 31.5478 124.036 32.9791C124.036 34.1043 123.199 34.8653 121.91 35.1761C121.91 35.1761 122.204 35.3469 122.497 35.6879C122.853 36.1076 123.815 37.4877 124.214 37.9702C124.613 38.4541 125.123 38.9941 125.669 39.0185V39.2072C125.407 39.2645 124.987 39.3145 124.666 39.3145C123.98 39.3145 123.433 39.0721 122.901 38.4288C122.441 37.8689 121.661 36.7071 121.201 36.12C120.907 35.7462 120.551 35.4541 119.899 35.3469C119.773 35.3254 119.654 35.3075 119.512 35.2907V38.1948ZM119.512 34.7534C119.78 34.7899 120.176 34.807 120.566 34.807C122.147 34.807 122.645 33.8977 122.645 33.0929C122.645 31.9546 121.885 31.2491 120.501 31.2491C120.215 31.2491 119.8 31.2849 119.512 31.3391V34.7534Z" fill="#1D1D1B"/>
<path d="M99.4955 31.8107C99.3115 31.4031 99.0287 31.1044 98.5469 30.9985V30.7606C98.8464 30.7606 99.8844 30.7983 100.112 30.7983C100.322 30.7983 101.229 30.7606 101.538 30.7606V30.9916C101.264 31.0442 100.952 31.1954 100.952 31.4754C100.952 31.6754 101.073 31.9479 101.305 32.4608L103.481 37.4104L105.54 32.4523C105.702 32.0521 105.82 31.7422 105.82 31.5054C105.82 31.2435 105.578 31.0621 105.236 30.9916V30.7606C105.51 30.7606 106.18 30.7983 106.389 30.7983C106.579 30.7983 107.366 30.7606 107.667 30.7606V30.9985C107.153 31.1374 106.84 31.4201 106.552 32.0898L103.522 39.2344H102.836L99.4955 31.8107Z" fill="#1D1D1B"/>
<path d="M107.264 9.27872C106.914 8.50563 106.377 7.94209 105.467 7.7402V7.29026C106.033 7.29026 107.913 7.35791 108.346 7.35791C108.744 7.35791 110.565 7.29026 111.145 7.29026V7.72892C110.631 7.82955 110.039 8.11696 110.039 8.64753C110.039 9.02216 110.272 9.53996 110.704 10.51L114.83 19.8903L118.734 10.4941C119.039 9.73334 119.266 9.15193 119.266 8.70199C119.266 8.20227 118.804 7.86338 118.157 7.72892V7.29026C118.673 7.29026 119.929 7.35791 120.328 7.35791C120.691 7.35791 122.182 7.29026 122.75 7.29026V7.71489C121.777 7.97889 121.181 8.53775 120.639 9.80652L114.9 23.3496H113.601L107.264 9.27872Z" fill="#1D1D1B"/>
<path d="M51.7051 22.8337C52.4546 22.6627 52.9815 22.3218 52.9815 21.4728V9.0568C52.9815 8.24159 52.4911 7.90334 51.7051 7.69869V7.25811C52.0986 7.25811 53.7939 7.3249 54.2062 7.3249C54.6815 7.3249 56.4585 7.25811 56.8493 7.25811V7.69869C56.1007 7.86866 55.5456 8.20862 55.5456 9.0568V14.2433H64.7952V9.0568C64.7952 8.20862 64.3021 7.86866 63.5207 7.69869V7.25811C63.9113 7.25811 65.6566 7.3249 66.1308 7.3249C66.5403 7.3249 68.2752 7.25811 68.662 7.25811V7.69869C67.9127 7.86866 67.3575 8.20862 67.3575 9.0568V21.4728C67.3575 22.288 67.8787 22.6299 68.662 22.8337V23.2402C68.2752 23.2402 66.5403 23.2066 66.1308 23.2066C65.6566 23.2066 63.9113 23.2402 63.5207 23.2402V22.8337C64.2647 22.6627 64.7952 22.3218 64.7952 21.4728V15.6051H55.5456V21.4728C55.5456 22.3218 56.066 22.6299 56.8493 22.8337V23.2402C56.4585 23.2402 54.6815 23.2066 54.2062 23.2066C53.7939 23.2066 52.0986 23.2402 51.7051 23.2402V22.8337Z" fill="#1D1D1B"/>
<path d="M158.695 22.8335C159.655 22.6625 160.184 22.2813 160.184 21.405V9.05664C160.184 8.20569 159.663 7.8685 158.735 7.69852V7.25794C159.269 7.25794 161.009 7.32474 161.49 7.32474C162.268 7.32474 164.438 7.15476 166.127 7.15476C171.817 7.15476 175.271 10.3322 175.271 15.1637C175.271 19.8599 171.677 23.3398 165.81 23.3398C164.118 23.3398 162.112 23.2065 161.327 23.2065C160.85 23.2065 159.228 23.2739 158.695 23.2739V22.8335ZM162.746 22.0153C163.326 22.1206 164.396 22.1864 165.241 22.1864C170.021 22.1864 172.509 19.3095 172.509 15.2971C172.509 11.1372 169.884 8.21037 165.415 8.21037C164.502 8.21037 163.361 8.27887 162.746 8.37864V22.0153Z" fill="#1D1D1B"/>
<path d="M94.2889 21.3608C94.2889 22.1836 94.8101 22.6306 95.7691 22.8344V23.275C95.2347 23.275 93.4943 23.2073 92.9938 23.2073C92.5711 23.2073 90.8634 23.275 90.3301 23.275V22.8344C91.2204 22.6636 91.7454 22.2202 91.7454 21.3608V9.10091C91.7454 8.34654 91.3378 7.86958 90.3318 7.69939V7.25881C90.8664 7.25881 92.5532 7.32561 93.0265 7.32561C93.809 7.32561 96.0276 7.1952 96.9028 7.1952C100.729 7.1952 102.859 8.77776 102.859 11.4846C102.859 13.6186 101.27 15.0546 98.8313 15.6473C98.8313 15.6473 99.3844 15.9696 99.9411 16.6184C100.617 17.4121 102.48 20.0797 103.233 20.9934C103.987 21.9084 104.953 22.9301 105.986 22.9771V23.3371C105.491 23.4439 104.699 23.5352 104.093 23.5352C102.788 23.5352 101.752 23.0786 100.744 21.8575C99.8756 20.7981 98.3558 18.5458 97.4851 17.4338C96.9292 16.7254 96.2587 16.1734 95.0273 15.9696C94.7848 15.9281 94.5567 15.8962 94.2889 15.8662V21.3608ZM94.2889 14.8491C94.7952 14.9157 95.5436 14.9495 96.2859 14.9495C99.2782 14.9495 100.218 13.227 100.218 11.7052C100.218 9.54425 98.7794 8.21124 96.158 8.21124C95.6179 8.21124 94.831 8.27995 94.2889 8.37951V14.8491Z" fill="#1D1D1B"/>
<path d="M144.723 21.3608C144.723 22.1836 145.246 22.6306 146.206 22.8344V23.275C145.672 23.275 143.934 23.2073 143.433 23.2073C143.003 23.2073 141.301 23.275 140.766 23.275V22.8344C141.654 22.6636 142.18 22.2202 142.18 21.3608V9.10091C142.18 8.34654 141.769 7.86958 140.769 7.69939V7.25881C141.305 7.25881 142.986 7.32561 143.463 7.32561C144.248 7.32561 146.465 7.1952 147.335 7.1952C151.168 7.1952 153.291 8.77776 153.291 11.4846C153.291 13.6186 151.706 15.0546 149.265 15.6473C149.265 15.6473 149.821 15.9696 150.373 16.6184C151.055 17.4121 152.918 20.0797 153.669 20.9934C154.425 21.9084 155.392 22.9301 156.419 22.9771V23.3371C155.931 23.4439 155.134 23.5352 154.534 23.5352C153.227 23.5352 152.186 23.0786 151.181 21.8575C150.312 20.7981 148.797 18.5458 147.919 17.4338C147.363 16.7254 146.694 16.1734 145.466 15.9696C145.22 15.9281 144.994 15.8962 144.723 15.8662V21.3608ZM144.723 14.8491C145.235 14.9157 145.979 14.9495 146.722 14.9495C149.716 14.9495 150.653 13.227 150.653 11.7052C150.653 9.54425 149.213 8.21124 146.597 8.21124C146.052 8.21124 145.268 8.27995 144.723 8.37951V14.8491Z" fill="#1D1D1B"/>
<path d="M71.0966 22.8316C72.109 22.595 72.6651 21.9394 73.0342 21.0621L78.1569 8.73646C78.3747 8.22653 78.6283 7.17815 78.6283 7.17815H80.0617C80.0617 7.17815 80.3181 8.22929 80.5313 8.74029L85.945 21.0959C86.3311 21.9468 86.7489 22.5612 87.8254 22.8316L87.8226 23.2422C87.2365 23.2422 85.4144 23.2084 85 23.2084C84.5877 23.2084 82.8473 23.2422 82.2623 23.2422L82.2642 22.8316C83.0522 22.6382 83.3011 22.2372 83.3011 21.8492C83.3011 21.5197 83.1649 21.1476 82.9997 20.7617L81.8358 18.1071H75.8706L74.8048 20.7766C74.6854 21.0791 74.5435 21.5065 74.5435 21.7947C74.5435 22.24 74.7765 22.595 75.6706 22.8316L75.6687 23.2422C75.139 23.2422 73.7405 23.2084 73.4128 23.2084L71.0957 23.2422L71.0966 22.8316ZM81.2958 16.8486L78.7485 10.9136L76.3761 16.8486H81.2958Z" fill="#1D1D1B"/>
<path d="M121.846 22.8316C122.857 22.595 123.415 21.9394 123.782 21.0621L128.907 8.73646C129.125 8.22653 129.381 7.17815 129.381 7.17815H130.814C130.814 7.17815 131.068 8.22929 131.281 8.74029L136.696 21.0959C137.079 21.9468 137.501 22.5612 138.573 22.8316L138.571 23.2422C137.987 23.2422 136.163 23.2084 135.746 23.2084C135.337 23.2084 133.598 23.2422 133.011 23.2422V22.8316C133.804 22.6382 134.049 22.2372 134.049 21.8492C134.049 21.5197 133.915 21.1476 133.753 20.7617L132.584 18.1071H126.619L125.552 20.7766C125.433 21.0791 125.292 21.5065 125.292 21.7947C125.292 22.24 125.525 22.595 126.419 22.8316V23.2422C125.887 23.2422 124.491 23.2084 124.161 23.2084L121.844 23.2422L121.846 22.8316ZM132.045 16.8486L129.496 10.9136L127.125 16.8486H132.045Z" fill="#1D1D1B"/>
<path d="M4.41016 2.27526H40.1277V15.7675C40.1277 21.9495 37.8266 35.0594 22.4022 44.8164C22.4022 44.8164 5.68935 37.8367 4.41016 15.7675L4.41016 2.27526Z" fill="#A81D28"/>
<path d="M4.33789 2.24018H40.0902V15.7418C40.0902 21.9259 37.7862 35.043 22.3478 44.8066C22.3478 44.8066 5.619 37.8225 4.33789 15.7418L4.33789 2.24018Z" stroke="#12110C" stroke-width="0.0489297"/>
<path d="M31.446 19.6137C31.446 19.6137 31.1276 20.6289 29.7114 19.5854L24.8488 19.468C24.8488 19.468 24.2121 19.6729 24.1255 19.0068C24.1255 19.0068 24.2421 17.6761 24.1829 17.5595C24.1829 17.5595 24.2121 17.1838 23.5732 17.1838C23.5732 17.1838 22.5908 17.2993 22.5617 16.4297C22.5617 16.4297 22.39 15.5036 23.749 15.5345C23.749 15.5345 24.1829 15.7364 24.2121 15.1852C24.2121 15.1852 24.1549 11.4216 24.1829 11.1342C24.1829 11.1342 24.2993 10.7885 23.6324 10.7294C23.6324 10.7294 22.6783 10.9313 22.5617 10.2964C22.5617 10.2964 22.5044 9.34125 23.1422 9.28211C23.1422 9.28211 23.9228 9.34125 24.0672 9.13745C24.0672 9.13745 24.2421 9.2519 24.2121 8.56072L24.2421 7.37151C24.2421 7.37151 24.3257 7.05411 24.8188 7.08517C24.8188 7.08517 25.7166 7.1424 25.834 7.05411C25.834 7.05411 26.0342 6.795 26.0933 6.67735C26.0933 6.67735 26.5573 6.64927 26.6428 6.76564C26.6428 6.76564 27.3378 7.22877 29.9713 7.05411C29.9713 7.05411 30.3772 7.05411 30.4617 7.17069C30.4617 7.17069 30.9557 7.54617 31.2441 7.1424C31.2441 7.1424 31.6781 7.05411 32.9799 7.08517C32.9799 7.08517 34.3999 7.4598 35.3815 6.64927L35.7008 6.70756C35.7008 6.70756 36.1056 7.37151 36.3949 7.17069C36.3949 7.17069 37.2638 7.08517 37.4074 7.25791C37.4074 7.25791 37.6958 7.68913 37.552 8.82175C37.552 8.82175 37.3803 9.31211 38.2189 9.31211C38.2189 9.31211 39.1752 9.13745 39.0576 10.0344C39.0576 10.0344 39.3177 11.0478 37.7277 10.904C37.7277 10.904 37.5239 11.1933 37.552 11.3963C37.552 11.3963 37.5239 14.6939 37.4948 15.0724C37.4948 15.0724 37.4665 15.5938 38.1598 15.5636C38.1598 15.5636 39.0869 15.5036 39.1178 16.3442C39.1178 16.3442 39.2324 17.444 37.8996 17.2402C37.8996 17.2402 37.4948 17.2993 37.4346 17.5595L37.3803 19.0068C37.3803 19.0068 37.4074 19.7301 36.5987 19.5554C36.4832 19.5554 32.0847 19.6448 31.7073 19.5293C31.7073 19.5293 31.5024 19.5001 31.446 19.6137Z" fill="white"/>
<path d="M22.0975 24.4506C22.0975 24.4506 22.3004 24.3651 22.3576 24.2224C22.3576 24.2224 22.9663 24.163 23.0516 24.0769L24.963 24.2224C24.963 24.2224 26.8434 24.3651 27.6539 23.7837C27.6539 23.7837 27.9452 23.7837 28.1479 23.872C28.1479 23.872 28.5508 23.9603 28.6664 24.1313L29.7673 24.1022C29.7673 24.1022 30.404 24.3068 30.3449 24.7125V25.232C30.3449 25.232 30.2285 26.2747 30.5178 26.3338H31.3592C31.3592 26.3338 32.0544 26.6514 31.967 27.056C31.967 27.056 31.9961 27.6328 31.3894 27.7502C31.3894 27.7502 30.7788 27.9229 30.5787 27.8957C30.5787 27.8957 30.3749 28.155 30.3449 28.4733L30.2604 32.2651C30.2604 32.2651 30.2013 32.67 30.8099 32.6125C30.8099 32.6125 31.7049 32.5253 31.967 33.0193C31.967 33.0193 32.1989 33.8571 31.736 34.0017L31.3894 34.1736L30.635 34.294C30.635 34.294 30.3187 34.3202 30.2885 34.8697V35.881C30.2885 35.881 30.3187 36.5782 29.7673 36.5782L28.9568 36.6363C28.9568 36.6363 28.7547 36.8073 28.35 36.6918C28.35 36.6918 23.4292 36.7809 23.2554 36.722L22.6761 36.8392C22.6761 36.8392 22.04 37.4179 21.5188 36.982L21.114 36.6635C21.114 36.6635 20.8238 36.722 20.7102 36.6918C20.5938 36.6635 15.2681 36.7509 15.2681 36.7509C15.2681 36.7509 14.1391 36.8684 14.0536 36.4899C14.0536 36.4899 13.9092 35.0152 13.9664 34.8386C13.9664 34.8386 13.9664 34.4066 13.7062 34.3785C13.7062 34.3785 12.5772 34.3202 12.5481 34.2027C12.5481 34.2027 11.9394 33.7709 12.1132 33.3375C12.1132 33.3375 12.3171 32.7563 12.9238 32.6989C12.9238 32.6989 13.8498 32.8455 13.8498 32.5845C13.8498 32.5845 13.9092 32.4106 13.9092 32.1224C13.9092 32.1224 13.9664 28.6763 13.9373 28.4452C13.9373 28.4452 14.0236 28.0112 13.6471 28.0112C13.6471 28.0112 13.2422 28.1259 12.9829 27.9532C12.9829 27.9532 12.2879 27.9823 12.1432 27.4317C12.1432 27.4317 12.0269 27.0852 12.1996 26.7931C12.1996 26.7931 12.5192 26.1572 13.4452 26.3608C13.4452 26.3608 13.9664 26.5065 14.0236 26.1317L13.9964 24.7398C13.9964 24.7398 13.879 24.3651 14.6031 24.163C14.6031 24.163 15.5292 24.4224 15.8176 23.9603C15.8176 23.9603 16.137 23.3214 16.3944 23.7556C16.3944 23.7556 16.9466 24.2779 18.4513 24.2224C18.4513 24.2224 21.0567 24.0177 21.114 24.1313C21.114 24.1313 21.7509 24.2224 21.9236 24.4224L22.0975 24.4506Z" fill="white"/>
<path d="M14.2295 19.612C14.2295 19.612 13.9102 20.6272 12.4921 19.5829L7.63041 19.4663C7.63041 19.4663 6.99369 19.6711 6.90625 19.0044C6.90625 19.0044 7.02283 17.6744 6.96263 17.5578C6.96263 17.5578 6.99369 17.1802 6.3559 17.1802C6.3559 17.1802 5.37348 17.2985 5.34518 16.4299C5.34518 16.4299 5.17053 15.5009 6.53056 15.5328C6.53056 15.5328 6.96263 15.7347 6.99369 15.1845C6.99369 15.1845 6.9354 11.4227 6.96263 11.1316C6.96263 11.1316 7.08091 10.7879 6.41504 10.7285C6.41504 10.7285 5.45879 10.9295 5.34518 10.2928C5.34518 10.2928 5.28604 9.33955 5.92192 9.2804C5.92192 9.2804 6.70351 9.33954 6.84903 9.13936C6.84903 9.13936 7.02283 9.25126 6.99369 8.55603L7.02283 7.37087C7.02283 7.37087 7.11006 7.0524 7.59935 7.08155C7.59935 7.08155 8.49923 7.13877 8.6156 7.0524C8.6156 7.0524 8.8177 6.79329 8.87301 6.67564C8.87301 6.67564 9.33891 6.64841 9.42528 6.76116C9.42528 6.76116 10.1184 7.22706 12.7548 7.0524C12.7548 7.0524 13.1578 7.0524 13.2452 7.16898C13.2452 7.16898 13.7364 7.54446 14.0257 7.13877C14.0257 7.13877 14.4597 7.0524 15.7632 7.08155C15.7632 7.08155 17.1787 7.45724 18.1641 6.64841L18.4815 6.70777C18.4815 6.70777 18.8864 7.37087 19.1784 7.16898C19.1784 7.16898 20.0454 7.08155 20.1909 7.2562C20.1909 7.2562 20.481 7.69019 20.3336 8.82004C20.3336 8.82004 20.1617 9.31125 21.0005 9.31125C21.0005 9.31125 21.9547 9.13936 21.8402 10.0326C21.8402 10.0326 22.1013 11.0461 20.5093 10.9023C20.5093 10.9023 20.3055 11.1925 20.3336 11.3946C20.3336 11.3946 20.3055 14.6922 20.2772 15.0707C20.2772 15.0707 20.2492 15.5883 20.9433 15.5619C20.9433 15.5619 21.8694 15.5009 21.8974 16.3435C21.8974 16.3435 22.013 17.4423 20.6829 17.2385C20.6829 17.2385 20.2772 17.2985 20.2181 17.5578L20.1617 19.0044C20.1617 19.0044 20.1909 19.7284 19.3784 19.5556C19.2629 19.5556 14.8665 19.6412 14.4886 19.5276C14.4886 19.5276 14.2868 19.4984 14.2295 19.612Z" fill="white"/>
<path d="M31.446 19.6137C31.446 19.6137 31.1276 20.6289 29.7114 19.5854L24.8488 19.468C24.8488 19.468 24.2121 19.6729 24.1255 19.0068C24.1255 19.0068 24.2421 17.6761 24.1829 17.5595C24.1829 17.5595 24.2121 17.1838 23.5732 17.1838C23.5732 17.1838 22.5908 17.2993 22.5617 16.4297C22.5617 16.4297 22.39 15.5036 23.749 15.5345C23.749 15.5345 24.1829 15.7364 24.2121 15.1852C24.2121 15.1852 24.1549 11.4216 24.1829 11.1342C24.1829 11.1342 24.2993 10.7885 23.6324 10.7294C23.6324 10.7294 22.6783 10.9313 22.5617 10.2964C22.5617 10.2964 22.5044 9.34125 23.1422 9.28211C23.1422 9.28211 23.9228 9.34125 24.0672 9.13745C24.0672 9.13745 24.2421 9.2519 24.2121 8.56072L24.2421 7.37151C24.2421 7.37151 24.3257 7.05411 24.8188 7.08517C24.8188 7.08517 25.7166 7.1424 25.834 7.05411C25.834 7.05411 26.0342 6.795 26.0933 6.67735C26.0933 6.67735 26.5573 6.64927 26.6428 6.76564C26.6428 6.76564 27.3378 7.22877 29.9713 7.05411C29.9713 7.05411 30.3772 7.05411 30.4617 7.17069C30.4617 7.17069 30.9557 7.54617 31.2441 7.1424C31.2441 7.1424 31.6781 7.05411 32.9799 7.08517C32.9799 7.08517 34.3999 7.4598 35.3815 6.64927L35.7008 6.70756C35.7008 6.70756 36.1056 7.37151 36.3949 7.17069C36.3949 7.17069 37.2638 7.08517 37.4074 7.25791C37.4074 7.25791 37.6958 7.68913 37.552 8.82175C37.552 8.82175 37.3803 9.31211 38.2189 9.31211C38.2189 9.31211 39.1752 9.13745 39.0576 10.0344C39.0576 10.0344 39.3177 11.0478 37.7277 10.904C37.7277 10.904 37.5239 11.1933 37.552 11.3963C37.552 11.3963 37.5239 14.6939 37.4948 15.0724C37.4948 15.0724 37.4665 15.5938 38.1598 15.5636C38.1598 15.5636 39.0869 15.5036 39.1178 16.3442C39.1178 16.3442 39.2324 17.444 37.8996 17.2402C37.8996 17.2402 37.4948 17.2993 37.4346 17.5595L37.3803 19.0068C37.3803 19.0068 37.4074 19.7301 36.5987 19.5554C36.4832 19.5554 32.0847 19.6448 31.7073 19.5293C31.7073 19.5293 31.5024 19.5001 31.446 19.6137Z" fill="#12110C"/>
<path d="M31.4449 19.6136C31.4449 19.6136 31.1265 20.629 29.7103 19.5855L24.8467 19.468C24.8467 19.468 24.2099 19.6727 24.1236 19.006C24.1236 19.006 24.241 17.6751 24.1808 17.5585C24.1808 17.5585 24.2099 17.1828 23.5722 17.1828C23.5722 17.1828 22.5889 17.2994 22.5597 16.4295C22.5597 16.4295 22.3878 15.5035 23.7468 15.5335C23.7468 15.5335 24.1808 15.7356 24.2099 15.1852C24.2099 15.1852 24.1527 11.4215 24.1808 11.1332C24.1808 11.1332 24.2982 10.7866 23.6313 10.7284C23.6313 10.7284 22.6761 10.9305 22.5597 10.2954C22.5597 10.2954 22.5034 9.33918 23.1401 9.2811C23.1401 9.2811 23.9206 9.33918 24.0655 9.13644C24.0655 9.13644 24.241 9.2509 24.2099 8.55865L24.241 7.36966C24.241 7.36966 24.3235 7.05225 24.8186 7.08331C24.8186 7.08331 25.7155 7.14054 25.8321 7.05225C25.8321 7.05225 26.0323 6.79399 26.0922 6.67634C26.0922 6.67634 26.5554 6.64741 26.6418 6.76399C26.6418 6.76399 27.3359 7.22691 29.9702 7.05225C29.9702 7.05225 30.3761 7.05225 30.4606 7.16862C30.4606 7.16862 30.9546 7.54431 31.2431 7.14054C31.2431 7.14054 31.677 7.05225 32.9788 7.08331C32.9788 7.08331 34.3988 7.45794 35.3812 6.64741L35.7008 6.70464C35.7008 6.70464 36.1054 7.36966 36.3939 7.16862C36.3939 7.16862 37.2627 7.08331 37.4063 7.25499C37.4063 7.25499 37.6956 7.68812 37.552 8.81883C37.552 8.81883 37.3793 9.3111 38.2187 9.3111C38.2187 9.3111 39.1741 9.13644 39.0565 10.0325C39.0565 10.0325 39.3167 11.0468 37.7267 10.9022C37.7267 10.9022 37.5237 11.1915 37.552 11.3953C37.552 11.3953 37.5237 14.6929 37.4946 15.0705C37.4946 15.0705 37.4654 15.5918 38.1596 15.5637C38.1596 15.5637 39.0875 15.5035 39.1175 16.3431C39.1175 16.3431 39.2314 17.443 37.8994 17.2392C37.8994 17.2392 37.4946 17.2994 37.4346 17.5585L37.3793 19.006C37.3793 19.006 37.4063 19.7301 36.5987 19.5555C36.4832 19.5555 32.0836 19.6438 31.7062 19.5283C31.7062 19.5283 31.5013 19.5 31.4449 19.6136Z" stroke="#12110C" stroke-width="0.00212738"/>
<path d="M25.9767 7.68946C25.9767 7.68946 26.0339 8.26896 26.0339 8.41553C26.0339 8.55913 25.9486 16.7776 25.9486 16.7776C25.9486 16.7776 26.0339 17.4143 25.4863 17.7337C25.4863 17.7337 25.3397 17.79 25.3125 17.3852L25.3691 8.70571C25.3691 8.70571 25.4272 7.63202 25.9767 7.68946Z" fill="white"/>
<path d="M25.9755 7.68848C25.9755 7.68848 26.0319 8.26797 26.0319 8.41455C26.0319 8.559 25.9474 16.7785 25.9474 16.7785C25.9474 16.7785 26.0319 17.4153 25.4843 17.7335C25.4843 17.7335 25.3377 17.791 25.3086 17.3861L25.3669 8.70472C25.3669 8.70472 25.4241 7.63104 25.9755 7.68848Z" stroke="#12110C" stroke-width="0.00255285"/>
<path d="M25.0226 17.8183C25.0226 17.8183 25.08 9.6573 25.0528 9.51264C25.0226 9.36989 25.08 9.63092 25.08 9.63092C25.08 9.63092 24.9934 8.21069 25.3702 7.63034C25.3702 7.63034 25.2528 7.14104 24.5878 7.74777L24.5586 8.93293C24.5586 8.93293 24.5586 9.59986 23.9519 9.57072C23.9519 9.57072 23.2569 9.54072 22.9384 9.85919C22.9384 9.85919 22.7648 10.4968 23.4296 10.3823C23.4296 10.3823 24.4722 10.3823 24.5305 10.8133L24.4722 15.1847C24.4722 15.1847 24.7041 15.9116 23.8947 15.9116C23.8947 15.9116 22.9076 15.8497 22.9384 16.4575C22.9384 16.4575 23.1422 16.9776 23.981 16.8057C23.981 16.8057 24.5878 16.9193 24.5586 17.5007V18.5997C24.5586 18.5997 24.5003 19.0365 25.08 19.0637H29.5947C29.5947 19.0637 29.8249 19.0918 29.8249 18.8025C29.8249 18.8025 29.7968 18.5716 29.4501 18.5716L25.6885 18.5134C25.6885 18.5134 25.08 18.7172 25.0226 17.8183Z" fill="white"/>
<path d="M25.8911 17.8049C25.8911 17.8049 25.7748 18.2097 26.2085 18.1251H29.1899L29.9985 18.3008C29.9985 18.3008 30.8373 18.0961 29.9985 17.6338C29.9985 17.6338 27.3367 17.6602 27.1057 17.6039C27.1057 17.6039 26.5553 17.46 26.4368 17.4311C26.4368 17.4311 26.1505 17.3156 25.8911 17.8049Z" fill="white"/>
<path d="M25.8892 17.806C25.8892 17.806 25.7728 18.2117 26.2066 18.1272H29.1887L29.9976 18.3027C29.9976 18.3027 30.837 18.0972 29.9976 17.6341C29.9976 17.6341 27.3356 17.6603 27.1035 17.605C27.1035 17.605 26.5534 17.4603 26.4359 17.4311C26.4359 17.4311 26.1485 17.3156 25.8892 17.806Z" stroke="#12110C" stroke-width="0.00255285"/>
<path d="M30.8367 18.2118C30.8367 18.2118 30.2872 18.2118 30.3155 18.9368C30.3155 18.9368 30.3736 19.4844 30.9522 19.4844C30.9522 19.4844 31.4715 19.3991 31.4162 18.8204C31.4162 18.8204 31.0969 18.0971 30.8367 18.2118Z" fill="white"/>
<path d="M31.2425 17.9237C31.2425 17.9237 31.5027 17.6355 31.6774 17.6355C31.6774 17.6355 34.5713 17.8946 35.0597 17.548C35.0597 17.548 35.4964 17.4617 35.6128 17.548C35.6128 17.548 36.0459 17.8946 36.0459 18.0975C36.0459 18.0975 36.0177 18.3594 35.4964 18.2111C35.4964 18.2111 32.226 18.2431 32.0522 18.2431C32.0522 18.2431 31.1534 18.4441 31.2425 17.9237Z" fill="white"/>
<path d="M31.2425 17.923C31.2425 17.923 31.5027 17.6336 31.6774 17.6336C31.6774 17.6336 34.5721 17.893 35.0616 17.5462C35.0616 17.5462 35.4981 17.4598 35.6147 17.5462C35.6147 17.5462 36.0477 17.893 36.0477 18.0976C36.0477 18.0976 36.0196 18.3597 35.4981 18.2112C35.4981 18.2112 32.226 18.2431 32.0522 18.2431C32.0522 18.2431 31.1534 18.4442 31.2425 17.923Z" stroke="#12110C" stroke-width="0.00255285"/>
<path d="M31.6191 18.8615C31.6191 18.8615 31.6191 18.6275 32.0248 18.6275L36.0749 18.5994C36.0749 18.5994 36.4525 18.8024 36.4525 18.1091C36.4525 18.1091 36.6008 14.9544 36.614 11.481C36.6187 10.4469 36.6657 9.36214 36.6291 8.35695C36.6291 8.35695 36.5389 7.92211 36.4225 7.83383C36.4225 7.83383 36.4225 7.37176 36.9155 7.54557C36.9155 7.54557 37.3494 7.57471 37.2339 8.2425L37.2639 9.25109C37.2639 9.25109 37.1767 9.68784 37.9562 9.57062C37.9562 9.57062 38.7367 9.68784 38.7678 9.97524C38.7678 9.97524 38.9988 10.5567 38.0745 10.4975H37.4058C37.4058 10.4975 37.1176 10.6705 37.2039 11.0189L37.1176 15.2162C37.1176 15.2162 37.0593 15.9385 37.7543 15.9113C37.7543 15.9113 38.4765 15.8813 38.622 16.1134C38.622 16.1134 39.1171 16.8365 38.0445 16.7784C38.0445 16.7784 37.3786 16.7482 37.2339 16.8656C37.2339 16.8656 37.1176 17.0092 37.031 18.3711C37.031 18.3711 37.0901 19.1817 36.4815 19.0925C36.4815 19.0925 32.458 19.1498 32.0823 19.0645C32.0823 19.0645 31.6774 19.1817 31.6191 18.8615Z" fill="white"/>
<path d="M26.4118 7.42527L26.3244 16.7181C26.3244 16.7181 26.2963 17.1493 27.0196 17.2365C27.0196 17.2365 27.8582 17.3229 28.0592 17.2365C28.0592 17.2365 28.6126 17.2065 30.0279 17.2657C30.0279 17.2657 30.3772 17.616 30.4064 17.1784C30.4064 17.1784 30.6355 9.65689 30.523 8.09029C30.523 8.09029 30.491 7.42527 30.0007 7.39613C30.0007 7.39613 27.801 7.57376 27.5982 7.39613L26.7294 7.16701C26.7294 7.16701 26.3818 7.19509 26.4118 7.42527Z" fill="white"/>
<path d="M30.9821 7.89164C30.9821 7.89164 30.8957 12.2619 30.9247 12.4066L30.8674 16.081L30.75 17.3555C30.75 17.3555 30.9247 17.6154 31.0695 17.4427C31.0695 17.4427 31.9956 17.2078 32.574 17.2991C32.574 17.2991 34.4282 17.471 34.8029 17.1798C34.8029 17.1798 35.093 17.3244 35.1777 16.8613C35.1777 16.8613 35.2922 8.76046 35.2388 8.6158C35.2388 8.6158 35.3505 7.45489 35.2922 7.34213C35.2922 7.34213 35.2668 7.08196 34.7737 7.31214C34.7737 7.31214 34.8301 7.54509 32.0828 7.45489C32.0828 7.45489 31.0412 7.42659 30.9821 7.89164Z" fill="white"/>
<path d="M35.5847 7.77657L35.5566 16.92C35.5566 16.92 35.7877 17.7333 36.1634 17.648C36.1634 17.648 36.2197 17.4723 36.2478 17.183L36.3653 8.47074C36.3653 8.47074 36.074 7.08433 35.5847 7.77657Z" fill="white"/>
<path d="M35.5847 7.77463L35.5566 16.92C35.5566 16.92 35.7885 17.7335 36.1642 17.648C36.1642 17.648 36.2217 17.4723 36.2497 17.183L36.3661 8.46879C36.3661 8.46879 36.0751 7.08238 35.5847 7.77463Z" stroke="#12110C" stroke-width="0.00255285"/>
<path d="M32.0316 10.5148C31.9452 10.2838 32.5236 10.2546 32.5236 10.2546L32.814 10.3118C33.017 10.2838 33.2197 10.371 33.2197 10.371C33.4218 10.6886 33.0742 10.8613 33.0742 10.8613L32.9587 11.239C32.9287 11.5583 32.9587 14.3075 32.9587 14.3075C33.017 14.4502 33.248 14.7096 33.248 14.7096C33.248 14.9714 32.9287 14.9142 32.9287 14.9142L32.0907 14.9434C31.8297 14.9142 31.916 14.6238 31.916 14.6238C32.2054 14.4794 32.2928 13.9571 32.2928 13.9571V11.0934L32.0316 10.5148Z" fill="#12110C"/>
<path d="M28.1259 13.2066L28.0687 14.1035L28.3269 14.5366C28.5027 14.7676 28.2123 14.9434 28.2123 14.9434L27.2862 14.8568C27.1143 14.7676 27.2862 14.4792 27.2862 14.4792C27.5183 14.3366 27.5472 13.958 27.5472 13.958L27.5183 12.2797L27.5472 11.0643C27.5472 10.9186 27.3162 10.6603 27.3162 10.6603C27.1143 10.6312 27.1716 10.371 27.1716 10.371C27.229 10.2255 27.7191 10.3118 27.7191 10.3118H28.9364C30.0946 10.6886 29.9208 11.5281 29.9208 11.5281C30.0082 12.366 29.1111 12.7154 29.1111 12.7154L29.0511 13.1785L29.8916 14.5075C30.0363 14.6238 30.0082 14.7413 30.0082 14.7413C29.8916 15.0597 29.4276 14.7413 29.4276 14.7413L28.3871 13.1193C28.2997 13.0028 28.1259 13.2066 28.1259 13.2066ZM28.155 10.9186C28.1831 11.5572 28.1831 12.4252 28.1831 12.4252C28.7345 12.86 29.0511 12.2505 29.0511 12.2505C29.7733 11.5572 29.0511 10.9186 28.9364 10.7467C28.819 10.572 28.2406 10.7167 28.2406 10.7167L28.155 10.9186Z" fill="#12110C"/>
<path d="M22.0975 24.4506C22.0975 24.4506 22.3004 24.3651 22.3576 24.2224C22.3576 24.2224 22.9663 24.163 23.0516 24.0769L24.963 24.2224C24.963 24.2224 26.8434 24.3651 27.6539 23.7837C27.6539 23.7837 27.9452 23.7837 28.1479 23.872C28.1479 23.872 28.5508 23.9603 28.6664 24.1313L29.7673 24.1022C29.7673 24.1022 30.404 24.3068 30.3449 24.7125V25.232C30.3449 25.232 30.2285 26.2747 30.5178 26.3338H31.3592C31.3592 26.3338 32.0544 26.6514 31.967 27.056C31.967 27.056 31.9961 27.6328 31.3894 27.7502C31.3894 27.7502 30.7788 27.9229 30.5787 27.8957C30.5787 27.8957 30.3749 28.155 30.3449 28.4733L30.2604 32.2651C30.2604 32.2651 30.2013 32.67 30.8099 32.6125C30.8099 32.6125 31.7049 32.5253 31.967 33.0193C31.967 33.0193 32.1989 33.8571 31.736 34.0017L31.3894 34.1736L30.635 34.294C30.635 34.294 30.3187 34.3202 30.2885 34.8697V35.881C30.2885 35.881 30.3187 36.5782 29.7673 36.5782L28.9568 36.6363C28.9568 36.6363 28.7547 36.8073 28.35 36.6918C28.35 36.6918 23.4292 36.7809 23.2554 36.722L22.6761 36.8392C22.6761 36.8392 22.04 37.4179 21.5188 36.982L21.114 36.6635C21.114 36.6635 20.8238 36.722 20.7102 36.6918C20.5938 36.6635 15.2681 36.7509 15.2681 36.7509C15.2681 36.7509 14.1391 36.8684 14.0536 36.4899C14.0536 36.4899 13.9092 35.0152 13.9664 34.8386C13.9664 34.8386 13.9664 34.4066 13.7062 34.3785C13.7062 34.3785 12.5772 34.3202 12.5481 34.2027C12.5481 34.2027 11.9394 33.7709 12.1132 33.3375C12.1132 33.3375 12.3171 32.7563 12.9238 32.6989C12.9238 32.6989 13.8498 32.8455 13.8498 32.5845C13.8498 32.5845 13.9092 32.4106 13.9092 32.1224C13.9092 32.1224 13.9664 28.6763 13.9373 28.4452C13.9373 28.4452 14.0236 28.0112 13.6471 28.0112C13.6471 28.0112 13.2422 28.1259 12.9829 27.9532C12.9829 27.9532 12.2879 27.9823 12.1432 27.4317C12.1432 27.4317 12.0269 27.0852 12.1996 26.7931C12.1996 26.7931 12.5192 26.1572 13.4452 26.3608C13.4452 26.3608 13.9664 26.5065 14.0236 26.1317L13.9964 24.7398C13.9964 24.7398 13.879 24.3651 14.6031 24.163C14.6031 24.163 15.5292 24.4224 15.8176 23.9603C15.8176 23.9603 16.137 23.3214 16.3944 23.7556C16.3944 23.7556 16.9466 24.2779 18.4513 24.2224C18.4513 24.2224 21.0567 24.0177 21.114 24.1313C21.114 24.1313 21.7509 24.2224 21.9236 24.4224L22.0975 24.4506Z" fill="#12110C"/>
<path d="M22.0965 24.4151C22.0965 24.4151 22.2974 24.3307 22.3567 24.186C22.3567 24.186 22.9643 24.1269 23.0507 24.0403L24.9613 24.186C24.9613 24.186 26.8425 24.3307 27.653 23.7492C27.653 23.7492 27.9443 23.7492 28.147 23.8375C28.147 23.8375 28.551 23.9248 28.6646 24.0958L29.7672 24.0675C29.7672 24.0675 30.4031 24.2724 30.3439 24.677V25.1976C30.3439 25.1976 30.2284 26.24 30.5177 26.2974H31.3583C31.3583 26.2974 32.0524 26.6167 31.9669 27.0216C31.9669 27.0216 31.9961 27.5983 31.3885 27.7157C31.3885 27.7157 30.779 27.8885 30.5788 27.8602C30.5788 27.8602 30.375 28.1204 30.3439 28.4388L30.2584 32.2315C30.2584 32.2315 30.2003 32.6344 30.8079 32.5781C30.8079 32.5781 31.704 32.4928 31.9669 32.9838C31.9669 32.9838 32.199 33.8226 31.7359 33.9681L31.3885 34.1411L30.6341 34.2585C30.6341 34.2585 30.3167 34.2866 30.2886 34.8342V35.8496C30.2886 35.8496 30.3167 36.5435 29.7672 36.5435L28.9567 36.6018C28.9567 36.6018 28.7537 36.7747 28.3491 36.6592C28.3491 36.6592 23.4283 36.7465 23.2545 36.6865L22.6741 36.8037C22.6741 36.8037 22.0391 37.3832 21.5179 36.9464L21.1122 36.628C21.1122 36.628 20.8229 36.6865 20.7084 36.6592C20.5918 36.628 15.2672 36.7173 15.2672 36.7173C15.2672 36.7173 14.1374 36.8339 14.051 36.4563C14.051 36.4563 13.9072 34.9797 13.9644 34.805C13.9644 34.805 13.9644 34.3729 13.7034 34.3438C13.7034 34.3438 12.5755 34.2866 12.5455 34.17C12.5455 34.17 11.9377 33.7354 12.1113 33.3022C12.1113 33.3022 12.3151 32.7219 12.9229 32.6634C12.9229 32.6634 13.8481 32.8121 13.8481 32.5479C13.8481 32.5479 13.9072 32.3751 13.9072 32.0877C13.9072 32.0877 13.9644 28.6418 13.9363 28.4105C13.9363 28.4105 14.0227 27.9749 13.6451 27.9749C13.6451 27.9749 13.2405 28.0904 12.9801 27.9185C12.9801 27.9185 12.2861 27.9468 12.1415 27.3973C12.1415 27.3973 12.024 27.0507 12.1987 26.7595C12.1987 26.7595 12.5163 26.1225 13.4432 26.3255C13.4432 26.3255 13.9644 26.4721 14.0227 26.0964L13.9936 24.7053C13.9936 24.7053 13.8772 24.3307 14.6014 24.1269C14.6014 24.1269 15.5274 24.3879 15.8167 23.9248C15.8167 23.9248 16.1341 23.2872 16.3935 23.7193C16.3935 23.7193 16.9457 24.2415 18.4494 24.186C18.4494 24.186 21.0558 23.9811 21.1122 24.0958C21.1122 24.0958 21.75 24.186 21.9227 24.3879L22.0965 24.4151Z" stroke="#12110C" stroke-width="0.00212738"/>
<path d="M22.8486 35.824C22.8486 35.824 23.197 35.6483 23.4291 35.7085C23.661 35.7659 27.0461 35.6802 27.0461 35.6802C27.0461 35.6802 28.5216 35.7948 28.7546 35.59L29.0992 35.4755C29.0992 35.4755 29.2447 35.3028 29.2447 35.0726C29.2447 34.8388 29.2739 34.0572 29.2739 34.0572L29.3622 33.77C29.3622 33.77 29.3322 33.4805 29.3622 25.7515C29.3622 25.7515 29.4758 25.1467 29.0992 24.7682C29.0992 24.7682 29.0992 24.5389 29.2147 24.5663C29.3322 24.5974 29.2739 24.5974 29.2739 24.5974C29.2739 24.5974 29.7942 24.4497 29.8797 24.6525C29.8797 24.6525 30.1135 25.3447 29.9097 25.7515C29.9097 25.7515 29.8515 26.592 30.2893 26.592C30.2893 26.592 30.4601 26.7669 30.8077 26.6786C30.8077 26.6786 31.5599 26.7669 31.5599 26.996C31.5599 26.996 31.5599 27.5191 31.0387 27.4319L30.3429 27.4881C30.3429 27.4881 29.8797 27.5774 29.9389 28.1252C29.998 28.6754 29.9097 32.6116 29.9097 32.6116C29.9097 32.6116 29.9097 33.0767 30.635 33.0475C30.635 33.0475 31.531 33.0175 31.531 33.2767C31.531 33.2767 31.7618 33.8553 31.1262 33.8855C31.1262 33.8855 29.9097 33.8553 29.998 34.2019C29.998 34.2019 29.9097 35.0143 29.8515 35.157C29.8515 35.157 29.9699 35.824 29.8225 35.9406C29.8225 35.9406 29.737 36.3152 28.9565 36.258C28.9565 36.258 23.9795 36.2297 23.197 36.2871C23.197 36.2871 22.733 36.2297 22.8486 35.824Z" fill="white"/>
<path d="M21.9542 35.2745C21.9542 35.2745 22.4454 35.36 22.4454 35.824C22.4454 36.286 22.4745 36.5471 22.1835 36.6045C21.895 36.6626 21.5776 36.5773 21.4921 36.2014C21.403 35.824 21.5474 35.36 21.9542 35.2745Z" fill="white"/>
<path d="M22.5313 35.0442C22.5313 35.0442 23.0516 34.6947 23.2543 34.7551C23.2543 34.7551 25.8872 34.9268 26.6996 34.7849C27.5091 34.6394 27.017 34.7551 27.017 34.7551C27.017 34.7551 27.7123 34.7551 27.9131 34.4928C27.9131 34.4928 28.1169 34.4373 28.2324 34.6394L28.6645 35.1042C28.6645 35.1042 28.6972 35.3908 28.2033 35.3616C28.2033 35.3616 23.4845 35.3616 23.3418 35.3908C23.3418 35.3908 22.4449 35.5335 22.5313 35.0442Z" fill="white"/>
<path d="M22.5313 35.0432C22.5313 35.0432 23.0516 34.6937 23.2543 34.753C23.2543 34.753 25.8891 34.9258 26.7005 34.7839C27.5112 34.6375 27.0179 34.753 27.0179 34.753C27.0179 34.753 27.714 34.753 27.915 34.4899C27.915 34.4899 28.118 34.4356 28.2343 34.6375L28.6664 35.1032C28.6664 35.1032 28.6983 35.3908 28.2052 35.3606C28.2052 35.3606 23.4864 35.3606 23.3418 35.3908C23.3418 35.3908 22.4449 35.5336 22.5313 35.0432Z" stroke="#12110C" stroke-width="0.00255285"/>
<path d="M15.6745 24.7688C15.6745 24.7688 15.8774 24.7688 15.8481 25.1164L15.7891 33.8558C15.7891 33.8558 15.8774 34.4362 15.3851 34.811C15.3851 34.811 15.123 35.1284 15.123 34.6383L15.2413 25.7239C15.2413 25.7239 15.2688 25.0579 15.6745 24.7688Z" fill="white"/>
<path d="M15.6725 24.7688C15.6725 24.7688 15.8754 24.7688 15.848 25.1162L15.7871 33.8578C15.7871 33.8578 15.8754 34.4382 15.3823 34.813C15.3823 34.813 15.1191 35.1304 15.1191 34.6401L15.2376 25.7249C15.2376 25.7249 15.2657 25.0579 15.6725 24.7688Z" stroke="#12110C" stroke-width="0.00255285"/>
<path d="M15.2108 24.8277C15.2108 24.8277 14.8632 25.4655 14.8923 25.6112L14.8632 27.5477C14.8632 27.5477 14.834 28.7922 14.8632 28.9378C14.8923 29.0816 14.834 32.7287 14.834 32.7287C14.834 32.7287 14.8051 33.4216 14.834 33.6546V35.2167C14.834 35.2167 14.776 35.9126 15.2963 35.736C15.2963 35.736 20.3907 35.6215 20.7101 35.7096C20.7101 35.7096 21.1713 35.7954 21.0002 36.0272C21.0002 36.0272 21.0002 36.2313 20.679 36.1719C20.679 36.1719 18.2774 36.4019 16.1077 36.3166C16.1077 36.3166 14.6604 36.4019 14.5722 36.2313C14.5722 36.2313 14.342 36.2019 14.342 35.3614C14.342 35.3614 14.342 34.5819 14.2856 34.437C14.2856 34.437 14.342 34.0267 13.6189 33.943C13.6189 33.943 12.6062 34.1177 12.5771 33.5101C12.5771 33.5101 12.7209 33.0761 13.7061 33.1325C13.7061 33.1325 14.4294 33.2489 14.2856 32.6685L14.3711 28.3883C14.3711 28.3883 14.4603 27.6324 13.9663 27.6022C13.9663 27.6022 13.5051 27.5788 13.3576 27.6324C13.3576 27.6324 12.519 27.6324 12.5771 27.144C12.5771 27.144 12.8664 26.6217 13.7061 26.7381C13.7061 26.7381 14.342 26.8529 14.3711 26.1313C14.3711 26.1313 14.342 24.6541 14.6885 24.5977C14.6885 24.5977 15.4137 24.6239 15.2108 24.8277Z" fill="white"/>
<path d="M16.078 34.4049C16.078 34.4049 16.4836 34.837 17.1506 34.8117L21.083 34.868C21.083 34.868 21.52 34.8989 21.4926 35.128C21.4926 35.128 21.4306 35.4748 20.9122 35.3592L16.1652 35.302L15.6431 35.3337C15.6431 35.3337 15.2955 35.2737 15.8478 34.6087L16.078 34.4049Z" fill="white"/>
<path d="M16.0756 34.4045C16.0756 34.4045 16.4815 34.8375 17.1492 34.8111L21.0828 34.8685C21.0828 34.8685 21.5185 34.8985 21.4923 35.1285C21.4923 35.1285 21.4312 35.4761 20.9128 35.3616L16.163 35.3042L15.6407 35.3342C15.6407 35.3342 15.2942 35.2753 15.8454 34.6083L16.0756 34.4045Z" stroke="#12110C" stroke-width="0.00255285"/>
<path d="M28.2324 34.0265C28.2324 34.0265 28.5798 34.6934 28.7536 34.7844C28.7536 34.7844 29.0721 35.1574 28.9857 34.4924L29.043 26.1567C29.043 26.1567 28.9555 25.8665 29.043 25.4053L28.6964 24.7683C28.6964 24.7683 28.3188 24.4792 28.3188 24.9413L28.2616 33.8273L28.2324 34.0265Z" fill="white"/>
<path d="M28.2324 34.0282C28.2324 34.0282 28.5809 34.6941 28.7555 34.7862C28.7555 34.7862 29.074 35.16 28.9876 34.4933L29.0449 26.1554C29.0449 26.1554 28.9574 25.8672 29.0449 25.406L28.6975 24.7684C28.6975 24.7684 28.3188 24.4799 28.3188 24.942L28.2616 33.8289L28.2324 34.0282Z" stroke="#12110C" stroke-width="0.00255285"/>
<path d="M21.808 30.065C21.808 30.065 21.8371 30.7573 21.7489 31.4214C21.7018 31.7886 21.8661 33.4792 21.7197 34.3461C21.7197 34.3461 21.6933 34.6363 21.0828 34.3772C21.0828 34.3772 17.3794 34.4625 17.2639 34.3461C17.2639 34.3461 16.2515 34.3772 16.1641 33.8549C16.1641 33.8549 16.3087 29.8904 16.2224 29.7429C16.2224 29.7429 16.1641 27.5732 16.2224 27.3713C16.2224 27.3713 16.3087 25.3746 16.2515 25.1433C16.2515 25.1433 16.2806 24.6802 16.1932 24.4475C16.1932 24.4475 16.1932 24.1581 16.6863 24.3311C16.6863 24.3311 16.8574 24.6504 17.8134 24.5085C17.8134 24.5085 18.5093 24.6232 19.1754 24.5357C19.1754 24.5357 20.6498 24.4202 21.0275 24.5357C21.0275 24.5357 21.607 24.4202 21.7778 25.0589L21.7489 26.8518L21.9216 27.4305L22.1254 27.2867L22.2109 26.8518L22.2401 24.9414C22.2401 24.9414 22.3556 24.593 22.8204 24.5357C22.8204 24.5357 23.5437 24.4475 23.6611 24.5085C23.7767 24.564 25.3367 24.6504 25.7734 24.564C26.2063 24.4775 26.2919 24.8531 27.5966 24.1892C27.5966 24.1892 27.944 24.2183 27.944 24.4475C27.944 24.4475 27.8257 26.9112 27.944 27.3713C27.944 27.3713 27.944 31.8854 27.8538 32.2039L27.9129 33.6509C27.9129 33.6509 27.9704 34.2881 26.9596 34.3461C26.9596 34.3461 27.5966 34.4334 23.6001 34.3178C23.6001 34.3178 22.9642 34.2881 22.2701 34.6055C22.2701 34.6055 22.1254 34.5772 22.1254 34.2015C22.1254 34.2015 22.2401 32.8425 22.1254 31.5086L22.0692 30.0333L21.808 30.065Z" fill="white"/>
<path d="M19.2035 28.0118C19.2035 28.0118 19.2909 30.1526 19.2035 30.4417L19.1763 30.9059C19.1763 30.9059 19.2909 31.2223 19.4647 31.3397C19.4647 31.3397 19.6103 31.7435 19.2618 31.7154C19.2618 31.7154 18.5396 31.6571 18.3657 31.6846C18.3657 31.6846 17.959 31.6846 18.3657 31.1667C18.3657 31.1667 18.5104 30.961 18.4804 30.4417C18.4804 30.4417 18.4804 28.0118 18.5396 27.8682C18.5396 27.8682 18.5968 27.5479 18.3938 27.4606L18.0454 27.4906L17.6133 27.8955C17.6133 27.8955 17.525 28.3314 17.3223 27.8682V27.6345L17.5844 26.9403L17.7582 26.9101C17.7582 26.9101 18.0173 27.0841 18.2483 27.1441H19.6103L20.1015 26.9101C20.1015 26.9101 20.3034 26.9403 20.248 27.2005C20.248 27.2005 20.3325 27.8682 19.9568 27.9529C19.9568 27.9529 19.7249 27.8682 19.6103 27.5479C19.6103 27.5479 19.2337 27.347 19.2035 28.0118Z" fill="#12110C"/>
<path d="M25.5994 27.2295C25.5994 27.2295 24.5014 27.142 24.4742 28.3283C24.4742 28.3283 24.3549 29.1407 25.5721 29.6621C25.5721 29.6621 26.4701 30.0942 26.4099 30.6437C26.4099 30.6437 26.2944 31.628 25.3392 31.1366C25.3392 31.1366 24.8771 30.9037 24.908 30.6437C24.908 30.6437 24.7608 30.3244 24.5878 30.3833C24.5878 30.3833 24.384 30.4399 24.4742 31.3959C24.4742 31.3959 24.4742 31.7725 24.908 31.3959L25.1362 31.4551C25.1362 31.4551 25.9187 32.0918 26.5829 31.3087C26.5829 31.3087 27.3079 30.6437 26.7856 29.834C26.7856 29.834 26.4099 29.2573 25.7451 28.9671C25.7451 28.9671 25.1082 28.675 24.9646 28.1836C24.9646 28.1836 25.1673 27.3139 25.947 27.7771C25.947 27.7771 26.2372 28.1247 26.4099 28.1836C26.4099 28.1836 26.642 28.1836 26.5829 27.6605L26.5282 27.2295C26.5282 27.2295 26.4701 26.9072 26.0634 27.2295C26.0634 27.2295 25.6868 27.3722 25.5994 27.2295Z" fill="#12110C"/>
<path d="M22.0686 26.6196C22.2705 26.767 22.2996 27.0555 22.2996 27.0555C22.8783 28.5882 23.3714 30.8188 23.3714 30.8188C23.515 31.1053 23.7762 31.3383 23.7762 31.3383C24.2683 31.511 23.7762 31.6548 23.7762 31.6548C23.5733 31.7431 22.9093 31.6285 22.9093 31.6285C22.5598 31.5666 22.7036 31.4538 22.7036 31.4538C22.85 31.3091 22.7336 30.7286 22.7336 30.7286C22.7036 30.4995 22.4453 30.1221 22.4453 30.1221C22.3298 30.0636 22.1269 30.324 22.1269 30.324C22.1269 30.324 21.8095 30.4403 21.7784 30.324C21.7493 30.2063 21.5474 30.0968 21.5474 30.0968C21.1998 30.0968 21.0562 30.9596 21.0562 30.9596C21.2581 31.684 21.0562 31.5666 21.0562 31.5666C20.8834 31.8006 20.332 31.6285 20.332 31.6285C20.0718 31.5666 20.2473 31.3647 20.2473 31.3647C20.5639 31.3091 20.6503 30.9596 20.6503 30.9596C20.796 30.7577 21.7201 26.9963 21.7201 26.9963C21.8095 26.8214 21.8656 26.4749 22.0686 26.6196ZM21.6076 28.5291C21.5774 28.6746 21.3736 29.4851 21.3736 29.4851L21.5474 29.7772C21.5474 29.7772 22.0114 29.8036 22.1841 29.8036C22.356 29.8036 22.3871 29.6617 22.3871 29.5141C22.3871 29.3707 22.0686 28.5027 22.0686 28.5027L21.9222 28.3289L21.6076 28.5291Z" fill="#12110C"/>
<path d="M14.2295 19.612C14.2295 19.612 13.9102 20.6272 12.4921 19.5829L7.63041 19.4663C7.63041 19.4663 6.99369 19.6711 6.90625 19.0044C6.90625 19.0044 7.02283 17.6744 6.96263 17.5578C6.96263 17.5578 6.99369 17.1802 6.3559 17.1802C6.3559 17.1802 5.37348 17.2985 5.34518 16.4299C5.34518 16.4299 5.17053 15.5009 6.53056 15.5328C6.53056 15.5328 6.96263 15.7347 6.99369 15.1845C6.99369 15.1845 6.9354 11.4227 6.96263 11.1316C6.96263 11.1316 7.08091 10.7879 6.41504 10.7285C6.41504 10.7285 5.45879 10.9295 5.34518 10.2928C5.34518 10.2928 5.28604 9.33955 5.92192 9.2804C5.92192 9.2804 6.70351 9.33954 6.84903 9.13936C6.84903 9.13936 7.02283 9.25126 6.99369 8.55603L7.02283 7.37087C7.02283 7.37087 7.11006 7.0524 7.59935 7.08155C7.59935 7.08155 8.49923 7.13877 8.6156 7.0524C8.6156 7.0524 8.8177 6.79329 8.87301 6.67564C8.87301 6.67564 9.33891 6.64841 9.42528 6.76116C9.42528 6.76116 10.1184 7.22706 12.7548 7.0524C12.7548 7.0524 13.1578 7.0524 13.2452 7.16898C13.2452 7.16898 13.7364 7.54446 14.0257 7.13877C14.0257 7.13877 14.4597 7.0524 15.7632 7.08155C15.7632 7.08155 17.1787 7.45724 18.1641 6.64841L18.4815 6.70777C18.4815 6.70777 18.8864 7.37087 19.1784 7.16898C19.1784 7.16898 20.0454 7.08155 20.1909 7.2562C20.1909 7.2562 20.481 7.69019 20.3336 8.82004C20.3336 8.82004 20.1617 9.31125 21.0005 9.31125C21.0005 9.31125 21.9547 9.13936 21.8402 10.0326C21.8402 10.0326 22.1013 11.0461 20.5093 10.9023C20.5093 10.9023 20.3055 11.1925 20.3336 11.3946C20.3336 11.3946 20.3055 14.6922 20.2772 15.0707C20.2772 15.0707 20.2492 15.5883 20.9433 15.5619C20.9433 15.5619 21.8694 15.5009 21.8974 16.3435C21.8974 16.3435 22.013 17.4423 20.6829 17.2385C20.6829 17.2385 20.2772 17.2985 20.2181 17.5578L20.1617 19.0044C20.1617 19.0044 20.1909 19.7284 19.3784 19.5556C19.2629 19.5556 14.8665 19.6412 14.4886 19.5276C14.4886 19.5276 14.2868 19.4984 14.2295 19.612Z" fill="#12110C"/>
<path d="M14.2283 19.6139C14.2283 19.6139 13.909 20.6293 12.4909 19.5847L7.62837 19.4684C7.62837 19.4684 6.99143 19.673 6.90421 19.0054C6.90421 19.0054 7.02164 17.6754 6.96143 17.5588C6.96143 17.5588 6.99143 17.1823 6.35364 17.1823C6.35364 17.1823 5.37122 17.3006 5.34314 16.4317C5.34314 16.4317 5.16933 15.5019 6.52936 15.5338C6.52936 15.5338 6.96143 15.7359 6.99143 15.1864C6.99143 15.1864 6.93314 11.4228 6.96143 11.1327C6.96143 11.1327 7.07972 10.7878 6.413 10.7295C6.413 10.7295 5.45674 10.9308 5.34314 10.293C5.34314 10.293 5.284 9.33949 5.92072 9.28141C5.92072 9.28141 6.70126 9.33949 6.84783 9.13867C6.84783 9.13867 7.02164 9.25227 6.99143 8.55704L7.02164 7.37082C7.02164 7.37082 7.10801 7.05256 7.59816 7.08256C7.59816 7.08256 8.49719 7.13893 8.61356 7.05256C8.61356 7.05256 8.81651 6.7943 8.87182 6.67665C8.87182 6.67665 9.33665 6.64857 9.42409 6.76217C9.42409 6.76217 10.1163 7.22722 12.7536 7.05256C12.7536 7.05256 13.1566 7.05256 13.244 7.16893C13.244 7.16893 13.7352 7.54462 14.0245 7.13893C14.0245 7.13893 14.4594 7.05256 15.762 7.08256C15.762 7.08256 17.1786 7.45634 18.1629 6.64857L18.4812 6.70771C18.4812 6.70771 18.886 7.37082 19.1773 7.16893C19.1773 7.16893 20.0442 7.08256 20.1916 7.2553C20.1916 7.2553 20.4798 7.69035 20.3335 8.81913C20.3335 8.81913 20.1605 9.31226 20.9994 9.31226C20.9994 9.31226 21.9554 9.13867 21.839 10.0328C21.839 10.0328 22.1001 11.0471 20.509 10.9025C20.509 10.9025 20.3043 11.1926 20.3335 11.3956C20.3335 11.3956 20.3043 14.6932 20.2771 15.0709C20.2771 15.0709 20.248 15.5901 20.9421 15.564C20.9421 15.564 21.8682 15.5019 21.8973 16.3454C21.8973 16.3454 22.0118 17.4433 20.6817 17.2395C20.6817 17.2395 20.2771 17.3006 20.218 17.5588L20.1605 19.0054C20.1605 19.0054 20.1916 19.7304 19.3783 19.5575C19.2628 19.5575 14.8653 19.6422 14.4875 19.5286C14.4875 19.5286 14.2856 19.5003 14.2283 19.6139Z" stroke="#12110C" stroke-width="0.00212738"/>
<path d="M8.75852 7.69188C8.75852 7.69188 8.81681 8.26946 8.81681 8.41412C8.81681 8.55878 8.72852 16.7781 8.72852 16.7781C8.72852 16.7781 8.81681 17.4168 8.2656 17.7333C8.2656 17.7333 8.12179 17.7924 8.0918 17.3876L8.15094 8.70536C8.15094 8.70536 8.20816 7.63359 8.75852 7.69188Z" fill="white"/>
<path d="M8.75958 7.68922C8.75958 7.68922 8.81766 8.2668 8.81766 8.41146C8.81766 8.55613 8.72937 16.7763 8.72937 16.7763C8.72937 16.7763 8.81766 17.4149 8.2656 17.7334C8.2656 17.7334 8.12179 17.7917 8.0918 17.3869L8.14902 8.70355C8.14902 8.70355 8.20731 7.63178 8.75958 7.68922Z" stroke="#12110C" stroke-width="0.00255285"/>
<path d="M7.80454 17.8191C7.80454 17.8191 7.86092 9.6581 7.83369 9.51237C7.80454 9.36963 7.86092 9.6298 7.86092 9.6298C7.86092 9.6298 7.77646 8.2134 8.15194 7.63305C8.15194 7.63305 8.03558 7.14077 7.36971 7.7475L7.34333 8.93479C7.34333 8.93479 7.34333 9.60066 6.73384 9.57151C6.73384 9.57151 6.03882 9.54152 5.7195 9.8619C5.7195 9.8619 5.54655 10.4976 6.21071 10.3831C6.21071 10.3831 7.25419 10.3831 7.31142 10.8141L7.25419 15.1854C7.25419 15.1854 7.48608 15.9088 6.67469 15.9088C6.67469 15.9088 5.69121 15.8532 5.7195 16.461C5.7195 16.461 5.92224 16.9822 6.76298 16.8076C6.76298 16.8076 7.36971 16.9239 7.34333 17.4998V18.6024C7.34333 18.6024 7.28227 19.0373 7.86092 19.0637H12.3767C12.3767 19.0637 12.6079 19.0926 12.6079 18.8024C12.6079 18.8024 12.5786 18.5741 12.2331 18.5741L8.47233 18.5142C8.47233 18.5142 7.86092 18.7171 7.80454 17.8191Z" fill="white"/>
<path d="M8.58605 17.8788C8.58605 17.8788 8.47139 18.2855 8.90346 18.1962H11.8845L12.6951 18.3691C12.6951 18.3691 13.5367 18.167 12.6951 17.7031C12.6951 17.7031 10.0325 17.7341 9.80036 17.6758C9.80036 17.6758 9.25192 17.5314 9.13555 17.502C9.13555 17.502 8.84538 17.3876 8.58605 17.8788Z" fill="white"/>
<path d="M8.5841 17.8771C8.5841 17.8771 8.46943 18.2855 8.9015 18.1945H11.8837L12.6953 18.3691C12.6953 18.3691 13.5366 18.1673 12.6953 17.7024C12.6953 17.7024 10.0314 17.7333 9.79947 17.6733C9.79947 17.6733 9.24997 17.5295 9.1336 17.5014C9.1336 17.5014 8.84321 17.3859 8.5841 17.8771Z" stroke="#12110C" stroke-width="0.00255285"/>
<path d="M13.5351 18.284C13.5351 18.284 12.9839 18.284 13.0128 19.0035C13.0128 19.0035 13.0711 19.5566 13.6487 19.5566C13.6487 19.5566 14.1701 19.4667 14.1137 18.8908C14.1137 18.8908 13.7942 18.1658 13.5351 18.284Z" fill="white"/>
<path d="M13.9396 17.9918C13.9396 17.9918 14.1989 17.7025 14.3744 17.7025C14.3744 17.7025 17.2674 17.9637 17.7595 17.617C17.7595 17.617 18.1952 17.5306 18.309 17.617C18.309 17.617 18.743 17.9637 18.743 18.1656C18.743 18.1656 18.7147 18.4286 18.1952 18.2839C18.1952 18.2839 14.922 18.3111 14.7501 18.3111C14.7501 18.3111 13.8522 18.513 13.9396 17.9918Z" fill="white"/>
<path d="M13.9376 17.9928C13.9376 17.9928 14.1978 17.7026 14.3725 17.7026C14.3725 17.7026 17.2663 17.9647 17.7584 17.618C17.7584 17.618 18.1952 17.5307 18.3088 17.618C18.3088 17.618 18.7427 17.9647 18.7427 18.1675C18.7427 18.1675 18.7147 18.4306 18.1952 18.2849C18.1952 18.2849 14.922 18.3132 14.7482 18.3132C14.7482 18.3132 13.8502 18.5151 13.9376 17.9928Z" stroke="#12110C" stroke-width="0.00255285"/>
<path d="M14.4004 18.8621C14.4004 18.8621 14.4004 18.6319 14.8033 18.6319L18.8581 18.6019C18.8581 18.6019 19.2327 18.8019 19.2327 18.1096C19.2327 18.1096 19.3812 14.9539 19.3944 11.4805C19.3999 10.4474 19.445 9.36269 19.4057 8.35751C19.4057 8.35751 19.3193 7.92458 19.2038 7.83523C19.2038 7.83523 19.2038 7.37232 19.6978 7.54783C19.6978 7.54783 20.1288 7.57527 20.0141 8.24007L20.0424 9.25356C20.0424 9.25356 19.956 9.68754 20.7374 9.57202C20.7374 9.57202 21.518 9.68754 21.546 9.97686C21.546 9.97686 21.78 10.5572 20.8549 10.4981H20.1898C20.1898 10.4981 19.8997 10.671 19.986 11.0195L19.8997 15.2149C19.8997 15.2149 19.8395 15.9382 20.5364 15.9118C20.5364 15.9118 21.2597 15.8818 21.4024 16.1129C21.4024 16.1129 21.8964 16.837 20.8249 16.7789C20.8249 16.7789 20.1588 16.7487 20.0141 16.8642C20.0141 16.8642 19.8997 17.0117 19.8122 18.37C19.8122 18.37 19.8694 19.1805 19.2619 19.0931C19.2619 19.0931 15.239 19.1495 14.8644 19.064C14.8644 19.064 14.4576 19.1805 14.4004 18.8621Z" fill="white"/>
<path d="M9.19204 7.42806L9.10758 16.719C9.10758 16.719 9.07844 17.1502 9.80153 17.2374C9.80153 17.2374 10.6423 17.3248 10.8433 17.2374C10.8433 17.2374 11.3917 17.2093 12.8109 17.2676C12.8109 17.2676 13.1585 17.6131 13.1866 17.1812C13.1866 17.1812 13.4187 9.655 13.303 8.09308C13.303 8.09308 13.2749 7.42806 12.7809 7.39892C12.7809 7.39892 10.5831 7.57187 10.3802 7.39892L9.51327 7.16682C9.51327 7.16682 9.16396 7.19426 9.19204 7.42806Z" fill="white"/>
<path d="M18.3662 7.77554L18.3379 16.9218C18.3379 16.9218 18.57 17.7344 18.9476 17.6478C18.9476 17.6478 19.0048 17.4732 19.0331 17.1819L19.1505 8.4697C19.1505 8.4697 18.8602 7.08031 18.3662 7.77554Z" fill="white" stroke="#12110C" stroke-width="0.00255285"/>
<path d="M18.3662 7.77554L18.3379 16.9218C18.3379 16.9218 18.57 17.7344 18.9476 17.6478C18.9476 17.6478 19.0048 17.4732 19.0331 17.1819L19.1505 8.4697C19.1505 8.4697 18.8602 7.08031 18.3662 7.77554Z" stroke="#12110C" stroke-width="0.00255285"/>
<path d="M13.767 7.85393C13.767 7.85393 13.6798 12.2233 13.707 12.3699L13.6524 16.046L13.5352 17.3159C13.5352 17.3159 13.707 17.5799 13.8526 17.405C13.8526 17.405 14.7797 17.1748 15.3581 17.2605C15.3581 17.2605 17.2113 17.4352 17.5861 17.1448C17.5861 17.1448 17.8754 17.2886 17.9627 16.8255C17.9627 16.8255 18.0773 8.7236 18.0199 8.57809C18.0199 8.57809 18.1365 7.42186 18.0773 7.3074C18.0773 7.3074 18.0482 7.04425 17.5589 7.27443C17.5589 7.27443 17.615 7.50823 14.8669 7.42186C14.8669 7.42186 13.8245 7.39186 13.767 7.85393Z" fill="white"/>
<path d="M12.8724 10.53L12.6105 11.0823C12.6105 11.0823 11.9763 13.8878 11.6298 14.4654C11.6298 14.4654 11.5715 15.046 11.0794 14.5818C11.0794 14.5818 9.94956 11.0231 9.89213 10.9067L9.51558 10.6464C9.51558 10.6464 9.28731 10.3281 9.69024 10.2998L10.7609 10.3281C10.7609 10.3281 11.1075 10.6164 10.6454 10.9384C10.6454 10.9384 10.7029 11.4007 11.3104 13.1637C11.3104 13.1637 11.4832 13.8295 11.6861 13.3373L12.2656 11.2822L12.0918 10.6746C12.0918 10.6746 11.9172 10.3853 12.1793 10.3572C12.1793 10.3572 12.7871 10.2998 12.8724 10.53Z" fill="#12110C"/>
<path d="M14.5521 10.9932L14.5211 14.0609L14.4366 14.2919C14.4366 14.2919 14.1464 14.6668 14.3483 14.6968C14.3483 14.6968 14.09 14.8714 16.1996 14.8995C16.1996 14.8995 17.012 15.0433 16.8082 14.0018C16.8082 14.0018 16.7218 13.6259 16.4306 14.1764C16.4306 14.1764 16.3442 14.6374 15.3046 14.4938C15.3046 14.4938 15.0725 14.2919 15.0725 14.0609V12.7864C15.0725 12.7864 15.0416 12.4669 15.5345 12.4998C15.5345 12.4998 16.084 12.8455 16.1715 12.699C16.1715 12.699 16.3734 12.2377 16.1715 11.9476C16.1715 11.9476 15.9102 11.9203 15.8822 12.0359C15.8822 12.0359 15.7083 12.3813 15.2163 12.1786C15.2163 12.1786 14.9852 11.7165 15.1297 11.3398C15.1297 11.3398 15.0725 10.6158 15.5647 10.6748C15.5647 10.6748 16.1432 10.7894 16.1996 10.9651C16.1996 10.9651 16.3442 11.3136 16.4908 10.9079L16.3442 10.4137C16.3442 10.4137 16.2598 10.2108 16.114 10.2691C16.114 10.2691 15.1297 10.4137 15.0125 10.2963L14.2309 10.3846C14.2309 10.3846 14.1164 10.6748 14.4649 10.8177C14.4649 10.8177 14.5521 10.8769 14.5521 10.9932Z" fill="#12110C"/>
</g>
</svg>
