<svg width="24" height="17" viewBox="0 0 24 17" fill="none" xmlns="http://www.w3.org/2000/svg">
<path d="M1.875 12V2.25C1.875 1.75272 2.07254 1.27581 2.42417 0.924175C2.77581 0.572544 3.25272 0.375 3.75 0.375H20.25C20.7473 0.375 21.2242 0.572544 21.5758 0.924175C21.9275 1.27581 22.125 1.75272 22.125 2.25V12C22.125 12.2984 22.0065 12.5845 21.7955 12.7955C21.5845 13.0065 21.2984 13.125 21 13.125C20.7016 13.125 20.4155 13.0065 20.2045 12.7955C19.9935 12.5845 19.875 12.2984 19.875 12V2.625H4.125V12C4.125 12.2984 4.00647 12.5845 3.7955 12.7955C3.58452 13.0065 3.29837 13.125 3 13.125C2.70163 13.125 2.41548 13.0065 2.2045 12.7955C1.99353 12.5845 1.875 12.2984 1.875 12ZM23.625 15.75C23.625 16.0484 23.5065 16.3345 23.2955 16.5455C23.0845 16.7565 22.7984 16.875 22.5 16.875H1.5C1.20163 16.875 0.915483 16.7565 0.704505 16.5455C0.493526 16.3345 0.375 16.0484 0.375 15.75C0.375 15.4516 0.493526 15.1655 0.704505 14.9545C0.915483 14.7435 1.20163 14.625 1.5 14.625H10.125V12C10.125 11.7016 10.2435 11.4155 10.4545 11.2045C10.6655 10.9935 10.9516 10.875 11.25 10.875H17.25C17.5484 10.875 17.8345 10.9935 18.0455 11.2045C18.2565 11.4155 18.375 11.7016 18.375 12V14.625H22.5C22.7984 14.625 23.0845 14.7435 23.2955 14.9545C23.5065 15.1655 23.625 15.4516 23.625 15.75ZM12.375 14.625H16.125V13.125H12.375V14.625Z" fill="#181818"/>
</svg>
