<svg width="26" height="24" viewBox="0 0 26 24" fill="none" xmlns="http://www.w3.org/2000/svg">
<path d="M8 8C8 7.73478 8.10536 7.48043 8.29289 7.29289C8.48043 7.10536 8.73478 7 9 7H17C17.2652 7 17.5196 7.10536 17.7071 7.29289C17.8946 7.48043 18 7.73478 18 8C18 8.26522 17.8946 8.51957 17.7071 8.70711C17.5196 8.89464 17.2652 9 17 9H9C8.73478 9 8.48043 8.89464 8.29289 8.70711C8.10536 8.51957 8 8.26522 8 8ZM9 13H17C17.2652 13 17.5196 12.8946 17.7071 12.7071C17.8946 12.5196 18 12.2652 18 12C18 11.7348 17.8946 11.4804 17.7071 11.2929C17.5196 11.1054 17.2652 11 17 11H9C8.73478 11 8.48043 11.1054 8.29289 11.2929C8.10536 11.4804 8 11.7348 8 12C8 12.2652 8.10536 12.5196 8.29289 12.7071C8.48043 12.8946 8.73478 13 9 13ZM26 2V18C26 18.5304 25.7893 19.0391 25.4142 19.4142C25.0391 19.7893 24.5304 20 24 20H16.5662L14.7113 23.0362C14.5327 23.3312 14.2809 23.5749 13.9804 23.7439C13.6799 23.9128 13.3408 24.0012 12.996 24.0004C12.6512 23.9997 12.3125 23.9098 12.0127 23.7396C11.713 23.5693 11.4623 23.3244 11.285 23.0287L9.43375 20H2C1.46957 20 0.960859 19.7893 0.585786 19.4142C0.210714 19.0391 0 18.5304 0 18V2C0 1.46957 0.210714 0.960859 0.585786 0.585786C0.960859 0.210714 1.46957 0 2 0H24C24.5304 0 25.0391 0.210714 25.4142 0.585786C25.7893 0.960859 26 1.46957 26 2ZM24 2H2V18H9.43375C9.77805 18.0009 10.1164 18.0902 10.4162 18.2594C10.7161 18.4286 10.9675 18.672 11.1462 18.9662L13 22L14.8525 18.96C15.0321 18.6667 15.284 18.4243 15.584 18.2562C15.8841 18.0881 16.2223 17.9999 16.5662 18H24V2Z" fill="black"/>
</svg>
