<svg xmlns="http://www.w3.org/2000/svg" width="20" height="19" viewBox="0 0 12 12" fill="none">
                            <path
                                d="M11.4035 5.08077L11.3714 5.10876L8.95697 7.21592L8.7312 7.41296L8.79852 7.70496L9.52178 10.8421L9.52209 10.8434C9.53802 10.9117 9.53347 10.9832 9.50902 11.0489C9.48456 11.1146 9.44128 11.1716 9.38459 11.2128C9.32789 11.2541 9.2603 11.2777 9.19026 11.2807C9.12043 11.2837 9.05125 11.2662 8.99132 11.2302C8.99115 11.2301 8.99098 11.23 8.9908 11.2299L6.25582 9.57101L5.99624 9.41357L5.73681 9.57126L3.00813 11.2299C3.00793 11.23 3.00772 11.2301 3.00752 11.2302C2.94762 11.2662 2.87847 11.2837 2.80867 11.2807C2.73863 11.2777 2.67104 11.2541 2.61434 11.2128C2.55765 11.1716 2.51437 11.1146 2.48991 11.0489C2.46546 10.9832 2.46091 10.9117 2.47684 10.8434L2.47716 10.8421L3.19935 7.70812L3.26658 7.41636L3.04113 7.21935L0.626144 5.10897L0.626151 5.10897L0.623689 5.10684C0.570519 5.06098 0.53207 5.00045 0.513166 4.93282C0.494262 4.8652 0.495744 4.7935 0.517426 4.72672C0.539108 4.65993 0.580025 4.60104 0.635046 4.55742C0.690066 4.51379 0.756741 4.48739 0.82671 4.48151L0.827987 4.4814L4.01121 4.20569L4.31232 4.17961L4.42917 3.90088L5.67173 0.937152L5.67206 0.936365C5.69895 0.871915 5.74431 0.816861 5.80243 0.778137C5.86055 0.739413 5.92882 0.71875 5.99866 0.71875C6.0685 0.71875 6.13677 0.739413 6.19489 0.778137C6.25301 0.816861 6.29837 0.871914 6.32526 0.936366L6.3258 0.937647L7.5721 3.90138L7.68912 4.17963L7.98985 4.20569L11.172 4.4814L11.1733 4.48151C11.2433 4.48739 11.3099 4.5138 11.365 4.55742C11.42 4.60104 11.4609 4.65993 11.4826 4.72672C11.5043 4.7935 11.5057 4.8652 11.4868 4.93282C11.4713 4.98831 11.4427 5.03902 11.4035 5.08077Z"
                                stroke="#FFCE51" />
                        </svg>