<svg width="101" height="101" viewBox="0 0 101 101" fill="none" xmlns="http://www.w3.org/2000/svg">
<path fill-rule="evenodd" clip-rule="evenodd" d="M46.1812 58.2499C43.8957 56.6105 41.3464 55.2144 38.9476 53.7527C37.4846 52.8612 36.0885 51.3711 34.5369 50.6367C28.6891 60.9374 22.713 71.2439 17.8711 82.0221C21.4933 80.7278 25.9811 79.0638 29.0994 76.9056C29.8221 80.8536 31.3486 84.5698 32.3053 88.4414C36.2056 77.8672 42.4188 68.2298 46.466 57.7145" fill="white"/>
<path d="M46.1812 58.2499C43.8957 56.6105 41.3464 55.2144 38.9476 53.7527C37.4846 52.8612 36.0885 51.3711 34.5369 50.6367C28.6891 60.9374 22.713 71.2439 17.8711 82.0221C21.4933 80.7278 25.9811 79.0638 29.0994 76.9056C29.8221 80.8536 31.3486 84.5698 32.3053 88.4414C36.2056 77.8672 42.4188 68.2298 46.466 57.7145" stroke="#181818" stroke-width="2.55039" stroke-miterlimit="1.5" stroke-linecap="round" stroke-linejoin="round"/>
<path fill-rule="evenodd" clip-rule="evenodd" d="M66.2439 52.6934C63.3855 54.514 58.7205 57.3235 55.6953 58.8717C57.1713 64.0131 65.6383 83.5024 68.0533 87.6709C68.8607 83.3562 69.6559 78.9723 70.5901 74.6812C74.8562 76.8454 78.6342 78.4478 83.2314 81.3297C82.2118 79.2344 69.3675 57.5246 66.2439 52.6934Z" fill="white" stroke="#181818" stroke-width="2.55039" stroke-miterlimit="1.5" stroke-linecap="round" stroke-linejoin="round"/>
<path fill-rule="evenodd" clip-rule="evenodd" d="M64.0421 18.918C62.2318 18.8235 60.3836 19.464 59.1437 20.8702C60.2438 18.2626 57.967 14.6818 55.7447 13.4634C51.8786 11.3435 45.4945 14.115 45.0466 18.621C41.4833 11.8834 31.6384 15.1379 32.0436 22.616C31.4391 22.239 30.8531 22.0032 30.1691 21.7723C23.8711 19.6458 20.0624 28.9294 24.1982 33.1377C18.7488 34.6779 16.6564 44.1033 22.7355 46.2818C16.2804 49.7685 20.5007 62.055 28.0781 59.5982C27.5758 61.7287 27.4705 64.3533 28.6692 66.2867C30.6141 69.4233 35.6271 70.8608 38.6584 68.3055C38.608 74.8083 48.349 75.7606 51.0203 70.5894C55.5438 76.3499 64.2281 74.1289 64.8651 66.5871C66.373 67.1233 68.0856 67.5867 69.6797 67.1805C74.633 65.9176 76.836 59.9598 74.3226 55.7605C80.1332 54.9101 83.6574 44.7764 75.308 41.0812C78.3756 38.5551 78.8116 34.2433 76.0488 30.3481C74.5905 28.2918 71.2112 27.8742 69.1905 28.2104C70.0839 25.9509 70.1692 23.4274 68.7136 21.3759" fill="white"/>
<path d="M64.0421 18.918C62.2318 18.8235 60.3836 19.464 59.1437 20.8702C60.2438 18.2626 57.967 14.6818 55.7447 13.4634C51.8786 11.3435 45.4945 14.115 45.0466 18.621C41.4833 11.8834 31.6384 15.1379 32.0436 22.616C31.4391 22.239 30.8531 22.0032 30.1691 21.7723C23.8711 19.6458 20.0624 28.9294 24.1982 33.1377C18.7488 34.6779 16.6564 44.1033 22.7355 46.2818C16.2804 49.7685 20.5007 62.055 28.0781 59.5982C27.5758 61.7287 27.4705 64.3533 28.6692 66.2867C30.6141 69.4233 35.627 70.8608 38.6584 68.3055C38.608 74.8083 48.349 75.7606 51.0203 70.5894C55.5438 76.3499 64.2281 74.1289 64.8651 66.5871C66.373 67.1233 68.0856 67.5867 69.6797 67.1805C74.633 65.9176 76.836 59.9598 74.3226 55.7605C80.1332 54.9101 83.6574 44.7764 75.308 41.0812C78.3756 38.5551 78.8116 34.2433 76.0488 30.3481C74.5905 28.2918 71.2112 27.8742 69.1905 28.2104C70.0839 25.9509 70.1692 23.4274 68.7136 21.3759" stroke="#181818" stroke-width="2.55039" stroke-miterlimit="1.5" stroke-linecap="round" stroke-linejoin="round"/>
<path d="M54.6604 24.5793C45.6935 20.4008 33.3178 26.1448 30.0947 35.4616C26.3228 46.3651 29.0506 57.728 40.2395 62.9878C48.5105 66.8759 59.1388 65.5832 65.6294 58.9738C75.5609 48.8599 72.1829 32.9479 60.1658 27.0086" stroke="#181818" stroke-width="2.55039" stroke-miterlimit="1.5" stroke-linecap="round" stroke-linejoin="round"/>
<path d="M43.207 39.9257C45.8653 37.8838 48.2686 35.6004 49.5252 32.7344" stroke="#181818" stroke-width="2.55039" stroke-miterlimit="1.5" stroke-linecap="round" stroke-linejoin="round"/>
<path fill-rule="evenodd" clip-rule="evenodd" d="M49.6914 33.0859C49.4958 39.4996 50.0182 45.9231 49.7593 52.3293L49.6914 33.0859Z" fill="white"/>
<path d="M49.6914 33.0859C49.4958 39.4996 50.0182 45.9231 49.7593 52.3293" stroke="#181818" stroke-width="2.55039" stroke-miterlimit="1.5" stroke-linecap="round" stroke-linejoin="round"/>
<path fill-rule="evenodd" clip-rule="evenodd" d="M42.7441 52.8682C47.5263 52.2956 52.4439 52.7053 57.1863 52.0938L42.7441 52.8682Z" fill="white"/>
<path d="M42.7441 52.8682C47.5263 52.2956 52.4439 52.7053 57.1863 52.0938" stroke="#181818" stroke-width="2.55039" stroke-miterlimit="1.5" stroke-linecap="round" stroke-linejoin="round"/>
</svg>
