<svg width="38" height="32" viewBox="0 0 38 32" fill="none" xmlns="http://www.w3.org/2000/svg">
<path d="M21.7825 10.4348C21.7825 9.88443 21.9457 9.34645 22.2515 8.88885C22.5572 8.43125 22.9918 8.0746 23.5002 7.86399C24.0087 7.65338 24.5682 7.59827 25.108 7.70564C25.6477 7.81301 26.1436 8.07803 26.5327 8.46718C26.9219 8.85634 27.1869 9.35215 27.2943 9.89192C27.4016 10.4317 27.3465 10.9912 27.1359 11.4996C26.9253 12.0081 26.5686 12.4427 26.111 12.7484C25.6534 13.0542 25.1155 13.2174 24.5651 13.2174C23.8271 13.2174 23.1193 12.9242 22.5975 12.4024C22.0757 11.8805 21.7825 11.1728 21.7825 10.4348ZM37.7825 3.47826V28.5217C37.7825 29.4442 37.416 30.3289 36.7637 30.9812C36.1114 31.6335 35.2267 32 34.3042 32H3.69555C2.77305 32 1.88834 31.6335 1.23604 30.9812C0.583744 30.3289 0.217285 29.4442 0.217285 28.5217V3.47826C0.217285 2.55577 0.583744 1.67106 1.23604 1.01876C1.88834 0.366459 2.77305 0 3.69555 0H34.3042C35.2267 0 36.1114 0.366459 36.7637 1.01876C37.416 1.67106 37.7825 2.55577 37.7825 3.47826ZM4.3912 4.17391V18.0383L10.2799 12.1496C10.9322 11.4975 11.8167 11.1312 12.739 11.1312C13.6613 11.1312 14.5459 11.4975 15.1982 12.1496L22.3582 19.3043L25.346 16.3183C25.9983 15.6662 26.8828 15.2999 27.8051 15.2999C28.7274 15.2999 29.612 15.6662 30.2642 16.3183L33.6086 19.6678V4.17391H4.3912ZM4.3912 27.8261H24.9721L12.739 15.593L4.3912 23.9409V27.8261ZM33.6086 27.8261V25.5652L27.8051 19.7617L25.3095 22.2609L30.8747 27.8261H33.6086Z" fill="#181818"/>
</svg>
