<svg width="101" height="101" viewBox="0 0 101 101" fill="none" xmlns="http://www.w3.org/2000/svg">
<path d="M75.5815 51.1125C75.5815 64.9646 64.3522 76.1938 50.5002 76.1938C36.6482 76.1938 25.4189 64.9646 25.4189 51.1125C25.4189 37.2605 36.6482 26.0312 50.5002 26.0312C64.3522 26.0312 75.5815 37.2605 75.5815 51.1125Z" fill="white"/>
<path fill-rule="evenodd" clip-rule="evenodd" d="M77.1596 51.1125C77.1596 65.8361 65.2238 77.772 50.5002 77.772C35.7766 77.772 23.8408 65.8361 23.8408 51.1125C23.8408 36.389 35.7766 24.4531 50.5002 24.4531C65.2238 24.4531 77.1596 36.389 77.1596 51.1125ZM50.5002 76.1938C64.3522 76.1938 75.5815 64.9646 75.5815 51.1125C75.5815 37.2605 64.3522 26.0313 50.5002 26.0313C36.6482 26.0313 25.4189 37.2605 25.4189 51.1125C25.4189 64.9646 36.6482 76.1938 50.5002 76.1938Z" fill="black"/>
<path fill-rule="evenodd" clip-rule="evenodd" d="M47.3438 74.6161C61.1958 74.6161 72.4251 63.3868 72.4251 49.5348C72.4251 40.338 67.4752 32.2974 60.0942 27.9316C69.1861 31.6986 75.5817 40.6588 75.5817 51.1126C75.5817 64.9647 64.3524 76.1939 50.5004 76.1939C45.8452 76.1939 41.4861 74.9257 37.75 72.7158C40.7054 73.9403 43.9457 74.6161 47.3438 74.6161Z" fill="black"/>
<path fill-rule="evenodd" clip-rule="evenodd" d="M21.3155 33.9512C23.8427 42.118 29.1089 51.8892 36.4743 61.3822C43.8397 70.8752 51.9961 78.404 59.279 82.8811C62.9152 85.1164 66.4079 86.637 69.5285 87.2181C72.6469 87.7988 75.5832 87.468 77.8309 85.7241C80.0785 83.9802 81.1285 81.2182 81.3408 78.0532C81.5532 74.8861 80.948 71.1251 79.6862 67.0476C77.159 58.8807 71.8928 49.1096 64.5274 39.6165C57.1619 30.1235 49.0056 22.5948 41.7227 18.1177C38.0865 15.8824 34.5938 14.3617 31.4732 13.7806C28.3547 13.2 25.4185 13.5307 23.1708 15.2746C20.9232 17.0185 19.8732 19.7806 19.6609 22.9456C19.4484 26.1126 20.0536 29.8737 21.3155 33.9512ZM37.7212 60.4148C23.1615 41.6494 17.0802 21.9976 24.1382 16.5215C31.1962 11.0453 48.7208 21.8185 63.2805 40.5839C77.8402 59.3494 83.9215 79.0011 76.8635 84.4773C69.8055 89.9534 52.2809 79.1803 37.7212 60.4148Z" fill="black"/>
<path fill-rule="evenodd" clip-rule="evenodd" d="M83.2977 41.1785C78.9753 48.6897 71.6163 57.1307 62.287 64.8127C52.9578 72.4948 43.2616 78.0975 35.0607 80.8984C30.969 82.2959 27.1255 83.0388 23.8227 82.9133C20.523 82.7879 17.4767 81.7726 15.474 79.3404C13.4713 76.9083 13.0593 73.7238 13.5694 70.4614C14.0799 67.1959 15.5464 63.5663 17.703 59.8188C22.0254 52.3076 29.3844 43.8666 38.7137 36.1846C48.0429 28.5025 57.7391 22.8998 65.94 20.0989C70.0317 18.7014 73.8752 17.9585 77.178 18.084C80.4777 18.2094 83.524 19.2247 85.5267 21.6568C87.5294 24.089 87.9414 27.2735 87.4313 30.5359C86.9208 33.8014 85.4543 37.431 83.2977 41.1785ZM60.7823 62.9853C79.1176 47.8875 89.3779 30.0578 83.6993 23.1616C78.0207 16.2654 58.5537 22.9141 40.2184 38.0119C21.8831 53.1098 11.6228 70.9395 17.3014 77.8357C22.98 84.7319 42.447 78.0832 60.7823 62.9853Z" fill="black"/>
<path d="M88.06 33.9245C88.06 35.5883 86.7113 36.937 85.0476 36.937C83.3839 36.937 82.0352 35.5883 82.0352 33.9245C82.0352 32.2608 83.3839 30.9121 85.0476 30.9121C86.7113 30.9121 88.06 32.2608 88.06 33.9245Z" fill="black"/>
<path d="M43.8481 36.9363C43.8481 38.6 42.4994 39.9487 40.8357 39.9487C39.172 39.9487 37.8232 38.6 37.8232 36.9363C37.8232 35.2725 39.172 33.9238 40.8357 33.9238C42.4994 33.9238 43.8481 35.2725 43.8481 36.9363Z" fill="black"/>
<path d="M43.3607 76.7629C43.3607 79.3319 41.2782 81.4144 38.7092 81.4144C36.1402 81.4144 34.0576 79.3319 34.0576 76.7629C34.0576 74.1939 36.1402 72.1113 38.7092 72.1113C41.2782 72.1113 43.3607 74.1939 43.3607 76.7629Z" fill="black"/>
</svg>
