<svg width="163" height="47" viewBox="0 0 163 47" fill="none" xmlns="http://www.w3.org/2000/svg">
<path d="M18.6769 45.9855C15.6277 43.7055 12.8889 41.0417 10.5362 38.0677L10.3291 37.8052L18.8939 29.4707L27.4859 37.8251L27.2771 38.0883C24.9212 41.0533 22.1773 43.7104 19.1216 45.9855L18.8989 46.1514L18.6769 45.9855Z" fill="white"/>
<path d="M18.8941 28.9531L18.3759 29.4565L10.3103 37.305L9.83008 37.7721L10.246 38.2986C12.6177 41.2982 15.3804 43.9842 18.4551 46.2833L18.8991 46.6158L19.3439 46.2849C22.426 43.9892 25.1921 41.309 27.5678 38.3208L27.9862 37.7936L27.5043 37.3248L19.4124 29.4565L18.8941 28.9531ZM18.8941 29.9896L26.986 37.8579C24.6382 40.8121 21.9151 43.4421 18.8999 45.6883C15.8524 43.4099 13.1448 40.7659 10.8285 37.8373L18.8941 29.9896Z" fill="white"/>
<path d="M18.9025 21.3527L6.97503 32.8097L6.73986 32.3906C4.60175 28.5855 3.0685 24.5181 2.18393 20.3037L2.08984 19.8564H35.7235L35.5139 20.8847C34.6021 24.9422 33.1142 28.8215 31.0883 32.4235L30.8532 32.8419L18.9025 21.3527Z" fill="white"/>
<path d="M36.1809 19.4854H1.63281L1.82098 20.3807C2.71387 24.6322 4.25948 28.7334 6.41654 32.5739L6.88609 33.4099L7.57844 32.7447L18.9027 21.8685L30.2501 32.7769L30.9424 33.4412L31.412 32.6053C33.456 28.9735 34.9571 25.0596 35.8755 20.9716L35.9374 20.6604L35.9935 20.3798L36.1809 19.4854ZM35.2665 20.228C35.2261 20.4228 35.1914 20.6142 35.1501 20.809C34.2301 24.9053 32.7356 28.7384 30.765 32.2414L18.9027 20.8379L7.06435 32.2091C4.96833 28.48 3.43342 24.4456 2.54798 20.228L35.2665 20.228Z" fill="white"/>
<path d="M18.8948 30.5069L10.7929 38.3901L10.5371 38.0675C9.11774 36.2727 7.83701 34.3631 6.73209 32.3909L6.5918 32.1392L18.8947 20.3223L31.2209 32.173L31.0806 32.4222C29.9673 34.4052 28.6883 36.3114 27.2772 38.0881L27.0222 38.4099L18.8948 30.5069Z" fill="white"/>
<path d="M18.8945 19.8076L18.3804 20.3019L6.54118 31.6741L6.12695 32.0718L6.40754 32.5728C7.52237 34.5607 8.8138 36.4875 10.2463 38.2988L10.7572 38.9441L11.3472 38.3698L18.8944 31.0255L26.4681 38.3904L27.0573 38.9631L27.5681 38.3186C28.9908 36.5271 30.2814 34.6035 31.4046 32.6057L31.6859 32.1032L31.2716 31.7063L19.4093 20.3028L18.8945 19.8076ZM18.8945 20.8383L30.7568 32.2418C29.6511 34.2108 28.3904 36.0886 26.9865 37.8573L18.8944 29.989L10.829 37.8376C9.42111 36.0585 8.15854 34.177 7.05528 32.2097L18.8945 20.8383Z" fill="white"/>
<path d="M18.8948 30.5069L10.7929 38.3901L10.5371 38.0675C9.11774 36.2727 7.83701 34.3631 6.73209 32.3909L6.5918 32.1392L18.8947 20.3223L31.2209 32.173L31.0806 32.4222C29.9673 34.4052 28.6883 36.3114 27.2772 38.0881L27.0222 38.4099L18.8948 30.5069Z" fill="white"/>
<path d="M18.8945 19.8076L18.3804 20.3019L6.54118 31.6741L6.12695 32.0718L6.40754 32.5728C7.52237 34.5607 8.8138 36.4875 10.2463 38.2988L10.7572 38.9441L11.3472 38.3698L18.8944 31.0255L26.4681 38.3904L27.0573 38.9631L27.5681 38.3186C28.9908 36.5271 30.2814 34.6035 31.4046 32.6057L31.6859 32.1032L31.2716 31.7063L19.4093 20.3028L18.8945 19.8076ZM18.8945 20.8383L30.7568 32.2418C29.6511 34.2108 28.3904 36.0886 26.9865 37.8573L18.8944 29.989L10.829 37.8376C9.42111 36.0585 8.15854 34.177 7.05528 32.2097L18.8945 20.8383Z" fill="white"/>
<path d="M2.23722 20.6094L2.17532 20.3139C1.33276 16.2877 1.08688 12.1692 1.44666 8.07275L1.48628 7.61729L1.92445 7.75014C3.31076 8.17102 4.75411 8.38472 6.21389 8.38472C11.2815 8.38472 16.0239 5.74076 18.5911 1.48516L18.9088 0.957031L19.2273 1.48516C21.7905 5.74076 26.532 8.38472 31.6005 8.38472C33.0644 8.38472 34.5085 8.17015 35.8957 7.74761L36.3347 7.61397L36.3734 8.07115C36.725 12.1353 36.4716 16.2538 35.6208 20.3139L35.5598 20.6093L2.23722 20.6094Z" fill="white"/>
<path d="M18.909 0.238281L18.2727 1.29287C15.7732 5.4379 11.152 8.01337 6.21406 8.01337C4.79743 8.01389 3.38848 7.80535 2.03273 7.39449L1.1564 7.12959L1.07714 8.04057C0.714015 12.171 0.961759 16.3324 1.81239 20.3906L1.93619 20.9806H35.862L35.985 20.3906C36.8432 16.2943 37.0981 12.1386 36.7441 8.03897L36.6649 7.12461L35.7869 7.39196C34.436 7.80373 33.0274 8.01337 31.6014 8.01337C26.6618 8.01337 22.0422 5.4387 19.5452 1.29374L18.909 0.238281ZM18.909 1.67745C21.4605 5.9115 26.1881 8.75606 31.6014 8.75606C33.1364 8.75606 34.6134 8.52667 36.0039 8.10333C36.3463 12.0709 36.1145 16.1482 35.2579 20.2379H2.53952C1.70392 16.2514 1.46033 12.1634 1.81657 8.10579C3.20461 8.52667 4.68174 8.75606 6.21413 8.75606C11.6266 8.75606 16.3551 5.91157 18.909 1.67745Z" fill="white"/>
<path d="M10.8281 37.837C13.1445 40.7656 15.8519 43.4096 18.8994 45.688C21.9147 43.4418 24.6379 40.8118 26.9856 37.8576L18.8936 29.9893L10.8281 37.837Z" fill="#F46F1B"/>
<path d="M7.06416 32.2096L18.9034 20.8384L30.7649 32.2419C32.7355 28.7388 34.2307 24.9058 35.1508 20.8095C35.1912 20.6147 35.226 20.4233 35.2664 20.2285H2.54785C3.43329 24.4461 4.969 28.4805 7.06416 32.2096Z" fill="#F46F1B"/>
<path d="M7.05566 32.2091C8.15899 34.1772 9.4207 36.0579 10.8285 37.837L18.8949 29.9886L26.986 37.8568C28.3899 36.0881 29.6506 34.2103 30.7563 32.2413L18.8949 20.8379L7.05566 32.2091Z" fill="#F46F1B"/>
<path d="M18.8953 29.471L10.8676 37.2824C9.63067 35.6898 8.50759 34.0089 7.52148 32.2776L18.8952 21.3535L30.2922 32.3097C29.2977 34.0512 28.1808 35.7198 26.9501 37.3031L18.8953 29.471Z" fill="#231F20"/>
<path d="M18.8948 20.8377L7.05562 32.209C8.15889 34.1771 9.42146 36.0577 10.8293 37.8369L18.8948 29.9892L26.9867 37.8575C28.3906 36.0885 29.6514 34.2104 30.7571 32.2412L18.8948 20.8377ZM18.8948 21.8684L29.8246 32.3757C28.9455 33.892 27.972 35.3516 26.91 36.746L19.413 29.4561L18.8948 28.9528L18.3766 29.4561L10.9068 36.7253C9.83987 35.3217 8.86115 33.8537 7.98807 32.3444L18.8948 21.8684ZM36.0035 8.10264C34.6131 8.52685 33.136 8.75537 31.601 8.75537C26.1877 8.75537 21.4601 5.91175 18.9086 1.67676C16.3546 5.91175 11.6262 8.75537 6.21367 8.75537C4.68128 8.75537 3.20415 8.52678 1.81611 8.10597C1.45987 12.1633 1.70347 16.251 2.53905 20.2373H35.2576C36.1141 16.1484 36.3459 12.0702 36.0035 8.10264Z" fill="#231F20"/>
<path d="M26.9676 13.1077V11.7172H26.1176V10.736L25.2264 10.4868H25.162V9.65421C25.162 9.65421 24.855 10.0223 23.4439 10.0223C22.1088 10.0223 21.3256 9.58984 20.2628 9.58984C19.2412 9.58984 18.9284 10.1733 18.9284 10.1733V10.51H18.893V10.1733C18.893 10.1733 18.5736 9.58984 17.5578 9.58984C16.4957 9.58984 15.7118 10.0255 14.3775 10.0255C12.9663 10.0255 12.7229 9.65673 12.7229 9.65673V10.5331H12.6643L11.698 10.7361V11.7172H10.8447V13.1077H11.698V15.3572H10.8447V16.7502H11.698V18.4798C11.698 18.4798 13.1288 18.7034 14.4525 18.7034C16.0171 18.7034 16.9199 18.4774 17.9357 18.4567V18.8949C17.9357 18.8949 18.345 19.0987 18.8905 19.0987C19.4417 19.0987 19.8799 18.8949 19.8799 18.8949V18.4567C20.8932 18.4773 21.796 18.7034 23.3688 18.7034C24.6867 18.7034 26.1176 18.4798 26.1176 18.4798V16.7502H26.9676V15.3572H26.1176V13.1077H26.9676Z" fill="white"/>
<path d="M25.9503 18.3893C25.5864 18.4413 24.427 18.5923 23.3484 18.5923C21.802 18.5923 19.8949 18.3514 19.8759 18.3489L19.7092 18.3258V18.8333C19.5623 18.8886 19.2422 18.9876 18.8675 18.9876C18.5003 18.9876 18.2 18.8885 18.0605 18.8366V18.3258L17.8938 18.3489C17.8748 18.3514 15.9669 18.5923 14.4295 18.5923C13.3478 18.5923 12.1875 18.4413 11.8236 18.3893V10.8932C11.9597 10.8668 12.3649 10.7801 12.5621 10.7397V17.5295C12.6347 17.6863 12.945 18.0461 14.3644 18.0461L16.1609 17.8109L17.534 17.6137C18.4508 17.6137 18.7388 18.1014 18.7512 18.1212L18.7941 18.098H19.0054L19.0458 18.1212C19.0582 18.1014 19.3403 17.6137 20.2506 17.6137L21.6229 17.8084L23.4342 18.046C24.8725 18.046 25.2323 17.6689 25.2678 17.6252L25.2959 10.7043C25.484 10.757 25.8298 10.8527 25.9503 10.8874V18.3893ZM12.8584 9.97639C13.096 10.0952 13.5226 10.2197 14.3644 10.2197L16.174 9.98211L17.5456 9.7849C18.4466 9.7849 18.7338 10.266 18.7504 10.2924V17.7003C18.5308 17.5179 18.1628 17.3174 17.534 17.3174L16.0973 17.5204L14.3644 17.7498C13.096 17.7498 12.832 17.4452 12.8295 17.4428C12.8295 17.4428 12.8551 10.4814 12.8584 9.97639ZM19.0458 10.2924C19.0582 10.2718 19.3403 9.7849 20.2506 9.7849L21.6229 9.97885L23.4342 10.2165C24.3114 10.2165 24.7578 10.0803 25.0054 9.9615V17.5179C24.9864 17.48 24.6308 17.7498 23.4342 17.7498L21.6872 17.5179L20.2506 17.3174C19.6284 17.3174 19.2636 17.5179 19.0458 17.6978V10.2924ZM25.2975 10.3939L25.3017 9.32859L25.0433 9.60173C25.04 9.60419 24.7232 9.92108 23.4342 9.92108L21.6872 9.68836L20.2506 9.48869C19.4625 9.48869 19.0697 9.8105 18.898 10.0053C18.7256 9.8105 18.3295 9.48863 17.5456 9.48863L16.1105 9.69169L14.3644 9.92353C13.096 9.92353 12.832 9.61901 12.8295 9.61576L12.5662 9.29395L12.5621 9.70325V10.4344L11.5273 10.6522V18.6476L11.6527 18.6649C11.6668 18.6682 13.1093 18.8911 14.4295 18.8911C15.7317 18.8911 17.2773 18.7202 17.7651 18.6625V19.0248L17.8459 19.0684C17.8649 19.0776 18.2932 19.2863 18.8675 19.2863C19.4452 19.2863 19.9007 19.0776 19.9197 19.0684L20.0054 19.028V18.6625C20.4932 18.7202 22.0388 18.8911 23.3484 18.8911C24.6638 18.8911 26.1078 18.6682 26.1219 18.665L26.2473 18.6476V10.6613L25.2975 10.3939Z" fill="#231F20"/>
<path d="M14.9628 11.3075C14.8464 11.3165 14.7714 11.3767 14.7367 11.4551L14.2606 12.5147C14.2606 12.5147 14.2374 12.532 14.2226 12.532C14.2086 12.532 14.1904 12.5147 14.1789 12.4825C14.1673 12.4454 14.1095 12.2969 13.9849 12.0072L13.8307 11.6614C13.7761 11.5335 13.7325 11.4493 13.7176 11.4238C13.6623 11.3281 13.593 11.319 13.5179 11.3075C13.5088 11.2959 13.5088 11.2843 13.5088 11.2753C13.5088 11.2637 13.5088 11.2579 13.5146 11.2439H13.593C13.6829 11.2439 13.758 11.2497 13.8249 11.2497C13.9033 11.2497 14.0337 11.2406 14.1211 11.2406H14.1731C14.1822 11.2439 14.1847 11.2612 14.1847 11.2695C14.1847 11.2753 14.1847 11.2959 14.1789 11.3041C14.1211 11.3108 13.9907 11.3075 13.9907 11.3883C13.9907 11.4065 13.9932 11.4378 14.0023 11.4584L14.3158 12.2011L14.5766 11.5864C14.5999 11.5354 14.6118 11.4799 14.6113 11.4238C14.6113 11.3537 14.5626 11.3223 14.4314 11.3075C14.4289 11.2983 14.4232 11.2868 14.4232 11.2785C14.4232 11.267 14.4289 11.2497 14.4314 11.2406H14.4693C14.5279 11.2406 14.5857 11.2497 14.7161 11.2497C14.7392 11.2497 14.8291 11.2439 14.8729 11.2439H14.9628C14.9686 11.2555 14.9744 11.2612 14.9744 11.2727C14.9744 11.2811 14.9686 11.2983 14.9628 11.3075ZM16.2893 12.4945C15.9088 12.4945 15.7033 12.4862 15.6506 12.4862C15.6101 12.4862 15.5177 12.4829 15.4706 12.4829C15.4186 12.4829 15.2966 12.492 15.1628 12.492L15.0878 12.4886C15.082 12.4771 15.082 12.4714 15.082 12.4598C15.082 12.4507 15.082 12.4367 15.0845 12.4252C15.1859 12.4161 15.2594 12.3987 15.2767 12.3839C15.2966 12.3583 15.3113 12.3055 15.3172 12.1924C15.3172 12.1346 15.3196 12.0712 15.3196 12.0043C15.3196 11.9085 15.3172 11.7922 15.3172 11.6527V11.4555C15.3138 11.3194 15.247 11.3194 15.1051 11.3021C15.1026 11.2897 15.0993 11.2781 15.0993 11.2699C15.0993 11.2608 15.1026 11.241 15.1109 11.2377H15.1802C15.2272 11.2377 15.3518 11.241 15.5894 11.241C15.8073 11.241 16.0194 11.2435 16.0656 11.2435C16.0945 11.2435 16.1787 11.2468 16.1968 11.2468C16.2257 11.2468 16.2373 11.2492 16.2373 11.2757L16.2545 11.5595C16.2373 11.5686 16.2339 11.5719 16.22 11.5719C16.2084 11.5719 16.1994 11.5719 16.1902 11.5686C16.1069 11.4267 16.0656 11.3977 16.0021 11.3507C15.9789 11.3334 15.9443 11.3219 15.8915 11.3194C15.8742 11.3194 15.8304 11.316 15.7232 11.316C15.6365 11.316 15.5928 11.3194 15.5812 11.3194C15.5664 11.3194 15.5697 11.3194 15.5639 11.3681C15.5606 11.3977 15.5581 11.4555 15.5581 11.6206V11.7831H15.601C15.6563 11.7831 15.7116 11.7774 15.7438 11.7692C15.7933 11.7543 15.8453 11.7196 15.8717 11.6792C15.8833 11.6643 15.8948 11.595 15.9006 11.5743C15.9088 11.5686 15.9237 11.5661 15.941 11.5661C15.9523 11.5658 15.9635 11.5686 15.9732 11.5743C15.9699 11.6263 15.9617 11.7221 15.9617 11.8442C15.9617 11.9053 15.9674 12.039 15.9674 12.0942C15.9559 12.1025 15.9501 12.1025 15.9319 12.1025C15.9237 12.1025 15.9063 12.1025 15.8973 12.1C15.8857 11.9928 15.8684 11.9202 15.7785 11.8822C15.7289 11.8616 15.6885 11.8558 15.639 11.8558C15.6126 11.8558 15.5812 11.8591 15.5548 11.8615V12.19C15.5548 12.2651 15.5606 12.3112 15.5721 12.3377C15.5812 12.3583 15.6101 12.4012 15.6481 12.407C15.6654 12.4103 15.6976 12.4161 15.7636 12.4161H15.9443C15.9905 12.4161 16.0573 12.4103 16.0805 12.3955C16.1242 12.3666 16.2397 12.2419 16.281 12.1256C16.2983 12.1198 16.3066 12.1198 16.3181 12.1198C16.3297 12.1198 16.3412 12.1231 16.3561 12.1289V12.4598C16.3561 12.492 16.3355 12.4945 16.2893 12.4945ZM17.7984 11.6353C17.7902 11.6353 17.7778 11.632 17.7639 11.632C17.7349 11.5537 17.6994 11.4844 17.6706 11.4463C17.6186 11.3829 17.569 11.3391 17.4387 11.3251C17.4098 11.3217 17.3396 11.3217 17.3165 11.3217L17.3141 11.8763C17.3141 11.963 17.3141 12.0652 17.3165 12.2567C17.3198 12.4011 17.3834 12.4011 17.5344 12.4218C17.5434 12.4366 17.546 12.4481 17.546 12.4564C17.546 12.4676 17.5431 12.4787 17.5377 12.4886H17.4824C17.3949 12.4886 17.2208 12.4828 17.1655 12.4828C17.1284 12.4828 16.9369 12.4919 16.8462 12.4919C16.8379 12.4771 16.8346 12.4771 16.8346 12.4564C16.8346 12.4481 16.8379 12.4366 16.8437 12.4251C17.0442 12.4102 17.0641 12.3722 17.0698 12.3087C17.0756 12.2683 17.0756 12.1024 17.0756 11.934V11.4761C17.0756 11.4175 17.0731 11.3597 17.0641 11.3218C17.0261 11.3218 16.9047 11.3218 16.8692 11.3366C16.7678 11.3737 16.6952 11.4587 16.6176 11.6122C16.6085 11.6147 16.5936 11.6147 16.5854 11.6147C16.5738 11.6147 16.5623 11.6122 16.5565 11.6031V11.2813C16.5565 11.2525 16.559 11.2434 16.5936 11.2434C16.6234 11.2434 16.6696 11.2467 16.7306 11.2467C16.7736 11.2467 16.9567 11.2491 17.1861 11.2491C17.4882 11.2491 17.711 11.2409 17.7696 11.2409C17.7984 11.2409 17.8191 11.2409 17.8307 11.2525C17.8331 11.2582 17.8307 11.2813 17.8307 11.2987V11.6205C17.8249 11.6321 17.8101 11.6353 17.7984 11.6353ZM14.9019 13.6002C14.8904 13.6002 14.8813 13.5969 14.864 13.5969C14.8384 13.5194 14.8029 13.4493 14.7716 13.4112C14.722 13.3478 14.67 13.304 14.5388 13.29C14.5099 13.2866 14.4406 13.2866 14.4175 13.2866L14.4142 13.8412C14.4142 13.9287 14.4142 14.0293 14.4175 14.2216C14.42 14.3668 14.4869 14.3668 14.6378 14.3867C14.6438 14.3972 14.6467 14.4092 14.6461 14.4213C14.6461 14.4329 14.6461 14.4419 14.6403 14.4535H14.5859C14.4959 14.4535 14.3218 14.4478 14.269 14.4478C14.2311 14.4478 14.0396 14.4568 13.9472 14.4568C13.9414 14.442 13.938 14.442 13.938 14.4213C13.938 14.413 13.9414 14.4015 13.9438 14.39C14.1444 14.3751 14.165 14.3372 14.1732 14.2736C14.1765 14.2332 14.1765 14.0673 14.1765 13.8989V13.4402C14.1765 13.3824 14.1765 13.3246 14.1675 13.2866C14.1295 13.2866 14.0049 13.2866 13.9702 13.3015C13.8688 13.3386 13.7986 13.4228 13.721 13.5771C13.7087 13.5796 13.6946 13.5796 13.6856 13.5796C13.6802 13.5799 13.6748 13.5791 13.6698 13.5771C13.6648 13.5751 13.6603 13.572 13.6567 13.568V13.2462C13.6567 13.2174 13.6624 13.2083 13.6946 13.2083C13.7268 13.2083 13.7698 13.2116 13.8308 13.2116C13.8778 13.2116 14.0602 13.214 14.2896 13.214C14.5883 13.214 14.8144 13.2058 14.8698 13.2058C14.9019 13.2058 14.9226 13.2058 14.9308 13.2174C14.9366 13.2232 14.9341 13.2462 14.9341 13.2636V13.5854C14.9304 13.5903 14.9255 13.5942 14.9198 13.5967C14.9142 13.5993 14.9081 13.6005 14.9019 13.6002ZM16.3357 14.4594C15.9586 14.4594 15.749 14.4503 15.7003 14.4503C15.6591 14.4503 15.5666 14.4478 15.5171 14.4478C15.4676 14.4478 15.343 14.4561 15.2126 14.4561L15.1367 14.4536C15.1309 14.442 15.1284 14.4363 15.1284 14.4247C15.1284 14.4156 15.1284 14.4016 15.1342 14.39C15.2357 14.381 15.3083 14.3636 15.3224 14.3488C15.3454 14.3232 15.3579 14.2704 15.3636 14.1573C15.3661 14.0996 15.3694 14.0353 15.3694 13.9692C15.3694 13.8735 15.366 13.7571 15.366 13.6177C15.366 13.5186 15.3636 13.4609 15.3636 13.4204C15.3603 13.2843 15.2968 13.2843 15.154 13.2662C15.149 13.2564 15.1462 13.2457 15.1458 13.2348C15.1458 13.2257 15.1515 13.2051 15.1598 13.2026H15.2266C15.2761 13.2026 15.3983 13.2051 15.6359 13.2051C15.8571 13.2051 16.0658 13.2084 16.1153 13.2084C16.141 13.2084 16.2284 13.2117 16.2424 13.2117C16.2746 13.2117 16.2862 13.2142 16.2862 13.2406L16.301 13.5253C16.2862 13.5335 16.2804 13.5368 16.2664 13.5368C16.2573 13.5368 16.2482 13.5368 16.2367 13.5335C16.1558 13.3916 16.1154 13.3619 16.0485 13.3156C16.0254 13.2983 15.9933 13.2868 15.9404 13.2843C15.9232 13.2843 15.8802 13.281 15.7696 13.281C15.6855 13.281 15.6392 13.2843 15.6301 13.2843C15.6129 13.2843 15.6162 13.2843 15.6103 13.333C15.6103 13.3618 15.607 13.4204 15.607 13.5855V13.7481H15.6475C15.7061 13.7481 15.7605 13.7423 15.7902 13.7341C15.8422 13.7192 15.8918 13.6845 15.9206 13.6441C15.9289 13.6292 15.9437 13.5599 15.947 13.5393C15.9596 13.5332 15.9735 13.5301 15.9875 13.5302C16.0023 13.5302 16.0139 13.5335 16.0221 13.5393C16.0196 13.5912 16.0081 13.687 16.0081 13.8091C16.0081 13.8702 16.0164 14.0039 16.0164 14.0591C16.0023 14.0674 15.999 14.0674 15.9817 14.0674C15.9702 14.0674 15.9553 14.0674 15.9438 14.0649C15.9322 13.9569 15.9173 13.8851 15.8249 13.8471C15.7754 13.8265 15.7349 13.8207 15.6887 13.8207C15.6623 13.8207 15.6302 13.824 15.6045 13.8265V14.1549C15.6045 14.23 15.6103 14.2762 15.6186 14.3025C15.6301 14.3232 15.6591 14.3661 15.6945 14.3719C15.7118 14.3752 15.7465 14.381 15.8101 14.381H15.9932C16.0394 14.381 16.1038 14.3752 16.1269 14.3604C16.1732 14.3315 16.2895 14.2069 16.3299 14.0905C16.3439 14.0847 16.3563 14.0847 16.3678 14.0847C16.3762 14.0847 16.391 14.088 16.4025 14.0938V14.4247C16.4025 14.4561 16.3819 14.4594 16.3357 14.4594ZM17.218 14.4883C17.1131 14.4883 16.9976 14.4479 16.9274 14.4132C16.913 14.406 16.8973 14.4018 16.8813 14.4008C16.8672 14.4008 16.8293 14.4214 16.788 14.4503C16.7591 14.4503 16.7245 14.4363 16.7162 14.4132C16.7162 14.3868 16.7393 14.3084 16.7393 14.2589C16.7393 14.23 16.7302 14.088 16.7277 14.0559C16.7393 14.0386 16.7624 14.0295 16.7823 14.0295H16.8029C16.8293 14.0823 16.8813 14.2184 16.9192 14.2738C16.9976 14.3637 17.1131 14.4041 17.1973 14.4041C17.2906 14.4041 17.3599 14.3868 17.4012 14.343C17.4589 14.2878 17.4704 14.2531 17.4704 14.1921C17.4704 14.1458 17.4622 14.1079 17.4358 14.079C17.4036 14.0386 17.3772 14.0212 17.3054 13.9866C17.2501 13.9602 17.0554 13.9107 16.9861 13.8727C16.8986 13.8323 16.8549 13.7976 16.8119 13.7514C16.7591 13.6845 16.7393 13.5946 16.7393 13.522C16.7393 13.3215 16.8986 13.1704 17.1247 13.1704C17.2097 13.1704 17.3252 13.1795 17.4242 13.2579C17.4468 13.2321 17.471 13.2078 17.4968 13.1853C17.534 13.1853 17.5604 13.2051 17.5637 13.22C17.5604 13.2488 17.5431 13.3272 17.5431 13.3916C17.5431 13.423 17.5637 13.5567 17.5637 13.5773C17.5488 13.5831 17.534 13.5946 17.5142 13.5946C17.5084 13.5946 17.4994 13.5912 17.4911 13.5888C17.4556 13.5277 17.4242 13.4263 17.3863 13.371C17.3285 13.2926 17.2468 13.2637 17.1371 13.2637C17.0117 13.2637 16.9101 13.3421 16.9101 13.4493C16.9101 13.5533 16.9943 13.6029 17.0644 13.6351C17.1263 13.6595 17.1891 13.6818 17.2526 13.7019C17.3458 13.7341 17.4152 13.7572 17.4532 13.777C17.5984 13.8529 17.6594 13.9602 17.6594 14.1079C17.6594 14.3406 17.4499 14.4883 17.218 14.4883ZM15.4069 16.4271C15.0265 16.4271 14.8202 16.4189 14.7682 16.4189C14.7278 16.4189 14.6346 16.4156 14.5883 16.4156C14.5363 16.4156 14.4142 16.4246 14.2805 16.4246L14.2054 16.4213C14.1997 16.4098 14.1997 16.404 14.1997 16.3924C14.1997 16.3834 14.1997 16.3694 14.2021 16.3579C14.3037 16.3488 14.3763 16.3314 14.3936 16.3166C14.4142 16.291 14.4291 16.2381 14.4349 16.1251C14.4349 16.0674 14.4373 16.0038 14.4373 15.9369C14.4373 15.8412 14.4349 15.7248 14.4349 15.5854V15.3882C14.4315 15.252 14.3647 15.252 14.2228 15.2347C14.2196 15.2243 14.2176 15.2135 14.217 15.2025C14.217 15.1934 14.2195 15.1736 14.2285 15.1704H14.2979C14.3449 15.1704 14.4695 15.1737 14.7072 15.1737C14.925 15.1737 15.1371 15.1761 15.1833 15.1761C15.2122 15.1761 15.2964 15.1795 15.3137 15.1795C15.3434 15.1795 15.3549 15.1819 15.3549 15.2083L15.3722 15.493C15.3549 15.5013 15.3516 15.5045 15.3377 15.5045C15.3261 15.5045 15.317 15.5045 15.3079 15.5012C15.2238 15.3593 15.1833 15.3304 15.1198 15.2834C15.0967 15.2661 15.0612 15.2545 15.0092 15.252C14.9919 15.252 14.9482 15.2487 14.8408 15.2487C14.7542 15.2487 14.7105 15.252 14.6989 15.252C14.6841 15.252 14.6874 15.252 14.6816 15.3007C14.6783 15.3304 14.6758 15.3882 14.6758 15.5532V15.7158H14.7187C14.774 15.7158 14.8293 15.7101 14.8615 15.7018C14.911 15.6869 14.963 15.6523 14.9886 15.6119C15.0001 15.597 15.0125 15.5277 15.0183 15.507C15.0265 15.5013 15.0414 15.4988 15.0587 15.4988C15.07 15.4984 15.0812 15.5013 15.0909 15.507C15.0876 15.559 15.0793 15.6547 15.0793 15.7769C15.0793 15.8379 15.0851 15.9716 15.0851 16.0269C15.0736 16.0351 15.067 16.0351 15.0496 16.0351C15.0414 16.0351 15.024 16.0351 15.015 16.0327C15.0034 15.9254 14.9861 15.8528 14.8962 15.8148C14.8466 15.7942 14.8062 15.7885 14.7567 15.7885C14.7303 15.7885 14.6989 15.7918 14.6725 15.7942V16.1226C14.6725 16.1978 14.6783 16.2448 14.6898 16.2704C14.6989 16.291 14.7278 16.3339 14.7658 16.3396C14.7831 16.343 14.8144 16.3488 14.8813 16.3488H15.0612C15.1082 16.3488 15.1751 16.343 15.1982 16.3281C15.241 16.2992 15.3574 16.1746 15.3979 16.0583C15.4152 16.0525 15.4243 16.0525 15.4358 16.0525C15.4474 16.0525 15.4589 16.0558 15.4738 16.0616V16.3924C15.4738 16.4246 15.4531 16.4271 15.4069 16.4271ZM17.2353 15.2343C17.1074 15.2401 16.9977 15.3103 16.9977 15.5132L16.9944 16.1577C16.9944 16.1833 17.0059 16.3665 17.0059 16.4359C16.9861 16.4474 16.9655 16.4565 16.9539 16.4565C16.9482 16.4565 16.9367 16.4474 16.9218 16.4359L16.0363 15.4835L16.0454 15.6783L16.0487 16.0299C16.0487 16.0554 16.0545 16.1223 16.0603 16.1718C16.066 16.2502 16.0891 16.2766 16.1238 16.3054C16.1675 16.3434 16.2402 16.3549 16.2921 16.3607C16.2976 16.3694 16.3005 16.3794 16.3004 16.3896C16.2993 16.4009 16.2953 16.4117 16.2889 16.421H16.1931C16.1123 16.421 16.0487 16.4185 15.9645 16.4185C15.9093 16.4185 15.8309 16.4243 15.7756 16.4243H15.7351C15.7318 16.4152 15.7318 16.4012 15.7318 16.3954C15.7318 16.3896 15.7318 16.3781 15.7376 16.3633C15.8019 16.3575 15.9002 16.3285 15.9381 16.2766C15.9521 16.2444 15.9587 16.1867 15.9587 16.1256V15.6758C15.9587 15.6032 15.9554 15.5652 15.9521 15.496C15.9497 15.4373 15.9381 15.3936 15.9093 15.359C15.9059 15.3507 15.8771 15.3218 15.8482 15.2921C15.8193 15.269 15.7491 15.2492 15.7054 15.2311C15.701 15.222 15.6982 15.2122 15.6972 15.2021C15.6972 15.1939 15.6996 15.1791 15.7054 15.1708H15.7376C15.764 15.1708 15.9002 15.1766 16.0049 15.1766H16.066C16.0776 15.1823 16.0974 15.1939 16.1031 15.2021L16.7592 15.9192C16.8087 15.9746 16.8722 16.0472 16.9077 16.0934V15.5768C16.9077 15.5075 16.9044 15.458 16.902 15.4316C16.8962 15.3796 16.8838 15.3334 16.8641 15.2979C16.8434 15.2665 16.7212 15.2492 16.6577 15.2343C16.652 15.2228 16.652 15.2079 16.652 15.1964C16.652 15.1906 16.652 15.1823 16.6553 15.1708H16.6924C16.7534 15.1708 16.8524 15.1791 16.9135 15.1791C17.0645 15.1791 17.1107 15.1733 17.1859 15.1733H17.2353C17.2411 15.1849 17.2411 15.1964 17.2411 15.2055C17.2411 15.2113 17.2411 15.2253 17.2353 15.2343ZM21.3712 11.3017C21.2466 11.3074 21.1336 11.3767 21.1336 11.5805V12.2241C21.1336 12.2506 21.1419 12.4338 21.1419 12.5031C21.1246 12.5147 21.1014 12.5237 21.0923 12.5237C21.0841 12.5237 21.075 12.5147 21.0578 12.5031L20.1722 11.5517L20.1846 11.7456L20.1871 12.0971C20.1871 12.1227 20.1929 12.1896 20.1962 12.239C20.2044 12.3175 20.2276 12.3438 20.2597 12.3727C20.306 12.4107 20.3786 12.4222 20.428 12.428C20.4335 12.4366 20.4364 12.4467 20.4363 12.4569C20.4353 12.4677 20.4325 12.4783 20.428 12.4882H20.329C20.2506 12.4882 20.1871 12.4858 20.1004 12.4858C20.0452 12.4858 19.9692 12.4916 19.9139 12.4916H19.8735C19.8707 12.4821 19.8688 12.4725 19.8677 12.4627C19.8677 12.4569 19.8677 12.4454 19.8768 12.4305C19.9379 12.4247 20.0361 12.3958 20.074 12.3438C20.0913 12.3116 20.0946 12.2539 20.0946 12.1929V11.7431C20.0946 11.6705 20.0946 11.6325 20.0913 11.5632C20.0889 11.5046 20.074 11.4608 20.0476 11.4263C20.0419 11.418 20.0155 11.389 19.9841 11.3594C19.9577 11.3363 19.8851 11.3165 19.8413 11.2983C19.8389 11.2868 19.8355 11.2727 19.8355 11.2694C19.8363 11.2588 19.8382 11.2483 19.8413 11.2381H19.8768C19.8999 11.2381 20.0361 11.2439 20.1409 11.2439H20.202C20.2135 11.2496 20.2333 11.2612 20.2424 11.2694L20.8984 11.9865C20.9479 12.0418 21.0115 12.1144 21.0461 12.1607V11.6441C21.0461 11.5747 21.0403 11.5253 21.0379 11.4989C21.0352 11.4521 21.0223 11.4064 21 11.3652C20.9793 11.3338 20.8572 11.3165 20.7969 11.3016C20.7912 11.2898 20.7881 11.2768 20.7879 11.2637C20.7879 11.2579 20.7879 11.2496 20.7937 11.2381H20.8316C20.8927 11.2381 20.9909 11.2463 21.0519 11.2463C21.1996 11.2463 21.2491 11.2406 21.325 11.2406H21.3712C21.3766 11.2505 21.3797 11.2615 21.3804 11.2727C21.3795 11.2829 21.3764 11.2929 21.3712 11.3017ZM22.4713 11.4207C22.4103 11.3398 22.3352 11.2903 22.2221 11.2903C22.1173 11.2903 22.0505 11.3365 21.9894 11.4206C21.9143 11.5164 21.873 11.6699 21.873 11.8646C21.873 12.0561 21.9143 12.2071 21.9837 12.3028C22.0472 12.396 22.1198 12.4422 22.2304 12.4422C22.3641 12.4422 22.4425 12.3787 22.5036 12.2706C22.5588 12.1749 22.5844 12.042 22.5844 11.8679C22.5844 11.6616 22.5439 11.5164 22.4713 11.4207ZM22.6744 12.3375C22.553 12.4563 22.3838 12.5264 22.2271 12.5264C22.0794 12.5264 21.9086 12.4629 21.7889 12.3466C21.6586 12.2219 21.6008 12.0536 21.6008 11.8679C21.6008 11.6905 21.6586 11.5221 21.7889 11.3942C21.9284 11.2606 22.0794 11.2061 22.2304 11.2061C22.341 11.2061 22.4425 11.235 22.5613 11.2985C22.7561 11.4231 22.8691 11.6294 22.8691 11.8555C22.8691 12.0329 22.799 12.2104 22.6744 12.3375ZM24.4564 11.3075C24.3434 11.3165 24.2683 11.3767 24.2328 11.4551L23.7567 12.5147C23.7567 12.5147 23.7336 12.532 23.7195 12.532C23.7047 12.532 23.685 12.5147 23.6758 12.4825C23.6643 12.4454 23.6057 12.2969 23.4786 12.0072L23.3276 11.6614C23.2723 11.5335 23.2286 11.4493 23.2145 11.4238C23.156 11.3281 23.0891 11.319 23.014 11.3075C23.0024 11.2959 23.0024 11.2843 23.0024 11.2753C23.0024 11.2637 23.0024 11.2579 23.0107 11.2439H23.0891C23.1766 11.2439 23.2516 11.2497 23.3185 11.2497C23.3969 11.2497 23.5281 11.2406 23.6181 11.2406H23.6667C23.6791 11.2439 23.6816 11.2612 23.6816 11.2695C23.6816 11.2753 23.6816 11.2959 23.6758 11.3041C23.6147 11.3108 23.4868 11.3075 23.4868 11.3883C23.4868 11.4065 23.4868 11.4378 23.4984 11.4584L23.8096 12.2011L24.0735 11.5864C24.0948 11.5348 24.1057 11.4796 24.1058 11.4238C24.1058 11.3537 24.0562 11.3223 23.925 11.3075C23.9226 11.2983 23.9193 11.2868 23.9193 11.2785C23.9193 11.267 23.9226 11.2497 23.925 11.2406H23.9629C24.0208 11.2406 24.0793 11.2497 24.2122 11.2497C24.2328 11.2497 24.3261 11.2439 24.369 11.2439H24.4598C24.4655 11.2555 24.468 11.2612 24.468 11.2727C24.468 11.2811 24.4655 11.2983 24.4564 11.3075ZM20.962 13.6002C20.9504 13.6002 20.9422 13.5969 20.924 13.5969C20.8984 13.5194 20.8629 13.4493 20.8316 13.4112C20.7821 13.3478 20.7301 13.304 20.5989 13.29C20.57 13.2866 20.5007 13.2866 20.4776 13.2866L20.4742 13.8412C20.4742 13.9287 20.4742 14.0293 20.4776 14.2216C20.48 14.3668 20.5469 14.3668 20.6979 14.3867C20.707 14.4015 20.707 14.413 20.707 14.4213C20.707 14.4329 20.707 14.4419 20.7012 14.4535H20.6459C20.556 14.4535 20.3818 14.4478 20.329 14.4478C20.2919 14.4478 20.1004 14.4568 20.0072 14.4568C20.0014 14.442 19.9981 14.442 19.9981 14.4213C19.9981 14.413 20.0014 14.4015 20.0039 14.39C20.2044 14.3751 20.225 14.3372 20.2333 14.2736C20.2366 14.2332 20.2366 14.0673 20.2366 13.8989V13.4402C20.2366 13.3824 20.2366 13.3246 20.2276 13.2866C20.1896 13.2866 20.065 13.2866 20.0303 13.3015C19.9288 13.3386 19.8595 13.4228 19.7811 13.5771C19.7695 13.5796 19.7547 13.5796 19.7456 13.5796C19.7403 13.5799 19.7349 13.5791 19.7299 13.5771C19.7249 13.5751 19.7204 13.572 19.7167 13.568V13.2462C19.7167 13.2174 19.7225 13.2083 19.7547 13.2083C19.7869 13.2083 19.8298 13.2116 19.8909 13.2116C19.9379 13.2116 20.1202 13.214 20.3496 13.214C20.6484 13.214 20.8745 13.2058 20.9298 13.2058C20.9619 13.2058 20.9826 13.2058 20.9909 13.2174C20.9966 13.2232 20.9942 13.2462 20.9942 13.2636V13.5854C20.9904 13.5903 20.9855 13.5942 20.9799 13.5968C20.9743 13.5993 20.9682 13.6005 20.962 13.6002ZM21.6732 13.4639H21.6699C21.6443 13.5134 21.5981 13.6207 21.58 13.6669C21.5131 13.8295 21.49 13.8848 21.4785 13.9079H21.8531C21.8242 13.8327 21.7285 13.6033 21.6732 13.4639ZM22.4654 14.4591H22.3672C22.3028 14.4591 22.2302 14.4509 22.1551 14.4509C22.0363 14.4509 21.8853 14.4591 21.8267 14.4591C21.8209 14.4533 21.8185 14.4418 21.8185 14.4277C21.8185 14.4187 21.8209 14.4071 21.8242 14.398C21.9464 14.3923 21.9951 14.3725 21.9951 14.323C21.9951 14.3023 21.9951 14.2619 21.9579 14.1604C21.92 14.0672 21.8994 14.0267 21.8911 14.0036C21.8853 13.9954 21.882 13.9896 21.8564 13.9896H21.4611C21.4347 14.021 21.4034 14.1084 21.3687 14.2297C21.3596 14.2619 21.3596 14.2908 21.3596 14.3023C21.3596 14.3436 21.3976 14.3898 21.5371 14.3923C21.5431 14.4031 21.546 14.4154 21.5453 14.4277C21.5453 14.436 21.5453 14.445 21.5429 14.4567H21.5074C21.4149 14.4567 21.3885 14.4509 21.2903 14.4509C21.226 14.4509 21.0724 14.4567 21.0204 14.4567C21.0171 14.4451 21.0147 14.4418 21.0147 14.4303C21.0147 14.422 21.0147 14.4129 21.0204 14.398C21.0956 14.3807 21.1649 14.3609 21.2004 14.3056C21.2202 14.2767 21.287 14.1604 21.3596 13.9805C21.429 13.8122 21.5131 13.6001 21.5511 13.5134C21.6039 13.4029 21.6212 13.3682 21.6385 13.3303C21.6593 13.286 21.6816 13.2425 21.7054 13.1999C21.7169 13.185 21.7425 13.1767 21.7541 13.1767C21.7747 13.1767 21.8011 13.1883 21.8093 13.2023C21.8209 13.2254 21.8358 13.2493 21.8383 13.2634C21.9109 13.4375 21.9695 13.5918 22.0594 13.8064C22.1056 13.9136 22.1287 13.9838 22.1782 14.0968C22.2129 14.1662 22.2336 14.2215 22.2682 14.285C22.3144 14.3807 22.3903 14.3807 22.4654 14.4013C22.4687 14.4105 22.477 14.4186 22.477 14.4303C22.477 14.4418 22.4712 14.4476 22.4654 14.4591ZM24.4042 14.4594L23.8967 14.4536H23.7573C23.7523 14.4435 23.7492 14.4326 23.7482 14.4214C23.7482 14.4041 23.7515 14.4016 23.7598 14.39C23.7861 14.3867 23.853 14.39 23.8844 14.3785C23.9371 14.3546 23.9578 14.3026 23.9578 14.2275V13.3247H23.9544L23.6871 13.9107C23.6582 13.975 23.6236 14.0443 23.5947 14.1136C23.5336 14.2506 23.5014 14.343 23.4841 14.3983C23.4758 14.4214 23.4552 14.4214 23.4437 14.4214C23.4264 14.4214 23.4148 14.4156 23.4058 14.3868C23.3711 14.3117 23.3479 14.2622 23.3364 14.23L22.9181 13.3099H22.9097V13.545L22.9181 14.1318C22.9181 14.3117 23.0113 14.3958 23.1532 14.3958C23.1587 14.4047 23.1626 14.4145 23.1647 14.4247C23.1643 14.4357 23.1615 14.4464 23.1565 14.4561C23.1475 14.4561 23.1186 14.4594 23.0921 14.4594C23.0748 14.4594 22.9824 14.4503 22.8487 14.4503C22.8108 14.4503 22.7324 14.4536 22.6713 14.4536H22.5871C22.5846 14.442 22.5814 14.433 22.5814 14.4214C22.5814 14.419 22.5847 14.4041 22.5871 14.3958C22.6226 14.3868 22.7439 14.3579 22.7703 14.3315C22.7967 14.3059 22.8199 14.2531 22.8199 14.1285V13.484C22.8165 13.3825 22.805 13.342 22.7555 13.3074C22.7357 13.2926 22.6573 13.2843 22.5904 13.2752C22.5851 13.2644 22.582 13.2526 22.5814 13.2406C22.5814 13.2315 22.5847 13.22 22.5904 13.2051C22.6399 13.2051 22.7266 13.2117 22.8141 13.2117H23.1186C23.1301 13.2199 23.1359 13.2257 23.145 13.243L23.5188 14.0905L23.5856 13.9222C23.6442 13.786 23.7284 13.5797 23.8472 13.3594C23.8728 13.3099 23.905 13.2464 23.9223 13.2142L24.3984 13.2051C24.4042 13.2174 24.41 13.2257 24.41 13.2372C24.41 13.2485 24.4072 13.2596 24.4018 13.2694C24.3489 13.2785 24.259 13.2785 24.2153 13.3503C24.2012 13.3742 24.1921 13.3974 24.1921 13.4988V14.1054C24.1921 14.3372 24.2507 14.3604 24.2763 14.3785C24.2911 14.3868 24.3638 14.3958 24.4042 14.3958C24.41 14.4074 24.4133 14.4156 24.4133 14.4272C24.4133 14.4445 24.4074 14.4478 24.4042 14.4594ZM20.9331 15.5681C20.9215 15.5681 20.9125 15.5648 20.8952 15.5648C20.8695 15.4873 20.834 15.4172 20.8028 15.3791C20.7532 15.3156 20.7012 15.2719 20.57 15.2579C20.5411 15.2545 20.4718 15.2545 20.4487 15.2545L20.4454 15.8091C20.4454 15.8958 20.4454 15.9972 20.4487 16.1895C20.4512 16.3339 20.518 16.3339 20.669 16.3545C20.675 16.3651 20.6778 16.3771 20.6773 16.3892C20.6773 16.4008 20.6773 16.4098 20.6715 16.4214H20.617C20.5271 16.4214 20.353 16.4156 20.3002 16.4156C20.2622 16.4156 20.0708 16.4247 19.9784 16.4247C19.9726 16.4099 19.9692 16.4099 19.9692 16.3892C19.9692 16.3809 19.9726 16.3694 19.975 16.3579C20.1756 16.343 20.1962 16.305 20.2044 16.2415C20.2077 16.2011 20.2077 16.0352 20.2077 15.8668V15.4089C20.2077 15.3503 20.2077 15.2925 20.1986 15.2546C20.1607 15.2546 20.0361 15.2546 20.0014 15.2694C19.8999 15.3065 19.8298 15.3907 19.7522 15.545C19.7399 15.5475 19.7258 15.5475 19.7167 15.5475C19.7114 15.5478 19.706 15.547 19.701 15.545C19.696 15.543 19.6915 15.5399 19.6879 15.5359V15.2141C19.6879 15.1853 19.6937 15.1762 19.7258 15.1762C19.758 15.1762 19.8009 15.1795 19.862 15.1795C19.9082 15.1795 20.0914 15.1819 20.3208 15.1819C20.6195 15.1819 20.8456 15.1737 20.9009 15.1737C20.9331 15.1737 20.9537 15.1737 20.9619 15.1853C20.9677 15.191 20.9653 15.2141 20.9653 15.2315V15.5533C20.9615 15.5582 20.9566 15.562 20.951 15.5646C20.9454 15.5672 20.9392 15.5684 20.9331 15.5681ZM22.4916 15.2402C22.3786 15.2484 22.3026 15.3095 22.2679 15.3879L21.7918 16.4474C21.7918 16.4474 21.7687 16.4647 21.7546 16.4647C21.7398 16.4647 21.7192 16.4474 21.7109 16.4152C21.6994 16.3781 21.6416 16.2296 21.5137 15.9399L21.3627 15.5942C21.3074 15.4662 21.2637 15.3821 21.2496 15.3565C21.1911 15.2608 21.1242 15.2517 21.0491 15.2402C21.0375 15.2286 21.0375 15.217 21.0375 15.208C21.0375 15.1964 21.0375 15.1906 21.0466 15.1766H21.1242C21.2117 15.1766 21.2867 15.1824 21.3536 15.1824C21.432 15.1824 21.5623 15.1733 21.6532 15.1733H21.7018C21.7134 15.1766 21.7167 15.1939 21.7167 15.2022C21.7167 15.208 21.7167 15.2286 21.7109 15.2369C21.6498 15.2426 21.522 15.2402 21.522 15.321C21.522 15.3392 21.522 15.3706 21.5335 15.3912L21.8447 16.1339L22.1086 15.5191C22.1297 15.4675 22.1404 15.4123 22.14 15.3565C22.14 15.2864 22.0913 15.2541 21.9601 15.2402C21.9577 15.2311 21.9544 15.2196 21.9544 15.2113C21.9544 15.1998 21.9577 15.1824 21.9601 15.1734H21.998C22.0567 15.1734 22.1144 15.1824 22.2481 15.1824C22.2679 15.1824 22.3611 15.1766 22.4041 15.1766H22.4949C22.5006 15.1882 22.5031 15.1939 22.5031 15.2055C22.5031 15.2138 22.5006 15.2311 22.4916 15.2402ZM24.4303 16.4271L23.9252 16.4214H23.7834C23.7776 16.4098 23.7776 16.395 23.7776 16.3892C23.7776 16.3719 23.7776 16.3694 23.7858 16.3578C23.8155 16.3545 23.879 16.3578 23.9137 16.3462C23.9632 16.3223 23.983 16.2704 23.983 16.1953V15.4633C23.983 15.4633 23.9864 15.3304 23.9864 15.2925H23.9806L23.7165 15.8783C23.6843 15.9427 23.653 16.0121 23.6207 16.0822C23.5622 16.2184 23.5275 16.3108 23.5102 16.3661C23.5044 16.3892 23.4846 16.3892 23.4698 16.3892C23.4549 16.3892 23.4433 16.3834 23.4318 16.3545C23.4004 16.2794 23.3765 16.2299 23.3649 16.1977L22.9441 15.2776H22.9359V15.5128L22.9441 16.0996C22.9475 16.2794 23.0373 16.3636 23.1826 16.3636C23.1883 16.3718 23.1909 16.3892 23.1909 16.3924C23.1909 16.4008 23.1909 16.4123 23.1851 16.4246C23.1735 16.4246 23.1471 16.4271 23.1182 16.4271C23.1009 16.4271 23.0109 16.4189 22.8772 16.4189C22.8368 16.4189 22.7584 16.4214 22.7006 16.4214H22.6165C22.6107 16.4098 22.6074 16.4008 22.6074 16.3892C22.6074 16.3867 22.6107 16.3719 22.6165 16.3636C22.6487 16.3545 22.7733 16.3257 22.7997 16.2992C22.8228 16.2736 22.8459 16.2208 22.8459 16.0962L22.8484 15.8L22.8459 15.4517C22.8426 15.3502 22.8344 15.3098 22.7816 15.2752C22.7617 15.2603 22.6834 15.252 22.619 15.243C22.612 15.2327 22.6079 15.2207 22.6074 15.2083C22.6074 15.1992 22.6107 15.1877 22.619 15.1736C22.666 15.1736 22.756 15.1794 22.8401 15.1794H23.1471C23.1562 15.1877 23.1653 15.1934 23.1711 15.2108L23.5449 16.0583L23.615 15.8899C23.6703 15.7537 23.757 15.5475 23.8758 15.3271C23.8988 15.2776 23.9344 15.2141 23.9517 15.1819L24.4245 15.1736C24.4303 15.1852 24.4394 15.1934 24.4394 15.205C24.4394 15.2166 24.4336 15.2256 24.4278 15.2372C24.3783 15.2463 24.2883 15.2463 24.2447 15.318C24.2298 15.342 24.2182 15.3651 24.2182 15.4666V16.0731C24.2182 16.305 24.2768 16.3281 24.3057 16.3462C24.3173 16.3545 24.3899 16.3636 24.4303 16.3636C24.4394 16.3752 24.4419 16.3834 24.4419 16.395C24.4419 16.4123 24.4361 16.4156 24.4303 16.4271Z" fill="#231F20"/>
<path d="M53.3552 13.2353C53.3552 12.0189 52.6587 10.8842 51.6223 10.4172C51.0884 10.1878 50.1485 10.0426 48.7233 10.0426C47.4748 10.0426 45.5306 10.1416 44.6741 10.1416C44.0733 10.1416 43.1664 10.0747 42.6639 10.0747C42.6152 10.1556 42.5814 10.2686 42.5814 10.333C42.5814 10.3999 42.5814 10.5764 42.6308 10.6581C42.9387 10.7563 43.4404 10.8347 43.7655 10.9189C44.0403 11.1599 44.1055 11.372 44.2028 11.8423C44.2507 12.4076 44.2838 13.1222 44.2838 14.3525C44.2838 17.7714 44.2681 19.5679 44.2186 19.9574C44.155 20.4451 43.8307 20.9467 43.2951 21.106C43.0518 21.1556 42.6944 21.2373 42.3569 21.2686C42.3341 21.3805 42.3228 21.4944 42.323 21.6086C42.323 21.7389 42.3403 21.7563 42.3709 21.838C42.8891 21.838 44.4133 21.7712 44.9967 21.7712C46.4391 21.7712 47.913 21.838 48.5112 21.838H48.9173C48.9667 21.7712 48.9667 21.6581 48.9667 21.5797C48.9667 21.4806 48.9667 21.3503 48.9338 21.2859C48.4469 21.2224 47.719 21.1242 47.4113 20.7669C47.2487 20.5754 47.0862 20.2965 47.0862 19.8121L47.0366 16.2481C48.0087 16.3116 49.0468 16.3438 49.6138 16.3438C50.3589 16.3438 50.9902 16.2159 51.4919 16.0533C52.6422 15.6184 53.3552 14.4805 53.3552 13.2353ZM50.4571 13.1684C50.4571 13.9952 50.1642 14.7239 49.631 15.1943C49.2902 15.4699 48.7547 15.6325 47.9451 15.6325C47.6052 15.6325 47.3444 15.6184 47.2487 15.6003C47.1191 15.583 47.0366 15.5689 47.0366 15.4847L47.0539 10.739C47.2487 10.725 47.5243 10.6581 47.9947 10.6581C49.0955 10.6581 49.7763 10.9337 50.0998 11.6154C50.3251 12.0511 50.4571 12.6023 50.4571 13.1684ZM68.0496 21.5624C68.0496 21.4806 68.0183 21.2859 67.9687 21.2224C67.8078 21.2224 67.1444 21.1902 66.9009 21.0103C66.8193 20.9145 66.6905 20.7207 66.6245 20.6043C66.4132 19.8616 66.1723 19.3591 65.928 18.7443C65.5872 17.9339 65.1185 17.1706 64.7298 16.8141C64.5829 16.6863 64.0812 16.4742 63.5135 16.2794C63.2552 16.1837 63.0447 16.1028 62.85 16.0211C63.0926 15.9724 63.2057 15.9543 63.5135 15.9254C64.7133 15.7778 64.9881 15.569 65.2951 15.3247C65.9445 14.837 66.2994 14.0943 66.2994 13.2179C66.2994 11.9059 65.4576 10.6433 64.2751 10.2686C63.8848 10.1556 63.1917 10.092 62.3326 10.092C61.1163 10.092 59.4155 10.2051 58.606 10.2051C58.3617 10.2051 56.9515 10.1729 56.3854 10.1729C56.1411 10.1729 55.5263 10.1416 55.4306 10.1416C55.3811 10.2546 55.3489 10.3817 55.3489 10.4494C55.3489 10.5129 55.3654 10.6755 55.3811 10.739C55.6567 10.7712 56.1593 10.8347 56.4184 10.8843C56.8062 11.1772 56.9366 11.4041 57.0975 11.7606C57.1809 12.2805 57.1949 13.6066 57.1949 15.8908C57.1949 17.5453 57.2122 19.4548 57.1313 20.0729C57.0835 20.4764 56.9366 20.9616 56.4662 21.1556C56.2575 21.1902 55.8672 21.2546 55.5436 21.2686C55.4942 21.3503 55.462 21.5129 55.462 21.5937C55.462 21.6433 55.4942 21.7712 55.5263 21.852C55.7557 21.852 58.2338 21.8058 58.7504 21.8058C59.7869 21.8058 60.6632 21.852 61.5866 21.852C61.618 21.7885 61.6502 21.6754 61.6502 21.6086C61.6502 21.4981 61.618 21.3355 61.5866 21.2686C61.2615 21.2373 60.8579 21.1415 60.6797 21.106C60.2746 20.9145 59.9815 20.5259 59.9815 19.9574L59.9667 16.2159C60.0946 16.1986 60.2573 16.1986 60.3876 16.1986C60.5964 16.1986 60.8407 16.2332 61.245 16.4569C61.8449 16.7993 62.1379 17.0436 62.5265 17.6411C63.0448 18.4506 63.3855 19.94 63.5473 21.1242C63.5952 21.4633 63.7239 21.7563 64.0334 21.7885C64.1621 21.8058 65.0211 21.838 65.6368 21.838H67.9539C68.0183 21.7712 68.0496 21.6432 68.0496 21.5624ZM63.3526 13.09C63.3526 14.0943 62.6717 15.2438 61.8796 15.4385C61.5544 15.5194 61.1476 15.5689 60.5502 15.5689C60.3876 15.5689 60.1442 15.5689 59.9494 15.5335L59.9337 14.1578V11.1773C59.9337 10.9833 59.9816 10.8694 60.0303 10.8208C60.0782 10.7712 60.3719 10.725 60.7127 10.725C61.9753 10.725 62.5266 10.8348 62.9796 11.5981C63.2379 12.0363 63.3526 12.5387 63.3526 13.09ZM76.3446 21.5451C76.3446 21.4634 76.3273 21.286 76.2968 21.2225C76.0533 21.2052 75.3898 21.1416 75.0986 21.0772C74.8386 20.7669 74.6587 20.4129 74.5465 19.8295C74.5308 19.0514 74.5134 17.4463 74.5134 15.9403V11.9554C74.5134 11.5172 74.6916 11.1773 74.8064 11.0791C75.1142 10.7886 75.7298 10.725 76.2489 10.6582C76.2811 10.5938 76.2968 10.4172 76.2968 10.3503C76.2968 10.2547 76.2489 10.1235 76.2158 10.0921H75.7455C75.0646 10.0921 73.477 10.1729 72.9257 10.1729C72.5866 10.1729 70.9989 10.1235 70.2859 10.1095H69.9311C69.8816 10.1729 69.8494 10.2374 69.8494 10.3817C69.8494 10.4494 69.8634 10.6111 69.8816 10.6896C70.6763 10.7564 71.0303 10.8348 71.145 10.919C71.3398 11.0642 71.6137 11.4215 71.6805 12.2946C71.6953 12.6024 71.7111 13.2675 71.7267 14.7595C71.7449 15.569 71.7606 16.7003 71.7606 17.6411C71.7606 18.1115 71.7267 19.1653 71.711 19.7305C71.6805 20.12 71.598 20.4913 71.4866 20.7034C71.2918 20.866 71.0963 21.1556 69.913 21.2373C69.8816 21.3008 69.8634 21.5129 69.8634 21.5798C69.8634 21.7068 69.8973 21.7713 69.8973 21.8521H70.1729C70.8215 21.8521 72.4414 21.7713 73.2831 21.7713C73.5265 21.7713 75.2099 21.8207 75.7455 21.8207H76.2811C76.3273 21.7391 76.3446 21.6086 76.3446 21.5451ZM92.3634 10.3182C92.3634 10.2547 92.3453 10.1416 92.314 10.0922H91.9393C91.1298 10.0922 90.6132 10.1234 89.1534 10.1234C88.6509 10.1234 87.9049 10.0922 87.7283 10.0922H87.3074C87.2579 10.1234 87.2406 10.3042 87.2406 10.3677C87.2406 10.4495 87.2579 10.5765 87.3247 10.6434C87.583 10.725 88.57 10.8349 88.9933 11.1137C89.2838 11.4529 89.4117 12.132 89.4604 12.765C89.4785 13.0059 89.4959 13.2494 89.4959 13.9145V17.3011C89.4959 17.6906 89.4786 17.8177 89.4604 17.9984C89.1881 17.6906 88.7961 17.1071 88.1491 16.3785L82.7449 10.3818C82.6954 10.3182 82.5996 10.2374 82.5006 10.173C82.3718 10.173 82.1441 10.1557 82.0162 10.1557C80.9773 10.1557 79.0991 10.1095 78.8235 10.1095C78.7913 10.1729 78.7599 10.2687 78.7599 10.3331C78.7599 10.3677 78.7913 10.5938 78.8061 10.6434C79.0496 10.7069 79.5851 10.7886 80.0225 11.2589C80.2833 11.5486 80.7363 11.9554 80.8815 12.2805C80.9302 12.3936 80.9467 12.5702 80.9467 12.7972C80.9467 13.6389 80.8988 14.823 80.8988 15.9543V19.2461C80.8988 19.78 80.8494 20.2009 80.7998 20.4765C80.4607 20.8338 79.9425 21.0921 79.0991 21.3008C79.0669 21.385 79.0356 21.5129 79.0356 21.5938C79.0356 21.6433 79.0496 21.8059 79.0835 21.8207H79.3913C79.7147 21.8207 80.4607 21.7713 80.9468 21.7713C81.6589 21.7713 82.1441 21.8207 82.8084 21.8207H83.7756C83.8391 21.8059 83.8564 21.6086 83.8564 21.5451C83.8564 21.4808 83.8391 21.3503 83.8078 21.286C83.2449 21.1416 82.4206 21.0104 81.8693 20.2818C81.7579 20.0383 81.6589 18.8401 81.6589 18.2707C81.6589 17.7541 81.6416 17.0436 81.6416 16.0856C81.6416 14.8057 81.6589 13.6883 81.6754 13.1223C81.772 13.2353 81.8858 13.3805 81.9667 13.4763L89.4463 21.8876C89.5272 21.966 89.8177 21.9834 89.8994 21.9834C89.9803 21.9834 90.0297 21.9834 90.0933 21.9511C90.1255 21.8694 90.2386 21.6087 90.2386 21.2225C90.2386 20.7521 90.2213 20.2644 90.2213 20.0243V13.2674C90.2213 11.2414 91.1793 10.6754 92.2966 10.6259C92.3453 10.5442 92.3634 10.4 92.3634 10.3182ZM104.975 19.5678C104.926 19.4226 104.795 19.1792 104.424 19.1792C104.391 19.1792 104.341 19.1964 104.311 19.1964C103.337 20.5754 102.268 21.0919 101.053 21.0919C99.3678 21.0919 98.1696 19.9573 97.7801 18.953C97.5688 18.4183 97.2783 17.2523 97.2783 16.0038C97.2783 14.8229 97.4566 13.8648 97.7644 13.1684C98.4766 11.2902 99.5131 10.7067 100.778 10.7067C101.832 10.7067 102.706 11.3083 103.37 12.164C103.646 12.5387 103.936 13.2674 104.194 14.1264C104.261 14.1404 104.406 14.1726 104.552 14.1726C104.649 14.1726 104.877 14.0942 104.94 14.0273C104.926 13.8508 104.764 12.6023 104.764 12.2136C104.764 11.7292 104.893 10.9337 104.893 10.6259C104.795 10.5268 104.472 10.4633 104.261 10.4493C104.018 10.6259 103.936 10.8347 103.71 11.1136C102.803 10.4633 101.96 9.96158 100.114 9.96158C98.413 9.96158 97.0663 10.5442 96.0464 11.5666C94.929 12.6666 94.3134 14.1899 94.3134 16.1349C94.3134 18.207 95.1881 19.9102 96.5976 20.9789C97.4905 21.6258 98.8017 22.064 100.372 22.064C102.348 22.064 103.791 21.318 104.52 20.332C104.81 19.9399 104.843 19.8434 104.975 19.5678ZM118.68 19.0017C118.68 18.7756 118.68 18.6774 118.663 18.5322C118.582 18.4827 118.55 18.4827 118.419 18.4827C118.306 18.4827 118.178 18.4827 118.062 18.5149C117.514 19.7625 116.719 20.7346 116.282 20.9929C116.039 21.1415 115.666 21.1729 115.066 21.1729H113.739C113.221 21.1729 112.814 21.1241 112.669 21.0919C112.426 21.0425 112.168 20.6538 112.054 20.3955C111.94 20.1199 111.875 20.1199 111.875 19.3739V15.8272H112.475C112.636 15.8272 113.027 15.8585 113.462 16.0532C113.868 16.2331 114.031 16.4741 114.192 16.7357C114.339 16.9585 114.434 17.853 114.467 18.0792C114.549 18.1254 114.76 18.1427 114.89 18.1427C115.018 18.1427 115.099 18.1254 115.212 18.0618C115.212 17.6236 115.115 16.4419 115.115 15.7925C115.115 14.9821 115.228 13.8648 115.276 13.2847C115.212 13.2492 115.115 13.2178 114.953 13.2178C114.84 13.2178 114.629 13.2178 114.533 13.2674C114.484 13.4934 114.305 14.1726 114.272 14.2222C114.031 14.6281 113.607 14.9359 113.172 15.0663C112.88 15.1447 112.458 15.1942 112.231 15.1942H111.892V13.6883C111.892 12.1319 111.923 11.6301 111.94 11.3372C111.955 11.1458 111.988 10.9337 112.005 10.7884C112.15 10.7712 112.231 10.7563 112.977 10.7563C113.915 10.7563 114.354 10.7711 114.5 10.7711C114.953 10.8058 115.293 10.9015 115.537 11.0962C116.152 11.5666 116.623 12.3093 117.092 13.1048C117.189 13.1362 117.351 13.1362 117.432 13.1362C117.53 13.1362 117.545 13.1048 117.676 13.0404C117.676 12.051 117.61 10.7712 117.578 10.3676C117.56 10.2051 117.53 10.1555 117.206 10.1555C117.075 10.1555 116.46 10.1233 115.812 10.1233C114.89 10.1233 114.515 10.1415 113.105 10.1415C112.344 10.1415 110.773 10.1555 110.109 10.1555C109.137 10.1555 108.311 10.1233 107.89 10.1233H107.338C107.289 10.1877 107.258 10.3181 107.258 10.3816C107.258 10.4634 107.289 10.6432 107.338 10.7067C107.532 10.7711 108.294 10.7563 108.522 10.8842C108.749 11.0789 108.958 11.1598 109.104 11.938C109.137 12.2804 109.153 13.2179 109.153 13.9639V17.301C109.153 17.9801 109.137 18.9704 109.12 19.3739C109.088 20.006 108.862 20.7669 108.766 20.9145C108.617 21.0284 107.953 21.1241 107.306 21.1555C107.258 21.2546 107.225 21.4171 107.225 21.5128C107.225 21.6086 107.258 21.7249 107.306 21.8058H107.84C108.359 21.8058 110.27 21.7562 110.709 21.7562C111.114 21.7562 111.892 21.7884 112.831 21.7884C113.348 21.7884 114.873 21.8875 118.145 21.8875C118.274 21.8875 118.419 21.9014 118.582 21.852C118.631 21.7711 118.631 21.7389 118.647 21.5937C118.68 21.2685 118.68 20.3137 118.68 19.0017ZM132.643 13.7369V10.4311C132.643 10.1877 132.548 10.1233 132.304 10.1233C131.818 10.1233 129.26 10.1877 126.668 10.1877C124.658 10.1877 122.989 10.1555 122.082 10.1555H120.882C120.673 10.1555 120.608 10.2051 120.608 10.4311V13.5257C120.673 13.5744 120.784 13.5925 120.868 13.5925C120.931 13.5925 121.159 13.5925 121.223 13.557C121.951 12.0857 122.634 11.2902 123.493 10.852C123.977 10.8058 124.932 10.7884 125.192 10.7884C125.208 10.965 125.226 11.5345 125.24 12.2136C125.257 13.3805 125.257 13.8821 125.257 16.6367C125.257 19.0199 125.24 20.0877 125.208 20.346C125.144 20.799 125.226 21.1415 123.281 21.2223C123.231 21.3354 123.231 21.4633 123.231 21.5937C123.231 21.658 123.231 21.7885 123.248 21.852H123.879C124.48 21.852 125.888 21.7884 126.473 21.7884C126.942 21.7884 128.45 21.8379 129.437 21.8379H129.89C129.938 21.7562 129.938 21.5796 129.938 21.498C129.938 21.3998 129.923 21.2859 129.875 21.205C129.695 21.205 128.658 21.2372 128.206 20.8972C128.157 20.7206 128.059 20.2502 128.059 19.6817C128.044 17.9339 128.026 17.2696 128.026 16.1028C128.026 14.596 128.044 13.5744 128.044 10.7711C128.27 10.7711 128.79 10.7563 129.274 10.7711C130.28 11.0468 130.766 11.4214 131.203 12.0015C131.477 12.3761 131.77 13.0058 132.061 13.7691C132.159 13.8013 132.241 13.8013 132.336 13.8013C132.402 13.8013 132.612 13.7691 132.643 13.7369ZM146.885 15.7776C146.885 13.5108 145.88 11.7779 144 10.7389C142.997 10.1877 141.992 9.91211 140.923 9.91211C138.558 9.91211 136.419 11.3224 135.461 12.9274C134.846 13.9317 134.525 15.0317 134.525 16.1985C134.525 18.0618 135.432 19.8929 136.84 20.9467C137.911 21.7249 139.125 22.1103 140.535 22.1103C141.395 22.1103 142.203 21.951 142.997 21.6432C143.888 21.3008 144.649 20.7669 145.248 20.1025C146.302 18.953 146.885 17.4784 146.885 15.7776ZM143.953 15.4698C143.953 17.9166 143.272 20.0728 142.349 20.8337C141.88 21.2223 141.296 21.4171 140.631 21.4171C139.726 21.4171 138.93 21.0598 138.478 20.332C137.863 19.3912 137.521 17.6409 137.521 16.1201C137.521 13.8648 138.104 12.1005 139.141 11.2415C139.692 10.7884 140.258 10.611 140.826 10.611C141.702 10.611 142.544 11.0319 143.029 11.7292C143.645 12.5701 143.953 13.7863 143.953 15.4698ZM162.517 10.3181C162.517 10.2545 162.504 10.1415 162.47 10.092H162.098C161.287 10.092 160.771 10.1233 159.311 10.1233C158.808 10.1233 158.062 10.092 157.886 10.092H157.465C157.416 10.1233 157.399 10.3041 157.399 10.3676C157.399 10.4493 157.416 10.5763 157.479 10.6432C157.741 10.7249 158.728 10.8347 159.148 11.1136C159.441 11.4527 159.571 12.1319 159.619 12.7648C159.634 13.0058 159.651 13.2492 159.651 13.9143V17.301C159.651 17.6905 159.634 17.8176 159.619 17.9982C159.343 17.6905 158.955 17.107 158.306 16.3784L152.895 10.3817C152.848 10.3181 152.749 10.2372 152.653 10.1729C152.523 10.1729 152.296 10.1555 152.168 10.1555C151.129 10.1555 149.251 10.1093 148.975 10.1093C148.944 10.1728 148.91 10.2686 148.91 10.3329C148.91 10.3676 148.944 10.5937 148.958 10.6432C149.201 10.7067 149.736 10.7884 150.175 11.2588C150.433 11.5485 150.886 11.9553 151.032 12.2804C151.081 12.3934 151.097 12.5701 151.097 12.797C151.097 13.6387 151.048 14.8229 151.048 15.9542V19.246C151.048 19.7799 151.001 20.2008 150.951 20.4764C150.613 20.8337 150.092 21.0919 149.251 21.3007C149.218 21.3849 149.188 21.5128 149.188 21.5937C149.188 21.6432 149.201 21.8058 149.234 21.8206H149.541C149.867 21.8206 150.613 21.7711 151.097 21.7711C151.81 21.7711 152.296 21.8206 152.961 21.8206H153.933C153.996 21.8058 154.015 21.6085 154.015 21.545C154.015 21.4806 153.996 21.3502 153.965 21.2859C153.399 21.1415 152.571 21.0103 152.02 20.2816C151.907 20.0381 151.81 18.84 151.81 18.2706C151.81 17.754 151.794 17.0435 151.794 16.0855C151.794 14.8055 151.81 13.6882 151.827 13.1222C151.925 13.2352 152.038 13.3804 152.118 13.4762L159.604 21.8875C159.684 21.9659 159.975 21.9832 160.057 21.9832C160.137 21.9832 160.185 21.9832 160.251 21.951C160.284 21.8693 160.397 21.6086 160.397 21.2223C160.397 20.752 160.38 20.2643 160.38 20.0242V13.2674C160.38 11.2414 161.336 10.6754 162.453 10.6259C162.504 10.5442 162.517 10.3999 162.517 10.3181ZM55.1866 28.4858C55.1866 28.4223 55.1544 28.3233 55.1065 28.2771H54.6378C54.1345 28.2771 53.4536 28.3084 52.8702 28.3084C52.2233 28.3084 51.4946 28.2771 51.0234 28.2771H50.4408C50.3922 28.3728 50.3748 28.4041 50.3748 28.4858C50.3748 28.5527 50.3921 28.6162 50.4235 28.6979C50.4904 28.6979 51.672 28.7119 51.8825 29.0057C52.0607 29.2491 52.4494 29.8474 52.5138 30.2039C52.5451 30.3664 52.6441 31.0307 52.6441 31.9863C52.6441 33.362 52.6441 34.2845 52.6285 34.7722C52.5946 35.6807 52.4972 36.3921 52.3346 36.926C51.8825 38.3363 50.8303 39.0328 49.161 39.0328C48.4471 39.0328 47.8324 38.8883 47.2647 38.6268C46.2108 38.1101 45.7091 37.1199 45.6942 36.586L45.6118 31.7281L45.5969 29.7509C45.5969 29.3771 46.0656 29.037 46.2273 28.8432C46.3577 28.7788 47.0699 28.7119 47.4751 28.6806C47.5246 28.5848 47.5559 28.5353 47.5559 28.4537C47.5559 28.3727 47.508 28.2911 47.4429 28.2449L46.8281 28.2597C46.2273 28.277 45.4343 28.2911 44.9326 28.2911C44.1544 28.2911 43.5537 28.2771 43.0693 28.2771H42.3901C42.3233 28.3233 42.3076 28.4223 42.3076 28.5031C42.3076 28.5848 42.3233 28.6484 42.3728 28.6979C42.8894 28.7614 43.2302 28.811 43.458 28.8572C43.7328 29.0198 43.9283 29.2954 44.0257 29.571C44.0414 29.7831 44.0736 30.2997 44.0736 31.3212V35.2104C44.0736 36.2147 44.123 36.926 44.2361 37.3815C44.4449 38.2232 44.8988 38.8883 45.6447 39.3727C46.4386 39.8918 47.4272 40.1501 48.6097 40.1501C49.6957 40.1501 50.6183 39.924 51.3964 39.4858C52.2059 39.0501 52.7077 38.3363 52.9998 37.332C53.1607 36.7345 53.2598 36.0843 53.2598 35.4051V32.2941C53.2598 31.7107 53.291 30.9821 53.291 30.6891C53.3084 29.8152 53.5354 29.2954 53.7788 28.9067C54.037 28.8258 54.264 28.7788 55.123 28.6806C55.1544 28.6162 55.1866 28.5668 55.1866 28.4858ZM70.1888 28.4041C70.1888 28.3406 70.1731 28.2911 70.1393 28.2449H69.7679C68.9584 28.2449 68.6011 28.2771 67.1446 28.2771C66.6404 28.2771 65.8961 28.2449 65.7195 28.2449H65.2953C65.2491 28.2771 65.2318 28.3901 65.2318 28.4537C65.2318 28.5353 65.2491 28.5667 65.3127 28.6311C65.5727 28.7119 66.5612 28.8258 66.982 29.1014C67.2717 29.4438 67.4029 30.123 67.4516 30.7551C67.4665 30.9961 67.4838 31.2404 67.4838 31.9047V36.7172C67.4838 37.1059 67.4665 37.2363 67.4516 37.4137C67.176 37.1059 66.7064 36.5052 66.0752 35.7591L59.8853 28.5353C59.8358 28.4685 59.7401 28.3901 59.6419 28.3232C59.5123 28.3232 59.3514 28.3084 59.221 28.3084C58.1845 28.3084 57.2777 28.2597 57.0004 28.2597C56.9698 28.3233 56.9541 28.3555 56.9541 28.4223C56.9541 28.4537 56.9698 28.5848 56.9847 28.6311C57.2281 28.6979 57.9411 28.7788 58.2341 29.0865C58.4924 29.3771 58.881 29.7162 59.0263 30.0413C59.0758 30.1543 59.0931 30.3319 59.0931 30.5612C59.0931 31.4029 59.0436 32.9411 59.0436 34.0758V37.5268C59.0436 38.0607 58.9949 38.4816 58.947 38.7572C58.6054 39.1145 58.0872 39.3727 57.2446 39.5848C57.2125 39.6657 57.1803 39.6978 57.1803 39.7788C57.1803 39.8282 57.1951 39.924 57.2281 39.9388H57.536C57.8594 39.9388 58.6054 39.8918 59.0931 39.8918C59.8044 39.8918 60.1279 39.9388 60.7914 39.9388H61.7659C61.8303 39.924 61.8444 39.7936 61.8444 39.7292C61.8444 39.6657 61.8303 39.631 61.7965 39.5667C61.2312 39.4223 60.4051 39.2911 59.854 38.5624C59.7401 38.319 59.6418 37.0886 59.6418 36.5225C59.6418 36.0026 59.6262 35.1609 59.6262 34.2061C59.6262 32.9262 59.6418 31.1587 59.6592 30.5926C59.7565 30.7065 59.9026 30.8831 60.0149 31.0134L67.6942 40.0057C67.7743 40.0865 67.8072 40.1014 67.8906 40.1014C67.9681 40.1014 67.9203 40.1014 67.9864 40.0692C68.0177 39.9875 68.0672 39.7292 68.0672 39.3405C68.0672 38.8702 68.0515 38.3857 68.0515 38.1424V31.2577C68.0515 29.2318 69.0079 28.6624 70.1253 28.6162C70.1731 28.5353 70.1888 28.4858 70.1888 28.4041ZM77.5117 39.7292C77.5117 39.6484 77.4968 39.5667 77.4638 39.5032C77.2196 39.4858 76.5569 39.4222 76.264 39.3579C76.0049 39.05 75.8283 38.6937 75.7119 38.1102C75.6979 37.332 75.6813 35.5677 75.6813 34.0584V29.9456C75.6813 29.5075 75.8588 29.165 75.9735 29.0693C76.2813 28.7787 76.896 28.7119 77.4143 28.6484C77.4481 28.5848 77.4638 28.5031 77.4638 28.4396C77.464 28.4033 77.4568 28.3672 77.4426 28.3337C77.4285 28.3002 77.4076 28.27 77.3813 28.2448H76.9126C76.2317 28.2448 75.2597 28.3233 74.7076 28.3233C74.3701 28.3233 73.3964 28.2771 72.685 28.2597H72.3277C72.2791 28.3233 72.2469 28.3233 72.2469 28.4685C72.2469 28.5353 72.2626 28.5989 72.2791 28.6806C73.0721 28.7466 73.4293 28.8258 73.5408 28.9067C73.7372 29.0544 74.0128 29.4092 74.078 30.2856C74.0928 30.5926 74.1102 31.4202 74.1259 32.9089C74.1415 33.7184 74.1597 34.8218 74.1597 35.7591C74.1597 36.232 74.1259 37.4459 74.1102 38.0111C74.078 38.4006 73.9972 38.7744 73.8824 38.9832C73.6893 39.1458 73.4946 39.4363 72.312 39.5205C72.2791 39.5848 72.2626 39.6978 72.2626 39.7614C72.2626 39.8917 72.2963 39.8917 72.2963 39.9735H72.5703C73.219 39.9735 74.2232 39.8917 75.065 39.8917C75.3083 39.8917 76.377 39.9388 76.9126 39.9388H77.4481C77.4968 39.8604 77.5117 39.7936 77.5117 39.7292ZM91.6985 28.4396C91.6985 28.3727 91.6813 28.2771 91.6169 28.2597H91.0657C90.677 28.2597 90.0614 28.2911 89.7858 28.2911C88.4737 28.2911 88.0041 28.2102 87.8094 28.2102H87.5189C87.4842 28.2911 87.4348 28.3406 87.4348 28.4223C87.4348 28.4858 87.4694 28.5353 87.4694 28.5989C87.8488 28.6445 88.223 28.7263 88.5868 28.8432C88.7815 29.037 88.9935 29.4265 88.9935 29.8647C88.9935 30.024 88.831 30.7873 88.6016 31.3386L85.9956 37.7528L82.7938 29.6353C82.8417 29.2491 83.0521 28.8745 83.326 28.7293C83.6 28.6979 83.9375 28.5989 84.3757 28.5989C84.4079 28.5353 84.4393 28.4396 84.4393 28.3728C84.4393 28.3084 84.4252 28.2102 84.3584 28.1953H83.9524C83.4556 28.1953 82.6956 28.2597 81.8365 28.2597C81.4644 28.2597 80.7357 28.2275 80.0219 28.2275H79.3907C79.3577 28.2911 79.3271 28.3233 79.3271 28.4223C79.3271 28.518 79.3428 28.5526 79.375 28.6162C79.828 28.7293 80.2662 28.9067 80.7357 29.165C81.0436 29.6204 81.7087 31.2577 82.0651 32.1134L83.4061 35.3556C84.5209 38.0466 85.1852 39.8423 85.2669 40.1501C85.3478 40.1996 85.2669 40.2459 85.4121 40.2459C85.5574 40.2459 85.5425 40.2169 85.5747 40.1361L89.7536 30.0908C89.8988 29.7335 90.1257 29.3944 90.337 29.165C90.5953 28.8745 91.13 28.7614 91.6317 28.6483C91.649 28.5848 91.6985 28.5181 91.6985 28.4396ZM103.693 37.2825C103.693 37.0564 103.693 36.9573 103.678 36.8129C103.596 36.7635 103.565 36.7635 103.435 36.7635C103.321 36.7635 103.338 36.7635 103.224 36.7981C102.867 37.9798 102.253 38.8562 101.555 39.277C101.312 39.4223 100.874 39.4536 100.179 39.4536H98.3637C97.7977 39.4363 97.4412 39.4049 97.2943 39.3727C97.0517 39.3265 96.7917 38.9345 96.6803 38.6762C96.564 38.4006 96.5004 38.3041 96.5004 37.5589V33.8637H97.0195C97.5377 33.8637 97.9586 33.8984 98.396 34.093C98.802 34.2705 99.1097 34.5288 99.2706 34.7871C99.4176 35.0164 99.4663 35.9069 99.4984 36.1338C99.5785 36.1825 99.628 36.1974 99.7567 36.1974C99.8863 36.1974 99.902 36.1825 100.017 36.1165C100.017 35.6807 99.9192 34.4966 99.9192 33.8496C99.9192 33.0393 100.032 32.0499 100.08 31.4664C100.017 31.4343 99.9836 31.4029 99.8219 31.4029C99.7072 31.4029 99.661 31.4029 99.5628 31.4492C99.5149 31.6785 99.3837 32.3577 99.3532 32.4072C99.1098 32.8099 98.5412 33.135 98.1055 33.2662C97.8125 33.3471 97.3916 33.3966 96.7761 33.3966H96.5178V31.8065C96.5178 30.2534 96.55 29.6205 96.564 29.3275C96.5813 29.1327 96.6135 28.9239 96.6308 28.7788C96.7761 28.7614 97.2464 28.7466 97.9925 28.7466C98.9298 28.7466 99.628 28.7614 99.774 28.7614C100.227 28.7936 100.567 28.8918 100.81 29.0866C101.604 29.7022 101.815 30.1082 102.253 31.0951C102.35 31.1273 102.364 31.1273 102.448 31.1273C102.543 31.1273 102.561 31.0951 102.689 31.0307C102.689 30.0414 102.624 28.924 102.592 28.518C102.575 28.3555 102.543 28.3084 102.22 28.3084C102.09 28.3084 101.475 28.2771 100.828 28.2771C99.902 28.2771 99.5306 28.291 98.1204 28.291C97.3595 28.291 96.016 28.3084 95.3509 28.3084C94.3789 28.3084 94.1668 28.2771 93.7443 28.2771H93.1906C93.141 28.3406 93.1072 28.4041 93.1072 28.4685C93.1072 28.5527 93.1411 28.6311 93.1906 28.6979C93.3861 28.7614 94.1527 28.7466 94.3789 28.8745C94.6049 29.0693 94.8154 29.1188 94.9623 29.8961C94.9944 30.236 95.0118 31.3386 95.0118 32.0845V35.4192C95.0118 36.0983 94.9945 37.219 94.9779 37.6225C94.945 38.2554 94.718 39.05 94.6214 39.1953C94.4745 39.3084 93.8102 39.4049 93.1567 39.4363C93.1072 39.5353 93.0742 39.5988 93.0742 39.6978C93.0742 39.7936 93.1072 39.8423 93.1567 39.924H93.6956C94.2163 39.924 95.5135 39.8744 95.9492 39.8744C96.3552 39.8744 96.9056 39.9066 97.8455 39.9066C98.3637 39.9066 99.8863 40.0057 103.16 40.0057C103.289 40.0057 103.435 40.023 103.596 39.9735C103.646 39.8917 103.646 39.8605 103.662 39.7152C103.693 39.3901 103.693 38.5946 103.693 37.2825ZM117.286 39.7441C117.286 39.6657 117.255 39.5667 117.206 39.5031C117.044 39.5031 116.379 39.4709 116.135 39.291C116.055 39.1953 115.926 39.0014 115.861 38.8883C115.65 38.1423 115.424 37.4772 115.18 36.8625C114.841 36.0521 114.37 35.2888 113.982 34.9348C113.836 34.8044 113.383 34.5924 112.815 34.4009C112.556 34.3018 112.344 34.221 112.15 34.1393C112.394 34.0931 112.507 34.0758 112.815 34.0436C113.869 33.9132 114.225 33.6871 114.533 33.4428C115.18 32.9584 115.601 32.2298 115.601 31.3534C115.601 30.0413 114.759 28.7936 113.576 28.4223C113.188 28.3084 112.49 28.2449 111.632 28.2449C110.417 28.2449 109.509 28.3555 108.699 28.3555C108.459 28.3555 107.663 28.3233 107.097 28.3233C106.854 28.3233 106.238 28.2911 106.14 28.2911C106.093 28.4041 106.06 28.4396 106.06 28.5032C106.06 28.5667 106.075 28.6624 106.093 28.7293C106.367 28.7614 106.869 28.8258 107.129 28.8745C107.518 29.165 107.648 29.3944 107.81 29.7508C107.889 30.2674 107.906 31.7281 107.906 34.0122C107.906 35.6635 107.923 37.7389 107.84 38.3536C107.793 38.7572 107.648 39.2415 107.177 39.4363C106.967 39.4709 106.578 39.5353 106.254 39.5526C106.205 39.6311 106.171 39.6978 106.171 39.7787C106.171 39.8282 106.205 39.8917 106.238 39.9735C106.464 39.9735 108.327 39.924 108.845 39.924C109.884 39.924 110.142 39.9735 111.064 39.9735C111.098 39.9066 111.131 39.8605 111.131 39.7936C111.131 39.6806 111.098 39.6162 111.064 39.5526C110.743 39.5205 110.336 39.4223 110.158 39.3901C109.752 39.1953 109.463 38.8066 109.463 38.2381L109.445 34.1889C109.576 34.1715 110.045 34.1715 110.173 34.1715C110.611 34.1715 111.05 34.2061 111.47 34.4009C112.086 34.6732 112.669 35.1122 113.058 35.7129C113.576 36.5225 113.917 38.0607 114.08 39.2415C114.127 39.5848 114.257 39.8745 114.565 39.9066C114.694 39.924 114.89 39.9562 115.505 39.9562H117.188C117.255 39.8918 117.286 39.8282 117.286 39.7441ZM113.884 31.1587C113.884 32.1951 113.058 33.3619 112.103 33.574C111.713 33.6549 111.146 33.7044 110.417 33.7044C110.223 33.7044 109.671 33.7044 109.429 33.6689L109.413 32.2446V29.1823C109.413 28.9702 109.463 28.8572 109.526 28.811C109.591 28.7614 110.255 28.7119 110.66 28.7119C112.182 28.7119 112.88 28.8572 113.431 29.6527C113.739 30.0908 113.884 30.5926 113.884 31.1587ZM128.22 36.7486C128.22 35.4514 127.64 34.5635 126.39 33.8984C126.049 33.7044 125.452 33.4923 124.593 33.2489C123.604 32.9724 122.778 32.6506 122.244 32.3577C121.888 32.1629 121.287 31.629 121.287 30.5926C121.287 29.5569 122.342 28.6979 123.571 28.6979C124.543 28.6979 125.322 29.1823 125.791 29.8293C126.198 30.3986 126.343 30.6569 126.795 31.6785C126.845 31.6925 126.908 31.7107 126.958 31.7107C127.103 31.7107 127.234 31.629 127.315 31.5474C127.266 31.1413 127.186 30.5753 127.186 30.0908C127.186 29.67 127.283 29.1188 127.333 28.8258C127.201 28.6311 127.055 28.5989 126.845 28.5989C126.619 28.7466 126.407 28.9702 126.212 29.1823C125.144 28.3233 124.269 28.178 123.459 28.178C121.467 28.178 120.042 29.5075 120.042 31.2718C120.042 31.8733 120.251 32.4559 120.639 33.0541C120.997 33.5559 121.516 33.9454 122.213 34.2383C122.682 34.4298 124.787 35.0652 125.079 35.1791C126.375 35.6807 126.862 36.1165 126.862 37.2652C126.862 37.8345 126.619 38.3363 126.148 38.9024C125.728 39.4223 125.062 39.6657 124.35 39.6657C123.589 39.6657 122.277 39.3405 121.628 38.4675C121.239 37.9649 120.689 36.9111 120.526 36.279C120.413 36.2468 120.413 36.2468 120.3 36.2468C120.203 36.2468 120.088 36.279 119.992 36.3426C119.992 36.5547 120.058 37.6225 120.058 37.9476C120.058 38.7398 119.911 39.1285 119.879 39.3901C119.927 39.5526 120.203 39.7152 120.398 39.7152C120.737 39.4222 121.092 39.1953 121.209 39.1953C121.304 39.1953 121.45 39.2415 121.594 39.3405C122.648 40.023 123.524 40.1501 124.302 40.1501C126.587 40.1501 128.22 39.0014 128.22 36.7486ZM136.225 39.7292C136.225 39.6484 136.208 39.5667 136.176 39.5032C135.935 39.4858 135.269 39.4222 134.977 39.3579C134.719 39.05 134.541 38.6937 134.428 38.1102C134.411 37.332 134.394 35.5677 134.394 34.0584V29.9456C134.394 29.5075 134.574 29.165 134.686 29.0693C134.993 28.7787 135.61 28.7119 136.127 28.6484C136.16 28.5848 136.176 28.5031 136.176 28.4396C136.176 28.3406 136.127 28.2771 136.096 28.2448H135.627C134.946 28.2448 133.973 28.3233 133.422 28.3233C133.082 28.3233 132.11 28.2771 131.398 28.2597H131.04C130.992 28.3233 130.96 28.3233 130.96 28.4685C130.96 28.5353 130.977 28.5989 130.992 28.6806C131.788 28.7466 132.143 28.8258 132.257 28.9067C132.45 29.0544 132.725 29.4092 132.792 30.2856C132.808 30.5926 132.822 31.4202 132.838 32.9089C132.856 33.7184 132.871 34.8218 132.871 35.7591C132.871 36.232 132.838 37.4459 132.822 38.0111C132.792 38.4006 132.709 38.7744 132.597 38.9832C132.401 39.1458 132.207 39.4363 131.025 39.5205C130.992 39.5848 130.977 39.6978 130.977 39.7614C130.977 39.8917 131.006 39.8917 131.006 39.9735H131.284C131.933 39.9735 132.937 39.8917 133.778 39.8917C134.022 39.8917 135.09 39.9388 135.628 39.9388H136.16C136.208 39.8604 136.225 39.7936 136.225 39.7292ZM149.69 31.7281V28.5848C149.69 28.3406 149.591 28.277 149.348 28.277C148.862 28.277 146.626 28.3406 144.034 28.3406C142.024 28.3406 140.68 28.3084 139.773 28.3084H138.574C138.365 28.3084 138.298 28.3555 138.298 28.5848V31.516C138.365 31.5655 138.414 31.5795 138.491 31.5795C138.559 31.5795 138.622 31.5795 138.687 31.5474C139.319 30.1371 139.643 29.3944 140.729 28.8432C141.214 28.7936 142.915 28.7788 143.176 28.7788C143.191 28.9562 143.208 29.5223 143.224 30.2039C143.241 31.3708 143.241 32.0004 143.241 34.7582C143.241 37.1381 143.224 38.3685 143.191 38.6268C143.128 39.0822 143.208 39.4222 141.264 39.5031C141.214 39.6161 141.214 39.6484 141.214 39.7788C141.214 39.8423 141.214 39.9066 141.231 39.9735H141.863C142.462 39.9735 143.256 39.9066 143.84 39.9066C144.309 39.9066 145.201 39.9562 146.189 39.9562H146.642C146.691 39.8744 146.691 39.7936 146.691 39.7152C146.691 39.6161 146.675 39.5667 146.626 39.4858C146.448 39.4858 145.412 39.5205 144.957 39.178C144.908 39.0014 144.81 38.531 144.81 37.9649C144.796 36.2147 144.779 35.3878 144.779 34.221C144.779 32.715 144.796 31.5655 144.796 28.7614C145.022 28.7614 146.221 28.7466 146.709 28.7614C147.711 29.037 148.1 29.4092 148.537 29.9918C148.927 30.5117 149.024 30.9821 149.265 31.7594C149.365 31.7916 149.412 31.7916 149.51 31.7916C149.573 31.7916 149.656 31.7594 149.69 31.7281ZM162.778 28.3901C162.778 28.291 162.713 28.2597 162.681 28.1953C162.017 28.1953 161.143 28.2449 160.801 28.2449C159.974 28.2449 158.972 28.178 158.534 28.178C158.484 28.2771 158.468 28.291 158.468 28.3728C158.468 28.4388 158.479 28.5044 158.501 28.5667C158.972 28.6624 159.651 28.7788 159.781 29.0057C159.894 29.2145 159.927 29.3771 159.927 29.6354C159.927 29.8293 159.912 30.024 159.829 30.236C159.684 30.6396 159.376 31.2717 158.939 32.1629C158.193 33.6689 157.723 34.6097 157.463 34.981C157.043 34.2705 156.103 32.3923 155.878 31.9047L154.969 29.9283C154.937 29.8647 154.904 29.6353 154.904 29.4901C154.904 29.2813 154.937 29.1328 154.969 29.0692C155.116 28.7788 155.618 28.7466 156.298 28.6624C156.329 28.5848 156.346 28.4858 156.346 28.4223C156.346 28.3084 156.298 28.3406 156.249 28.2597H155.958C154.872 28.2597 155.196 28.3084 153.332 28.3084C152.54 28.3084 151.583 28.2597 151.454 28.2597C151.389 28.3727 151.356 28.3901 151.356 28.5031C151.356 28.5667 151.372 28.6162 151.423 28.6979C152.506 28.9562 152.83 29.1501 152.944 29.3622L155.78 34.9174C156.055 35.4374 156.216 35.8401 156.298 36.1338C156.411 36.586 156.429 37.2512 156.429 38.0755C156.429 38.7744 156.185 39.1458 155.909 39.3265C155.796 39.3901 154.984 39.5031 154.613 39.5353C154.548 39.6483 154.53 39.6806 154.53 39.7614C154.53 39.8423 154.564 39.8917 154.581 39.9562C155.407 39.9562 156.266 39.9389 156.752 39.9389C157.092 39.9389 157.61 39.9562 158.566 39.9734C159.116 39.9875 159.538 40.0057 159.829 40.0057C159.862 39.9388 159.912 39.8744 159.912 39.7936C159.912 39.7152 159.894 39.6657 159.846 39.5848C159.327 39.5205 158.6 39.4222 158.437 39.2597C158.176 38.9832 158.049 38.8562 158.014 38.2232L157.886 35.7914C157.869 35.6139 157.934 35.4514 157.951 35.4051C157.998 35.2253 158.062 35.08 158.126 34.9497L160.623 30.0091C160.848 29.5882 161.336 29.1188 161.66 28.924C161.889 28.7788 162.39 28.6806 162.713 28.5989C162.748 28.518 162.778 28.4537 162.778 28.3901Z" fill="black"/>
</svg>
