<svg width="163" height="47" viewBox="0 0 163 47" fill="none" xmlns="http://www.w3.org/2000/svg">
<path d="M18.6778 45.9855C15.6286 43.7055 12.8899 41.0417 10.5372 38.0677L10.3301 37.8052L18.8949 29.4707L27.4868 37.8251L27.2781 38.0883C24.9221 41.0533 22.1783 43.7104 19.1226 45.9855L18.8999 46.1514L18.6778 45.9855Z" fill="white"/>
<path d="M18.8941 28.9531L18.3759 29.4565L10.3103 37.305L9.83008 37.7721L10.246 38.2986C12.6177 41.2982 15.3804 43.9842 18.4551 46.2833L18.8991 46.6158L19.3439 46.2849C22.426 43.9892 25.1921 41.309 27.5678 38.3208L27.9862 37.7936L27.5043 37.3248L19.4124 29.4565L18.8941 28.9531ZM18.8941 29.9896L26.986 37.8579C24.6382 40.8121 21.9151 43.4421 18.8999 45.6883C15.8524 43.4099 13.1448 40.7659 10.8285 37.8373L18.8941 29.9896Z" fill="white"/>
<path d="M18.9045 21.3536L6.97699 32.8107L6.74181 32.3916C4.60371 28.5865 3.07046 24.5191 2.18588 20.3047L2.0918 19.8574H35.7255L35.5158 20.8857C34.604 24.9432 33.1162 28.8225 31.0903 32.4245L30.8551 32.8428L18.9045 21.3536Z" fill="white"/>
<path d="M36.1809 19.4863H1.63281L1.82098 20.3817C2.71387 24.6332 4.25948 28.7344 6.41654 32.5749L6.88609 33.4108L7.57844 32.7457L18.9027 21.8695L30.2501 32.7779L30.9424 33.4422L31.412 32.6063C33.456 28.9745 34.9571 25.0606 35.8755 20.9726L35.9374 20.6614L35.9935 20.3808L36.1809 19.4863ZM35.2665 20.229C35.2261 20.4238 35.1914 20.6152 35.1501 20.8099C34.2301 24.9063 32.7356 28.7394 30.765 32.2424L18.9027 20.8389L7.06435 32.2101C4.96833 28.481 3.43342 24.4466 2.54798 20.2289L35.2665 20.229Z" fill="white"/>
<path d="M18.8967 30.5069L10.7948 38.3901L10.539 38.0675C9.11969 36.2727 7.83897 34.3631 6.73404 32.3909L6.59375 32.1392L18.8967 20.3223L31.2228 32.173L31.0825 32.4222C29.9693 34.4052 28.6902 36.3114 27.2791 38.0881L27.0241 38.4099L18.8967 30.5069Z" fill="white"/>
<path d="M18.8964 19.8066L18.3823 20.3009L6.54314 31.6731L6.12891 32.0708L6.40949 32.5718C7.52432 34.5597 8.81575 36.4865 10.2483 38.2979L10.7591 38.9431L11.3491 38.3688L18.8964 31.0245L26.4701 38.3894L27.0593 38.9622L27.5701 38.3177C28.9927 36.5261 30.2834 34.6026 31.4065 32.6048L31.6878 32.1022L31.2736 31.7053L19.4113 20.3018L18.8964 19.8066ZM18.8964 20.8374L30.7588 32.2409C29.6531 34.2098 28.3923 36.0876 26.9884 37.8564L18.8964 29.988L10.8309 37.8366C9.42307 36.0575 8.1605 34.176 7.05723 32.2087L18.8964 20.8374Z" fill="white"/>
<path d="M18.8967 30.5069L10.7948 38.3901L10.539 38.0675C9.11969 36.2727 7.83897 34.3631 6.73404 32.3909L6.59375 32.1392L18.8967 20.3223L31.2228 32.173L31.0825 32.4222C29.9693 34.4052 28.6902 36.3114 27.2791 38.0881L27.0241 38.4099L18.8967 30.5069Z" fill="white"/>
<path d="M18.8964 19.8066L18.3823 20.3009L6.54314 31.6731L6.12891 32.0708L6.40949 32.5718C7.52432 34.5597 8.81575 36.4865 10.2483 38.2979L10.7591 38.9431L11.3491 38.3688L18.8964 31.0245L26.4701 38.3894L27.0593 38.9622L27.5701 38.3177C28.9927 36.5261 30.2834 34.6026 31.4065 32.6048L31.6878 32.1022L31.2736 31.7053L19.4113 20.3018L18.8964 19.8066ZM18.8964 20.8374L30.7588 32.2409C29.6531 34.2098 28.3923 36.0876 26.9884 37.8564L18.8964 29.988L10.8309 37.8366C9.42307 36.0575 8.1605 34.176 7.05723 32.2087L18.8964 20.8374Z" fill="white"/>
<path d="M2.23819 20.6094L2.17629 20.3139C1.33374 16.2877 1.08786 12.1692 1.44763 8.07275L1.48726 7.61729L1.92543 7.75014C3.31173 8.17102 4.75509 8.38472 6.21487 8.38472C11.2824 8.38472 16.0249 5.74076 18.5921 1.48516L18.9098 0.957031L19.2283 1.48516C21.7914 5.74076 26.533 8.38472 31.6015 8.38472C33.0654 8.38472 34.5094 8.17015 35.8967 7.74761L36.3356 7.61397L36.3744 8.07115C36.7259 12.1353 36.4726 16.2538 35.6218 20.3139L35.5608 20.6093L2.23819 20.6094Z" fill="white"/>
<path d="M18.91 0.238281L18.2737 1.29287C15.7742 5.4379 11.153 8.01337 6.21504 8.01337C4.79841 8.01389 3.38945 7.80535 2.03371 7.39449L1.15738 7.12959L1.07812 8.04057C0.714992 12.171 0.962735 16.3324 1.81336 20.3906L1.93717 20.9806H35.8629L35.9859 20.3906C36.8441 16.2943 37.0991 12.1386 36.7451 8.03897L36.6659 7.12461L35.7879 7.39196C34.437 7.80373 33.0284 8.01337 31.6024 8.01337C26.6628 8.01337 22.0432 5.4387 19.5462 1.29374L18.91 0.238281ZM18.91 1.67745C21.4615 5.9115 26.1891 8.75606 31.6024 8.75606C33.1373 8.75606 34.6144 8.52667 36.0049 8.10333C36.3473 12.0709 36.1155 16.1482 35.2589 20.2379H2.54049C1.7049 16.2514 1.4613 12.1634 1.81755 8.10579C3.20559 8.52667 4.68272 8.75606 6.21511 8.75606C11.6276 8.75606 16.356 5.91157 18.91 1.67745Z" fill="white"/>
<path d="M10.8281 37.8379C13.1445 40.7666 15.8519 43.4106 18.8994 45.689C21.9147 43.4427 24.6379 40.8128 26.9856 37.8586L18.8936 29.9902L10.8281 37.8379Z" fill="#F46F1B"/>
<path d="M7.06513 32.2096L18.9043 20.8384L30.7659 32.2419C32.7364 28.7388 34.2317 24.9058 35.1518 20.8095C35.1922 20.6147 35.2269 20.4233 35.2674 20.2285H2.54883C3.43427 24.4461 4.96998 28.4805 7.06513 32.2096Z" fill="#F46F1B"/>
<path d="M7.05664 32.2091C8.15997 34.1772 9.42167 36.0579 10.8295 37.837L18.8958 29.9886L26.987 37.8568C28.3909 36.0881 29.6516 34.2103 30.7573 32.2413L18.8958 20.8379L7.05664 32.2091Z" fill="#F46F1B"/>
<path d="M18.8972 29.471L10.8696 37.2824C9.63262 35.6898 8.50954 34.0089 7.52344 32.2776L18.8971 21.3535L30.2941 32.3097C29.2996 34.0512 28.1828 35.7198 26.952 37.3031L18.8972 29.471Z" fill="#231F20"/>
<path d="M18.8958 20.8386L7.0566 32.21C8.15986 34.178 9.42243 36.0587 10.8303 37.8378L18.8957 29.9902L26.9877 37.8585C28.3916 36.0895 29.6524 34.2114 30.7581 32.2421L18.8958 20.8386ZM18.8958 21.8694L29.8256 32.3767C28.9464 33.893 27.973 35.3526 26.911 36.7469L19.414 29.4571L18.8958 28.9538L18.3776 29.4571L10.9078 36.7263C9.84085 35.3227 8.86212 33.8546 7.98905 32.3453L18.8958 21.8694ZM36.0045 8.10362C34.6141 8.52782 33.1369 8.75635 31.602 8.75635C26.1887 8.75635 21.4611 5.91272 18.9096 1.67773C16.3556 5.91272 11.6272 8.75635 6.21464 8.75635C4.68226 8.75635 3.20512 8.52776 1.81709 8.10694C1.46084 12.1643 1.70444 16.2519 2.54003 20.2382H35.2586C36.1151 16.1494 36.3469 12.0712 36.0045 8.10362Z" fill="#231F20"/>
<path d="M26.9686 13.1077V11.7172H26.1186V10.736L25.2273 10.4868H25.163V9.65421C25.163 9.65421 24.856 10.0223 23.4449 10.0223C22.1098 10.0223 21.3266 9.58984 20.2638 9.58984C19.2421 9.58984 18.9294 10.1733 18.9294 10.1733V10.51H18.8939V10.1733C18.8939 10.1733 18.5746 9.58984 17.5588 9.58984C16.4967 9.58984 15.7127 10.0255 14.3784 10.0255C12.9673 10.0255 12.7238 9.65673 12.7238 9.65673V10.5331H12.6653L11.699 10.7361V11.7172H10.8457V13.1077H11.699V15.3572H10.8457V16.7502H11.699V18.4798C11.699 18.4798 13.1298 18.7034 14.4535 18.7034C16.0181 18.7034 16.9209 18.4774 17.9367 18.4567V18.8949C17.9367 18.8949 18.346 19.0987 18.8915 19.0987C19.4427 19.0987 19.8808 18.8949 19.8808 18.8949V18.4567C20.8942 18.4773 21.797 18.7034 23.3698 18.7034C24.6876 18.7034 26.1186 18.4798 26.1186 18.4798V16.7502H26.9686V15.3572H26.1186V13.1077H26.9686Z" fill="white"/>
<path d="M25.9522 18.3903C25.5883 18.4423 24.4289 18.5933 23.3503 18.5933C21.8039 18.5933 19.8969 18.3523 19.8779 18.3499L19.7112 18.3267V18.8342C19.5643 18.8896 19.2441 18.9886 18.8695 18.9886C18.5023 18.9886 18.2019 18.8895 18.0624 18.8376V18.3267L17.8957 18.3499C17.8768 18.3523 15.9689 18.5933 14.4315 18.5933C13.3497 18.5933 12.1895 18.4423 11.8255 18.3903V10.8941C11.9617 10.8677 12.3669 10.7811 12.5641 10.7407V17.5305C12.6367 17.6872 12.947 18.0471 14.3663 18.0471L16.1628 17.8118L17.536 17.6146C18.4527 17.6146 18.7408 18.1023 18.7531 18.1221L18.796 18.099H19.0073L19.0477 18.1221C19.0601 18.1023 19.3423 17.6146 20.2525 17.6146L21.6249 17.8094L23.4362 18.047C24.8745 18.047 25.2343 17.6699 25.2698 17.6261L25.2978 10.7052C25.486 10.758 25.8317 10.8537 25.9522 10.8883V18.3903ZM12.8604 9.97737C13.098 10.0962 13.5246 10.2207 14.3663 10.2207L16.176 9.98309L17.5475 9.78588C18.4486 9.78588 18.7358 10.267 18.7523 10.2934V17.7013C18.5328 17.5189 18.1648 17.3184 17.536 17.3184L16.0993 17.5213L14.3663 17.7507C13.098 17.7507 12.834 17.4462 12.8314 17.4438C12.8314 17.4438 12.857 10.4824 12.8604 9.97737ZM19.0477 10.2934C19.0601 10.2728 19.3423 9.78588 20.2525 9.78588L21.6249 9.97983L23.4362 10.2175C24.3134 10.2175 24.7598 10.0813 25.0073 9.96248V17.5189C24.9884 17.481 24.6327 17.7508 23.4362 17.7508L21.6892 17.5189L20.2525 17.3184C19.6303 17.3184 19.2656 17.5189 19.0477 17.6988V10.2934ZM25.2995 10.3949L25.3036 9.32956L25.0453 9.6027C25.042 9.60516 24.7251 9.92205 23.4362 9.92205L21.6892 9.68934L20.2525 9.48967C19.4644 9.48967 19.0717 9.81148 18.9 10.0062C18.7275 9.81148 18.3314 9.4896 17.5475 9.4896L16.1125 9.69266L14.3663 9.92451C13.098 9.92451 12.834 9.61999 12.8314 9.61673L12.5682 9.29492L12.5641 9.70423V10.4354L11.5293 10.6532V18.6485L11.6547 18.6659C11.6687 18.6692 13.1112 18.892 14.4315 18.892C15.7337 18.892 17.2792 18.7211 17.767 18.6634V19.0257L17.8479 19.0694C17.8669 19.0785 18.2951 19.2873 18.8695 19.2873C19.4471 19.2873 19.9027 19.0785 19.9216 19.0694L20.0074 19.029V18.6634C20.4951 18.7212 22.0408 18.892 23.3503 18.892C24.6657 18.892 26.1098 18.6692 26.1238 18.666L26.2493 18.6486V10.6623L25.2995 10.3949Z" fill="#231F20"/>
<path d="M14.9638 11.3065C14.8474 11.3155 14.7723 11.3758 14.7377 11.4541L14.2616 12.5137C14.2616 12.5137 14.2384 12.531 14.2236 12.531C14.2096 12.531 14.1914 12.5137 14.1798 12.4815C14.1683 12.4444 14.1105 12.2959 13.9859 12.0062L13.8316 11.6605C13.7771 11.5325 13.7334 11.4484 13.7186 11.4228C13.6633 11.3271 13.5939 11.318 13.5189 11.3065C13.5098 11.2949 13.5098 11.2833 13.5098 11.2743C13.5098 11.2627 13.5098 11.2569 13.5156 11.2429H13.594C13.6839 11.2429 13.759 11.2487 13.8259 11.2487C13.9042 11.2487 14.0346 11.2396 14.1221 11.2396H14.1741C14.1832 11.2429 14.1856 11.2602 14.1856 11.2685C14.1856 11.2743 14.1856 11.2949 14.1798 11.3032C14.1221 11.3098 13.9917 11.3065 13.9917 11.3873C13.9917 11.4055 13.9942 11.4369 14.0033 11.4575L14.3168 12.2002L14.5776 11.5854C14.6009 11.5344 14.6127 11.4789 14.6122 11.4228C14.6122 11.3527 14.5636 11.3213 14.4324 11.3065C14.4299 11.2974 14.4241 11.2859 14.4241 11.2776C14.4241 11.266 14.4299 11.2487 14.4324 11.2397H14.4703C14.5289 11.2397 14.5866 11.2487 14.7171 11.2487C14.7402 11.2487 14.8301 11.2429 14.8739 11.2429H14.9638C14.9695 11.2545 14.9753 11.2602 14.9753 11.2718C14.9753 11.2801 14.9695 11.2974 14.9638 11.3065ZM16.2902 12.4935C15.9098 12.4935 15.7043 12.4853 15.6515 12.4853C15.6111 12.4853 15.5187 12.4819 15.4716 12.4819C15.4196 12.4819 15.2975 12.491 15.1638 12.491L15.0888 12.4877C15.083 12.4762 15.083 12.4704 15.083 12.4588C15.083 12.4498 15.083 12.4357 15.0854 12.4242C15.1869 12.4151 15.2604 12.3978 15.2777 12.3829C15.2975 12.3573 15.3123 12.3045 15.3181 12.1915C15.3181 12.1337 15.3206 12.0702 15.3206 12.0033C15.3206 11.9075 15.3181 11.7912 15.3181 11.6518V11.4545C15.3148 11.3184 15.248 11.3184 15.106 11.3011C15.1036 11.2887 15.1003 11.2772 15.1003 11.2689C15.1003 11.2598 15.1036 11.24 15.1118 11.2367H15.1812C15.2282 11.2367 15.3528 11.2401 15.5904 11.2401C15.8083 11.2401 16.0204 11.2425 16.0666 11.2425C16.0955 11.2425 16.1797 11.2458 16.1978 11.2458C16.2267 11.2458 16.2382 11.2482 16.2382 11.2747L16.2555 11.5585C16.2382 11.5676 16.2349 11.5709 16.2209 11.5709C16.2094 11.5709 16.2003 11.5709 16.1912 11.5676C16.1078 11.4257 16.0666 11.3968 16.0031 11.3498C15.9799 11.3325 15.9453 11.3209 15.8925 11.3184C15.8752 11.3184 15.8314 11.3151 15.7241 11.3151C15.6375 11.3151 15.5938 11.3184 15.5822 11.3184C15.5674 11.3184 15.5707 11.3184 15.5649 11.3671C15.5616 11.3968 15.5591 11.4545 15.5591 11.6196V11.7821H15.602C15.6573 11.7821 15.7126 11.7764 15.7447 11.7682C15.7943 11.7533 15.8463 11.7186 15.8727 11.6782C15.8842 11.6633 15.8958 11.594 15.9015 11.5734C15.9098 11.5676 15.9247 11.5651 15.942 11.5651C15.9533 11.5648 15.9645 11.5677 15.9742 11.5734C15.9709 11.6254 15.9626 11.7211 15.9626 11.8432C15.9626 11.9043 15.9684 12.038 15.9684 12.0932C15.9568 12.1015 15.9511 12.1015 15.9329 12.1015C15.9247 12.1015 15.9073 12.1015 15.8983 12.099C15.8867 11.9918 15.8693 11.9192 15.7795 11.8812C15.7299 11.8606 15.6895 11.8548 15.64 11.8548C15.6136 11.8548 15.5822 11.8581 15.5558 11.8605V12.189C15.5558 12.2641 15.5616 12.3103 15.5731 12.3367C15.5822 12.3573 15.6111 12.4002 15.6491 12.406C15.6664 12.4093 15.6985 12.4151 15.7646 12.4151H15.9453C15.9915 12.4151 16.0583 12.4093 16.0815 12.3945C16.1252 12.3656 16.2407 12.2409 16.282 12.1246C16.2993 12.1188 16.3076 12.1188 16.3191 12.1188C16.3307 12.1188 16.3422 12.1222 16.357 12.128V12.4588C16.357 12.491 16.3364 12.4935 16.2902 12.4935ZM17.7994 11.6343C17.7912 11.6343 17.7788 11.631 17.7648 11.631C17.7359 11.5527 17.7004 11.4834 17.6715 11.4454C17.6196 11.3819 17.57 11.3381 17.4396 11.3241C17.4108 11.3208 17.3406 11.3208 17.3175 11.3208L17.315 11.8753C17.315 11.962 17.315 12.0643 17.3175 12.2557C17.3208 12.4002 17.3844 12.4002 17.5354 12.4208C17.5444 12.4356 17.5469 12.4472 17.5469 12.4554C17.547 12.4667 17.5441 12.4777 17.5387 12.4876H17.4834C17.3959 12.4876 17.2218 12.4818 17.1665 12.4818C17.1294 12.4818 16.9379 12.4909 16.8471 12.4909C16.8389 12.4761 16.8356 12.4761 16.8356 12.4554C16.8356 12.4472 16.8389 12.4356 16.8447 12.4241C17.0452 12.4092 17.065 12.3712 17.0707 12.3077C17.0765 12.2673 17.0765 12.1014 17.0765 11.9331V11.4751C17.0765 11.4165 17.0741 11.3587 17.065 11.3208C17.0271 11.3208 16.9057 11.3208 16.8702 11.3357C16.7688 11.3728 16.6961 11.4577 16.6186 11.6113C16.6095 11.6137 16.5946 11.6137 16.5864 11.6137C16.5748 11.6137 16.5633 11.6113 16.5575 11.6022V11.2803C16.5575 11.2515 16.56 11.2424 16.5946 11.2424C16.6243 11.2424 16.6705 11.2457 16.7316 11.2457C16.7745 11.2457 16.9577 11.2482 17.1871 11.2482C17.4892 11.2482 17.712 11.2399 17.7706 11.2399C17.7994 11.2399 17.8201 11.2399 17.8317 11.2515C17.8341 11.2572 17.8317 11.2803 17.8317 11.2977V11.6195C17.8259 11.6311 17.811 11.6343 17.7994 11.6343ZM14.9029 13.5992C14.8914 13.5992 14.8823 13.5959 14.865 13.5959C14.8394 13.5184 14.8039 13.4483 14.7725 13.4103C14.723 13.3468 14.671 13.303 14.5398 13.289C14.5109 13.2857 14.4416 13.2857 14.4185 13.2857L14.4152 13.8402C14.4152 13.9277 14.4152 14.0284 14.4185 14.2206C14.421 14.3659 14.4878 14.3659 14.6388 14.3857C14.6448 14.3962 14.6476 14.4082 14.6471 14.4203C14.6471 14.4319 14.6471 14.4409 14.6413 14.4525H14.5868C14.4969 14.4525 14.3228 14.4468 14.2699 14.4468C14.232 14.4468 14.0406 14.4558 13.9481 14.4558C13.9423 14.441 13.939 14.441 13.939 14.4203C13.939 14.4121 13.9423 14.4006 13.9448 14.389C14.1453 14.3741 14.166 14.3362 14.1742 14.2726C14.1775 14.2322 14.1775 14.0663 14.1775 13.898V13.4392C14.1775 13.3814 14.1775 13.3236 14.1685 13.2857C14.1305 13.2857 14.0059 13.2857 13.9712 13.3006C13.8697 13.3377 13.7996 13.4218 13.722 13.5762C13.7096 13.5786 13.6956 13.5786 13.6866 13.5786C13.6812 13.579 13.6758 13.5781 13.6708 13.5761C13.6658 13.5741 13.6613 13.571 13.6576 13.5671V13.2452C13.6576 13.2164 13.6634 13.2073 13.6956 13.2073C13.7278 13.2073 13.7707 13.2106 13.8318 13.2106C13.8788 13.2106 14.0612 13.2131 14.2906 13.2131C14.5893 13.2131 14.8154 13.2048 14.8707 13.2048C14.9029 13.2048 14.9235 13.2048 14.9318 13.2164C14.9376 13.2222 14.9351 13.2452 14.9351 13.2626V13.5844C14.9313 13.5893 14.9264 13.5932 14.9208 13.5958C14.9152 13.5983 14.9091 13.5995 14.9029 13.5992ZM16.3366 14.4584C15.9596 14.4584 15.7499 14.4493 15.7013 14.4493C15.66 14.4493 15.5676 14.4468 15.5181 14.4468C15.4685 14.4468 15.3439 14.4551 15.2136 14.4551L15.1376 14.4526C15.1319 14.4411 15.1294 14.4353 15.1294 14.4238C15.1294 14.4147 15.1294 14.4006 15.1352 14.3891C15.2367 14.38 15.3093 14.3627 15.3233 14.3478C15.3464 14.3222 15.3588 14.2694 15.3646 14.1564C15.3671 14.0986 15.3703 14.0343 15.3703 13.9682C15.3703 13.8725 15.367 13.7562 15.367 13.6167C15.367 13.5177 15.3646 13.4599 15.3646 13.4194C15.3612 13.2833 15.2977 13.2833 15.155 13.2652C15.1499 13.2555 15.1471 13.2448 15.1467 13.2338C15.1467 13.2247 15.1525 13.2041 15.1608 13.2016H15.2276C15.2771 13.2016 15.3993 13.2041 15.6369 13.2041C15.858 13.2041 16.0668 13.2074 16.1163 13.2074C16.142 13.2074 16.2294 13.2107 16.2434 13.2107C16.2756 13.2107 16.2872 13.2132 16.2872 13.2396L16.302 13.5243C16.2872 13.5325 16.2814 13.5358 16.2674 13.5358C16.2583 13.5358 16.2492 13.5358 16.2376 13.5325C16.1568 13.3906 16.1164 13.3609 16.0495 13.3147C16.0264 13.2974 15.9943 13.2858 15.9414 13.2833C15.9241 13.2833 15.8812 13.28 15.7705 13.28C15.6864 13.28 15.6402 13.2833 15.6311 13.2833C15.6138 13.2833 15.6172 13.2833 15.6113 13.332C15.6113 13.3609 15.608 13.4194 15.608 13.5845V13.7471H15.6485C15.707 13.7471 15.7615 13.7413 15.7912 13.7331C15.8432 13.7182 15.8928 13.6835 15.9215 13.6431C15.9299 13.6282 15.9447 13.5589 15.948 13.5383C15.9606 13.5322 15.9744 13.5291 15.9884 13.5292C16.0033 13.5292 16.0148 13.5325 16.0231 13.5383C16.0206 13.5903 16.0091 13.686 16.0091 13.8081C16.0091 13.8692 16.0174 14.0029 16.0174 14.0581C16.0033 14.0665 16 14.0665 15.9826 14.0665C15.9711 14.0665 15.9563 14.0665 15.9447 14.0639C15.9332 13.9559 15.9183 13.8841 15.8259 13.8461C15.7764 13.8255 15.7359 13.8197 15.6897 13.8197C15.6633 13.8197 15.6312 13.823 15.6055 13.8255V14.154C15.6055 14.229 15.6113 14.2752 15.6195 14.3016C15.6311 14.3222 15.66 14.3651 15.6955 14.3709C15.7128 14.3742 15.7475 14.38 15.811 14.38H15.9942C16.0404 14.38 16.1048 14.3742 16.1279 14.3594C16.1741 14.3305 16.2905 14.2059 16.3309 14.0895C16.3449 14.0837 16.3573 14.0837 16.3688 14.0837C16.3771 14.0837 16.392 14.0871 16.4035 14.0929V14.4238C16.4035 14.4551 16.3828 14.4584 16.3366 14.4584ZM17.219 14.4873C17.1141 14.4873 16.9986 14.4469 16.9284 14.4122C16.914 14.405 16.8983 14.4008 16.8823 14.3998C16.8682 14.3998 16.8303 14.4204 16.789 14.4494C16.7601 14.4494 16.7255 14.4353 16.7172 14.4122C16.7172 14.3858 16.7403 14.3074 16.7403 14.2579C16.7403 14.229 16.7312 14.0871 16.7287 14.0549C16.7403 14.0376 16.7634 14.0285 16.7832 14.0285H16.8039C16.8303 14.0814 16.8823 14.2175 16.9202 14.2728C16.9986 14.3627 17.1141 14.4031 17.1983 14.4031C17.2916 14.4031 17.3608 14.3858 17.4021 14.3421C17.4598 14.2868 17.4714 14.2522 17.4714 14.1911C17.4714 14.1448 17.4632 14.1069 17.4368 14.078C17.4046 14.0376 17.3782 14.0202 17.3064 13.9856C17.2511 13.9592 17.0564 13.9097 16.987 13.8717C16.8995 13.8313 16.8559 13.7966 16.8129 13.7504C16.7601 13.6835 16.7403 13.5936 16.7403 13.521C16.7403 13.3205 16.8995 13.1694 17.1257 13.1694C17.2106 13.1694 17.3262 13.1786 17.4252 13.2569C17.4477 13.2311 17.472 13.2069 17.4978 13.1843C17.535 13.1843 17.5614 13.2042 17.5647 13.219C17.5614 13.2478 17.5441 13.3262 17.5441 13.3906C17.5441 13.422 17.5647 13.5557 17.5647 13.5763C17.5498 13.5821 17.535 13.5936 17.5152 13.5936C17.5094 13.5936 17.5003 13.5903 17.492 13.5879C17.4566 13.5268 17.4252 13.4253 17.3872 13.37C17.3295 13.2916 17.2478 13.2627 17.138 13.2627C17.0126 13.2627 16.9111 13.3411 16.9111 13.4484C16.9111 13.5524 16.9953 13.6019 17.0654 13.6341C17.1273 13.6585 17.1901 13.6808 17.2535 13.7009C17.3468 13.7331 17.4162 13.7562 17.4541 13.776C17.5993 13.8519 17.6604 13.9592 17.6604 14.1069C17.6604 14.3396 17.4509 14.4873 17.219 14.4873ZM15.4079 16.4262C15.0275 16.4262 14.8212 16.4179 14.7692 16.4179C14.7288 16.4179 14.6356 16.4146 14.5893 16.4146C14.5373 16.4146 14.4152 16.4236 14.2815 16.4236L14.2064 16.4203C14.2007 16.4088 14.2007 16.403 14.2007 16.3915C14.2007 16.3824 14.2007 16.3684 14.2031 16.3569C14.3046 16.3478 14.3773 16.3304 14.3946 16.3156C14.4152 16.29 14.43 16.2371 14.4358 16.1241C14.4358 16.0664 14.4383 16.0028 14.4383 15.9359C14.4383 15.8402 14.4358 15.7238 14.4358 15.5844V15.3872C14.4325 15.251 14.3657 15.251 14.2237 15.2337C14.2206 15.2233 14.2186 15.2125 14.2179 15.2016C14.2179 15.1925 14.2205 15.1726 14.2295 15.1694H14.2989C14.3459 15.1694 14.4705 15.1727 14.7082 15.1727C14.926 15.1727 15.1381 15.1752 15.1842 15.1752C15.2132 15.1752 15.2973 15.1785 15.3147 15.1785C15.3443 15.1785 15.3559 15.1809 15.3559 15.2074L15.3732 15.492C15.3559 15.5003 15.3526 15.5036 15.3386 15.5036C15.3271 15.5036 15.318 15.5036 15.3089 15.5002C15.2247 15.3583 15.1843 15.3294 15.1207 15.2824C15.0977 15.2651 15.0622 15.2536 15.0102 15.251C14.9929 15.251 14.9491 15.2477 14.8418 15.2477C14.7552 15.2477 14.7115 15.251 14.6999 15.251C14.685 15.251 14.6884 15.251 14.6826 15.2998C14.6793 15.3294 14.6768 15.3872 14.6768 15.5522V15.7148H14.7197C14.775 15.7148 14.8302 15.7091 14.8624 15.7008C14.912 15.6859 14.964 15.6513 14.9896 15.6109C15.0011 15.596 15.0135 15.5267 15.0193 15.506C15.0275 15.5003 15.0424 15.4978 15.0597 15.4978C15.071 15.4975 15.0821 15.5003 15.0919 15.506C15.0886 15.558 15.0803 15.6538 15.0803 15.7759C15.0803 15.8369 15.0861 15.9707 15.0861 16.0259C15.0745 16.0342 15.0679 16.0342 15.0506 16.0342C15.0424 16.0342 15.025 16.0342 15.016 16.0317C15.0044 15.9244 14.987 15.8518 14.8971 15.8139C14.8476 15.7933 14.8072 15.7875 14.7576 15.7875C14.7312 15.7875 14.6999 15.7908 14.6735 15.7932V16.1217C14.6735 16.1968 14.6793 16.2438 14.6908 16.2694C14.6999 16.29 14.7288 16.3329 14.7668 16.3387C14.784 16.342 14.8154 16.3478 14.8822 16.3478H15.0622C15.1092 16.3478 15.1761 16.342 15.1991 16.3272C15.242 16.2982 15.3584 16.1736 15.3989 16.0573C15.4162 16.0515 15.4253 16.0515 15.4368 16.0515C15.4483 16.0515 15.4599 16.0548 15.4747 16.0606V16.3915C15.4747 16.4236 15.4541 16.4262 15.4079 16.4262ZM17.2363 15.2333C17.1084 15.2391 16.9987 15.3093 16.9987 15.5123L16.9953 16.1568C16.9953 16.1824 17.0069 16.3655 17.0069 16.4349C16.9871 16.4465 16.9665 16.4555 16.9549 16.4555C16.9491 16.4555 16.9376 16.4465 16.9227 16.4349L16.0373 15.4826L16.0463 15.6774L16.0497 16.0289C16.0497 16.0544 16.0555 16.1213 16.0612 16.1708C16.067 16.2492 16.0901 16.2756 16.1248 16.3044C16.1685 16.3425 16.2412 16.354 16.2931 16.3598C16.2986 16.3684 16.3014 16.3784 16.3013 16.3887C16.3003 16.3999 16.2963 16.4107 16.2898 16.42H16.1941C16.1132 16.42 16.0497 16.4175 15.9655 16.4175C15.9102 16.4175 15.8318 16.4233 15.7765 16.4233H15.7361C15.7328 16.4142 15.7328 16.4002 15.7328 16.3945C15.7328 16.3887 15.7328 16.3771 15.7386 16.3623C15.8029 16.3565 15.9011 16.3276 15.9391 16.2756C15.9531 16.2434 15.9597 16.1857 15.9597 16.1246V15.6748C15.9597 15.6022 15.9564 15.5643 15.9531 15.495C15.9507 15.4363 15.9391 15.3926 15.9102 15.358C15.9069 15.3497 15.8781 15.3208 15.8491 15.2911C15.8203 15.2681 15.7501 15.2482 15.7064 15.2301C15.702 15.221 15.6992 15.2112 15.6981 15.2012C15.6981 15.1929 15.7006 15.1781 15.7064 15.1699H15.7386C15.765 15.1699 15.9011 15.1756 16.0059 15.1756H16.067C16.0786 15.1814 16.0983 15.1929 16.1041 15.2012L16.7602 15.9183C16.8097 15.9736 16.8732 16.0462 16.9087 16.0925V15.5758C16.9087 15.5065 16.9054 15.457 16.9029 15.4306C16.8971 15.3786 16.8848 15.3324 16.865 15.2969C16.8444 15.2655 16.7222 15.2482 16.6586 15.2333C16.6529 15.2218 16.6529 15.207 16.6529 15.1955C16.6529 15.1897 16.6529 15.1814 16.6563 15.1699H16.6934C16.7544 15.1699 16.8534 15.1781 16.9145 15.1781C17.0655 15.1781 17.1117 15.1723 17.1868 15.1723H17.2363C17.2421 15.1839 17.2421 15.1954 17.2421 15.2045C17.2421 15.2103 17.2421 15.2243 17.2363 15.2333ZM21.3722 11.3007C21.2476 11.3064 21.1346 11.3758 21.1346 11.5795V12.2232C21.1346 12.2496 21.1428 12.4328 21.1428 12.5022C21.1255 12.5137 21.1024 12.5228 21.0933 12.5228C21.0851 12.5228 21.076 12.5137 21.0587 12.5022L20.1732 11.5507L20.1856 11.7446L20.188 12.0962C20.188 12.1217 20.1938 12.1886 20.1972 12.2381C20.2054 12.3165 20.2285 12.3428 20.2607 12.3717C20.3069 12.4097 20.3795 12.4212 20.429 12.427C20.4345 12.4357 20.4374 12.4457 20.4373 12.4559C20.4362 12.4668 20.4334 12.4773 20.429 12.4873H20.33C20.2516 12.4873 20.188 12.4848 20.1014 12.4848C20.0462 12.4848 19.9702 12.4906 19.9149 12.4906H19.8745C19.8717 12.4812 19.8697 12.4715 19.8687 12.4617C19.8687 12.4559 19.8687 12.4444 19.8778 12.4296C19.9388 12.4238 20.037 12.3948 20.075 12.3428C20.0923 12.3107 20.0956 12.253 20.0956 12.1919V11.7421C20.0956 11.6695 20.0956 11.6315 20.0923 11.5623C20.0899 11.5036 20.075 11.4599 20.0486 11.4253C20.0428 11.417 20.0164 11.3881 19.9851 11.3584C19.9587 11.3353 19.8861 11.3155 19.8423 11.2974C19.8398 11.2858 19.8365 11.2718 19.8365 11.2684C19.8372 11.2578 19.8392 11.2473 19.8423 11.2371H19.8778C19.9009 11.2371 20.037 11.2429 20.1418 11.2429H20.2029C20.2145 11.2486 20.2343 11.2602 20.2434 11.2684L20.8994 11.9855C20.9489 12.0409 21.0125 12.1135 21.0471 12.1597V11.6431C21.0471 11.5738 21.0413 11.5243 21.0388 11.4979C21.0362 11.4511 21.0233 11.4054 21.0009 11.3642C20.9803 11.3328 20.8581 11.3155 20.7979 11.3006C20.7922 11.2888 20.7891 11.2759 20.7888 11.2627C20.7888 11.2569 20.7888 11.2486 20.7946 11.2371H20.8325C20.8936 11.2371 20.9918 11.2454 21.0529 11.2454C21.2006 11.2454 21.2501 11.2396 21.326 11.2396H21.3722C21.3776 11.2495 21.3807 11.2605 21.3813 11.2718C21.3805 11.282 21.3774 11.2919 21.3722 11.3007ZM22.4723 11.4197C22.4113 11.3388 22.3362 11.2893 22.2231 11.2893C22.1183 11.2893 22.0515 11.3355 21.9904 11.4196C21.9153 11.5154 21.874 11.6689 21.874 11.8637C21.874 12.0551 21.9153 12.2061 21.9847 12.3018C22.0482 12.395 22.1208 12.4413 22.2313 12.4413C22.365 12.4413 22.4434 12.3778 22.5045 12.2696C22.5598 12.1739 22.5854 12.0411 22.5854 11.8669C22.5854 11.6606 22.5449 11.5155 22.4723 11.4197ZM22.6754 12.3365C22.554 12.4553 22.3848 12.5254 22.2281 12.5254C22.0803 12.5254 21.9096 12.4619 21.7899 12.3456C21.6595 12.221 21.6017 12.0526 21.6017 11.8669C21.6017 11.6895 21.6595 11.5212 21.7899 11.3932C21.9293 11.2596 22.0803 11.2051 22.2314 11.2051C22.342 11.2051 22.4435 11.234 22.5623 11.2975C22.7571 11.4222 22.8701 11.6284 22.8701 11.8545C22.8701 12.0319 22.8 12.2095 22.6754 12.3365ZM24.4574 11.3065C24.3444 11.3155 24.2692 11.3758 24.2338 11.4541L23.7577 12.5137C23.7577 12.5137 23.7345 12.531 23.7205 12.531C23.7057 12.531 23.6859 12.5137 23.6768 12.4815C23.6653 12.4444 23.6067 12.2959 23.4795 12.0062L23.3286 11.6605C23.2733 11.5325 23.2295 11.4484 23.2155 11.4228C23.1569 11.3271 23.09 11.318 23.015 11.3065C23.0034 11.2949 23.0034 11.2833 23.0034 11.2743C23.0034 11.2627 23.0034 11.2569 23.0117 11.2429H23.0901C23.1776 11.2429 23.2526 11.2487 23.3195 11.2487C23.3979 11.2487 23.5291 11.2396 23.619 11.2396H23.6677C23.6801 11.2429 23.6826 11.2602 23.6826 11.2685C23.6826 11.2743 23.6826 11.2949 23.6768 11.3032C23.6157 11.3098 23.4878 11.3065 23.4878 11.3873C23.4878 11.4055 23.4878 11.4369 23.4994 11.4575L23.8105 12.2002L24.0745 11.5854C24.0958 11.5338 24.1067 11.4786 24.1067 11.4228C24.1067 11.3527 24.0572 11.3213 23.926 11.3065C23.9236 11.2974 23.9202 11.2859 23.9202 11.2776C23.9202 11.266 23.9236 11.2487 23.926 11.2397H23.9639C24.0218 11.2397 24.0803 11.2487 24.2132 11.2487C24.2338 11.2487 24.3271 11.2429 24.37 11.2429H24.4607C24.4665 11.2545 24.469 11.2602 24.469 11.2718C24.469 11.2801 24.4665 11.2974 24.4574 11.3065ZM20.963 13.5992C20.9514 13.5992 20.9432 13.5959 20.925 13.5959C20.8994 13.5184 20.8639 13.4483 20.8326 13.4103C20.7831 13.3468 20.7311 13.303 20.5999 13.289C20.571 13.2857 20.5017 13.2857 20.4785 13.2857L20.4752 13.8402C20.4752 13.9277 20.4752 14.0284 20.4785 14.2206C20.481 14.3659 20.5479 14.3659 20.6989 14.3857C20.7079 14.4006 20.7079 14.4121 20.7079 14.4203C20.7079 14.4319 20.7079 14.4409 20.7022 14.4525H20.6469C20.5569 14.4525 20.3828 14.4468 20.33 14.4468C20.2929 14.4468 20.1014 14.4558 20.0082 14.4558C20.0024 14.441 19.9991 14.441 19.9991 14.4203C19.9991 14.4121 20.0024 14.4006 20.0049 14.389C20.2054 14.3741 20.226 14.3362 20.2343 14.2726C20.2376 14.2322 20.2376 14.0663 20.2376 13.898V13.4392C20.2376 13.3814 20.2376 13.3236 20.2285 13.2857C20.1906 13.2857 20.066 13.2857 20.0313 13.3006C19.9298 13.3377 19.8605 13.4218 19.7821 13.5762C19.7705 13.5786 19.7557 13.5786 19.7466 13.5786C19.7412 13.579 19.7359 13.5781 19.7309 13.5761C19.7258 13.5741 19.7214 13.571 19.7177 13.5671V13.2452C19.7177 13.2164 19.7235 13.2073 19.7557 13.2073C19.7878 13.2073 19.8308 13.2106 19.8918 13.2106C19.9388 13.2106 20.1212 13.2131 20.3506 13.2131C20.6494 13.2131 20.8755 13.2048 20.9307 13.2048C20.9629 13.2048 20.9836 13.2048 20.9918 13.2164C20.9976 13.2222 20.9952 13.2452 20.9952 13.2626V13.5844C20.9914 13.5893 20.9865 13.5932 20.9809 13.5958C20.9752 13.5984 20.9692 13.5995 20.963 13.5992ZM21.6742 13.4629H21.6709C21.6453 13.5125 21.5991 13.6197 21.5809 13.6659C21.5141 13.8285 21.491 13.8838 21.4795 13.9069H21.8541C21.8252 13.8317 21.7295 13.6024 21.6742 13.4629ZM22.4664 14.4581H22.3682C22.3038 14.4581 22.2312 14.4499 22.1561 14.4499C22.0373 14.4499 21.8863 14.4581 21.8277 14.4581C21.8219 14.4524 21.8194 14.4409 21.8194 14.4268C21.8194 14.4177 21.8219 14.4062 21.8252 14.397C21.9474 14.3913 21.996 14.3715 21.996 14.322C21.996 14.3014 21.996 14.2609 21.9589 14.1594C21.921 14.0662 21.9004 14.0258 21.892 14.0026C21.8863 13.9944 21.883 13.9886 21.8574 13.9886H21.4621C21.4357 14.02 21.4043 14.1074 21.3697 14.2288C21.3606 14.2609 21.3606 14.2898 21.3606 14.3014C21.3606 14.3426 21.3986 14.3888 21.5381 14.3913C21.5441 14.4021 21.5469 14.4144 21.5463 14.4268C21.5463 14.435 21.5463 14.4441 21.5438 14.4557H21.5083C21.4159 14.4557 21.3895 14.4499 21.2913 14.4499C21.2269 14.4499 21.0734 14.4557 21.0214 14.4557C21.0181 14.4441 21.0157 14.4408 21.0157 14.4293C21.0157 14.421 21.0157 14.4119 21.0214 14.397C21.0966 14.3798 21.1658 14.3599 21.2013 14.3046C21.2212 14.2758 21.288 14.1594 21.3606 13.9795C21.4299 13.8112 21.5141 13.5991 21.5521 13.5125C21.6049 13.4019 21.6222 13.3673 21.6395 13.3293C21.6603 13.2851 21.6826 13.2416 21.7064 13.1989C21.7179 13.184 21.7435 13.1758 21.7551 13.1758C21.7757 13.1758 21.8021 13.1873 21.8103 13.2014C21.8219 13.2244 21.8368 13.2484 21.8392 13.2624C21.9119 13.4365 21.9704 13.5909 22.0604 13.8054C22.1066 13.9127 22.1297 13.9828 22.1792 14.0958C22.2139 14.1652 22.2345 14.2205 22.2692 14.284C22.3154 14.3798 22.3913 14.3798 22.4664 14.4004C22.4697 14.4095 22.4779 14.4177 22.4779 14.4293C22.4779 14.4408 22.4722 14.4466 22.4664 14.4581ZM24.4051 14.4584L23.8977 14.4526H23.7583C23.7533 14.4426 23.7502 14.4316 23.7492 14.4204C23.7492 14.4032 23.7525 14.4006 23.7607 14.3891C23.7871 14.3857 23.8539 14.3891 23.8853 14.3776C23.9381 14.3536 23.9587 14.3016 23.9587 14.2265V13.3237H23.9554L23.6881 13.9097C23.6592 13.974 23.6246 14.0433 23.5957 14.1127C23.5346 14.2496 23.5024 14.3421 23.4851 14.3973C23.4768 14.4204 23.4562 14.4204 23.4446 14.4204C23.4274 14.4204 23.4158 14.4147 23.4067 14.3858C23.372 14.3107 23.3489 14.2612 23.3374 14.229L22.919 13.3089H22.9107V13.544L22.919 14.1308C22.919 14.3107 23.0123 14.3949 23.1542 14.3949C23.1597 14.4037 23.1636 14.4135 23.1657 14.4238C23.1653 14.4347 23.1625 14.4454 23.1575 14.4551C23.1484 14.4551 23.1196 14.4584 23.0931 14.4584C23.0758 14.4584 22.9834 14.4493 22.8497 14.4493C22.8118 14.4493 22.7333 14.4526 22.6723 14.4526H22.5881C22.5856 14.4411 22.5823 14.432 22.5823 14.4204C22.5823 14.418 22.5857 14.4032 22.5881 14.3949C22.6236 14.3858 22.7449 14.357 22.7713 14.3305C22.7977 14.3049 22.8208 14.2521 22.8208 14.1275V13.483C22.8175 13.3815 22.8059 13.3411 22.7565 13.3064C22.7367 13.2916 22.6583 13.2833 22.5914 13.2742C22.5861 13.2634 22.583 13.2516 22.5823 13.2396C22.5823 13.2305 22.5857 13.219 22.5914 13.2041C22.6409 13.2041 22.7275 13.2107 22.815 13.2107H23.1196C23.1311 13.2189 23.1369 13.2247 23.146 13.2421L23.5198 14.0895L23.5866 13.9212C23.6452 13.785 23.7293 13.5788 23.8482 13.3584C23.8738 13.3089 23.906 13.2454 23.9233 13.2132L24.3994 13.2041C24.4052 13.2165 24.411 13.2247 24.411 13.2363C24.411 13.2475 24.4082 13.2586 24.4028 13.2684C24.3499 13.2776 24.2599 13.2776 24.2163 13.3493C24.2022 13.3732 24.1931 13.3964 24.1931 13.4978V14.1044C24.1931 14.3363 24.2517 14.3594 24.2773 14.3776C24.2921 14.3858 24.3648 14.3949 24.4052 14.3949C24.411 14.4064 24.4143 14.4147 24.4143 14.4262C24.4143 14.4435 24.4084 14.4468 24.4051 14.4584ZM20.9341 15.5671C20.9225 15.5671 20.9134 15.5638 20.8962 15.5638C20.8705 15.4863 20.835 15.4162 20.8037 15.3782C20.7541 15.3147 20.7022 15.2709 20.571 15.2569C20.5421 15.2536 20.4728 15.2536 20.4497 15.2536L20.4464 15.8081C20.4464 15.8948 20.4464 15.9963 20.4497 16.1885C20.4521 16.333 20.519 16.333 20.67 16.3536C20.6759 16.3641 20.6788 16.3761 20.6783 16.3882C20.6783 16.3998 20.6783 16.4088 20.6725 16.4204H20.618C20.5281 16.4204 20.354 16.4146 20.3011 16.4146C20.2632 16.4146 20.0718 16.4237 19.9793 16.4237C19.9736 16.4089 19.9702 16.4089 19.9702 16.3882C19.9702 16.38 19.9736 16.3684 19.976 16.3569C20.1765 16.342 20.1972 16.304 20.2054 16.2405C20.2087 16.2001 20.2087 16.0342 20.2087 15.8659V15.4079C20.2087 15.3493 20.2087 15.2915 20.1996 15.2536C20.1617 15.2536 20.037 15.2536 20.0024 15.2685C19.9009 15.3056 19.8307 15.3897 19.7532 15.5441C19.7408 15.5465 19.7268 15.5465 19.7177 15.5465C19.7123 15.5468 19.707 15.546 19.702 15.544C19.697 15.542 19.6925 15.5389 19.6888 15.5349V15.2131C19.6888 15.1843 19.6946 15.1752 19.7267 15.1752C19.759 15.1752 19.8019 15.1785 19.863 15.1785C19.9092 15.1785 20.0924 15.181 20.3218 15.181C20.6205 15.181 20.8466 15.1727 20.9019 15.1727C20.9341 15.1727 20.9547 15.1727 20.9629 15.1843C20.9687 15.19 20.9662 15.2131 20.9662 15.2305V15.5523C20.9625 15.5572 20.9576 15.5611 20.952 15.5637C20.9464 15.5662 20.9402 15.5674 20.9341 15.5671ZM22.4926 15.2392C22.3795 15.2474 22.3035 15.3085 22.2689 15.3869L21.7928 16.4465C21.7928 16.4465 21.7696 16.4637 21.7556 16.4637C21.7408 16.4637 21.7202 16.4465 21.7119 16.4143C21.7004 16.3771 21.6426 16.2286 21.5146 15.9389L21.3637 15.5932C21.3084 15.4653 21.2646 15.3811 21.2506 15.3556C21.192 15.2598 21.1252 15.2507 21.0501 15.2392C21.0385 15.2276 21.0385 15.2161 21.0385 15.207C21.0385 15.1955 21.0385 15.1897 21.0476 15.1756H21.1251C21.2127 15.1756 21.2877 15.1814 21.3545 15.1814C21.433 15.1814 21.5633 15.1723 21.6541 15.1723H21.7028C21.7144 15.1756 21.7177 15.1929 21.7177 15.2012C21.7177 15.207 21.7177 15.2276 21.7119 15.2359C21.6508 15.2417 21.523 15.2392 21.523 15.3201C21.523 15.3382 21.523 15.3696 21.5345 15.3902L21.8456 16.1329L22.1096 15.5181C22.1307 15.4665 22.1413 15.4113 22.141 15.3556C22.141 15.2854 22.0923 15.2532 21.9611 15.2392C21.9587 15.2301 21.9553 15.2186 21.9553 15.2103C21.9553 15.1988 21.9587 15.1814 21.9611 15.1724H21.999C22.0577 15.1724 22.1154 15.1814 22.2491 15.1814C22.2689 15.1814 22.3621 15.1756 22.4051 15.1756H22.4958C22.5016 15.1872 22.5041 15.1929 22.5041 15.2045C22.5041 15.2128 22.5016 15.2301 22.4926 15.2392ZM24.4313 16.4262L23.9262 16.4204H23.7843C23.7785 16.4088 23.7786 16.394 23.7786 16.3882C23.7786 16.3709 23.7785 16.3684 23.7868 16.3568C23.8165 16.3535 23.88 16.3568 23.9147 16.3453C23.9642 16.3213 23.984 16.2694 23.984 16.1943V15.4623C23.984 15.4623 23.9873 15.3294 23.9873 15.2915H23.9815L23.7174 15.8774C23.6853 15.9417 23.6539 16.0111 23.6217 16.0812C23.5632 16.2174 23.5285 16.3098 23.5112 16.3651C23.5054 16.3882 23.4856 16.3882 23.4708 16.3882C23.4559 16.3882 23.4443 16.3824 23.4328 16.3536C23.4014 16.2784 23.3775 16.2289 23.3659 16.1967L22.945 15.2766H22.9369V15.5118L22.9451 16.0986C22.9484 16.2784 23.0383 16.3626 23.1836 16.3626C23.1893 16.3709 23.1918 16.3882 23.1918 16.3915C23.1918 16.3998 23.1918 16.4113 23.1861 16.4236C23.1745 16.4236 23.1481 16.4262 23.1192 16.4262C23.1019 16.4262 23.0119 16.4179 22.8782 16.4179C22.8378 16.4179 22.7594 16.4204 22.7016 16.4204H22.6175C22.6117 16.4088 22.6084 16.3998 22.6084 16.3882C22.6084 16.3857 22.6117 16.3709 22.6175 16.3626C22.6497 16.3536 22.7743 16.3247 22.8007 16.2982C22.8238 16.2726 22.8469 16.2199 22.8469 16.0953L22.8494 15.799L22.8469 15.4508C22.8436 15.3492 22.8353 15.3088 22.7825 15.2742C22.7627 15.2593 22.6843 15.251 22.62 15.242C22.6129 15.2318 22.6089 15.2198 22.6084 15.2074C22.6084 15.1982 22.6117 15.1867 22.62 15.1726C22.667 15.1726 22.7569 15.1784 22.8411 15.1784H23.1481C23.1571 15.1867 23.1662 15.1925 23.172 15.2098L23.5458 16.0573L23.616 15.8889C23.6712 15.7528 23.7579 15.5465 23.8768 15.3262C23.8998 15.2766 23.9353 15.2131 23.9527 15.1809L24.4255 15.1726C24.4313 15.1842 24.4404 15.1925 24.4404 15.204C24.4404 15.2156 24.4346 15.2246 24.4288 15.2362C24.3793 15.2453 24.2893 15.2453 24.2456 15.3171C24.2307 15.341 24.2192 15.3641 24.2192 15.4656V16.0721C24.2192 16.304 24.2778 16.3271 24.3067 16.3453C24.3182 16.3536 24.3909 16.3626 24.4313 16.3626C24.4404 16.3742 24.4428 16.3824 24.4428 16.394C24.4428 16.4113 24.4371 16.4146 24.4313 16.4262Z" fill="#231F20"/>
<path d="M53.3562 13.2353C53.3562 12.0189 52.6597 10.8842 51.6233 10.4172C51.0893 10.1878 50.1494 10.0426 48.7243 10.0426C47.4758 10.0426 45.5316 10.1416 44.6751 10.1416C44.0743 10.1416 43.1674 10.0747 42.6648 10.0747C42.6162 10.1556 42.5823 10.2686 42.5823 10.333C42.5823 10.3999 42.5823 10.5764 42.6318 10.6581C42.9396 10.7563 43.4414 10.8347 43.7665 10.9189C44.0412 11.1599 44.1065 11.372 44.2038 11.8423C44.2517 12.4076 44.2847 13.1222 44.2847 14.3525C44.2847 17.7714 44.269 19.5679 44.2196 19.9574C44.156 20.4451 43.8317 20.9467 43.2961 21.106C43.0527 21.1556 42.6954 21.2373 42.3579 21.2686C42.3351 21.3805 42.3238 21.4944 42.324 21.6086C42.324 21.7389 42.3413 21.7563 42.3719 21.838C42.8901 21.838 44.4143 21.7712 44.9977 21.7712C46.4401 21.7712 47.9139 21.838 48.5122 21.838H48.9183C48.9677 21.7712 48.9677 21.6581 48.9677 21.5797C48.9677 21.4806 48.9677 21.3503 48.9347 21.2859C48.4478 21.2224 47.72 21.1242 47.4123 20.7669C47.2497 20.5754 47.0871 20.2965 47.0871 19.8121L47.0376 16.2481C48.0097 16.3116 49.0478 16.3438 49.6147 16.3438C50.3599 16.3438 50.9911 16.2159 51.4929 16.0533C52.6432 15.6184 53.3562 14.4805 53.3562 13.2353ZM50.4581 13.1684C50.4581 13.9952 50.1651 14.7239 49.632 15.1943C49.2912 15.4699 48.7557 15.6325 47.9461 15.6325C47.6062 15.6325 47.3454 15.6184 47.2497 15.6003C47.1201 15.583 47.0376 15.5689 47.0376 15.4847L47.0549 10.739C47.2497 10.725 47.5253 10.6581 47.9957 10.6581C49.0965 10.6581 49.7773 10.9337 50.1008 11.6154C50.326 12.0511 50.4581 12.6023 50.4581 13.1684ZM68.0506 21.5624C68.0506 21.4806 68.0193 21.2859 67.9697 21.2224C67.8088 21.2224 67.1454 21.1902 66.9019 21.0103C66.8202 20.9145 66.6915 20.7207 66.6255 20.6043C66.4142 19.8616 66.1732 19.3591 65.929 18.7443C65.5882 17.9339 65.1195 17.1706 64.7308 16.8141C64.5839 16.6863 64.0822 16.4742 63.5145 16.2794C63.2561 16.1837 63.0457 16.1028 62.851 16.0211C63.0936 15.9724 63.2067 15.9543 63.5145 15.9254C64.7143 15.7778 64.9891 15.569 65.296 15.3247C65.9455 14.837 66.3004 14.0943 66.3004 13.2179C66.3004 11.9059 65.4586 10.6433 64.2761 10.2686C63.8858 10.1556 63.1926 10.092 62.3336 10.092C61.1172 10.092 59.4165 10.2051 58.607 10.2051C58.3627 10.2051 56.9525 10.1729 56.3864 10.1729C56.1421 10.1729 55.5273 10.1416 55.4316 10.1416C55.382 10.2546 55.3499 10.3817 55.3499 10.4494C55.3499 10.5129 55.3664 10.6755 55.382 10.739C55.6577 10.7712 56.1602 10.8347 56.4193 10.8843C56.8072 11.1772 56.9376 11.4041 57.0985 11.7606C57.1818 12.2805 57.1959 13.6066 57.1959 15.8908C57.1959 17.5453 57.2132 19.4548 57.1323 20.0729C57.0844 20.4764 56.9376 20.9616 56.4672 21.1556C56.2584 21.1902 55.8681 21.2546 55.5446 21.2686C55.4951 21.3503 55.463 21.5129 55.463 21.5937C55.463 21.6433 55.4951 21.7712 55.5273 21.852C55.7567 21.852 58.2348 21.8058 58.7514 21.8058C59.7878 21.8058 60.6642 21.852 61.5876 21.852C61.619 21.7885 61.6511 21.6754 61.6511 21.6086C61.6511 21.4981 61.619 21.3355 61.5876 21.2686C61.2624 21.2373 60.8589 21.1415 60.6807 21.106C60.2755 20.9145 59.9825 20.5259 59.9825 19.9574L59.9677 16.2159C60.0956 16.1986 60.2583 16.1986 60.3886 16.1986C60.5974 16.1986 60.8416 16.2332 61.246 16.4569C61.8459 16.7993 62.1388 17.0436 62.5275 17.6411C63.0458 18.4506 63.3865 19.94 63.5483 21.1242C63.5962 21.4633 63.7249 21.7563 64.0343 21.7885C64.1631 21.8058 65.0221 21.838 65.6377 21.838H67.9549C68.0193 21.7712 68.0506 21.6432 68.0506 21.5624ZM63.3535 13.09C63.3535 14.0943 62.6727 15.2438 61.8805 15.4385C61.5554 15.5194 61.1486 15.5689 60.5511 15.5689C60.3886 15.5689 60.1452 15.5689 59.9504 15.5335L59.9347 14.1578V11.1773C59.9347 10.9833 59.9826 10.8694 60.0313 10.8208C60.0791 10.7712 60.3729 10.725 60.7137 10.725C61.9763 10.725 62.5275 10.8348 62.9805 11.5981C63.2389 12.0363 63.3535 12.5387 63.3535 13.09ZM76.3456 21.5451C76.3456 21.4634 76.3283 21.286 76.2977 21.2225C76.0543 21.2052 75.3908 21.1416 75.0995 21.0772C74.8396 20.7669 74.6596 20.4129 74.5475 19.8295C74.5318 19.0514 74.5144 17.4463 74.5144 15.9403V11.9554C74.5144 11.5172 74.6926 11.1773 74.8074 11.0791C75.1152 10.7886 75.7308 10.725 76.2499 10.6582C76.282 10.5938 76.2977 10.4172 76.2977 10.3503C76.2977 10.2547 76.2499 10.1235 76.2168 10.0921H75.7465C75.0656 10.0921 73.478 10.1729 72.9267 10.1729C72.5876 10.1729 70.9998 10.1235 70.2869 10.1095H69.9321C69.8826 10.1729 69.8504 10.2374 69.8504 10.3817C69.8504 10.4494 69.8644 10.6111 69.8826 10.6896C70.6772 10.7564 71.0312 10.8348 71.1459 10.919C71.3407 11.0642 71.6147 11.4215 71.6815 12.2946C71.6963 12.6024 71.7121 13.2675 71.7277 14.7595C71.7459 15.569 71.7616 16.7003 71.7616 17.6411C71.7616 18.1115 71.7277 19.1653 71.712 19.7305C71.6815 20.12 71.599 20.4913 71.4875 20.7034C71.2928 20.866 71.0973 21.1556 69.9139 21.2373C69.8826 21.3008 69.8644 21.5129 69.8644 21.5798C69.8644 21.7068 69.8982 21.7713 69.8982 21.8521H70.1738C70.8225 21.8521 72.4423 21.7713 73.284 21.7713C73.5275 21.7713 75.2109 21.8207 75.7465 21.8207H76.282C76.3283 21.7391 76.3456 21.6086 76.3456 21.5451ZM92.3644 10.3182C92.3644 10.2547 92.3463 10.1416 92.3149 10.0922H91.9403C91.1308 10.0922 90.6141 10.1234 89.1544 10.1234C88.6518 10.1234 87.9058 10.0922 87.7292 10.0922H87.3083C87.2589 10.1234 87.2416 10.3042 87.2416 10.3677C87.2416 10.4495 87.2589 10.5765 87.3257 10.6434C87.584 10.725 88.571 10.8349 88.9943 11.1137C89.2847 11.4529 89.4127 12.132 89.4614 12.765C89.4795 13.0059 89.4969 13.2494 89.4969 13.9145V17.3011C89.4969 17.6906 89.4796 17.8177 89.4614 17.9984C89.1891 17.6906 88.7971 17.1071 88.1501 16.3785L82.7458 10.3818C82.6964 10.3182 82.6006 10.2374 82.5016 10.173C82.3728 10.173 82.1451 10.1557 82.0172 10.1557C80.9783 10.1557 79.1001 10.1095 78.8245 10.1095C78.7923 10.1729 78.7609 10.2687 78.7609 10.3331C78.7609 10.3677 78.7923 10.5938 78.8071 10.6434C79.0506 10.7069 79.5861 10.7886 80.0235 11.2589C80.2843 11.5486 80.7373 11.9554 80.8825 12.2805C80.9312 12.3936 80.9477 12.5702 80.9477 12.7972C80.9477 13.6389 80.8998 14.823 80.8998 15.9543V19.2461C80.8998 19.78 80.8503 20.2009 80.8008 20.4765C80.4617 20.8338 79.9434 21.0921 79.1001 21.3008C79.0679 21.385 79.0366 21.5129 79.0366 21.5938C79.0366 21.6433 79.0505 21.8059 79.0844 21.8207H79.3922C79.7157 21.8207 80.4616 21.7713 80.9478 21.7713C81.6599 21.7713 82.1451 21.8207 82.8094 21.8207H83.7766C83.8401 21.8059 83.8574 21.6086 83.8574 21.5451C83.8574 21.4808 83.8401 21.3503 83.8087 21.286C83.2459 21.1416 82.4216 21.0104 81.8703 20.2818C81.7589 20.0383 81.6599 18.8401 81.6599 18.2707C81.6599 17.7541 81.6426 17.0436 81.6426 16.0856C81.6426 14.8057 81.6599 13.6883 81.6763 13.1223C81.773 13.2353 81.8868 13.3805 81.9677 13.4763L89.4473 21.8876C89.5282 21.966 89.8187 21.9834 89.9004 21.9834C89.9812 21.9834 90.0307 21.9834 90.0943 21.9511C90.1264 21.8694 90.2395 21.6087 90.2395 21.2225C90.2395 20.7521 90.2223 20.2644 90.2223 20.0243V13.2674C90.2223 11.2414 91.1802 10.6754 92.2976 10.6259C92.3463 10.5442 92.3644 10.4 92.3644 10.3182ZM104.976 19.5678C104.927 19.4226 104.796 19.1792 104.425 19.1792C104.392 19.1792 104.342 19.1964 104.312 19.1964C103.338 20.5754 102.269 21.0919 101.054 21.0919C99.3688 21.0919 98.1705 19.9573 97.7811 18.953C97.5698 18.4183 97.2793 17.2523 97.2793 16.0038C97.2793 14.8229 97.4576 13.8648 97.7654 13.1684C98.4775 11.2902 99.514 10.7067 100.779 10.7067C101.833 10.7067 102.707 11.3083 103.371 12.164C103.647 12.5387 103.937 13.2674 104.195 14.1264C104.262 14.1404 104.407 14.1726 104.553 14.1726C104.65 14.1726 104.878 14.0942 104.941 14.0273C104.927 13.8508 104.765 12.6023 104.765 12.2136C104.765 11.7292 104.894 10.9337 104.894 10.6259C104.796 10.5268 104.473 10.4633 104.262 10.4493C104.019 10.6259 103.937 10.8347 103.711 11.1136C102.804 10.4633 101.961 9.96158 100.115 9.96158C98.414 9.96158 97.0673 10.5442 96.0473 11.5666C94.93 12.6666 94.3144 14.1899 94.3144 16.1349C94.3144 18.207 95.1891 19.9102 96.5985 20.9789C97.4914 21.6258 98.8027 22.064 100.373 22.064C102.349 22.064 103.792 21.318 104.521 20.332C104.811 19.9399 104.844 19.8434 104.976 19.5678ZM118.681 19.0017C118.681 18.7756 118.681 18.6774 118.664 18.5322C118.583 18.4827 118.551 18.4827 118.42 18.4827C118.307 18.4827 118.179 18.4827 118.063 18.5149C117.515 19.7625 116.719 20.7346 116.283 20.9929C116.04 21.1415 115.667 21.1729 115.067 21.1729H113.74C113.222 21.1729 112.815 21.1241 112.67 21.0919C112.427 21.0425 112.169 20.6538 112.055 20.3955C111.941 20.1199 111.876 20.1199 111.876 19.3739V15.8272H112.476C112.637 15.8272 113.028 15.8585 113.463 16.0532C113.869 16.2331 114.032 16.4741 114.193 16.7357C114.34 16.9585 114.435 17.853 114.468 18.0792C114.55 18.1254 114.761 18.1427 114.891 18.1427C115.019 18.1427 115.1 18.1254 115.213 18.0618C115.213 17.6236 115.116 16.4419 115.116 15.7925C115.116 14.9821 115.229 13.8648 115.277 13.2847C115.213 13.2492 115.116 13.2178 114.954 13.2178C114.841 13.2178 114.63 13.2178 114.534 13.2674C114.485 13.4934 114.306 14.1726 114.273 14.2222C114.032 14.6281 113.608 14.9359 113.173 15.0663C112.881 15.1447 112.459 15.1942 112.232 15.1942H111.893V13.6883C111.893 12.1319 111.924 11.6301 111.941 11.3372C111.956 11.1458 111.989 10.9337 112.006 10.7884C112.151 10.7712 112.232 10.7563 112.978 10.7563C113.915 10.7563 114.355 10.7711 114.501 10.7711C114.954 10.8058 115.294 10.9015 115.538 11.0962C116.153 11.5666 116.624 12.3093 117.092 13.1048C117.19 13.1362 117.352 13.1362 117.433 13.1362C117.531 13.1362 117.546 13.1048 117.677 13.0404C117.677 12.051 117.611 10.7712 117.579 10.3676C117.561 10.2051 117.531 10.1555 117.207 10.1555C117.076 10.1555 116.461 10.1233 115.813 10.1233C114.891 10.1233 114.516 10.1415 113.106 10.1415C112.345 10.1415 110.774 10.1555 110.11 10.1555C109.138 10.1555 108.311 10.1233 107.891 10.1233H107.339C107.29 10.1877 107.259 10.3181 107.259 10.3816C107.259 10.4634 107.29 10.6432 107.339 10.7067C107.533 10.7711 108.295 10.7563 108.523 10.8842C108.75 11.0789 108.958 11.1598 109.105 11.938C109.138 12.2804 109.154 13.2179 109.154 13.9639V17.301C109.154 17.9801 109.138 18.9704 109.121 19.3739C109.089 20.006 108.863 20.7669 108.767 20.9145C108.618 21.0284 107.954 21.1241 107.307 21.1555C107.259 21.2546 107.226 21.4171 107.226 21.5128C107.226 21.6086 107.259 21.7249 107.307 21.8058H107.841C108.36 21.8058 110.271 21.7562 110.71 21.7562C111.115 21.7562 111.893 21.7884 112.832 21.7884C113.349 21.7884 114.874 21.8875 118.146 21.8875C118.275 21.8875 118.42 21.9014 118.583 21.852C118.632 21.7711 118.632 21.7389 118.648 21.5937C118.681 21.2685 118.681 20.3137 118.681 19.0017ZM132.644 13.7369V10.4311C132.644 10.1877 132.549 10.1233 132.305 10.1233C131.819 10.1233 129.261 10.1877 126.669 10.1877C124.659 10.1877 122.99 10.1555 122.083 10.1555H120.883C120.674 10.1555 120.609 10.2051 120.609 10.4311V13.5257C120.674 13.5744 120.785 13.5925 120.869 13.5925C120.932 13.5925 121.16 13.5925 121.224 13.557C121.952 12.0857 122.635 11.2902 123.494 10.852C123.978 10.8058 124.933 10.7884 125.193 10.7884C125.209 10.965 125.227 11.5345 125.241 12.2136C125.258 13.3805 125.258 13.8821 125.258 16.6367C125.258 19.0199 125.241 20.0877 125.209 20.346C125.145 20.799 125.226 21.1415 123.282 21.2223C123.232 21.3354 123.232 21.4633 123.232 21.5937C123.232 21.658 123.232 21.7885 123.249 21.852H123.88C124.481 21.852 125.889 21.7884 126.474 21.7884C126.943 21.7884 128.451 21.8379 129.438 21.8379H129.891C129.939 21.7562 129.939 21.5796 129.939 21.498C129.939 21.3998 129.924 21.2859 129.876 21.205C129.696 21.205 128.659 21.2372 128.207 20.8972C128.158 20.7206 128.06 20.2502 128.06 19.6817C128.045 17.9339 128.027 17.2696 128.027 16.1028C128.027 14.596 128.045 13.5744 128.045 10.7711C128.271 10.7711 128.791 10.7563 129.275 10.7711C130.281 11.0468 130.767 11.4214 131.204 12.0015C131.478 12.3761 131.771 13.0058 132.062 13.7691C132.16 13.8013 132.242 13.8013 132.337 13.8013C132.403 13.8013 132.613 13.7691 132.644 13.7369ZM146.886 15.7776C146.886 13.5108 145.881 11.7779 144.001 10.7389C142.998 10.1877 141.993 9.91211 140.924 9.91211C138.559 9.91211 136.42 11.3224 135.462 12.9274C134.847 13.9317 134.526 15.0317 134.526 16.1985C134.526 18.0618 135.433 19.8929 136.841 20.9467C137.912 21.7249 139.125 22.1103 140.536 22.1103C141.396 22.1103 142.204 21.951 142.998 21.6432C143.889 21.3008 144.65 20.7669 145.249 20.1025C146.303 18.953 146.886 17.4784 146.886 15.7776ZM143.954 15.4698C143.954 17.9166 143.273 20.0728 142.35 20.8337C141.881 21.2223 141.297 21.4171 140.632 21.4171C139.727 21.4171 138.931 21.0598 138.479 20.332C137.864 19.3912 137.522 17.6409 137.522 16.1201C137.522 13.8648 138.105 12.1005 139.142 11.2415C139.693 10.7884 140.259 10.611 140.827 10.611C141.703 10.611 142.545 11.0319 143.03 11.7292C143.646 12.5701 143.954 13.7863 143.954 15.4698ZM162.518 10.3181C162.518 10.2545 162.505 10.1415 162.47 10.092H162.099C161.288 10.092 160.772 10.1233 159.312 10.1233C158.809 10.1233 158.063 10.092 157.887 10.092H157.466C157.417 10.1233 157.4 10.3041 157.4 10.3676C157.4 10.4493 157.417 10.5763 157.48 10.6432C157.742 10.7249 158.729 10.8347 159.149 11.1136C159.442 11.4527 159.572 12.1319 159.62 12.7648C159.635 13.0058 159.652 13.2492 159.652 13.9143V17.301C159.652 17.6905 159.635 17.8176 159.62 17.9982C159.344 17.6905 158.956 17.107 158.307 16.3784L152.896 10.3817C152.849 10.3181 152.75 10.2372 152.654 10.1729C152.524 10.1729 152.297 10.1555 152.169 10.1555C151.13 10.1555 149.252 10.1093 148.976 10.1093C148.945 10.1728 148.911 10.2686 148.911 10.3329C148.911 10.3676 148.945 10.5937 148.959 10.6432C149.202 10.7067 149.737 10.7884 150.176 11.2588C150.434 11.5485 150.887 11.9553 151.033 12.2804C151.082 12.3934 151.098 12.5701 151.098 12.797C151.098 13.6387 151.049 14.8229 151.049 15.9542V19.246C151.049 19.7799 151.002 20.2008 150.952 20.4764C150.614 20.8337 150.093 21.0919 149.252 21.3007C149.219 21.3849 149.189 21.5128 149.189 21.5937C149.189 21.6432 149.202 21.8058 149.235 21.8206H149.542C149.868 21.8206 150.614 21.7711 151.098 21.7711C151.811 21.7711 152.297 21.8206 152.962 21.8206H153.934C153.997 21.8058 154.015 21.6085 154.015 21.545C154.015 21.4806 153.997 21.3502 153.966 21.2859C153.4 21.1415 152.572 21.0103 152.021 20.2816C151.908 20.0381 151.811 18.84 151.811 18.2706C151.811 17.754 151.795 17.0435 151.795 16.0855C151.795 14.8055 151.811 13.6882 151.828 13.1222C151.926 13.2352 152.039 13.3804 152.119 13.4762L159.605 21.8875C159.685 21.9659 159.976 21.9832 160.058 21.9832C160.138 21.9832 160.186 21.9832 160.252 21.951C160.285 21.8693 160.398 21.6086 160.398 21.2223C160.398 20.752 160.381 20.2643 160.381 20.0242V13.2674C160.381 11.2414 161.337 10.6754 162.454 10.6259C162.505 10.5442 162.518 10.3999 162.518 10.3181ZM55.1876 28.4858C55.1876 28.4223 55.1554 28.3233 55.1075 28.2771H54.6388C54.1354 28.2771 53.4546 28.3084 52.8712 28.3084C52.2243 28.3084 51.4956 28.2771 51.0244 28.2771H50.4418C50.3931 28.3728 50.3758 28.4041 50.3758 28.4858C50.3758 28.5527 50.3931 28.6162 50.4245 28.6979C50.4913 28.6979 51.673 28.7119 51.8834 29.0057C52.0617 29.2491 52.4504 29.8474 52.5147 30.2039C52.5461 30.3664 52.6451 31.0307 52.6451 31.9863C52.6451 33.362 52.6451 34.2845 52.6294 34.7722C52.5955 35.6807 52.4982 36.3921 52.3356 36.926C51.8835 38.3363 50.8313 39.0328 49.1619 39.0328C48.4481 39.0328 47.8333 38.8883 47.2657 38.6268C46.2118 38.1101 45.7101 37.1199 45.6952 36.586L45.6127 31.7281L45.5978 29.7509C45.5978 29.3771 46.0666 29.037 46.2283 28.8432C46.3587 28.7788 47.0708 28.7119 47.476 28.6806C47.5256 28.5848 47.5569 28.5353 47.5569 28.4537C47.5569 28.3727 47.509 28.2911 47.4439 28.2449L46.8291 28.2597C46.2283 28.277 45.4353 28.2911 44.9335 28.2911C44.1554 28.2911 43.5547 28.2771 43.0702 28.2771H42.3911C42.3243 28.3233 42.3086 28.4223 42.3086 28.5031C42.3086 28.5848 42.3243 28.6484 42.3738 28.6979C42.8904 28.7614 43.2312 28.811 43.4589 28.8572C43.7337 29.0198 43.9293 29.2954 44.0267 29.571C44.0424 29.7831 44.0746 30.2997 44.0746 31.3212V35.2104C44.0746 36.2147 44.124 36.926 44.2371 37.3815C44.4459 38.2232 44.8998 38.8883 45.6457 39.3727C46.4396 39.8918 47.4282 40.1501 48.6107 40.1501C49.6966 40.1501 50.6193 39.924 51.3974 39.4858C52.2069 39.0501 52.7086 38.3363 53.0008 37.332C53.1617 36.7345 53.2608 36.0843 53.2608 35.4051V32.2941C53.2608 31.7107 53.292 30.9821 53.292 30.6891C53.3094 29.8152 53.5364 29.2954 53.7798 28.9067C54.038 28.8258 54.265 28.7788 55.124 28.6806C55.1554 28.6162 55.1876 28.5668 55.1876 28.4858ZM70.1898 28.4041C70.1898 28.3406 70.1741 28.2911 70.1403 28.2449H69.7689C68.9594 28.2449 68.602 28.2771 67.1456 28.2771C66.6414 28.2771 65.897 28.2449 65.7204 28.2449H65.2963C65.2501 28.2771 65.2327 28.3901 65.2327 28.4537C65.2327 28.5353 65.2501 28.5667 65.3137 28.6311C65.5736 28.7119 66.5622 28.8258 66.983 29.1014C67.2727 29.4438 67.4039 30.123 67.4526 30.7551C67.4675 30.9961 67.4847 31.2404 67.4847 31.9047V36.7172C67.4847 37.1059 67.4675 37.2363 67.4526 37.4137C67.177 37.1059 66.7074 36.5052 66.0762 35.7591L59.8862 28.5353C59.8368 28.4685 59.741 28.3901 59.6429 28.3232C59.5132 28.3232 59.3523 28.3084 59.222 28.3084C58.1855 28.3084 57.2787 28.2597 57.0013 28.2597C56.9708 28.3233 56.9551 28.3555 56.9551 28.4223C56.9551 28.4537 56.9708 28.5848 56.9857 28.6311C57.2291 28.6979 57.9421 28.7788 58.235 29.0865C58.4934 29.3771 58.882 29.7162 59.0273 30.0413C59.0767 30.1543 59.0941 30.3319 59.0941 30.5612C59.0941 31.4029 59.0446 32.9411 59.0446 34.0758V37.5268C59.0446 38.0607 58.9959 38.4816 58.948 38.7572C58.6064 39.1145 58.0882 39.3727 57.2456 39.5848C57.2134 39.6657 57.1813 39.6978 57.1813 39.7788C57.1813 39.8282 57.1961 39.924 57.2291 39.9388H57.537C57.8604 39.9388 58.6064 39.8918 59.0941 39.8918C59.8054 39.8918 60.1289 39.9388 60.7924 39.9388H61.7669C61.8313 39.924 61.8454 39.7936 61.8454 39.7292C61.8454 39.6657 61.8313 39.631 61.7975 39.5667C61.2322 39.4223 60.4061 39.2911 59.8549 38.5624C59.741 38.319 59.6428 37.0886 59.6428 36.5225C59.6428 36.0026 59.6271 35.1609 59.6271 34.2061C59.6271 32.9262 59.6428 31.1587 59.6602 30.5926C59.7575 30.7065 59.9036 30.8831 60.0158 31.0134L67.6952 40.0057C67.7752 40.0865 67.8082 40.1014 67.8916 40.1014C67.9691 40.1014 67.9213 40.1014 67.9873 40.0692C68.0187 39.9875 68.0682 39.7292 68.0682 39.3405C68.0682 38.8702 68.0525 38.3857 68.0525 38.1424V31.2577C68.0525 29.2318 69.0089 28.6624 70.1262 28.6162C70.1741 28.5353 70.1898 28.4858 70.1898 28.4041ZM77.5126 39.7292C77.5126 39.6484 77.4978 39.5667 77.4648 39.5032C77.2205 39.4858 76.5578 39.4222 76.265 39.3579C76.0058 39.05 75.8293 38.6937 75.7129 38.1102C75.6989 37.332 75.6823 35.5677 75.6823 34.0584V29.9456C75.6823 29.5075 75.8598 29.165 75.9745 29.0693C76.2823 28.7787 76.897 28.7119 77.4153 28.6484C77.4491 28.5848 77.4648 28.5031 77.4648 28.4396C77.465 28.4033 77.4578 28.3672 77.4436 28.3337C77.4294 28.3002 77.4086 28.27 77.3823 28.2448H76.9136C76.2327 28.2448 75.2606 28.3233 74.7086 28.3233C74.3711 28.3233 73.3974 28.2771 72.686 28.2597H72.3287C72.28 28.3233 72.2479 28.3233 72.2479 28.4685C72.2479 28.5353 72.2635 28.5989 72.28 28.6806C73.0731 28.7466 73.4303 28.8258 73.5417 28.9067C73.7382 29.0544 74.0138 29.4092 74.079 30.2856C74.0938 30.5926 74.1112 31.4202 74.1269 32.9089C74.1425 33.7184 74.1606 34.8218 74.1606 35.7591C74.1606 36.232 74.1269 37.4459 74.1112 38.0111C74.079 38.4006 73.9981 38.7744 73.8834 38.9832C73.6903 39.1458 73.4955 39.4363 72.313 39.5205C72.28 39.5848 72.2636 39.6978 72.2636 39.7614C72.2636 39.8917 72.2973 39.8917 72.2973 39.9735H72.5713C73.2199 39.9735 74.2242 39.8917 75.066 39.8917C75.3093 39.8917 76.378 39.9388 76.9136 39.9388H77.4491C77.4978 39.8604 77.5126 39.7936 77.5126 39.7292ZM91.6995 28.4396C91.6995 28.3727 91.6822 28.2771 91.6179 28.2597H91.0667C90.678 28.2597 90.0623 28.2911 89.7867 28.2911C88.4746 28.2911 88.0051 28.2102 87.8103 28.2102H87.5199C87.4852 28.2911 87.4357 28.3406 87.4357 28.4223C87.4357 28.4858 87.4704 28.5353 87.4704 28.5989C87.8498 28.6445 88.2239 28.7263 88.5877 28.8432C88.7825 29.037 88.9945 29.4265 88.9945 29.8647C88.9945 30.024 88.832 30.7873 88.6026 31.3386L85.9966 37.7528L82.7948 29.6353C82.8426 29.2491 83.0531 28.8745 83.327 28.7293C83.601 28.6979 83.9385 28.5989 84.3767 28.5989C84.4089 28.5353 84.4403 28.4396 84.4403 28.3728C84.4403 28.3084 84.4262 28.2102 84.3593 28.1953H83.9533C83.4566 28.1953 82.6966 28.2597 81.8375 28.2597C81.4654 28.2597 80.7367 28.2275 80.0229 28.2275H79.3916C79.3587 28.2911 79.3281 28.3233 79.3281 28.4223C79.3281 28.518 79.3438 28.5526 79.3759 28.6162C79.829 28.7293 80.2672 28.9067 80.7367 29.165C81.0446 29.6204 81.7097 31.2577 82.0661 32.1134L83.4071 35.3556C84.5219 38.0466 85.1862 39.8423 85.2679 40.1501C85.3488 40.1996 85.2679 40.2459 85.4131 40.2459C85.5584 40.2459 85.5435 40.2169 85.5757 40.1361L89.7546 30.0908C89.8998 29.7335 90.1267 29.3944 90.3379 29.165C90.5963 28.8745 91.131 28.7614 91.6327 28.6483C91.65 28.5848 91.6995 28.5181 91.6995 28.4396ZM103.694 37.2825C103.694 37.0564 103.694 36.9573 103.679 36.8129C103.597 36.7635 103.566 36.7635 103.436 36.7635C103.322 36.7635 103.339 36.7635 103.225 36.7981C102.868 37.9798 102.254 38.8562 101.556 39.277C101.313 39.4222 100.875 39.4536 100.18 39.4536H98.3647C97.7987 39.4363 97.4422 39.4049 97.2953 39.3727C97.0527 39.3265 96.7927 38.9345 96.6813 38.6762C96.565 38.4006 96.5014 38.3041 96.5014 37.5589V33.8637H97.0205C97.5387 33.8637 97.9596 33.8984 98.3969 34.093C98.8029 34.2705 99.1107 34.5288 99.2716 34.7871C99.4186 35.0164 99.4672 35.9069 99.4994 36.1338C99.5795 36.1825 99.6289 36.1974 99.7577 36.1974C99.8872 36.1974 99.9029 36.1825 100.018 36.1165C100.018 35.6807 99.9202 34.4966 99.9202 33.8496C99.9202 33.0393 100.033 32.0499 100.081 31.4664C100.018 31.4343 99.9846 31.4029 99.8229 31.4029C99.7082 31.4029 99.662 31.4029 99.5638 31.4492C99.5159 31.6785 99.3847 32.3577 99.3541 32.4072C99.1108 32.8099 98.5422 33.135 98.1065 33.2662C97.8135 33.3471 97.3926 33.3966 96.7771 33.3966H96.5187V31.8065C96.5187 30.2534 96.5509 29.6205 96.565 29.3275C96.5822 29.1327 96.6145 28.9239 96.6318 28.7788C96.7771 28.7614 97.2474 28.7466 97.9934 28.7466C98.9308 28.7466 99.6289 28.7614 99.775 28.7614C100.228 28.7936 100.568 28.8918 100.811 29.0866C101.605 29.7022 101.816 30.1082 102.254 31.0951C102.351 31.1273 102.365 31.1273 102.449 31.1273C102.544 31.1273 102.562 31.0951 102.69 31.0307C102.69 30.0414 102.625 28.924 102.593 28.518C102.576 28.3555 102.544 28.3084 102.221 28.3084C102.091 28.3084 101.476 28.2771 100.829 28.2771C99.9029 28.2771 99.5316 28.291 98.1214 28.291C97.3604 28.291 96.017 28.3084 95.3519 28.3084C94.3798 28.3084 94.1677 28.2771 93.7453 28.2771H93.1915C93.142 28.3406 93.1082 28.4041 93.1082 28.4685C93.1082 28.5527 93.1421 28.6311 93.1915 28.6979C93.3871 28.7614 94.1537 28.7466 94.3799 28.8745C94.6059 29.0693 94.8164 29.1188 94.9632 29.8961C94.9954 30.236 95.0128 31.3386 95.0128 32.0845V35.4192C95.0128 36.0983 94.9955 37.219 94.9789 37.6225C94.9459 38.2554 94.7189 39.05 94.6224 39.1953C94.4755 39.3084 93.8112 39.4049 93.1576 39.4363C93.1082 39.5353 93.0752 39.5988 93.0752 39.6978C93.0752 39.7936 93.1082 39.8423 93.1576 39.924H93.6965C94.2173 39.924 95.5145 39.8744 95.9502 39.8744C96.3562 39.8744 96.9066 39.9066 97.8465 39.9066C98.3647 39.9066 99.8872 40.0057 103.161 40.0057C103.29 40.0057 103.436 40.023 103.597 39.9735C103.647 39.8917 103.647 39.8605 103.663 39.7152C103.694 39.3901 103.694 38.5946 103.694 37.2825ZM117.287 39.7441C117.287 39.6657 117.256 39.5667 117.207 39.5031C117.045 39.5031 116.38 39.4709 116.136 39.291C116.056 39.1953 115.927 39.0014 115.862 38.8883C115.651 38.1423 115.425 37.4772 115.181 36.8625C114.842 36.0521 114.371 35.2888 113.983 34.9348C113.837 34.8044 113.384 34.5924 112.816 34.4009C112.557 34.3018 112.345 34.221 112.151 34.1393C112.395 34.0931 112.508 34.0758 112.816 34.0436C113.87 33.9132 114.226 33.6871 114.534 33.4428C115.181 32.9584 115.602 32.2298 115.602 31.3534C115.602 30.0413 114.76 28.7936 113.577 28.4223C113.189 28.3084 112.491 28.2449 111.633 28.2449C110.418 28.2449 109.51 28.3555 108.7 28.3555C108.459 28.3555 107.664 28.3233 107.098 28.3233C106.854 28.3233 106.239 28.2911 106.141 28.2911C106.094 28.4041 106.061 28.4396 106.061 28.5032C106.061 28.5667 106.076 28.6624 106.094 28.7293C106.368 28.7614 106.87 28.8258 107.13 28.8745C107.519 29.165 107.649 29.3944 107.811 29.7508C107.89 30.2674 107.907 31.7281 107.907 34.0122C107.907 35.6635 107.924 37.7389 107.841 38.3536C107.794 38.7572 107.649 39.2415 107.178 39.4363C106.968 39.4709 106.579 39.5353 106.254 39.5526C106.206 39.6311 106.172 39.6978 106.172 39.7787C106.172 39.8282 106.206 39.8917 106.239 39.9735C106.465 39.9735 108.328 39.924 108.846 39.924C109.885 39.924 110.143 39.9735 111.065 39.9735C111.099 39.9066 111.132 39.8605 111.132 39.7936C111.132 39.6806 111.099 39.6162 111.065 39.5526C110.744 39.5205 110.337 39.4223 110.159 39.3901C109.753 39.1953 109.464 38.8066 109.464 38.2381L109.446 34.1889C109.577 34.1715 110.046 34.1715 110.174 34.1715C110.612 34.1715 111.051 34.2061 111.471 34.4009C112.087 34.6732 112.67 35.1122 113.059 35.7129C113.577 36.5225 113.918 38.0607 114.081 39.2415C114.128 39.5848 114.258 39.8745 114.566 39.9066C114.695 39.924 114.891 39.9562 115.506 39.9562H117.189C117.256 39.8918 117.287 39.8282 117.287 39.7441ZM113.885 31.1587C113.885 32.1951 113.059 33.3619 112.104 33.574C111.714 33.6549 111.147 33.7044 110.418 33.7044C110.224 33.7044 109.672 33.7044 109.43 33.6689L109.414 32.2446V29.1823C109.414 28.9702 109.464 28.8572 109.527 28.811C109.592 28.7614 110.256 28.7119 110.661 28.7119C112.183 28.7119 112.881 28.8572 113.432 29.6527C113.74 30.0908 113.885 30.5926 113.885 31.1587ZM128.221 36.7486C128.221 35.4514 127.641 34.5635 126.391 33.8984C126.05 33.7044 125.453 33.4923 124.594 33.2489C123.605 32.9724 122.779 32.6506 122.245 32.3577C121.889 32.1629 121.288 31.629 121.288 30.5926C121.288 29.5569 122.343 28.6979 123.572 28.6979C124.544 28.6979 125.323 29.1823 125.792 29.8293C126.199 30.3986 126.344 30.6569 126.796 31.6785C126.846 31.6925 126.909 31.7107 126.959 31.7107C127.104 31.7107 127.235 31.629 127.316 31.5474C127.267 31.1413 127.187 30.5753 127.187 30.0908C127.187 29.67 127.284 29.1188 127.334 28.8258C127.202 28.6311 127.056 28.5989 126.846 28.5989C126.62 28.7466 126.408 28.9702 126.213 29.1823C125.145 28.3233 124.27 28.178 123.46 28.178C121.468 28.178 120.043 29.5075 120.043 31.2718C120.043 31.8733 120.252 32.4559 120.64 33.0541C120.998 33.5559 121.517 33.9454 122.214 34.2383C122.683 34.4298 124.788 35.0652 125.08 35.1791C126.376 35.6807 126.863 36.1165 126.863 37.2652C126.863 37.8345 126.62 38.3363 126.149 38.9024C125.728 39.4223 125.063 39.6657 124.351 39.6657C123.59 39.6657 122.277 39.3405 121.629 38.4675C121.24 37.9649 120.69 36.9111 120.527 36.279C120.414 36.2468 120.414 36.2468 120.301 36.2468C120.204 36.2468 120.089 36.279 119.993 36.3426C119.993 36.5547 120.059 37.6225 120.059 37.9476C120.059 38.7398 119.912 39.1285 119.88 39.3901C119.928 39.5526 120.204 39.7152 120.399 39.7152C120.738 39.4222 121.093 39.1953 121.21 39.1953C121.305 39.1953 121.451 39.2415 121.595 39.3405C122.649 40.023 123.525 40.1501 124.303 40.1501C126.588 40.1501 128.221 39.0014 128.221 36.7486ZM136.226 39.7292C136.226 39.6484 136.209 39.5667 136.177 39.5032C135.936 39.4858 135.27 39.4222 134.978 39.3579C134.72 39.05 134.542 38.6937 134.429 38.1102C134.412 37.332 134.395 35.5677 134.395 34.0584V29.9456C134.395 29.5075 134.575 29.165 134.687 29.0693C134.994 28.7787 135.611 28.7119 136.128 28.6484C136.161 28.5848 136.177 28.5031 136.177 28.4396C136.177 28.3406 136.128 28.2771 136.097 28.2448H135.628C134.947 28.2448 133.974 28.3233 133.423 28.3233C133.083 28.3233 132.111 28.2771 131.399 28.2597H131.041C130.993 28.3233 130.961 28.3233 130.961 28.4685C130.961 28.5353 130.978 28.5989 130.993 28.6806C131.789 28.7466 132.144 28.8258 132.257 28.9067C132.451 29.0544 132.726 29.4092 132.793 30.2856C132.809 30.5926 132.823 31.4202 132.839 32.9089C132.857 33.7184 132.872 34.8218 132.872 35.7591C132.872 36.232 132.839 37.4459 132.823 38.0111C132.793 38.4006 132.71 38.7744 132.598 38.9832C132.402 39.1458 132.208 39.4363 131.026 39.5205C130.993 39.5848 130.978 39.6978 130.978 39.7614C130.978 39.8917 131.007 39.8917 131.007 39.9735H131.285C131.934 39.9735 132.938 39.8917 133.779 39.8917C134.023 39.8917 135.09 39.9388 135.629 39.9388H136.161C136.209 39.8604 136.226 39.7936 136.226 39.7292ZM149.691 31.7281V28.5848C149.691 28.3406 149.592 28.277 149.349 28.277C148.863 28.277 146.627 28.3406 144.035 28.3406C142.025 28.3406 140.681 28.3084 139.774 28.3084H138.575C138.366 28.3084 138.299 28.3555 138.299 28.5848V31.516C138.366 31.5655 138.415 31.5795 138.492 31.5795C138.56 31.5795 138.623 31.5795 138.688 31.5474C139.32 30.1371 139.644 29.3944 140.73 28.8432C141.215 28.7936 142.916 28.7788 143.177 28.7788C143.192 28.9562 143.209 29.5223 143.225 30.2039C143.242 31.3708 143.242 32.0004 143.242 34.7582C143.242 37.1381 143.225 38.3685 143.192 38.6268C143.129 39.0822 143.209 39.4222 141.265 39.5031C141.215 39.6161 141.215 39.6484 141.215 39.7788C141.215 39.8423 141.215 39.9066 141.232 39.9735H141.864C142.463 39.9735 143.257 39.9066 143.841 39.9066C144.31 39.9066 145.202 39.9562 146.19 39.9562H146.643C146.692 39.8744 146.692 39.7936 146.692 39.7152C146.692 39.6161 146.676 39.5667 146.627 39.4858C146.449 39.4858 145.413 39.5205 144.958 39.178C144.909 39.0014 144.811 38.531 144.811 37.9649C144.797 36.2147 144.78 35.3878 144.78 34.221C144.78 32.715 144.797 31.5655 144.797 28.7614C145.023 28.7614 146.222 28.7466 146.71 28.7614C147.712 29.037 148.101 29.4092 148.538 29.9918C148.928 30.5117 149.025 30.9821 149.266 31.7594C149.366 31.7916 149.413 31.7916 149.511 31.7916C149.574 31.7916 149.657 31.7594 149.691 31.7281ZM162.779 28.3901C162.779 28.291 162.714 28.2597 162.682 28.1953C162.018 28.1953 161.144 28.2449 160.802 28.2449C159.975 28.2449 158.973 28.178 158.535 28.178C158.485 28.2771 158.468 28.291 158.468 28.3728C158.469 28.4388 158.48 28.5044 158.502 28.5667C158.973 28.6624 159.652 28.7788 159.782 29.0057C159.895 29.2145 159.928 29.3771 159.928 29.6354C159.928 29.8293 159.913 30.024 159.83 30.236C159.685 30.6396 159.377 31.2717 158.94 32.1629C158.194 33.6689 157.724 34.6097 157.464 34.981C157.044 34.2705 156.104 32.3923 155.879 31.9047L154.97 29.9283C154.938 29.8647 154.905 29.6353 154.905 29.4901C154.905 29.2813 154.938 29.1328 154.97 29.0692C155.117 28.7788 155.619 28.7466 156.299 28.6624C156.33 28.5848 156.347 28.4858 156.347 28.4223C156.347 28.3084 156.299 28.3406 156.25 28.2597H155.959C154.873 28.2597 155.197 28.3084 153.333 28.3084C152.541 28.3084 151.584 28.2597 151.455 28.2597C151.39 28.3727 151.357 28.3901 151.357 28.5031C151.357 28.5667 151.373 28.6162 151.424 28.6979C152.507 28.9562 152.831 29.1501 152.945 29.3622L155.781 34.9174C156.056 35.4374 156.217 35.8401 156.299 36.1338C156.412 36.586 156.43 37.2512 156.43 38.0755C156.43 38.7744 156.186 39.1458 155.91 39.3265C155.797 39.3901 154.985 39.5031 154.614 39.5353C154.549 39.6483 154.531 39.6806 154.531 39.7614C154.531 39.8423 154.565 39.8917 154.582 39.9562C155.408 39.9562 156.267 39.9389 156.753 39.9389C157.093 39.9389 157.611 39.9562 158.567 39.9734C159.117 39.9875 159.539 40.0057 159.83 40.0057C159.863 39.9388 159.913 39.8744 159.913 39.7936C159.913 39.7152 159.895 39.6657 159.847 39.5848C159.328 39.5205 158.601 39.4222 158.438 39.2597C158.177 38.9832 158.05 38.8562 158.015 38.2232L157.887 35.7914C157.87 35.6139 157.935 35.4514 157.952 35.4051C157.999 35.2253 158.063 35.08 158.127 34.9497L160.624 30.0091C160.849 29.5882 161.337 29.1188 161.661 28.924C161.89 28.7788 162.391 28.6806 162.714 28.5989C162.749 28.518 162.779 28.4537 162.779 28.3901Z" fill="black"/>
</svg>
