<svg width="154" height="45" viewBox="0 0 154 45" fill="none" xmlns="http://www.w3.org/2000/svg">
<path d="M55.4092 34.8244H58.2242C61.2734 34.8244 62.8112 36.8841 62.8112 38.8902C62.8112 40.9227 61.821 43.0595 58.3804 43.0595C56.1909 43.0595 55.4092 42.3561 55.4092 40.3753V34.8244ZM53.2473 41.1303C53.2473 42.7736 52.8294 43.2683 50.694 43.2683H50.0938V43.763H59.6312C63.8278 43.763 65.2612 40.8709 65.2612 38.8122C65.2612 36.7797 63.8278 35.1893 61.3789 34.4594V34.4068C63.1244 34.0944 64.349 32.7139 64.349 31.229C64.349 29.9771 63.8278 29.0899 62.7594 28.3361C61.821 27.6576 59.8149 27.318 57.5208 27.318C57.0252 27.318 55.0454 27.3444 53.6111 27.3974C52.8559 27.4235 51.0578 27.5279 50.3279 27.5521V28.0479H51.2401C53.0635 28.0479 53.2473 28.8293 53.2473 30.3156V41.1303ZM55.4092 27.8918C56.0612 27.8656 57.1308 27.8138 57.7034 27.8138C60.9084 27.8138 62.0033 29.4813 62.0033 31.3059C62.0033 33.3395 60.7525 34.3286 58.2507 34.3286H55.4092V27.8918ZM72.4026 36.4666C71.8024 36.4666 71.4113 36.4919 70.7869 36.4151V27.8656C71.2551 27.8138 71.5948 27.8138 72.0895 27.8138C76.1057 27.8138 77.1984 29.6901 77.1984 32.1137C77.1984 35.2411 75.2979 36.4666 72.4026 36.4666ZM91.6602 28.0479V27.5521H85.3269V28.0479C86.7853 28.1259 87.2823 28.5162 87.2823 29.9242V41.027C87.2823 42.721 86.959 43.1617 85.4687 43.2596C83.4801 43.1552 82.636 42.3746 81.2104 40.9502L79.1526 38.8902C77.9294 37.6658 77.1477 36.9348 76.1828 36.1798C78.3194 35.5543 79.6473 33.9121 79.6473 31.9578C79.6473 29.2987 77.4851 27.318 72.6632 27.318C70.9681 27.318 70.4473 27.3444 69.3788 27.3974C68.3104 27.4488 66.72 27.5521 66.0956 27.5521V28.0479H66.6682C68.1795 28.0479 68.6236 28.5162 68.6236 30.133V41.1053C68.6236 42.8519 68.0751 43.2683 66.5385 43.2683H66.0956V43.763H73.4722V43.2683H72.872C71.4113 43.2683 70.7869 42.8769 70.7869 41.3141V36.9083C71.2034 36.9348 71.5419 36.9624 72.1156 36.9624C72.8202 36.9624 73.237 36.9348 73.8887 36.9083C74.5153 37.3262 75.4287 38.0812 76.574 39.229L78.2941 40.9502C80.5464 43.2044 81.5082 43.9169 85.7521 43.763H91.6602V43.2683C89.8621 43.2683 89.4453 42.7472 89.4453 41.2097V30.1595C89.4453 28.414 90.0182 28.0479 91.6602 28.0479ZM93.4321 39.8027C93.9808 42.1219 95.8031 43.4771 97.8367 43.4771C99.5832 43.4771 101.433 42.4605 101.433 40.4018C101.433 36.6481 93.0671 35.5025 93.0671 30.942C93.0671 28.7779 95.0481 27.1621 97.7069 27.1621C99.8942 27.1621 100.338 27.8138 101.251 27.8138C101.46 27.8138 101.563 27.7612 101.72 27.5521H102.137L102.579 30.863H102.137C101.407 28.9866 99.7391 27.7885 97.9411 27.7885C96.2209 27.7885 95.0216 28.7779 95.0216 30.2374C95.0216 33.9385 103.387 34.9299 103.387 39.7234C103.387 42.2778 101.12 44.1806 98.0708 44.1806C96.6374 44.1806 94.814 43.4771 94.449 43.4771C94.2149 43.4771 94.0311 43.6068 93.9267 43.763H93.485L92.9377 39.8027H93.4321ZM113.422 41.3667C113.422 42.7736 113.89 43.2683 115.48 43.2683H116.446V43.763H108.235V43.2683H109.2C110.789 43.2683 111.258 42.7736 111.258 41.3667V28.492H106.724C105.682 28.492 105.212 29.0899 104.82 31.3841H104.351L104.768 27.1621H105.263C105.291 27.318 105.395 27.4235 105.551 27.4742C105.707 27.5279 105.89 27.5521 106.072 27.5521H118.607C118.973 27.5521 119.364 27.4742 119.416 27.1621H119.91L120.328 31.3841H119.858C119.469 29.0899 118.999 28.492 117.957 28.492H113.422V41.3667ZM139.41 35.2158C139.41 30.5244 135.188 27.1621 130.262 27.1621C124.712 27.1621 120.723 30.8365 120.723 36.0225C120.723 40.8973 125.025 44.1806 130.132 44.1806C135.188 44.1806 139.41 40.4797 139.41 35.2158ZM136.96 36.0751C136.96 39.7751 134.927 43.5278 130.679 43.5278C126.482 43.5278 123.174 40.0895 123.174 35.2158C123.174 32.0876 124.996 27.8138 129.584 27.8138C133.884 27.8138 136.96 31.229 136.96 36.0751ZM151.518 43.763H139.869V43.2683H140.728C141.927 43.2683 142.37 42.8769 142.37 41.5482V30.0022C142.37 28.6217 141.953 28.0479 140.312 28.0479H139.947V27.5521H147.635V28.0479H146.67C144.977 28.0479 144.533 28.2305 144.533 29.8463V41.8602C144.533 42.5637 144.82 42.8254 145.576 42.8254H149.406C150.943 42.8254 151.412 42.2263 153.056 39.9586H153.524L151.518 43.763Z" fill="black"/>
<path d="M29.7732 20.1031C29.7543 18.5861 29.2388 15.4855 25.6106 13.7256C29.2951 14.8962 31.0678 18.0101 31.2482 20.3327C35.1173 21.1043 38.5511 22.9246 44.1263 21.0021L44.1449 20.99C44.1449 20.99 36.809 21.057 33.741 18.8379C35.3261 18.8973 37.1498 18.5388 37.7478 17.642C38.384 16.6867 38.4501 15.6996 40.0197 15.6492C40.9013 15.6205 43.8911 15.8437 44.2043 11.4534C43.2481 13.0683 42.2115 13.7355 40.6472 13.3365C39.6483 13.0827 37.8246 12.3176 36.5209 13.8751C35.4449 15.1599 34.2898 15.8282 32.4464 15.6292C33.1839 14.6323 44.1747 0.361577 44.1747 0.361577C44.1747 0.361577 30.0942 11.6625 29.317 12.3207C29.1676 10.2575 29.7853 9.50029 30.6117 8.59337C31.289 7.85162 32.4649 6.84678 31.5285 4.7265C30.7724 3.01284 30.8711 1.97648 32.9343 0.332031C31.2901 0.451903 28.7807 1.55749 29.0773 4.57708C29.2577 6.40049 27.9649 6.55892 27.4933 6.81948C26.2679 7.49763 26.1083 9.47074 26.0678 11.0052C25.9294 10.506 24.1454 2.83809 23.5176 0.357356V20.99H23.5649C25.9547 20.049 27.9419 19.9053 29.7732 20.1031Z" fill="#BF2F38"/>
<path d="M64.796 8.96434V9.33127C63.5011 9.35125 63.0373 9.87211 63.0373 11.1099V16.3278C63.0373 18.7238 61.5105 21.2937 57.3172 21.2937C53.626 21.2937 51.7322 19.1878 51.7322 16.4243V10.7813C51.7322 9.54457 51.3838 9.35125 50.0703 9.33127V8.96434H55.0363V9.33127H54.8627C53.7999 9.33127 53.3358 9.62167 53.3358 10.7427V16.1145C53.3358 18.7238 54.8627 20.2892 57.7424 20.2892C59.9254 20.2892 62.149 19.3811 62.149 16.0956V11.5925C62.149 9.73704 61.8589 9.4095 60.2541 9.33127V8.96434H64.796ZM67.3361 19.3032C67.3361 20.366 67.5869 20.6178 68.63 20.6178V20.9848H64.7465V20.6178C65.596 20.6178 66.0415 20.1538 66.0415 19.4V15.3418C66.0415 14.6273 65.9632 14.4908 65.461 14.3943L64.8036 14.2601V13.95L67.0263 13.139H67.3361V14.6459C68.63 13.8346 69.7125 13.1191 70.6602 13.1191C71.9737 13.1191 72.7276 14.0854 72.7276 16.0177C72.7276 18.5887 72.5925 19.091 72.5725 19.8451C72.554 20.366 72.8629 20.6178 73.6553 20.6178H74.0808V20.9848H69.9246V20.6178C70.4852 20.5979 70.8138 20.4628 71.026 20.2506C71.3943 19.8834 71.4329 18.4722 71.4329 15.9023C71.4329 14.3558 70.6788 13.8732 69.9061 13.8732C69.2873 13.8732 68.3407 14.414 67.3361 15.1099V19.3032ZM76.9836 8.67395C77.4476 8.67395 77.8345 9.00261 77.8345 9.4095C77.8345 9.81498 77.4476 10.1436 76.9836 10.1436C76.5199 10.1436 76.1527 9.81498 76.1527 9.4095C76.1527 9.00261 76.5199 8.67395 76.9836 8.67395ZM77.7763 19.5165C77.7763 20.1924 78.1432 20.6178 79.1678 20.6178V20.9848H74.8777V20.6178C76.0559 20.6178 76.4813 20.2309 76.4813 19.2064V15.3229C76.4813 14.5691 76.3845 14.4723 75.8822 14.3755L74.9745 14.2019V13.8918L77.4859 13.0226H77.7763V19.5165ZM83.5811 21.1587L80.7793 14.7427C80.4877 14.0668 80.2373 13.8346 79.9283 13.7764L79.3281 13.6799V13.3324H83.2721V13.6799C82.0925 13.7181 81.7256 13.8732 82.1882 14.7812L84.2381 19.5933L86.209 15.1296C86.5576 14.3369 86.3829 13.7764 84.9725 13.6799V13.3324H88.3338V13.6799C87.6007 13.8149 87.1741 14.2404 86.8081 15.091L84.1416 21.1587H83.5811ZM95.5433 16.0759V15.6319C94.907 14.9931 94.9642 13.1191 92.3545 13.1191C89.9968 13.1191 88.625 15.2064 88.625 17.2555C88.625 19.4965 90.0936 21.2169 91.9876 21.2169C93.3988 21.2169 94.6155 20.2506 95.4279 19.2261L95.2146 18.9942C94.4816 19.8637 93.7274 20.2506 92.7614 20.2506C91.2346 20.2506 89.8232 18.8977 89.8232 16.8883C89.8232 16.6364 89.8628 16.366 89.9011 16.0759H95.5433ZM89.9585 15.5736C90.4037 13.7764 91.3697 13.4863 92.0084 13.4863C92.935 13.4863 93.7077 14.3172 93.921 15.5736H89.9585ZM99.2706 19.5747C99.2706 20.366 99.5609 20.6178 100.526 20.6178H101.261V20.9848H96.6798V20.6178C97.6658 20.5979 97.9759 20.1924 97.9759 19.1678V14.7041L96.6798 14.2404V13.9117L98.8836 13.139H99.2706V15.1867H99.3091C100.275 13.6028 100.507 13.2356 101.145 13.2356C101.378 13.2356 101.435 13.2544 101.802 13.4095C101.996 13.4863 102.343 13.5631 102.808 13.6996L102.343 14.8581C101.988 14.8075 101.643 14.7033 101.32 14.5491C101.107 14.4526 100.875 14.3558 100.642 14.3558C100.294 14.3558 100.082 14.5876 99.8896 14.8581C99.6378 15.2064 99.4245 15.5351 99.2706 15.8255V19.5747ZM104.142 19.0328C104.373 20.1924 105.107 20.8497 105.978 20.8497C106.749 20.8497 107.35 20.2695 107.35 19.5747C107.35 19.1678 107.253 18.9174 106.731 18.3951C105.358 17.0234 103.832 16.8883 103.832 15.2835C103.832 14.0083 104.838 13.1191 106.305 13.1191C106.828 13.1191 107.37 13.2356 107.852 13.428L107.89 15.1867H107.562C107.427 14.2019 106.788 13.5831 106.015 13.5831C105.378 13.5831 104.838 14.0271 104.838 14.6656C104.838 16.366 108.431 16.6564 108.431 19.0142C108.431 20.2695 107.388 21.2169 106.035 21.2169C105.669 21.2169 105.398 21.1587 105.185 21.0816C104.972 21.0233 104.818 20.9651 104.663 20.9651C104.547 20.9651 104.431 21.0433 104.334 21.1969H104.044L103.832 19.0328H104.142ZM111.721 8.67395C112.186 8.67395 112.573 9.00261 112.573 9.4095C112.573 9.81498 112.186 10.1436 111.721 10.1436C111.259 10.1436 110.891 9.81498 110.891 9.4095C110.891 9.00261 111.259 8.67395 111.721 8.67395ZM112.515 19.5165C112.515 20.1924 112.882 20.6178 113.905 20.6178V20.9848H109.615V20.6178C110.794 20.6178 111.219 20.2309 111.219 19.2064V15.3229C111.219 14.5691 111.123 14.4723 110.62 14.3755L109.713 14.2019V13.8918L112.225 13.0226H112.515V19.5165ZM119.413 13.3324L119.104 14.1822H116.65V18.6855C116.65 19.9023 117.52 20.3089 117.925 20.3089C118.35 20.3089 118.737 19.9802 119.104 19.3417L119.413 19.6318C118.949 20.6364 118.195 21.2169 117.306 21.2169C116.166 21.2169 115.355 20.2695 115.355 18.9756V14.1822H114.466V13.8732C115.22 13.506 115.877 12.6168 116.321 11.4186H116.65V13.3324H119.413ZM127.058 15.4768C127.637 14.0083 127.27 13.7181 126.13 13.6799V13.3324H129.338V13.6799C128.545 13.7764 128.101 14.3172 127.735 15.2253L124.45 23.4196C123.868 24.8497 123.424 25.487 122.749 25.487C122.284 25.487 121.956 25.198 121.956 24.8111C121.956 24.0187 123.077 24.212 123.56 23.7294C123.773 23.5164 124.063 23.0139 124.217 22.627L124.796 21.1784L121.802 14.8195C121.435 14.0271 121.086 13.6996 120.275 13.6799V13.3324H124.16V13.6799C122.98 13.6996 122.846 14.0468 123.232 14.8581L125.415 19.5747L127.058 15.4768ZM133.675 17.217C133.675 19.4768 135.511 21.2169 137.907 21.2169C140.207 21.2169 142.005 19.4582 142.005 17.1773C142.005 14.8778 140.207 13.1191 137.85 13.1191C135.839 13.1191 133.675 14.5491 133.675 17.217ZM135.124 16.5585C135.124 14.8977 136.303 13.5831 137.578 13.5831C139.202 13.5831 140.555 15.4583 140.555 17.661C140.555 19.5933 139.26 20.7529 138.12 20.7529C136.458 20.7529 135.124 18.8977 135.124 16.5585ZM147.608 14.1822H145.521V19.4768C145.521 20.366 145.869 20.6178 146.951 20.6178H147.686V20.9848H142.912V20.6178C144.034 20.6178 144.226 20.366 144.226 19.2846V14.1822H142.796V13.8535C143.337 13.7381 143.801 13.5631 144.226 13.3324C144.226 11.7276 144.574 10.5109 145.714 9.36982C146.661 8.42351 147.57 7.99805 148.458 7.99805C149.541 7.99805 150.448 8.61682 150.448 8.90609C150.448 9.06086 150.083 9.83384 149.928 9.83384C149.657 9.83384 148.942 8.88724 147.667 8.88724C146.275 8.88724 145.521 9.9886 145.521 11.8627V13.3324H147.473L147.608 14.1822Z" fill="black"/>
<path d="M15.9558 11.5174C15.7954 10.66 15.8756 8.96627 16.7133 7.292C13.6237 9.6236 13.584 11.5174 13.584 11.5174C13.584 11.5174 14.1816 11.059 15.9558 11.5174ZM14.5204 6.41491C14.5204 6.41491 10.7732 6.95349 9.69741 7.05366C8.95539 7.49094 8.10334 8.71781 8.10334 8.71781C8.10334 8.71781 7.22624 8.8464 5.47206 9.16522C4.25308 9.96099 3.51865 11.8165 5.03337 13.3309C4.55501 13.231 4.55501 13.231 3.85829 13.1111C2.36354 14.0684 3.06026 15.8426 6.16991 15.225C5.29281 15.194 4.85413 14.7666 4.86426 14.2083C4.84456 13.6002 6.03034 12.843 7.47471 13.231C6.09956 10.6304 7.62413 9.60362 7.62413 9.60362C7.62413 9.60362 6.81738 11.7515 8.58142 13.5102C8.74097 13.2507 9.26857 12.5242 10.7538 12.4935C12.233 12.4637 13.163 13.1913 13.185 14.029C13.2047 14.7666 12.2682 15.5438 11.0526 15.5438L11.0329 13.7817C11.0329 13.7817 10.637 13.9235 10.525 14.0794C10.5261 14.161 10.5137 15.5635 10.5137 15.5635C10.0356 15.5635 9.05978 15.3645 8.54203 14.5367C8.14301 14.4973 5.92031 14.1675 5.92031 14.1675L6.04018 14.7556C6.04018 14.7556 6.81738 14.8853 6.9668 15.6622C7.1483 16.6032 7.68435 17.4662 8.16271 17.8157C9.08933 17.7057 10.6237 16.5396 13.4444 16.5801C10.8536 16.9386 8.22293 19.7083 4.43542 18.6523C10.4544 20.7053 11.0723 16.1417 18.6062 17.576C17.43 16.8584 15.677 16.6395 15.677 16.6395C15.677 16.6395 16.6131 15.6228 16.6528 14.0684C16.7727 14.0608 16.932 14.0487 17.2311 14.0192C17.331 13.52 17.4002 13.0144 17.4002 13.0144C17.4002 13.0144 15.756 13.0124 14.3764 13.0124C11.0174 9.61347 14.5204 6.41491 14.5204 6.41491ZM6.11053 6.35553C7.05685 6.40506 8.20773 5.81695 8.28258 5.76743C8.28258 5.76743 7.88357 6.77452 8.78064 6.71403C9.75425 6.64902 10.8742 6.15012 11.0326 6.0764V4.78059C10.9459 4.84419 9.99709 5.51474 8.92021 5.75758C8.52655 5.84566 8.66077 5.49814 8.70017 5.2992C8.74097 5.10025 8.76742 4.93648 8.06282 5.22885C5.18279 6.42476 5.03337 5.60816 5.03337 5.50827C4.91462 5.64784 4.96527 6.29504 6.11053 6.35553ZM21.3751 0.357422V20.9901C13.0741 17.7212 9.61581 24.0589 0.777344 20.9901V0.357422H4.98272V2.58434H7.39423V0.357422H9.76635V2.58434H12.157L12.1582 0.357422H14.5489V2.58434H17.1498V0.357422H21.3751ZM29.2968 28.4216C29.2968 28.4216 29.1989 28.3732 29.3857 28.2162C29.4088 28.1973 29.4451 28.2404 29.554 28.2415C29.7 28.2435 29.7771 28.1931 29.899 28.0457C30.0827 27.8236 29.6989 27.7381 29.5748 27.8456C29.4383 27.9621 29.3407 28.0831 29.2231 28.1908C29.2231 28.1908 29.0264 28.3656 29.2968 28.4216ZM36.4028 38.8451C36.0744 39.1133 35.0574 39.6268 34.8036 39.7464C34.5498 39.8663 34.4674 39.9389 34.2805 40.3092C34.0506 40.7634 33.832 41.5856 33.8913 41.6447C34.5188 41.5459 34.9674 41.0172 34.9674 41.0172C34.9674 41.0172 34.9772 40.8875 34.8377 40.6677C34.7223 40.4862 34.9477 40.2895 35.0873 40.4037C35.1939 40.4918 35.3411 40.5093 35.4311 40.4336C35.5203 40.3587 37.4791 39.1133 37.568 38.9695C37.1701 38.5758 36.8656 38.1768 36.8656 38.1768C36.8656 38.1768 36.7314 38.5758 36.4028 38.8451ZM28.7492 33.3833C27.9118 33.0448 27.725 32.8183 27.5688 32.7502C27.4292 32.692 26.8532 32.9359 26.7564 33.1844C26.497 33.8516 25.919 34.9431 25.8343 35.0981C25.7893 35.1806 25.7398 35.2774 25.7499 35.3871C25.7594 35.496 25.7924 35.9246 25.7825 36.0248C25.7725 36.1363 25.7879 36.2487 25.8275 36.3534C25.8672 36.4533 25.919 36.881 26.1388 37.3096C26.6267 36.8216 26.6982 36.1016 26.6664 36.2434C26.6664 36.2479 26.8211 35.9809 26.4323 35.8599C26.3225 35.8258 26.3388 35.5377 26.4576 35.5014C26.6025 35.4563 26.6762 35.4169 26.7466 35.1586C26.8158 34.8981 27.0797 33.9669 27.1653 33.788C27.1785 33.7604 27.2027 33.7131 27.2511 33.6912C27.3268 33.657 27.4066 33.633 27.4886 33.6197C27.526 33.6141 27.5964 33.6538 27.6172 33.6757C27.7503 33.8099 28.4405 34.3705 28.4405 34.3705C28.4405 34.3705 28.7492 34.3406 28.9383 34.2604C28.8196 34.0713 28.7692 33.613 28.7492 33.3833ZM27.905 29.4473C27.905 29.4473 27.6127 29.8066 27.9425 29.8958C27.9501 30.0002 27.9909 30.2067 28.0317 30.3145C28.0865 30.4586 28.1808 30.4121 28.2866 30.2914C28.3907 30.1727 28.5593 29.945 28.6822 29.8142C28.7942 29.6946 29.1845 29.7374 29.0264 29.9782C28.922 30.1375 28.8395 30.1803 28.7042 30.2101C28.5987 30.2332 28.5669 30.142 28.4504 30.3001C28.3283 30.465 28.1985 30.5804 28.413 30.5804C28.525 30.5804 28.7382 30.6848 28.8801 30.6617C29.0143 30.6409 29.0284 30.554 29.0427 30.4344C29.0582 30.3089 29.034 30.2374 29.1736 30.1606C29.3528 30.0604 29.6165 29.8209 29.6967 29.7362C29.7881 29.6394 29.9057 29.6617 30.0253 29.6617C30.1441 29.6617 30.7223 29.732 31.0665 29.2162C31.3093 28.8527 31.3358 28.3569 31.2454 27.9083C31.4103 28.0721 31.6312 28.5899 31.5147 29.0736C31.3071 29.9363 30.8827 29.9847 30.453 30.0748C30.2738 30.3289 29.8154 30.9817 29.5714 32.1689C29.467 32.2381 28.5998 33.0744 29.3252 34.4484C29.1384 34.5089 28.5877 34.7453 28.2613 34.819C28.0426 34.8682 27.8589 34.8803 27.77 34.9859C27.6709 35.1046 27.4413 35.4938 27.5612 35.6882C27.6456 35.8258 28.1887 37.0403 28.2337 37.4151C28.2787 37.7877 28.4138 37.8769 28.548 37.9979C28.6977 38.1318 28.7942 38.1253 29.0033 38.2823C29.2155 38.4408 29.3914 38.7264 29.5869 38.8792C29.7957 39.0441 30.0298 39.1189 30.1947 39.1034C30.1539 38.4956 30.0245 37.8977 29.8354 37.6987C29.6384 37.4922 29.3922 37.7877 29.3328 37.8031C29.2726 37.8186 29.189 37.7604 29.1527 37.5943C29.1153 37.4219 29.2726 37.28 29.1229 37.0558C28.9184 36.7472 28.7266 36.4303 28.548 36.1061C28.3536 35.7256 28.6831 35.6246 28.7647 35.6432C28.9591 35.6882 30.1244 35.8455 30.3036 35.8599C30.4826 35.8753 30.5828 35.9049 30.663 35.8148C30.9092 35.5388 31.051 35.3365 31.1939 35.0531C31.4545 35.2476 31.2753 35.6212 31.2004 36.0641C31.2753 36.1291 32.9647 36.9809 35.2873 36.3633C36.2567 36.1061 36.1456 36.3095 36.2381 36.4874C36.8009 37.5789 37.1999 38.001 37.8682 38.5364C38.0672 38.6946 38.2067 38.954 38.2957 39.1034C38.3857 39.2529 38.4077 39.5191 38.3365 39.6915C38.2461 39.906 37.7275 40.8357 37.6383 40.9665C37.4692 41.2161 37.248 41.4249 37.0601 41.5251C36.4723 41.8394 36.3259 42.1208 36.2612 42.3406H37.7703C37.7703 42.3406 37.8055 42.2615 37.7878 42.0735C37.7627 41.8096 38.0022 41.7645 38.077 41.7494C38.1516 41.735 38.2858 41.7944 38.4057 41.5107C38.63 40.9764 39.507 39.487 39.5816 39.353C39.6565 39.2177 39.9303 38.8584 39.661 38.7002C39.1531 38.4011 38.8539 37.9098 38.754 37.3591C38.7144 37.1405 38.7386 36.7797 39.2321 36.1643C40.2885 34.8485 39.5014 32.1379 37.1504 32.1874C35.8161 32.2161 35.074 32.1027 34.2057 31.9291C33.888 31.8655 33.8331 31.6939 33.9012 31.5006C33.9715 31.3016 34.0385 30.9046 34.0408 30.7431C33.812 30.5331 33.4625 30.4045 33.2934 30.344C33.1108 30.2805 33.0196 30.1341 33.2042 30.1198C33.3879 30.1057 34.0858 30.1803 34.0858 30.1803C34.0858 30.1803 34.1111 29.8066 34.0109 29.2582C33.6675 29.1122 33.3053 29.015 32.9349 28.9692C32.8294 28.9559 32.7371 28.8383 33.0041 28.7998C33.3539 28.7503 33.6724 28.8054 33.9209 28.7899C33.9364 28.7601 33.8021 28.0623 33.5548 27.7809C33.3834 27.7291 33.2923 27.7049 32.6954 27.6334C32.4866 27.6095 32.4765 27.549 32.6161 27.504C32.7779 27.4522 33.0472 27.3993 33.3834 27.4215C33.2537 27.2434 32.3865 25.6617 30.5881 26.1364C30.7893 26.3838 30.8872 26.498 30.9466 26.6674C31.0003 26.8191 30.84 26.8675 30.6928 26.7124C30.1244 26.1145 29.8253 26.1288 29.4594 26.0619C29.6989 26.2937 29.8033 26.5256 29.8858 26.7563C29.4746 27.0487 28.891 27.7434 28.8086 27.8788C28.6527 28.1337 28.8691 28.2722 28.8691 28.2722L27.905 29.4473ZM39.5267 25.4417C37.6879 26.0849 37.9594 28.0668 38.4549 28.8293C39.1035 29.8263 39.6508 29.8463 40.0642 31.0168C40.3875 31.9302 39.8104 32.4072 39.242 32.6163C40.2136 33.2151 41.2162 32.5963 41.5744 31.9983C42.2351 31.1179 41.4866 29.9749 42.1924 29.378C42.3814 29.2185 42.7 29.1087 43.1288 29.0888C42.7 28.481 41.6943 28.5502 41.2911 29.1186C41.0063 28.4613 40.2094 27.8864 40.4984 26.8663C40.6875 26.1992 41.7438 25.9496 42.1428 26.498C42.3603 26.7982 42.3913 27.3852 41.7537 27.6841C42.1527 27.6545 42.9099 26.9662 42.3913 26.0298C42.0275 25.3713 41.4152 25.3221 40.9171 25.3221C40.0105 25.3221 38.5056 26.3584 39.4674 28.5952C38.9133 28.1028 38.0177 26.3838 39.5267 25.4417ZM44.1137 23.1126V43.7706C32.6943 46.5504 32.3645 40.482 23.5151 43.7706C23.5162 44.0387 23.5117 23.1104 23.5151 23.1126C31.6467 19.7041 34.8157 26.1617 44.1137 23.1126ZM8.27048 34.8981C8.27048 34.8981 7.9089 35.1333 8.36165 36.1269C8.81469 37.1185 9.37635 38.0429 8.39795 39.1333C8.95314 39.1397 10.1634 38.4087 8.86844 36.2302C8.57045 35.7279 8.24854 35.3806 8.27048 34.8981ZM7.04587 35.3652C7.34499 35.3455 7.38242 34.9783 7.32839 34.7858C7.2648 34.5584 6.88548 34.5297 6.79319 34.8201C6.70314 35.1069 6.78193 35.3849 6.78193 35.3849C6.85706 35.662 7.168 35.74 7.19557 35.7124C7.02167 35.5576 7.06895 35.4684 7.04587 35.3652ZM7.33289 36.6843C7.26142 37.5614 6.75801 37.6911 6.75801 37.6911C5.87979 37.2876 5.40931 38.3924 6.14571 38.7177C7.07992 39.131 7.65058 37.9241 7.70658 37.701C7.86388 37.0679 7.87907 36.6205 7.80788 35.5939C7.74822 34.7177 7.96377 34.586 8.10784 34.5618C8.25276 34.5376 8.553 34.5255 8.85184 35.4378C9.15208 36.35 9.79956 36.482 9.79956 36.482C9.79956 36.482 8.86197 34.9563 10.1654 33.5482C10.7723 32.8943 12.0076 32.5217 11.7791 31.605C11.7791 31.605 11.5878 31.9336 11.2164 32.0301C10.8449 32.1258 10.1237 32.2336 10.1237 32.2336C10.1237 32.2336 11.8526 31.4181 12.1638 30.4816C12.1638 30.4816 12.7046 31.3818 11.9846 32.7018C11.9846 32.7018 12.6695 32.4567 13.4081 32.7899C15.2886 33.6231 15.0886 36.3016 12.7089 36.9404C9.32232 37.8493 10.5523 40.4687 12.4913 40.6291C12.2837 40.4972 12.2364 39.7082 12.5772 39.2388C12.7463 39.0871 13.0507 38.7815 13.2432 39.4245C13.5837 40.5588 14.5776 40.6511 15.0393 40.5093C14.9183 40.4071 14.6918 40.0619 14.7194 39.8629C14.7765 39.4662 15.2723 39.8784 15.4524 39.9302C16.787 40.3081 17.4959 39.9774 17.5718 39.7785C17.2738 39.7169 17.3256 39.7498 17.1365 39.7025C16.9607 39.6586 16.6176 39.4147 17.2595 39.2672C18.438 38.9979 19.0863 37.7823 18.3105 36.8458C17.5696 35.951 16.6362 36.0883 16.3329 36.2116C17.6104 36.4862 17.674 37.5142 17.0231 38.0373C16.4561 38.4638 15.0458 38.633 14.5632 37.6878C14.2587 37.9075 14.1524 38.2604 14.2039 38.7002C14.0764 38.6518 13.5409 37.8912 14.3358 37.2623C18.0212 34.886 17.4266 30.8936 14.3083 29.2506L14.2689 29.234C11.4395 27.6084 8.96411 29.0921 8.96411 29.0921C10.7138 27.3402 13.7365 28.3822 14.1721 28.5997C14.1721 28.5997 13.8234 28.2975 13.6388 28.0195C13.3991 27.6599 13.4081 27.316 13.4081 27.316C12.2077 27.9863 11.8987 26.9575 11.8987 26.9575C11.8987 26.9575 10.859 27.894 10.1842 27.1323C9.59499 26.4651 10.55 25.5604 10.55 25.5604C4.46187 27.5588 5.61585 30.9972 5.61585 30.9972C5.61585 30.9972 4.73425 31.8062 4.53644 33.7582C4.31217 35.9741 5.41719 37.5505 6.79656 37.1174C7.11313 37.0183 7.2693 36.8678 7.33064 36.7018L7.33289 36.6843ZM21.376 23.1126C21.3793 23.1104 21.3748 44.0387 21.376 43.7706C12.5262 40.482 12.1978 46.5504 0.777344 43.7706V23.1126C10.0745 26.1617 13.2443 19.7041 21.376 23.1126Z" fill="#BF2F38"/>
</svg>
