<svg width="128" height="128" viewBox="0 0 128 128" fill="none" xmlns="http://www.w3.org/2000/svg">
<path d="M20.5137 27.5559C20.5137 25.509 22.1731 23.8496 24.22 23.8496H96.2809C98.3279 23.8496 99.9873 25.509 99.9873 27.5559V70.8841C99.9873 72.9311 98.3279 74.5904 96.2809 74.5904H24.22C22.173 74.5904 20.5137 72.9311 20.5137 70.8841V27.5559Z" fill="#181818"/>
<path d="M16.1719 23.2141C16.1719 21.1672 17.8313 19.5078 19.8782 19.5078H91.9391C93.9861 19.5078 95.6455 21.1672 95.6455 23.2141V66.5423C95.6455 68.5893 93.9861 70.2486 91.9391 70.2486H19.8782C17.8313 70.2486 16.1719 68.5893 16.1719 66.5423V23.2141Z" fill="white"/>
<path fill-rule="evenodd" clip-rule="evenodd" d="M19.8778 17.6543H91.9388C95.0092 17.6543 97.4983 20.1434 97.4983 23.2138V66.542C97.4983 69.6124 95.0092 72.1015 91.9388 72.1015H19.8778C16.8074 72.1015 14.3184 69.6124 14.3184 66.542V23.2138C14.3184 20.1434 16.8074 17.6543 19.8778 17.6543ZM19.8778 19.5075C17.8309 19.5075 16.1715 21.1668 16.1715 23.2138V66.542C16.1715 68.5889 17.8309 70.2483 19.8778 70.2483H91.9388C93.9857 70.2483 95.6451 68.5889 95.6451 66.542V23.2138C95.6451 21.1668 93.9857 19.5075 91.9388 19.5075H19.8778Z" fill="#181818"/>
<path fill-rule="evenodd" clip-rule="evenodd" d="M31.3158 37.5087C31.9908 36.1143 33.977 36.1143 34.652 37.5087L36.0598 40.4175L38.9971 40.7509C40.5497 40.9272 41.2006 42.8277 40.0821 43.9188L37.6188 46.3218L38.2092 48.7428C38.5992 50.3421 36.866 51.618 35.4547 50.7705L32.9839 49.2868L30.5131 50.7705C29.1018 51.618 27.3686 50.3421 27.7586 48.7428L28.349 46.3218L25.8857 43.9188C24.7672 42.8277 25.4181 40.9272 26.9707 40.7509L29.908 40.4175L31.3158 37.5087ZM34.3918 41.2248L32.9839 38.3161L31.576 41.2248C31.2992 41.7969 30.7485 42.1871 30.117 42.2588L27.1797 42.5923L29.6431 44.9953C30.1121 45.4529 30.3047 46.1242 30.1494 46.7609L29.559 49.1818L32.0298 47.6981C32.617 47.3454 33.3508 47.3454 33.938 47.6981L36.4088 49.1818L35.8184 46.7609C35.6631 46.1242 35.8557 45.4529 36.3247 44.9953L38.7881 42.5923L35.8508 42.2588C35.2193 42.1871 34.6686 41.7969 34.3918 41.2248Z" fill="#181818"/>
<path fill-rule="evenodd" clip-rule="evenodd" d="M53.7377 37.5087C54.4126 36.1143 56.3989 36.1143 57.0738 37.5087L58.4817 40.4175L61.419 40.7509C62.9716 40.9272 63.6225 42.8277 62.504 43.9188L60.0407 46.3218L60.631 48.7428C61.021 50.3421 59.2878 51.618 57.8766 50.7705L55.4058 49.2868L52.935 50.7705C51.5237 51.618 49.7905 50.3421 50.1805 48.7428L50.7709 46.3218L48.3076 43.9188C47.1891 42.8277 47.84 40.9272 49.3925 40.7509L52.3299 40.4175L53.7377 37.5087ZM56.8136 41.2248L55.4058 38.3161L53.9979 41.2248C53.721 41.7969 53.1704 42.1871 52.5389 42.2588L49.6016 42.5923L52.0649 44.9953C52.534 45.4529 52.7266 46.1242 52.5713 46.7609L51.9809 49.1818L54.4517 47.6981C55.0389 47.3454 55.7727 47.3454 56.3598 47.6981L58.8306 49.1818L58.2402 46.7609C58.085 46.1242 58.2775 45.4529 58.7466 44.9953L61.21 42.5923L58.2726 42.2588C57.6412 42.1871 57.0905 41.7969 56.8136 41.2248Z" fill="#181818"/>
<path fill-rule="evenodd" clip-rule="evenodd" d="M76.1615 37.5087C76.8365 36.1143 78.8227 36.1143 79.4977 37.5087L80.9055 40.4175L83.8428 40.7509C85.3954 40.9272 86.0463 42.8277 84.9278 43.9188L82.4645 46.3218L83.0549 48.7428C83.4449 50.3421 81.7117 51.618 80.3004 50.7705L77.8296 49.2868L75.3588 50.7705C73.9475 51.618 72.2143 50.3421 72.6043 48.7428L73.1947 46.3218L70.7314 43.9188C69.6129 42.8277 70.2638 40.9272 71.8164 40.7509L74.7537 40.4175L76.1615 37.5087ZM79.2375 41.2248L77.8296 38.3161L76.4217 41.2248C76.1449 41.7969 75.5942 42.1871 74.9627 42.2588L72.0254 42.5923L74.4888 44.9953C74.9578 45.4529 75.1504 46.1242 74.9951 46.7609L74.4048 49.1818L76.8756 47.6981C77.4627 47.3454 78.1965 47.3454 78.7837 47.6981L81.2545 49.1818L80.6641 46.7609C80.5088 46.1242 80.7014 45.4529 81.1704 44.9953L83.6338 42.5923L80.6965 42.2588C80.065 42.1871 79.5143 41.7969 79.2375 41.2248Z" fill="#181818"/>
<path d="M81.3281 106.517V103.831C81.3281 101.548 83.3795 99.8279 85.6615 99.8824C93.0911 100.06 98.8914 97.5002 102.56 94.9115C104.513 93.5341 107.417 93.6364 108.855 95.5447L110.007 97.0742C111.063 98.4751 111.005 100.442 109.748 101.665C100.439 110.728 90.0533 110.966 84.031 109.916C82.4085 109.633 81.3281 108.164 81.3281 106.517Z" fill="#181818"/>
<path d="M76.2211 96.4468C82.0719 102.638 90.3622 101.089 95.031 99.678C104.368 96.8556 110.101 90.537 105.021 73.7297C104.074 70.5975 100.326 68.3122 96.7093 70.5457C95.9246 71.0302 94.9135 71.0716 94.0956 70.6455C91.0287 69.0478 88.6772 70.7218 87.3689 72.1573C86.8418 72.7355 85.7679 72.6386 85.4748 71.9132L84.0799 68.4615L82.0574 62.5701C80.9991 59.0686 77.6063 56.2726 74.1048 57.331C70.6033 58.3894 70.8473 63.4109 72.1811 67.8243L77.7145 84.5311L73.1548 82.0879C71.6348 81.2735 67.965 80.0899 65.446 81.8703C62.927 83.6508 63.003 86.4303 64.8757 88.4118C66.7485 90.3932 72.4755 92.4837 76.2211 96.4468Z" fill="white"/>
<path fill-rule="evenodd" clip-rule="evenodd" d="M74.0299 80.4557L74.4944 80.7046L70.4218 68.4083C70.4167 68.3928 70.4118 68.3773 70.407 68.3617C69.7063 66.0429 69.2392 63.4118 69.4872 61.1214C69.7374 58.8102 70.8086 56.3926 73.5685 55.5584C75.9654 54.8339 78.2745 55.4592 80.0682 56.7296C81.8315 57.9784 83.1748 59.8913 83.8206 62.0006L85.8164 67.8143L86.7617 70.1534C87.4666 69.5234 88.3684 68.8993 89.459 68.5166C91.0668 67.9524 92.9542 67.9627 94.9516 69.0033C95.1842 69.1244 95.5004 69.1154 95.7355 68.9702C98.0823 67.5211 100.577 67.5071 102.632 68.4391C104.63 69.3452 106.168 71.1217 106.795 73.1948C109.393 81.7899 109.361 88.1179 107.098 92.7612C104.812 97.4544 100.473 99.9701 95.567 101.453C90.8612 102.876 81.5365 104.77 74.8741 97.721C73.1922 95.9413 71.0189 94.5377 68.9006 93.2814C68.5605 93.0796 68.2143 92.8774 67.8713 92.677C67.1875 92.2774 66.5162 91.8852 65.9298 91.5188C65.0569 90.9734 64.1719 90.3664 63.5288 89.686C62.311 88.3974 61.5698 86.7306 61.6633 84.9688C61.7588 83.1674 62.7139 81.5333 64.3762 80.3583C66.1545 79.1014 68.2304 78.9623 69.9014 79.1681C71.5809 79.3749 73.0968 79.9558 74.0299 80.4557ZM84.0797 68.4628L85.4746 71.9145C85.7678 72.6399 86.8417 72.7368 87.3687 72.1585C88.6771 70.723 91.0286 69.0491 94.0954 70.6468C94.9133 71.0729 95.9245 71.0315 96.7092 70.547C100.326 68.3135 104.074 70.5988 105.021 73.731C110.101 90.5383 104.368 96.8568 95.0308 99.6792C90.362 101.09 82.0718 102.639 76.2209 96.4481C74.0268 94.1265 71.1527 92.4475 68.7718 91.0567C67.0883 90.0732 65.6513 89.2338 64.8756 88.4131C63.0028 86.4316 62.9269 83.6521 65.4459 81.8716C67.9649 80.0912 71.6347 81.2748 73.1547 82.0892L77.7144 84.5323L72.181 67.8256C70.8472 63.4122 70.6032 58.3907 74.1047 57.3323C77.6062 56.2739 80.9989 59.0699 82.0572 62.5714L84.0797 68.4628Z" fill="#181818"/>
<path fill-rule="evenodd" clip-rule="evenodd" d="M87.2502 77.7961C87.7474 77.6749 88.2487 77.9796 88.37 78.4768L90.6625 87.876C90.7837 88.3732 90.479 88.8745 89.9818 88.9958C89.4847 89.1171 88.9833 88.8123 88.8621 88.3152L86.5696 78.9159C86.4483 78.4187 86.753 77.9174 87.2502 77.7961Z" fill="#181818"/>
<path fill-rule="evenodd" clip-rule="evenodd" d="M96.4923 76.661C97.0025 76.6217 97.4479 77.0035 97.4872 77.5138L97.9457 83.4743C97.9849 83.9845 97.6031 84.43 97.0929 84.4692C96.5827 84.5084 96.1372 84.1266 96.098 83.6164L95.6395 77.6559C95.6002 77.1457 95.9821 76.7002 96.4923 76.661Z" fill="#181818"/>
</svg>
