<svg width="103" height="101" viewBox="0 0 103 101" fill="none" xmlns="http://www.w3.org/2000/svg">
<path fill-rule="evenodd" clip-rule="evenodd" d="M46.7282 76.2616C62.5774 78.6845 64.6732 72.234 66.4303 62.2227C68.6521 49.563 60.3989 27.3776 45.7493 26.0339C36.4336 25.1793 33.9605 35.5844 28.3661 41.317C20.3917 49.4885 14.6935 53.1893 5.17036 59.2166C-1.56422 63.4788 2.36063 76.1111 9.52791 79.4926C13.4224 81.3301 18.1678 79.2001 22.0483 78.4681C30.1928 76.9318 38.4061 74.9896 46.7282 76.2616Z" fill="white" stroke="#181818" stroke-width="2.55039" stroke-miterlimit="1.5" stroke-linecap="round" stroke-linejoin="round"/>
<path d="M63.3091 58.6132C62.8198 47.9075 58.0716 32.0489 45.7258 29.9211C38.7744 29.2028 36.4634 39.2963 36.1577 44.5005C35.5221 55.3269 42.0347 71.0746 54.3523 72.4713C61.6587 73.3001 63.5576 64.0508 63.3091 58.6132Z" stroke="#181818" stroke-width="2.55039" stroke-miterlimit="1.5" stroke-linecap="round" stroke-linejoin="round"/>
<path fill-rule="evenodd" clip-rule="evenodd" d="M49.4769 46.0847C46.8655 47.2725 48.2514 51.8917 49.3234 54.6796C49.7923 55.8992 51.5086 58.2771 52.6014 57.8044C56.0191 56.3264 52.4687 45.1504 49.4769 46.0847Z" stroke="#181818" stroke-width="2.55039" stroke-miterlimit="1.5" stroke-linecap="round" stroke-linejoin="round"/>
<path d="M25.4415 77.8174C20.0287 74.9031 16.163 66.964 14.5671 61.415C13.8405 58.8888 13.4327 56.0845 14.0035 53.4824" stroke="#181818" stroke-width="2.55039" stroke-miterlimit="1.5" stroke-linecap="round" stroke-linejoin="round"/>
<path d="M6.37109 67.7383C6.71489 69.611 7.41801 71.4577 8.64212 72.9313" stroke="#181818" stroke-width="2.55039" stroke-miterlimit="1.5" stroke-linecap="round" stroke-linejoin="round"/>
<path d="M10.3477 65.4785C10.8157 67.4784 11.7125 69.2897 13.1106 70.8017" stroke="#181818" stroke-width="2.55039" stroke-miterlimit="1.5" stroke-linecap="round" stroke-linejoin="round"/>
<path fill-rule="evenodd" clip-rule="evenodd" d="M29.4735 77.0647C27.8129 77.3183 25.8216 77.7319 23.9375 78.0995C24.7146 79.6368 25.7852 81.5412 26.9611 82.8168C27.4655 83.3637 28.0006 83.9332 28.7441 84.1345C29.0396 84.2146 29.3635 84.22 29.6672 84.1944C30.5688 84.1185 32.8319 83.8495 32.9186 82.6146C32.9748 81.8124 32.3471 80.9994 31.8954 80.3955C31.0798 79.3045 30.3109 78.1779 29.5554 77.0449" fill="white"/>
<path d="M29.4735 77.0647C27.8129 77.3183 25.8216 77.7319 23.9375 78.0995C24.7146 79.6368 25.7852 81.5412 26.9611 82.8168C27.4655 83.3637 28.0006 83.9332 28.7441 84.1345C29.0396 84.2146 29.3635 84.22 29.6672 84.1944C30.5688 84.1185 32.8319 83.8495 32.9186 82.6146C32.9748 81.8124 32.3471 80.9994 31.8954 80.3955C31.0798 79.3045 30.3109 78.1779 29.5554 77.0449" stroke="#181818" stroke-width="2.55039" stroke-miterlimit="1.5" stroke-linecap="round" stroke-linejoin="round"/>
<path d="M68.5689 73.613C72.9882 74.8415 77.4454 75.9538 81.8222 77.3393C80.4778 74.8897 79.8809 71.6109 79.0479 68.9731C84.3902 68.3832 89.8483 67.8467 95.1358 66.9331C91.8204 63.8833 88.8243 59.8145 86.1283 56.2655C91.2178 54.8513 96.2223 53.0837 101.203 51.3348C96.1288 47.8629 91.0702 44.2034 85.7684 41.101C89.2615 36.3375 92.5147 31.3798 96.1964 26.7617C90.0447 26.7074 83.8908 26.3345 77.7392 26.3218C79.4682 21.2361 81.6981 16.2718 83.5995 11.2487C76.767 13.3765 70.1912 16.2097 63.2828 18.1319C63.167 14.0175 63.1627 9.90243 62.8155 5.79883C59.341 9.20664 55.9109 12.6359 52.2313 15.8252C51.2832 13.5442 50.3166 11.2816 49.2672 9.0443C47.955 12.5475 46.9857 16.166 46.0371 19.7814" stroke="#181818" stroke-width="2.55039" stroke-miterlimit="1.5" stroke-linecap="round" stroke-linejoin="round"/>
<path d="M23.9371 78.1005C24.7141 79.6374 25.7842 81.5407 26.9597 82.8157C27.464 83.3626 27.9991 83.9321 28.7426 84.1334C29.0381 84.2135 29.3621 84.2189 29.6658 84.1933C30.3185 84.1383 31.6846 83.9822 32.4221 83.4317C32.7889 83.8167 33.1946 84.2193 33.6147 84.6361C35.5102 86.5168 37.698 88.6875 37.919 90.8454C38.0823 92.4384 36.6362 93.7868 35.3021 94.4022C32.4111 95.7363 29.4715 95.3987 26.7952 93.7311C22.0837 90.7957 19.4511 85.182 17.4846 80.2307C17.4787 80.2157 17.4721 80.1993 17.4651 80.1818C17.4042 80.0291 17.3083 79.789 17.2637 79.6292C19.2371 79.0594 21.7434 78.5305 23.9371 78.1005Z" fill="white"/>
<path d="M49.419 46.1094C46.8847 47.3382 48.2582 51.9102 49.3223 54.6776C49.76 55.8158 51.2842 57.9631 52.374 57.8601C52.3777 57.8696 52.3815 57.8791 52.3852 57.8885C50.1047 59.0725 48.2795 60.2068 46.5292 61.2945C44.9562 62.272 43.4438 63.2119 41.716 64.1163C40.0771 61.8646 38.3449 57.9112 37.9847 56.6872C37.9092 56.4309 37.8353 56.1825 37.7629 55.9393C37.1896 54.0134 36.7131 52.4128 36.3476 49.7373C38.0143 49.2478 39.7867 48.7908 41.5775 48.3291C44.2466 47.6409 46.9566 46.9422 49.419 46.1094Z" fill="white"/>
<path d="M23.9371 78.1005C24.7141 79.6374 25.7842 81.5407 26.9597 82.8157C27.464 83.3626 27.9991 83.9321 28.7426 84.1334C29.0381 84.2135 29.3621 84.2189 29.6658 84.1933C30.3185 84.1383 31.6846 83.9822 32.4221 83.4317C32.7889 83.8167 33.1946 84.2193 33.6147 84.6361C35.5102 86.5168 37.698 88.6875 37.919 90.8454C38.0823 92.4384 36.6362 93.7868 35.3021 94.4022C32.4111 95.7363 29.4715 95.3987 26.7952 93.7311C22.0837 90.7957 19.4511 85.182 17.4846 80.2307C17.4787 80.2157 17.4721 80.1993 17.4651 80.1818C17.4042 80.0291 17.3083 79.789 17.2637 79.6292C19.2371 79.0594 21.7434 78.5305 23.9371 78.1005Z" stroke="#181818" stroke-width="2.55039" stroke-miterlimit="1.5" stroke-linecap="round" stroke-linejoin="round"/>
<path d="M49.419 46.1094C46.8847 47.3382 48.2582 51.9102 49.3223 54.6776C49.76 55.8158 51.2842 57.9631 52.374 57.8601C52.3777 57.8696 52.3815 57.8791 52.3852 57.8885C50.1047 59.0725 48.2795 60.2068 46.5292 61.2945C44.9562 62.272 43.4438 63.2119 41.716 64.1163C40.0771 61.8646 38.3449 57.9112 37.9847 56.6872C37.9092 56.4309 37.8353 56.1825 37.7629 55.9393C37.1896 54.0134 36.7131 52.4128 36.3476 49.7373C38.0143 49.2478 39.7867 48.7908 41.5775 48.3291C44.2466 47.6409 46.9566 46.9422 49.419 46.1094Z" stroke="#181818" stroke-width="2.55039" stroke-miterlimit="1.5" stroke-linecap="round" stroke-linejoin="round"/>
</svg>
