<svg width="21" height="15" viewBox="0 0 21 15" fill="none" xmlns="http://www.w3.org/2000/svg">
<path d="M19.7969 2.545L7.79687 14.545C7.69236 14.6499 7.56816 14.7331 7.43142 14.7899C7.29467 14.8467 7.14806 14.8759 7 14.8759C6.85193 14.8759 6.70532 14.8467 6.56858 14.7899C6.43183 14.7331 6.30764 14.6499 6.20312 14.545L0.953123 9.295C0.848476 9.19035 0.765466 9.06612 0.708831 8.92939C0.652196 8.79266 0.623047 8.64612 0.623047 8.49812C0.623047 8.35013 0.652196 8.20359 0.708831 8.06686C0.765465 7.93013 0.848476 7.8059 0.953123 7.70125C1.05777 7.5966 1.182 7.51359 1.31873 7.45696C1.45546 7.40032 1.60201 7.37117 1.75 7.37117C1.89799 7.37117 2.04454 7.40032 2.18126 7.45696C2.31799 7.51359 2.44223 7.5966 2.54687 7.70125L7.00094 12.1553L18.205 0.953123C18.4163 0.741779 18.703 0.623047 19.0019 0.623047C19.3008 0.623047 19.5874 0.741779 19.7987 0.953123C20.0101 1.16447 20.1288 1.45111 20.1288 1.75C20.1288 2.04888 20.0101 2.33553 19.7987 2.54687L19.7969 2.545Z" fill="#181818"/>
</svg>
