<svg width="34" height="35" viewBox="0 0 34 35" fill="none" xmlns="http://www.w3.org/2000/svg">
<path d="M26.0918 13.5388C26.495 14.9813 27.1441 16.1999 27.1282 17.4151C27.0818 20.7452 26.8632 24.083 26.5077 27.3948C26.3059 29.225 25.081 30.1491 23.1339 29.7899C21.1298 29.4179 20.4616 28.2849 20.6515 26.2193C20.9787 22.6432 20.9225 19.0297 21.2552 15.4594C21.3523 14.4583 22.0672 13.0123 22.8538 12.709C23.6924 12.3896 24.9529 13.192 26.092 13.5273L26.0918 13.5388Z" fill="#D8D6FB"/>
<path d="M12.5098 23.4716C12.6596 21.9155 12.7014 20.0587 13.0516 18.2548C13.3822 16.5593 13.8283 14.8321 14.6023 13.3072C15.2802 11.9751 16.4738 10.9126 17.4407 9.73035C18.3907 10.8297 19.8939 11.8039 20.1754 13.0487C21.0493 17.0131 19.4943 20.6303 17.5211 23.9744C16.1858 26.2378 14.6663 24.4605 12.5098 23.4716Z" fill="#D8D6FB"/>
<path d="M4.93146 17.739C3.08902 13.5005 5.54541 10.087 6.60072 6.51011C6.89241 5.52477 8.59678 4.94971 9.64612 4.18212C10.3119 5.17183 11.596 6.19841 11.529 7.13721C11.3051 10.1996 10.8569 13.2972 9.988 16.2361C9.21825 18.8448 7.07011 18.7562 4.93146 17.739Z" fill="#D8D6FB"/>
</svg>
