<svg width="182" height="16" viewBox="0 0 182 16" fill="none" xmlns="http://www.w3.org/2000/svg">
<path d="M182 3.50434C179.754 3.95716 177.663 4.54982 175.529 4.77623C161.6 6.25455 147.678 7.81278 133.722 9.03805C121.486 10.1168 109.208 10.7761 96.9514 11.6684C92.1733 12.0147 87.3881 12.3543 82.638 12.9403C78.0977 13.4996 73.9491 12.7805 70.1154 10.4231C63.3294 6.24789 55.655 5.16912 47.9665 5.97487C37.8086 7.04033 27.6995 8.79167 17.6885 10.7694C13.1761 11.6617 8.95764 13.8526 4.56424 15.3509C3.24902 15.8037 1.4581 16.8359 0.730529 14.6916C-0.318848 11.6284 -0.507731 10.816 2.00378 9.97699C17.0868 4.8961 32.5756 1.64646 48.5542 0.83405C56.7043 0.421186 64.5397 1.73968 71.7175 5.86166C75.4532 8.00589 79.7487 7.87271 83.9742 7.59303C93.1807 6.98705 102.408 6.54089 111.601 5.7751C125.956 4.57646 140.298 3.17139 154.646 1.83291C159.403 1.39341 164.147 0.860683 168.904 0.434501C171.471 0.208091 174.046 0.041618 176.62 0.0016634C178.95 -0.0382912 180.944 0.627611 182 3.511V3.50434Z" fill="#ADE2BF"/>
</svg>
