<svg width="22" height="14" viewBox="0 0 22 14" fill="none" xmlns="http://www.w3.org/2000/svg">
<path d="M11.9946 1.38037L21.3696 10.7554C21.6338 11.0196 21.7822 11.3779 21.7822 11.7515C21.7822 12.1251 21.6338 12.4834 21.3696 12.7476C21.1054 13.0117 20.7471 13.1602 20.3735 13.1602C19.9999 13.1602 19.6416 13.0117 19.3774 12.7476L10.9997 4.36748L2.61963 12.7452C2.48882 12.876 2.33353 12.9798 2.16262 13.0506C1.99171 13.1214 1.80852 13.1578 1.62353 13.1578C1.43854 13.1578 1.25536 13.1214 1.08445 13.0506C0.913541 12.9798 0.758248 12.876 0.627439 12.7452C0.496631 12.6144 0.392867 12.4591 0.322074 12.2882C0.251281 12.1173 0.214844 11.9341 0.214844 11.7491C0.214844 11.5641 0.251281 11.381 0.322074 11.21C0.392867 11.0391 0.496631 10.8838 0.627439 10.753L10.0024 1.37803C10.1332 1.24708 10.2886 1.14324 10.4596 1.07247C10.6306 1.00169 10.8139 0.965374 10.999 0.965592C11.1841 0.96581 11.3673 1.00256 11.5382 1.07374C11.709 1.14492 11.8641 1.24912 11.9946 1.38037Z" fill="#181818"/>
</svg>
