<svg width="31" height="27" viewBox="0 0 31 27" fill="none" xmlns="http://www.w3.org/2000/svg">
<path d="M18.9042 17.1879C17.7625 17.8303 16.8065 18.3162 15.9054 18.8977C13.6649 20.3439 11.7726 19.5116 11.8279 16.817C11.8664 15.0302 12.4212 13.1821 13.107 11.5173C13.6613 10.1845 14.8698 9.13664 15.6042 7.85804C16.7441 5.85511 18.3794 5.47894 20.0228 6.78605C21.5234 7.97571 22.447 9.59928 20.8692 11.6276C19.9111 12.8502 17.7524 13.8177 19.4567 16.3342C20.9662 14.3195 22.34 12.4484 23.7335 10.6127C25.0343 8.90431 26.5274 8.07325 28.4483 9.77163C29.9549 11.1062 29.9305 13.4947 28.5413 15.0834C26.8717 16.9995 25.4056 19.0957 23.6754 20.9489C22.6677 22.0248 21.3049 22.7634 20.0972 23.6516C19.644 22.3459 19.0977 21.0696 18.7738 19.7332C18.6037 19.0436 18.8324 18.2577 18.8976 17.2027L18.9042 17.1879Z" fill="#D8D6FB"/>
<path d="M1.77672 12.1064C4.90706 9.01598 7.54229 6.23631 10.4216 3.74407C10.9156 3.31723 12.8438 3.79252 13.4412 4.46081C14.141 5.23734 14.722 7.08916 14.274 7.74995C12.2917 10.6985 10.0301 13.4772 7.6506 16.123C6.61708 17.2761 4.90707 19.005 3.44019 17.404C2.34206 16.2085 2.32712 14.0067 1.78744 12.1024L1.77672 12.1064Z" fill="#D8D6FB"/>
</svg>
