<svg width="20" height="24" viewBox="0 0 20 24" fill="none" xmlns="http://www.w3.org/2000/svg">
<path d="M12.2885 2.35291C12.1893 5.37856 13.3178 7.62256 14.5082 9.82876C14.9423 10.623 15.6739 10.976 16.5791 10.9256C17.2363 10.8878 17.8935 10.8499 18.5508 10.8878C19.27 10.9382 19.8404 11.4551 19.9768 12.0854C20.1008 12.6401 19.7164 13.4343 19.084 13.7369C18.65 13.9512 18.154 14.2034 17.6827 14.2034C16.0583 14.216 15.1406 15.2371 14.3346 16.4474C13.3798 17.8467 12.859 19.4352 12.4002 21.0489C12.2142 21.6918 12.0529 22.3348 11.8297 22.9652C11.6189 23.5577 11.2097 23.9737 10.5525 23.9989C9.90765 24.0241 9.46124 23.6081 9.16363 23.0912C8.96523 22.7382 8.84121 22.3222 8.77921 21.9188C8.6304 21.0111 8.56842 20.0908 8.43202 19.1705C8.07241 16.7878 5.90232 14.7581 3.58343 14.5942C2.8394 14.5437 2.09539 14.5437 1.36376 14.4429C0.644536 14.342 0.0988985 13.7747 0.0120954 13.1696C-0.0871082 12.4888 0.433705 11.7198 1.21493 11.4803C2.00856 11.2534 2.82701 11.1399 3.62064 10.913C6.79515 10.0305 8.46921 8.01337 8.79162 4.65994C8.87842 3.82789 8.85362 2.98324 8.91562 2.15119C8.96523 1.35695 9.31245 0.714013 9.98208 0.272772C10.9245 -0.344965 12.0901 0.134078 12.2513 1.23088C12.3505 1.73515 12.2885 2.23945 12.2885 2.35291Z" fill="#ADE2BF"/>
</svg>
