<svg width="128" height="128" viewBox="0 0 128 128" fill="none" xmlns="http://www.w3.org/2000/svg">
<path d="M18.3926 38.5957C18.3926 35.748 20.7011 33.4395 23.5488 33.4395H110.854C113.702 33.4395 116.011 35.748 116.011 38.5957V95.8099C116.011 98.6577 113.702 100.966 110.854 100.966H23.5488C20.7011 100.966 18.3926 98.6577 18.3926 95.8099V38.5957Z" fill="#181818"/>
<path d="M13.707 33.9102C13.707 31.0624 16.0156 28.7539 18.8633 28.7539H106.169C109.017 28.7539 111.325 31.0624 111.325 33.9102V91.1244C111.325 93.9721 109.017 96.2806 106.169 96.2806H18.8633C16.0156 96.2806 13.707 93.9721 13.707 91.1244V33.9102Z" fill="white"/>
<path fill-rule="evenodd" clip-rule="evenodd" d="M18.8633 27.0352H106.169C109.966 27.0352 113.044 30.1132 113.044 33.9102V91.1244C113.044 94.9213 109.966 97.9994 106.169 97.9994H18.8633C15.0663 97.9994 11.9883 94.9214 11.9883 91.1244V33.9102C11.9883 30.1132 15.0663 27.0352 18.8633 27.0352ZM18.8633 28.7539C16.0156 28.7539 13.707 31.0624 13.707 33.9102V91.1244C13.707 93.9721 16.0156 96.2806 18.8633 96.2806H106.169C109.017 96.2806 111.325 93.9721 111.325 91.1244V33.9102C111.325 31.0624 109.017 28.7539 106.169 28.7539H18.8633Z" fill="#181818"/>
<path d="M19.7559 44.7617C19.7559 42.8632 21.2949 41.3242 23.1934 41.3242H63.1662C65.0647 41.3242 66.6037 42.8632 66.6037 44.7617V66.4549C66.6037 68.3534 65.0647 69.8924 63.1662 69.8924H23.1934C21.2949 69.8924 19.7559 68.3534 19.7559 66.4549V44.7617Z" fill="#181818"/>
<path fill-rule="evenodd" clip-rule="evenodd" d="M19.0878 74.1445C19.0835 73.1953 19.8496 72.4223 20.7988 72.418L65.0114 72.219C65.9607 72.2148 66.7336 72.9808 66.7379 73.93C66.7422 74.8793 65.9761 75.6522 65.0269 75.6565L20.8143 75.8555C19.8651 75.8598 19.0921 75.0937 19.0878 74.1445Z" fill="#181818"/>
<path fill-rule="evenodd" clip-rule="evenodd" d="M19.3633 79.0879C19.3633 78.6133 19.748 78.2285 20.2227 78.2285H54.1873C54.6619 78.2285 55.0467 78.6133 55.0467 79.0879C55.0467 79.5625 54.6619 79.9473 54.1873 79.9473H20.2227C19.748 79.9473 19.3633 79.5625 19.3633 79.0879Z" fill="#181818"/>
<path fill-rule="evenodd" clip-rule="evenodd" d="M19.3633 87.6328C19.3633 87.1582 19.748 86.7734 20.2227 86.7734H54.1873C54.6619 86.7734 55.0467 87.1582 55.0467 87.6328C55.0467 88.1074 54.6619 88.4922 54.1873 88.4922H20.2227C19.748 88.4922 19.3633 88.1074 19.3633 87.6328Z" fill="#181818"/>
<path fill-rule="evenodd" clip-rule="evenodd" d="M19.3633 82.2891C19.3633 81.8144 19.748 81.4297 20.2227 81.4297H37.6442C38.1188 81.4297 38.5036 81.8144 38.5036 82.2891C38.5036 82.7637 38.1188 83.1484 37.6442 83.1484H20.2227C19.748 83.1484 19.3633 82.7637 19.3633 82.2891Z" fill="#181818"/>
<path fill-rule="evenodd" clip-rule="evenodd" d="M19.3633 90.2676C19.3633 89.793 19.748 89.4082 20.2227 89.4082H32.9594C33.434 89.4082 33.8188 89.793 33.8188 90.2676C33.8188 90.7422 33.434 91.127 32.9594 91.127H20.2227C19.748 91.127 19.3633 90.7422 19.3633 90.2676Z" fill="#181818"/>
<path fill-rule="evenodd" clip-rule="evenodd" d="M92.416 42.9336C92.416 42.459 92.8008 42.0742 93.2754 42.0742H107.403C107.878 42.0742 108.262 42.459 108.262 42.9336C108.262 43.4082 107.878 43.793 107.403 43.793H93.2754C92.8008 43.793 92.416 43.4082 92.416 42.9336Z" fill="#181818"/>
<path fill-rule="evenodd" clip-rule="evenodd" d="M92.416 46.4395C92.416 45.9648 92.8008 45.5801 93.2754 45.5801H100.987C101.462 45.5801 101.847 45.9648 101.847 46.4395C101.847 46.9141 101.462 47.2988 100.987 47.2988H93.2754C92.8008 47.2988 92.416 46.9141 92.416 46.4395Z" fill="#181818"/>
<path fill-rule="evenodd" clip-rule="evenodd" d="M92.416 77.752C92.416 77.2773 92.8008 76.8926 93.2754 76.8926H107.403C107.878 76.8926 108.262 77.2773 108.262 77.752C108.262 78.2266 107.878 78.6113 107.403 78.6113H93.2754C92.8008 78.6113 92.416 78.2266 92.416 77.752Z" fill="#181818"/>
<path fill-rule="evenodd" clip-rule="evenodd" d="M92.416 81.2578C92.416 80.7832 92.8008 80.3984 93.2754 80.3984H100.987C101.462 80.3984 101.847 80.7832 101.847 81.2578C101.847 81.7324 101.462 82.1172 100.987 82.1172H93.2754C92.8008 82.1172 92.416 81.7324 92.416 81.2578Z" fill="#181818"/>
<path fill-rule="evenodd" clip-rule="evenodd" d="M92.416 59.0117C92.416 58.5371 92.8008 58.1523 93.2754 58.1523H107.403C107.878 58.1523 108.262 58.5371 108.262 59.0117C108.262 59.4863 107.878 59.8711 107.403 59.8711H93.2754C92.8008 59.8711 92.416 59.4863 92.416 59.0117Z" fill="#181818"/>
<path fill-rule="evenodd" clip-rule="evenodd" d="M92.416 62.5176C92.416 62.043 92.8008 61.6582 93.2754 61.6582H100.987C101.462 61.6582 101.847 62.043 101.847 62.5176C101.847 62.9922 101.462 63.377 100.987 63.377H93.2754C92.8008 63.377 92.416 62.9922 92.416 62.5176Z" fill="#181818"/>
<path fill-rule="evenodd" clip-rule="evenodd" d="M73.7402 40.3379H87.6774C89.5759 40.3379 91.1149 41.8769 91.1149 43.7754V52.7986C91.1149 54.6971 89.5759 56.2361 87.6774 56.2361H73.7402C71.8418 56.2361 70.3027 54.697 70.3027 52.7986V43.7754C70.3027 41.8769 71.8418 40.3379 73.7402 40.3379ZM73.7402 42.0566C72.791 42.0566 72.0215 42.8262 72.0215 43.7754V52.7986C72.0215 53.7478 72.791 54.5173 73.7402 54.5173H87.6774C88.6266 54.5173 89.3961 53.7478 89.3961 52.7986V43.7754C89.3961 42.8262 88.6266 42.0566 87.6774 42.0566H73.7402Z" fill="#181818"/>
<path d="M47.3774 54.2586L43.2627 51.3193C42.1251 50.5067 40.5449 51.3199 40.5449 52.7179V58.5374C40.5449 59.9279 42.1102 60.7429 43.2493 59.9455L47.364 57.0652C48.3358 56.3849 48.3427 54.9481 47.3774 54.2586Z" fill="white"/>
<path fill-rule="evenodd" clip-rule="evenodd" d="M20.7176 32.5781H104.537C106.018 32.5781 107.218 33.7782 107.218 35.2586C107.218 36.739 106.018 37.9391 104.537 37.9391H20.7176C19.2372 37.9391 18.0371 36.739 18.0371 35.2586C18.0371 33.7782 19.2372 32.5781 20.7176 32.5781ZM20.7176 34.2969C20.1864 34.2969 19.7559 34.7275 19.7559 35.2586C19.7559 35.7898 20.1865 36.2204 20.7176 36.2204H104.537C105.068 36.2204 105.499 35.7898 105.499 35.2586C105.499 34.7275 105.068 34.2969 104.537 34.2969H20.7176Z" fill="#181818"/>
<path fill-rule="evenodd" clip-rule="evenodd" d="M73.7402 57.0762H87.6774C89.5759 57.0762 91.1149 58.6152 91.1149 60.5137V69.5369C91.1149 71.4353 89.5759 72.9744 87.6774 72.9744H73.7402C71.8418 72.9744 70.3027 71.4353 70.3027 69.5368V60.5137C70.3027 58.6152 71.8418 57.0762 73.7402 57.0762ZM73.7402 58.7949C72.791 58.7949 72.0215 59.5644 72.0215 60.5137V69.5368C72.0215 70.4861 72.791 71.2556 73.7402 71.2556H87.6774C88.6266 71.2556 89.3961 70.4861 89.3961 69.5369V60.5137C89.3961 59.5644 88.6266 58.7949 87.6774 58.7949H73.7402Z" fill="#181818"/>
<path fill-rule="evenodd" clip-rule="evenodd" d="M73.7402 74.8906H87.6774C89.5759 74.8906 91.1149 76.4297 91.1149 78.3281V87.3513C91.1149 89.2498 89.5759 90.7888 87.6774 90.7888H73.7402C71.8418 90.7888 70.3027 89.2498 70.3027 87.3513V78.3281C70.3027 76.4296 71.8418 74.8906 73.7402 74.8906ZM73.7402 76.6094C72.791 76.6094 72.0215 77.3789 72.0215 78.3281V87.3513C72.0215 88.3005 72.791 89.0701 73.7402 89.0701H87.6774C88.6266 89.0701 89.3961 88.3005 89.3961 87.3513V78.3281C89.3961 77.3789 88.6266 76.6094 87.6774 76.6094H73.7402Z" fill="#181818"/>
<path fill-rule="evenodd" clip-rule="evenodd" d="M79.9707 48.9745C79.9707 49.3222 80.362 49.5259 80.6468 49.3265L81.8483 48.4855C82.0912 48.3155 82.0929 47.9562 81.8516 47.7839L80.6502 46.9256C80.3658 46.7225 79.9707 46.9258 79.9707 47.2753V48.9745ZM81.6492 45.5271L82.8507 46.3853C84.0572 47.2472 84.0486 49.0433 82.8339 49.8936L81.6324 50.7346C80.2085 51.7314 78.252 50.7127 78.252 48.9745V47.2753C78.252 45.5278 80.2272 44.5113 81.6492 45.5271Z" fill="#181818"/>
<path fill-rule="evenodd" clip-rule="evenodd" d="M79.9707 66.3769C79.9707 66.7245 80.362 66.9282 80.6468 66.7289L81.8483 65.8879C82.0912 65.7178 82.0929 65.3586 81.8516 65.1862L80.6502 64.328C80.3658 64.1248 79.9707 64.3281 79.9707 64.6776V66.3769ZM81.6492 62.9294L82.8507 63.7876C84.0572 64.6495 84.0486 66.4456 82.8339 67.2959L81.6324 68.1369C80.2085 69.1337 78.252 68.115 78.252 66.3769V64.6776C78.252 62.9301 80.2272 61.9136 81.6492 62.9294Z" fill="#181818"/>
<path fill-rule="evenodd" clip-rule="evenodd" d="M79.9707 83.9628C79.9707 84.3104 80.362 84.5142 80.6468 84.3148L81.8483 83.4738C82.0912 83.3037 82.0929 82.9445 81.8516 82.7721L80.6502 81.9139C80.3658 81.7108 79.9707 81.9141 79.9707 82.2636V83.9628ZM81.6492 80.5153L82.8507 81.3736C84.0572 82.2355 84.0486 84.0315 82.8339 84.8819L81.6324 85.7229C80.2085 86.7196 78.252 85.7009 78.252 83.9628V82.2636C78.252 80.516 80.2272 79.4996 81.6492 80.5153Z" fill="#181818"/>
</svg>
