<svg width="16" height="16" viewBox="0 0 16 16" fill="none" xmlns="http://www.w3.org/2000/svg">
<path d="M15.5459 13.954C15.7573 14.1653 15.876 14.452 15.876 14.7509C15.876 15.0497 15.7573 15.3364 15.5459 15.5477C15.3346 15.7591 15.0479 15.8778 14.7491 15.8778C14.4502 15.8778 14.1635 15.7591 13.9522 15.5477L7.99999 9.59367L2.04593 15.5459C1.83458 15.7572 1.54794 15.8759 1.24905 15.8759C0.950166 15.8759 0.663522 15.7572 0.452177 15.5459C0.240833 15.3345 0.122101 15.0479 0.122101 14.749C0.122101 14.4501 0.240833 14.1635 0.452177 13.9521L6.40624 7.99992L0.454052 2.04586C0.242708 1.83451 0.123976 1.54787 0.123976 1.24898C0.123976 0.950097 0.242708 0.663452 0.454052 0.452108C0.665396 0.240763 0.952041 0.122031 1.25093 0.122031C1.54981 0.122031 1.83646 0.240763 2.0478 0.452108L7.99999 6.40617L13.9541 0.45117C14.1654 0.239826 14.452 0.121094 14.7509 0.121094C15.0498 0.121094 15.3365 0.239826 15.5478 0.45117C15.7591 0.662514 15.8779 0.949159 15.8779 1.24804C15.8779 1.54693 15.7591 1.83358 15.5478 2.04492L9.59374 7.99992L15.5459 13.954Z" fill="black"/>
</svg>
